<?xml version="1.0" encoding="UTF-8"?>
<svg width="40px" height="24px" viewBox="0 0 40 24" version="1.1" xmlns="http://www.w3.org/2000/svg" xmlns:xlink="http://www.w3.org/1999/xlink">
    <!-- Generator: Sketch 47.1 (45422) - http://www.bohemiancoding.com/sketch -->
    <title>frame.diamant.Dark</title>
    <desc>Created with Sketch.</desc>
    <defs></defs>
    <g id="khBikeFrames" stroke="none" stroke-width="1" fill="none" fill-rule="evenodd">
        <g id="frame.diamant.Dark" fill="#101010">
            <path d="M2.12180325,19.8963442 L11.8751584,4.56479326 L11.6709331,3.91850209 L11.3582131,2.92445228 C10.9720995,1.70173926 12.8165096,1.12531741 13.2026231,2.34961837 L36.0886245,0.00740835849 C36.6646038,-0.0561092011 37.0235936,0.298001193 37.1273018,0.717217087 L37.9202705,3.70571826 C38.0016415,3.89150713 38.0271697,4.10429095 37.9665403,4.3138989 C37.9170794,4.53144654 37.7894386,4.70453189 37.6266966,4.82680319 L19.5208443,23.5644833 C19.4474509,23.6676993 19.3533158,23.7550359 19.2464166,23.8233173 C18.9975169,24.0027544 18.7230891,24.0345132 18.4773805,23.9678198 C18.4039871,23.9551163 18.3321891,23.9312972 18.2635821,23.8979504 L2.42814125,20.6950775 C2.23668,20.6506152 2.09308407,20.5362836 2.03245467,20.3870173 C1.98778038,20.2790375 1.98618487,20.1520024 2.04681426,20.0217914 L2.12180325,19.8963442 Z M12.2532944,5.76845101 L3.27376177,19.8836407 L17.6158049,22.7848052 L12.2532944,5.76845101 Z M19.1363263,21.1841627 L35.9434331,3.79146697 L35.471162,2.00979942 L13.8408273,4.37582852 L19.1363263,21.1841627 Z" id="diamant"></path>
        </g>
    </g>
</svg>