<?xml version="1.0" encoding="UTF-8"?>
<svg width="40px" height="24px" viewBox="0 0 40 24" version="1.1" xmlns="http://www.w3.org/2000/svg" xmlns:xlink="http://www.w3.org/1999/xlink">
    <!-- Generator: Sketch 47.1 (45422) - http://www.bohemiancoding.com/sketch -->
    <title>frame.mixte.Dark</title>
    <desc>Created with Sketch.</desc>
    <defs></defs>
    <g id="khBikeFrames" stroke="none" stroke-width="1" fill="none" fill-rule="evenodd">
        <g id="frame.mixte.Dark" fill="#101010">
            <path d="M20.7817075,21.2392608 L18.7324809,14.6274201 C18.7420717,14.6241798 18.7580563,14.6209395 18.7692455,14.6176992 C21.0454535,14.050646 23.163414,11.9703707 23.2193601,11.9152855 L34.0649159,2.85539502 L34.4645311,4.06402848 L20.7817075,21.2392608 Z M4.0346348,19.1233422 C4.24243469,18.9386449 4.73795751,18.5498084 5.41410638,18.0329798 L5.42050022,18.0589023 C5.42050022,18.0589023 13.4016145,15.9883479 17.1787771,15.0211171 L19.5940512,22.8059479 C14.3862663,21.9780502 5.79933541,20.6057814 5.33897873,20.5101924 C5.03047581,20.4372855 4.17849626,19.4392719 4.0346348,19.1233422 L4.0346348,19.1233422 Z M16.8670773,14.0150026 C14.3910617,14.6501023 10.2062916,15.733984 7.5608391,16.416068 C9.97931013,14.6193194 13.1650423,12.2911608 15.7513517,10.4150247 L16.8670773,14.0150026 Z M36.9581298,6.51693875 L34.9872277,0.54991859 C34.8481617,0.127058893 34.3957973,-0.0981422476 33.9754021,0.0411908324 C33.5566054,0.182144065 33.3328209,0.642267259 33.471887,1.06512696 L33.7116561,1.78609464 L22.5272266,11.1311319 C22.5064466,11.1489536 20.51956,13.0963764 18.5214841,13.5953833 C18.4943103,13.6018639 18.4495534,13.6132049 18.4191826,13.6213057 L16.6416943,7.89082773 C16.5106205,7.46472773 16.0710438,7.23142583 15.6394595,7.36103799 C15.2206628,7.49551062 14.985689,7.9491532 15.1183613,8.37687336 L15.4220688,9.36030568 C3.27696443,18.1512509 3.11072452,18.5368471 3.04518763,18.7118236 C2.94768153,18.9791487 3.00682457,19.3031791 3.23380599,19.7211783 C3.58546734,20.3692392 4.42785613,21.3931753 5.124785,21.5422293 C5.76257081,21.6767019 19.7650865,23.8995506 20.3613124,23.9935194 C20.3884862,23.9983798 20.41566,24 20.4412354,24 C20.4620154,24 20.4748031,23.9805582 20.4939846,23.978938 C20.5275523,23.9821783 20.557923,23.9967597 20.5914907,23.9967597 C20.8712213,23.9967597 21.147755,23.8736281 21.3379718,23.6354658 L35.1870353,6.25285396 L35.4443875,7.02890681 C35.5546813,7.36913875 35.8679796,7.58461898 36.2004594,7.58461898 C36.2851778,7.58461898 36.3714947,7.56841746 36.4562131,7.54249503 C36.8734114,7.39992164 37.0987943,6.9414186 36.9581298,6.51693875 L36.9581298,6.51693875 Z" id="mixte"></path>
        </g>
    </g>
</svg>