<?xml version="1.0" encoding="utf-8"?>
<!-- Generator: Adobe Illustrator 22.0.1, SVG Export Plug-In . SVG Version: 6.00 Build 0)  -->
<svg version="1.1" id="Layer_1" xmlns="http://www.w3.org/2000/svg" xmlns:xlink="http://www.w3.org/1999/xlink" x="0px" y="0px"
	 viewBox="0 0 60.8 36.2" style="enable-background:new 0 0 60.8 36.2;" xml:space="preserve">
<style type="text/css">
	.st0{fill:#101010;}
	.st1{opacity:0.1;fill:none;stroke:#101010;stroke-width:2;stroke-miterlimit:10;}
	.st2{opacity:0.1;fill:none;stroke:#101010;stroke-linecap:round;stroke-miterlimit:10;}
	.st3{opacity:0.1;fill:#101010;}
	.st4{fill:#FFFFFF;}
	.st5{fill:#2B2B2B;}
</style>
<rect x="-60" y="120.3" class="st0" width="233" height="155.3"/>
<title>frame.mixte.Dark</title>
<desc>Created with Sketch.</desc>
<g id="khBikeFrames_1_">
	<g id="frame.mixte.Dark_1_">
		<path id="mixte_1_" class="st0" d="M-87.5,21.2l-2-6.6c0,0,0,0,0,0c2.3-0.6,4.4-2.6,4.5-2.7l10.8-9.1l0.4,1.2L-87.5,21.2z
			 M-104.3,19.1c0.2-0.2,0.7-0.6,1.4-1.1l0,0c0,0,8-2.1,11.8-3l2.4,7.8c-5.2-0.8-13.8-2.2-14.3-2.3
			C-103.3,20.4-104.1,19.4-104.3,19.1L-104.3,19.1z M-91.4,14c-2.5,0.6-6.7,1.7-9.3,2.4c2.4-1.8,5.6-4.1,8.2-6L-91.4,14z M-71.3,6.5
			l-2-6c-0.1-0.4-0.6-0.6-1-0.5c-0.4,0.1-0.6,0.6-0.5,1l0.2,0.7l-11.2,9.3c0,0-2,2-4,2.5c0,0-0.1,0-0.1,0l-1.8-5.7
			c-0.1-0.4-0.6-0.7-1-0.5c-0.4,0.1-0.7,0.6-0.5,1l0.3,1c-12.1,8.8-12.3,9.2-12.4,9.4c-0.1,0.3,0,0.6,0.2,1c0.4,0.6,1.2,1.7,1.9,1.8
			c0.6,0.1,14.6,2.4,15.2,2.5c0,0,0.1,0,0.1,0c0,0,0,0,0.1,0c0,0,0.1,0,0.1,0c0.3,0,0.6-0.1,0.7-0.4l13.8-17.4l0.3,0.8
			c0.1,0.3,0.4,0.6,0.8,0.6c0.1,0,0.2,0,0.3,0C-71.4,7.4-71.2,6.9-71.3,6.5L-71.3,6.5z"/>
	</g>
</g>
<g id="khBikeFrames_4_">
	<g id="frame.mixte.Dark_2_">
		<path id="mixte_2_" class="st0" d="M-36.4-201.9l-2-6.6c0,0,0,0,0,0c2.3-0.6,4.4-2.6,4.5-2.7l10.8-9.1l0.4,1.2L-36.4-201.9z
			 M-53.2-204c0.2-0.2,0.7-0.6,1.4-1.1l0,0c0,0,8-2.1,11.8-3l2.4,7.8c-5.2-0.8-13.8-2.2-14.3-2.3C-52.2-202.7-53-203.7-53.2-204
			L-53.2-204z M-40.3-209.1c-2.5,0.6-6.7,1.7-9.3,2.4c2.4-1.8,5.6-4.1,8.2-6L-40.3-209.1z M-20.2-216.6l-2-6c-0.1-0.4-0.6-0.6-1-0.5
			c-0.4,0.1-0.6,0.6-0.5,1l0.2,0.7l-11.2,9.3c0,0-2,2-4,2.5c0,0-0.1,0-0.1,0l-1.8-5.7c-0.1-0.4-0.6-0.7-1-0.5
			c-0.4,0.1-0.7,0.6-0.5,1l0.3,1c-12.1,8.8-12.3,9.2-12.4,9.4c-0.1,0.3,0,0.6,0.2,1c0.4,0.6,1.2,1.7,1.9,1.8
			c0.6,0.1,14.6,2.4,15.2,2.5c0,0,0.1,0,0.1,0c0,0,0,0,0.1,0c0,0,0.1,0,0.1,0c0.3,0,0.6-0.1,0.7-0.4l13.8-17.4l0.3,0.8
			c0.1,0.3,0.4,0.6,0.8,0.6c0.1,0,0.2,0,0.3,0C-20.3-215.8-20.1-216.2-20.2-216.6L-20.2-216.6z"/>
	</g>
</g>
<g id="khBikeFrames">
	<g id="frame.trapez.Dark">
		<path id="trapez" class="st0" d="M-57.9,19.9l9.8-15.4c-0.4-1.4,1.4-2,1.8-0.8l3,9.4l18.6-12.9c0.1-0.1,0.2-0.1,0.3-0.2
			c0.5-0.2,1.1,0,1.3,0.7c0.4,1.4,0.7,2.7,1,4c0.1,0.2,0.1,0.4,0,0.6c-0.1,0.2-0.2,0.4-0.4,0.5l-18.1,17.8c-0.1,0.1-0.2,0.2-0.3,0.2
			c-0.3,0.2-0.5,0.2-0.8,0.1c-0.1,0-0.1,0-0.2-0.1l-15.8-3.2c-0.2,0-0.3-0.2-0.4-0.3c0-0.1,0-0.2,0-0.4L-57.9,19.9z M-24.1,4.8
			l-0.6-2.2l-18.1,12.5l1.9,6.2L-24.1,4.8z M-42.4,22.8l-2.4-7.7l-0.1-0.2l-2.9-9.2l-9,14.2L-42.4,22.8z"/>
	</g>
</g>
<g id="khBikeFrames_5_">
	<g id="frame.trapez.Dark_1_">
		<path id="trapez_1_" class="st0" d="M-55.9-152.2l9.8-15.4c-0.4-1.4,1.4-2,1.8-0.8l3,9.4l18.6-12.9c0.1-0.1,0.2-0.1,0.3-0.2
			c0.5-0.2,1.1,0,1.3,0.7c0.4,1.4,0.7,2.7,1,4c0.1,0.2,0.1,0.4,0,0.6c-0.1,0.2-0.2,0.4-0.4,0.5l-18.1,17.8c-0.1,0.1-0.2,0.2-0.3,0.2
			c-0.3,0.2-0.5,0.2-0.8,0.1c-0.1,0-0.1,0-0.2-0.1l-15.8-3.2c-0.2,0-0.3-0.2-0.4-0.3c0-0.1,0-0.2,0-0.4L-55.9-152.2z M-22-167.3
			l-0.6-2.2L-40.7-157l1.9,6.2L-22-167.3z M-40.3-149.3l-2.4-7.7l-0.1-0.2l-2.9-9.2l-9,14.2L-40.3-149.3z"/>
	</g>
</g>
<g id="khBikeFrames_2_">
	<g id="frame.wave.Dark">
		<path id="wave" class="st0" d="M-90.6,49.4c0.1,0.1,0.2,0.2,0.3,0.3c2.1,1.9,5,2.6,7.8,2.6c4.4-3.4,9.1-8.9,9.1-16.5
			c0-1.4,1.6-1.6,1.9-0.3c0,0,0.7,2.3,1,3.3c0.4,1-0.7,1.6-1.4,1.3c-1.8,8.3-9.6,15.4-16.9,18.5c-0.3,0.1-0.6,0.1-0.8,0l-16.4-3.4
			c-0.2-0.1-0.4-0.2-0.4-0.3c0-0.1,0-0.3,0-0.4l10.1-16.4c-0.5-1.5,1.4-2.1,1.8-0.8L-90.6,49.4z M-90.2,57.4l-2.2-7.1
			c0-0.1-0.1-0.2-0.1-0.3l-3.3-10.7l-9.2,15L-90.2,57.4z M-85,54.2c-1.5-0.3-3.2-0.7-4.6-1.5l1.1,3.5C-87.7,55.8-86.4,55.2-85,54.2
			L-85,54.2z"/>
	</g>
</g>
<g id="khBikeFrames_6_">
	<g id="frame.wave.Dark_1_">
		<path id="wave_1_" class="st0" d="M-43.8-68.6c0.1,0.1,0.2,0.2,0.3,0.3c2.1,1.9,5,2.6,7.8,2.6c4.4-3.4,9.1-8.9,9.1-16.5
			c0-1.4,1.6-1.6,1.9-0.3c0,0,0.7,2.3,1,3.3c0.4,1-0.7,1.6-1.4,1.3c-1.8,8.3-9.6,15.4-16.9,18.5c-0.3,0.1-0.6,0.1-0.8,0L-59-62.9
			c-0.2-0.1-0.4-0.2-0.4-0.3c0-0.1,0-0.3,0-0.4L-49.3-80c-0.5-1.5,1.4-2.1,1.8-0.8L-43.8-68.6z M-43.4-60.6l-2.2-7.1
			c0-0.1-0.1-0.2-0.1-0.3l-3.3-10.7l-9.2,15L-43.4-60.6z M-38.2-63.8c-1.5-0.3-3.2-0.7-4.6-1.5l1.1,3.5
			C-40.9-62.2-39.6-62.9-38.2-63.8L-38.2-63.8z"/>
	</g>
</g>
<g id="khBikeFrames_3_">
	<g id="frame.diamant.Dark">
		<path id="diamant" class="st0" d="M-57.9,54.6l9.8-15.3l-0.2-0.6l-0.3-1c-0.4-1.2,1.5-1.8,1.8-0.6l22.9-2.3c0.6-0.1,0.9,0.3,1,0.7
			l0.8,3c0.1,0.2,0.1,0.4,0,0.6c0,0.2-0.2,0.4-0.3,0.5l-18.1,18.7c-0.1,0.1-0.2,0.2-0.3,0.3c-0.2,0.2-0.5,0.2-0.8,0.1
			c-0.1,0-0.1,0-0.2-0.1l-15.8-3.2c-0.2,0-0.3-0.2-0.4-0.3c0-0.1,0-0.2,0-0.4L-57.9,54.6z M-47.7,40.5l-9,14.1l14.3,2.9L-47.7,40.5z
			 M-40.9,55.9l16.8-17.4l-0.5-1.8l-21.6,2.4L-40.9,55.9z"/>
	</g>
</g>
<g id="khBikeFrames_7_">
	<g id="frame.diamant.Dark_1_">
		<path id="diamant_1_" class="st0" d="M-58.6-113.1l9.8-15.3l-0.2-0.6l-0.3-1c-0.4-1.2,1.5-1.8,1.8-0.6l22.9-2.3
			c0.6-0.1,0.9,0.3,1,0.7l0.8,3c0.1,0.2,0.1,0.4,0,0.6c0,0.2-0.2,0.4-0.3,0.5l-18.1,18.7c-0.1,0.1-0.2,0.2-0.3,0.3
			c-0.2,0.2-0.5,0.2-0.8,0.1c-0.1,0-0.1,0-0.2-0.1l-15.8-3.2c-0.2,0-0.3-0.2-0.4-0.3c0-0.1,0-0.2,0-0.4L-58.6-113.1z M-48.5-127.2
			l-9,14.1l14.3,2.9L-48.5-127.2z M-41.6-111.8l16.8-17.4l-0.5-1.8l-21.6,2.4L-41.6-111.8z"/>
	</g>
</g>
<circle class="st1" cx="-51.5" cy="-203.2" r="10.9"/>
<circle class="st1" cx="-54.2" cy="-152.2" r="10.9"/>
<circle class="st1" cx="-14.2" cy="-152.2" r="10.9"/>
<circle class="st1" cx="-58.7" cy="-63.4" r="10.9"/>
<circle class="st1" cx="-16.7" cy="-63.4" r="10.9"/>
<circle class="st1" cx="-58.4" cy="-113.4" r="10.9"/>
<circle class="st1" cx="-15.4" cy="-113.4" r="10.9"/>
<circle class="st1" cx="-14.5" cy="-203.2" r="10.9"/>
<path class="st2" d="M-23.5-177c0,0,5.2,22.5,9.3,24.8"/>
<path class="st2" d="M-24.3-227.1c0,0,6,20.8,9.8,24.8"/>
<path class="st2" d="M-25.5-137c0,0,5.2,20.5,9.3,22.8"/>
<path class="st2" d="M-26.5-87c0,0,5.2,20.5,9.3,22.8"/>
<g id="khBikeFrames_8_">
	<g id="frame.mixte.Dark_3_">
		<path id="mixte_3_" class="st0" d="M26.9,25.7l-2-6.6c0,0,0,0,0,0c2.3-0.6,4.4-2.6,4.5-2.7l10.8-9.1l0.4,1.2L26.9,25.7z
			 M10.2,23.5c0.2-0.2,0.7-0.6,1.4-1.1l0,0c0,0,8-2.1,11.8-3l2.4,7.8c-5.2-0.8-13.8-2.2-14.3-2.3C11.2,24.9,10.3,23.9,10.2,23.5
			L10.2,23.5z M23,18.4c-2.5,0.6-6.7,1.7-9.3,2.4c2.4-1.8,5.6-4.1,8.2-6L23,18.4z M43.1,10.9l-2-6c-0.1-0.4-0.6-0.6-1-0.5
			c-0.4,0.1-0.6,0.6-0.5,1l0.2,0.7l-11.2,9.3c0,0-2,2-4,2.5c0,0-0.1,0-0.1,0l-1.8-5.7c-0.1-0.4-0.6-0.7-1-0.5
			c-0.4,0.1-0.7,0.6-0.5,1l0.3,1C9.4,22.6,9.3,23,9.2,23.1c-0.1,0.3,0,0.6,0.2,1c0.4,0.6,1.2,1.7,1.9,1.8c0.6,0.1,14.6,2.4,15.2,2.5
			c0,0,0.1,0,0.1,0c0,0,0,0,0.1,0c0,0,0.1,0,0.1,0c0.3,0,0.6-0.1,0.7-0.4l13.8-17.4l0.3,0.8c0.1,0.3,0.4,0.6,0.8,0.6
			c0.1,0,0.2,0,0.3,0C43,11.8,43.2,11.4,43.1,10.9L43.1,10.9z"/>
	</g>
</g>
<path class="st3" d="M11.9,36.2C5.3,36.2,0,30.9,0,24.3s5.3-11.9,11.9-11.9s11.9,5.3,11.9,11.9S18.4,36.2,11.9,36.2z M11.9,14.4
	c-5.5,0-9.9,4.4-9.9,9.9s4.4,9.9,9.9,9.9s9.9-4.4,9.9-9.9S17.3,14.4,11.9,14.4z"/>
<path class="st3" d="M48.9,36.2c-6.6,0-11.9-5.3-11.9-11.9s5.3-11.9,11.9-11.9s11.9,5.3,11.9,11.9S55.4,36.2,48.9,36.2z M48.9,14.4
	c-5.5,0-9.9,4.4-9.9,9.9s4.4,9.9,9.9,9.9s9.9-4.4,9.9-9.9S54.3,14.4,48.9,14.4z"/>
<path class="st3" d="M48.9,25.8c-0.1,0-0.3-0.1-0.4-0.2c-3.9-4-9.7-24.2-9.9-25c-0.1-0.3,0.1-0.5,0.3-0.6c0.3-0.1,0.5,0.1,0.6,0.3
	c0.1,0.2,6,20.8,9.7,24.6c0.2,0.2,0.2,0.5,0,0.7C49.1,25.8,49,25.8,48.9,25.8z"/>
<g id="khBikeFrames_9_">
	<g id="frame.trapez.Dark_2_">
		<path id="trapez_2_" class="st0" d="M86.6,25.8l9.8-15.4c-0.4-1.4,1.4-2,1.8-0.8l3,9.4l18.6-12.9c0.1-0.1,0.2-0.1,0.3-0.2
			c0.5-0.2,1.1,0,1.3,0.7c0.4,1.4,0.7,2.7,1,4c0.1,0.2,0.1,0.4,0,0.6c-0.1,0.2-0.2,0.4-0.4,0.5L104,29.5c-0.1,0.1-0.2,0.2-0.3,0.2
			c-0.3,0.2-0.5,0.2-0.8,0.1c-0.1,0-0.1,0-0.2-0.1l-15.8-3.2c-0.2,0-0.3-0.2-0.4-0.3c0-0.1,0-0.2,0-0.4L86.6,25.8z M120.4,10.7
			l-0.6-2.2L101.8,21l1.9,6.2L120.4,10.7z M102.2,28.7L99.7,21l-0.1-0.2l-2.9-9.2l-9,14.2L102.2,28.7z"/>
	</g>
</g>
<path class="st3" d="M88.3,37.7c-6.6,0-11.9-5.3-11.9-11.9s5.3-11.9,11.9-11.9s11.9,5.3,11.9,11.9S94.8,37.7,88.3,37.7z M88.3,15.9
	c-5.5,0-9.9,4.4-9.9,9.9s4.4,9.9,9.9,9.9s9.9-4.4,9.9-9.9S93.7,15.9,88.3,15.9z"/>
<path class="st3" d="M128.3,37.7c-6.6,0-11.9-5.3-11.9-11.9s5.3-11.9,11.9-11.9c6.6,0,11.9,5.3,11.9,11.9S134.8,37.7,128.3,37.7z
	 M128.3,15.9c-5.5,0-9.9,4.4-9.9,9.9s4.4,9.9,9.9,9.9c5.5,0,9.9-4.4,9.9-9.9S133.7,15.9,128.3,15.9z"/>
<path class="st3" d="M128.3,26.3c-0.1,0-0.2,0-0.2-0.1c-4.1-2.4-9-22.8-9.5-25.1c-0.1-0.3,0.1-0.5,0.4-0.6c0.3-0.1,0.5,0.1,0.6,0.4
	c1.4,6.2,5.8,22.6,9,24.5c0.2,0.1,0.3,0.4,0.2,0.7C128.6,26.2,128.4,26.3,128.3,26.3z"/>
<g id="khBikeFrames_10_">
	<g id="frame.wave.Dark_2_">
		<path id="wave_2_" class="st0" d="M26.9,61.2c0.1,0.1,0.2,0.2,0.3,0.3c2.1,1.9,5,2.6,7.8,2.6c4.4-3.4,9.1-8.9,9.1-16.5
			c0-1.4,1.6-1.6,1.9-0.3c0,0,0.7,2.3,1,3.3c0.4,1-0.7,1.6-1.4,1.3c-1.8,8.3-9.6,15.4-16.9,18.5c-0.3,0.1-0.6,0.1-0.8,0l-16.4-3.4
			c-0.2-0.1-0.4-0.2-0.4-0.3c0-0.1,0-0.3,0-0.4l10.1-16.4c-0.5-1.5,1.4-2.1,1.8-0.8L26.9,61.2z M27.2,69.2l-2.2-7.1
			c0-0.1-0.1-0.2-0.1-0.3l-3.3-10.7l-9.2,15L27.2,69.2z M32.4,65.9c-1.5-0.3-3.2-0.7-4.6-1.5l1.1,3.5C29.8,67.6,31,66.9,32.4,65.9
			L32.4,65.9z"/>
	</g>
</g>
<path class="st3" d="M11.9,78.2C5.3,78.2,0,72.9,0,66.3s5.3-11.9,11.9-11.9s11.9,5.3,11.9,11.9S18.4,78.2,11.9,78.2z M11.9,56.5
	c-5.5,0-9.9,4.4-9.9,9.9s4.4,9.9,9.9,9.9s9.9-4.4,9.9-9.9S17.3,56.5,11.9,56.5z"/>
<path class="st3" d="M53.9,78.2c-6.6,0-11.9-5.3-11.9-11.9s5.3-11.9,11.9-11.9s11.9,5.3,11.9,11.9S60.4,78.2,53.9,78.2z M53.9,56.5
	c-5.5,0-9.9,4.4-9.9,9.9s4.4,9.9,9.9,9.9s9.9-4.4,9.9-9.9S59.3,56.5,53.9,56.5z"/>
<path class="st3" d="M53.4,66.1c-0.1,0-0.2,0-0.2-0.1c-4.2-2.4-9.3-22.3-9.5-23.1c-0.1-0.3,0.1-0.5,0.4-0.6c0.3-0.1,0.5,0.1,0.6,0.4
	c1.4,5.6,5.8,20.6,9,22.5c0.2,0.1,0.3,0.4,0.2,0.7C53.7,66,53.6,66.1,53.4,66.1z"/>
<g id="khBikeFrames_11_">
	<g id="frame.diamant.Dark_2_">
		<path id="diamant_2_" class="st0" d="M88,66.7l9.8-15.3l-0.2-0.6l-0.3-1c-0.4-1.2,1.5-1.8,1.8-0.6l22.9-2.3c0.6-0.1,0.9,0.3,1,0.7
			l0.8,3c0.1,0.2,0.1,0.4,0,0.6c0,0.2-0.2,0.4-0.3,0.5l-18.1,18.7c-0.1,0.1-0.2,0.2-0.3,0.3c-0.2,0.2-0.5,0.2-0.8,0.1
			c-0.1,0-0.1,0-0.2-0.1l-15.8-3.2c-0.2,0-0.3-0.2-0.4-0.3c0-0.1,0-0.2,0-0.4L88,66.7z M98.1,52.5l-9,14.1l14.3,2.9L98.1,52.5z
			 M105,68l16.8-17.4l-0.5-1.8l-21.6,2.4L105,68z"/>
	</g>
</g>
<path class="st3" d="M88.3,78.2c-6.6,0-11.9-5.3-11.9-11.9c0-6.6,5.3-11.9,11.9-11.9c6.6,0,11.9,5.3,11.9,11.9
	C100.2,72.9,94.8,78.2,88.3,78.2z M88.3,56.4c-5.5,0-9.9,4.4-9.9,9.9c0,5.5,4.4,9.9,9.9,9.9c5.5,0,9.9-4.4,9.9-9.9
	C98.2,60.9,93.7,56.4,88.3,56.4z"/>
<path class="st3" d="M130.9,78.2c-6.6,0-11.9-5.3-11.9-11.9c0-6.6,5.3-11.9,11.9-11.9c6.6,0,11.9,5.3,11.9,11.9
	C142.8,72.9,137.5,78.2,130.9,78.2z M130.9,56.4c-5.5,0-9.9,4.4-9.9,9.9c0,5.5,4.4,9.9,9.9,9.9c5.5,0,9.9-4.4,9.9-9.9
	C140.8,60.9,136.4,56.4,130.9,56.4z"/>
<path class="st3" d="M130,66.1c-0.1,0-0.2,0-0.2-0.1c-4.2-2.4-9.3-22.3-9.5-23.1c-0.1-0.3,0.1-0.5,0.4-0.6c0.3-0.1,0.5,0.1,0.6,0.4
	c1.4,5.6,5.8,20.6,9,22.5c0.2,0.1,0.3,0.4,0.2,0.7C130.4,66,130.2,66.1,130,66.1z"/>
<g>
	<g id="khBikeFrames_15_">
		<g id="frame.mixte.Dark_4_">
			<path id="mixte_4_" class="st4" d="M-9.8,177.5c0.2-0.2,0.7-0.6,1.4-1.1l0,0c0,0,8-2.1,11.8-3l2.4,7.8
				c-5.2-0.8-13.8-2.2-14.3-2.3C-8.8,178.8-9.7,177.8-9.8,177.5L-9.8,177.5z M3,172.4c-2.5,0.6-6.7,1.7-9.3,2.4
				c2.4-1.8,5.6-4.1,8.2-6L3,172.4z M23.1,164.9l-2-6c-0.1-0.4-0.6-0.6-1-0.5c-0.4,0.1-0.6,0.6-0.5,1l0.2,0.7l-11.2,9.3
				c0,0-2,2-4,2.5c0,0-0.1,0-0.1,0l-1.8-5.7c-0.1-0.4-0.6-0.7-1-0.5c-0.4,0.1-0.7,0.6-0.5,1l0.3,1c-12.1,8.8-12.3,9.2-12.4,9.4
				c-0.1,0.3,0,0.6,0.2,1c0.4,0.6,1.2,1.7,1.9,1.8c0.6,0.1,14.6,2.4,15.2,2.5c0,0,0.1,0,0.1,0c0,0,0,0,0.1,0c0,0,0.1,0,0.1,0
				c0.3,0,0.6-0.1,0.7-0.4l13.8-17.4l0.3,0.8c0.1,0.3,0.4,0.6,0.8,0.6c0.1,0,0.2,0,0.3,0C23,165.8,23.2,165.3,23.1,164.9L23.1,164.9
				z M6.9,179.6l-2-6.6c0,0,0,0,0,0c2.3-0.6,4.4-2.6,4.5-2.7l10.8-9.1l0.4,1.2L6.9,179.6z"/>
		</g>
	</g>
	<path class="st5" d="M-8.1,190.2c-6.6,0-11.9-5.3-11.9-11.9s5.3-11.9,11.9-11.9s11.9,5.3,11.9,11.9S-1.6,190.2-8.1,190.2z
		 M-8.1,168.4c-5.5,0-9.9,4.4-9.9,9.9s4.4,9.9,9.9,9.9s9.9-4.4,9.9-9.9S-2.7,168.4-8.1,168.4z"/>
	<path class="st5" d="M28.9,190.2c-6.6,0-11.9-5.3-11.9-11.9s5.3-11.9,11.9-11.9s11.9,5.3,11.9,11.9S35.4,190.2,28.9,190.2z
		 M28.9,168.4c-5.5,0-9.9,4.4-9.9,9.9s4.4,9.9,9.9,9.9s9.9-4.4,9.9-9.9S34.3,168.4,28.9,168.4z"/>
	<path class="st5" d="M28.9,179.8c-0.1,0-0.3-0.1-0.4-0.2c-3.9-4-9.7-24.2-9.9-25c-0.1-0.3,0.1-0.5,0.3-0.6c0.3-0.1,0.5,0.1,0.6,0.3
		c0.1,0.2,6,20.8,9.7,24.6c0.2,0.2,0.2,0.5,0,0.7C29.1,179.7,29,179.8,28.9,179.8z"/>
</g>
<g>
	<path class="st5" d="M68.3,191.6c-6.6,0-11.9-5.3-11.9-11.9s5.3-11.9,11.9-11.9s11.9,5.3,11.9,11.9S74.8,191.6,68.3,191.6z
		 M68.3,169.9c-5.5,0-9.9,4.4-9.9,9.9s4.4,9.9,9.9,9.9s9.9-4.4,9.9-9.9S73.7,169.9,68.3,169.9z"/>
	<path class="st5" d="M108.3,191.6c-6.6,0-11.9-5.3-11.9-11.9s5.3-11.9,11.9-11.9s11.9,5.3,11.9,11.9S114.8,191.6,108.3,191.6z
		 M108.3,169.9c-5.5,0-9.9,4.4-9.9,9.9s4.4,9.9,9.9,9.9s9.9-4.4,9.9-9.9S113.7,169.9,108.3,169.9z"/>
	<path class="st5" d="M108.3,180.2c-0.1,0-0.2,0-0.2-0.1c-4.1-2.4-9-22.8-9.5-25.1c-0.1-0.3,0.1-0.5,0.4-0.6
		c0.3-0.1,0.5,0.1,0.6,0.4c1.4,6.2,5.8,22.6,9,24.5c0.2,0.1,0.3,0.4,0.2,0.7C108.6,180.2,108.4,180.2,108.3,180.2z"/>
	<g id="khBikeFrames_14_">
		<g id="frame.trapez.Dark_3_">
			<path id="trapez_3_" class="st4" d="M100.4,164.6l-0.6-2.2l-18.1,12.5l1.9,6.2L100.4,164.6z M82.2,182.7l-2.4-7.7l-0.1-0.2
				l-2.9-9.2l-9,14.2L82.2,182.7z M66.6,179.8l9.8-15.4c-0.4-1.4,1.4-2,1.8-0.8l3,9.4l18.6-12.9c0.1-0.1,0.2-0.1,0.3-0.2
				c0.5-0.2,1.1,0,1.3,0.7c0.4,1.4,0.7,2.7,1,4c0.1,0.2,0.1,0.4,0,0.6c-0.1,0.2-0.2,0.4-0.4,0.5L84,183.5c-0.1,0.1-0.2,0.2-0.3,0.2
				c-0.3,0.2-0.5,0.2-0.8,0.1c-0.1,0-0.1,0-0.2-0.1l-15.8-3.2c-0.2,0-0.3-0.2-0.4-0.3c0-0.1,0-0.2,0-0.4L66.6,179.8z"/>
		</g>
	</g>
</g>
<g>
	<g id="khBikeFrames_13_">
		<g id="frame.wave.Dark_3_">
			<path id="wave_3_" class="st4" d="M7.2,223.1l-2.2-7.1c0-0.1-0.1-0.2-0.1-0.3L1.7,205l-9.2,15L7.2,223.1z M12.4,219.9
				c-1.5-0.3-3.2-0.7-4.6-1.5l1.1,3.5C9.8,221.5,11,220.8,12.4,219.9L12.4,219.9z M6.9,215.1c0.1,0.1,0.2,0.2,0.3,0.3
				c2.1,1.9,5,2.6,7.8,2.6c4.4-3.4,9.1-8.9,9.1-16.5c0-1.4,1.6-1.6,1.9-0.3c0,0,0.7,2.3,1,3.3c0.4,1-0.7,1.6-1.4,1.3
				c-1.8,8.3-9.6,15.4-16.9,18.5c-0.3,0.1-0.6,0.1-0.8,0l-16.4-3.4c-0.2-0.1-0.4-0.2-0.4-0.3c0-0.1,0-0.3,0-0.4l10.1-16.4
				c-0.5-1.5,1.4-2.1,1.8-0.8L6.9,215.1z"/>
		</g>
	</g>
	<path class="st5" d="M-8.1,232.2c-6.6,0-11.9-5.3-11.9-11.9s5.3-11.9,11.9-11.9s11.9,5.3,11.9,11.9S-1.6,232.2-8.1,232.2z
		 M-8.1,210.4c-5.5,0-9.9,4.4-9.9,9.9s4.4,9.9,9.9,9.9s9.9-4.4,9.9-9.9S-2.7,210.4-8.1,210.4z"/>
	<path class="st5" d="M33.9,232.2c-6.6,0-11.9-5.3-11.9-11.9s5.3-11.9,11.9-11.9s11.9,5.3,11.9,11.9S40.4,232.2,33.9,232.2z
		 M33.9,210.4c-5.5,0-9.9,4.4-9.9,9.9s4.4,9.9,9.9,9.9s9.9-4.4,9.9-9.9S39.3,210.4,33.9,210.4z"/>
	<path class="st5" d="M33.4,220c-0.1,0-0.2,0-0.2-0.1c-4.2-2.4-9.3-22.3-9.5-23.1c-0.1-0.3,0.1-0.5,0.4-0.6c0.3-0.1,0.5,0.1,0.6,0.4
		c1.4,5.6,5.8,20.6,9,22.5c0.2,0.1,0.3,0.4,0.2,0.7C33.7,219.9,33.6,220,33.4,220z"/>
</g>
<g>
	<g id="khBikeFrames_12_">
		<g id="frame.diamant.Dark_3_">
			<path id="diamant_3_" class="st4" d="M78.1,206.5l-9,14.1l14.3,2.9L78.1,206.5z M68,220.6l9.8-15.3l-0.2-0.6l-0.3-1
				c-0.4-1.2,1.5-1.8,1.8-0.6l22.9-2.3c0.6-0.1,0.9,0.3,1,0.7l0.8,3c0.1,0.2,0.1,0.4,0,0.6c0,0.2-0.2,0.4-0.3,0.5l-18.1,18.7
				c-0.1,0.1-0.2,0.2-0.3,0.3c-0.2,0.2-0.5,0.2-0.8,0.1c-0.1,0-0.1,0-0.2-0.1l-15.8-3.2c-0.2,0-0.3-0.2-0.4-0.3c0-0.1,0-0.2,0-0.4
				L68,220.6z M85,221.9l16.8-17.4l-0.5-1.8l-21.6,2.4L85,221.9z"/>
		</g>
	</g>
	<path class="st5" d="M68.3,232.2c-6.6,0-11.9-5.3-11.9-11.9c0-6.6,5.3-11.9,11.9-11.9c6.6,0,11.9,5.3,11.9,11.9
		C80.2,226.8,74.8,232.2,68.3,232.2z M68.3,210.4c-5.5,0-9.9,4.4-9.9,9.9c0,5.5,4.4,9.9,9.9,9.9c5.5,0,9.9-4.4,9.9-9.9
		C78.2,214.8,73.7,210.4,68.3,210.4z"/>
	<path class="st5" d="M110.9,232.2c-6.6,0-11.9-5.3-11.9-11.9c0-6.6,5.3-11.9,11.9-11.9s11.9,5.3,11.9,11.9
		C122.8,226.8,117.5,232.2,110.9,232.2z M110.9,210.4c-5.5,0-9.9,4.4-9.9,9.9c0,5.5,4.4,9.9,9.9,9.9s9.9-4.4,9.9-9.9
		C120.8,214.8,116.4,210.4,110.9,210.4z"/>
	<path class="st5" d="M110,220c-0.1,0-0.2,0-0.2-0.1c-4.2-2.4-9.3-22.3-9.5-23.1c-0.1-0.3,0.1-0.5,0.4-0.6c0.3-0.1,0.5,0.1,0.6,0.4
		c1.4,5.6,5.8,20.6,9,22.5c0.2,0.1,0.3,0.4,0.2,0.7C110.4,219.9,110.2,220,110,220z"/>
</g>
</svg>
