<?xml version="1.0" encoding="UTF-8"?>
<svg width="40px" height="24px" viewBox="0 0 40 24" version="1.1" xmlns="http://www.w3.org/2000/svg" xmlns:xlink="http://www.w3.org/1999/xlink">
    <!-- Generator: Sketch 47.1 (45422) - http://www.bohemiancoding.com/sketch -->
    <title>frame.trapez.Dark</title>
    <desc>Created with Sketch.</desc>
    <defs></defs>
    <g id="khBikeFrames" stroke="none" stroke-width="1" fill="none" fill-rule="evenodd">
        <g id="frame.trapez.Dark" fill="#101010">
            <path d="M2.12236561,19.8742454 L11.8884687,4.45963455 C11.4481086,3.0535236 13.294111,2.47322384 13.6818194,3.70396948 L16.6398908,13.1338405 L35.2818037,0.22535939 C35.3839162,0.152024805 35.4892197,0.104197902 35.5913322,0.0723132998 C36.0843441,-0.117400083 36.7241427,0.0531825386 36.891671,0.738701483 C37.2442783,2.15916051 37.5873124,3.47121188 37.9175825,4.68920368 C38.00374,4.88051129 38.0276726,5.09732659 37.9638523,5.31095342 C37.9112005,5.52936295 37.7803689,5.70472826 37.608054,5.82748398 L19.5277599,23.5856131 C19.4543666,23.6860496 19.3618271,23.7641669 19.2581191,23.8279361 C19.0060289,24.0080841 18.733197,24.0335918 18.4890844,23.9650399 C18.4140955,23.952286 18.3407021,23.9235899 18.2720953,23.8917053 L2.43029861,20.6761432 C2.23724217,20.633099 2.09364647,20.5167202 2.03301717,20.3684568 C1.98834295,20.2584549 1.98515194,20.1325107 2.04737674,20.0001896 L2.12236561,19.8742454 Z M35.9327709,4.76253827 L35.3472195,2.53221035 L17.2461838,15.0660474 L19.1767482,21.2197756 L35.9327709,4.76253827 Z M17.6354877,22.7725558 L15.2071249,15.0341628 L15.1480911,14.8444494 L12.2681995,5.67124943 L3.27591773,19.8598974 L17.6354877,22.7725558 Z" id="trapez"></path>
        </g>
    </g>
</svg>