<?xml version="1.0" encoding="UTF-8"?>
<svg width="40px" height="24px" viewBox="0 0 40 24" version="1.1" xmlns="http://www.w3.org/2000/svg" xmlns:xlink="http://www.w3.org/1999/xlink">
    <!-- Generator: Sketch 47.1 (45422) - http://www.bohemiancoding.com/sketch -->
    <title>frame.wave.Dark</title>
    <desc>Created with Sketch.</desc>
    <defs></defs>
    <g id="khBikeFrames" stroke="none" stroke-width="1" fill="none" fill-rule="evenodd">
        <g id="frame.wave.Dark" fill="#101010">
            <path d="M17.7264714,14.7392658 C17.7998646,14.8162218 17.9083588,14.9259249 18.0519542,15.053639 C20.1420641,16.9480653 23.093746,17.6979764 25.8364169,17.6865149 C30.1921422,14.2398708 34.9611029,8.73997653 34.9611029,1.17045843 C34.9611029,-0.20656184 36.513528,-0.445616489 36.9076174,0.86754672 C36.9076174,0.86754672 37.5857065,3.13037908 37.9319308,4.12916905 C38.2829417,5.13942055 37.1964036,5.77635383 36.500764,5.38011256 C34.6962492,13.6340474 26.945292,20.7614781 19.5979973,23.9035731 C19.2884696,24.034562 19.0252115,24.0231005 18.8066274,23.9232215 L2.43516352,20.4962257 C2.19743346,20.4421928 2.07617518,20.3177534 2.02671456,20.1671162 C1.98523147,20.0443142 1.99320898,19.9018638 2.0426696,19.7823365 L12.1645454,3.36615901 C11.7098268,1.87943558 13.6100717,1.26542535 14.0073522,2.56548967 L17.7264714,14.7392658 Z M18.0806732,22.7295856 L15.9267432,15.6791108 C15.8804736,15.5808692 15.8517545,15.4842649 15.837395,15.3876606 L12.5554438,4.64166293 L3.30630857,19.634974 L18.0806732,22.7295856 Z M23.3075435,19.512172 C21.7599049,19.2616558 20.1372776,18.7819092 18.7348298,18.0418222 L19.8070083,21.5506859 C20.6207152,21.1380711 21.8699946,20.4602038 23.3075435,19.512172 L23.3075435,19.512172 Z" id="wave"></path>
        </g>
    </g>
</svg>