<?xml version="1.0" encoding="utf-8"?>
<!-- Generator: Adobe Illustrator 22.0.1, SVG Export Plug-In . SVG Version: 6.00 Build 0)  -->
<svg version="1.1" id="Layer_1" xmlns="http://www.w3.org/2000/svg" xmlns:xlink="http://www.w3.org/1999/xlink" x="0px" y="0px"
	 viewBox="0 0 96 96" style="enable-background:new 0 0 96 96;" xml:space="preserve">
<style type="text/css">
	.st0{fill:none;stroke:#000000;stroke-width:8;stroke-miterlimit:10;}
	.st1{fill:none;stroke:#000000;stroke-width:6;stroke-miterlimit:10;}
	.st2{fill:none;stroke:#000000;stroke-width:4;stroke-miterlimit:10;}
	.st3{fill:none;stroke:#FFFFFF;stroke-width:8;stroke-miterlimit:10;}
	.st4{fill:none;stroke:#000000;stroke-width:8;stroke-linecap:round;stroke-linejoin:round;stroke-miterlimit:10;}
	.st5{fill:none;stroke:#000000;stroke-width:12;stroke-linecap:round;stroke-linejoin:round;stroke-miterlimit:10;}
	.st6{fill:none;stroke:#FFFFFF;stroke-width:6;stroke-miterlimit:10;}
	.st7{fill:none;stroke:#000000;stroke-width:10;stroke-miterlimit:10;}
	.st8{fill:none;stroke:#000000;stroke-width:10;stroke-miterlimit:10;stroke-dasharray:9.4223,9.4223;}
	.st9{fill:none;stroke:#000000;stroke-width:8;stroke-miterlimit:10;stroke-dasharray:9.4223,9.4223;}
	.st10{fill:none;stroke:#000000;stroke-width:6;stroke-miterlimit:10;stroke-dasharray:9.4223,9.4223;}
	.st11{fill:none;stroke:#000000;stroke-width:4;stroke-miterlimit:10;stroke-dasharray:9.4223,9.4223;}
</style>
<g>
	<path d="M51,30.3c1.4-1,2.9-1.9,4.5-2.6L54,24c-2.2,0.9-4.1,2.1-6,3.5C43.6,24.1,38,22,32,22C17.7,22,6,33.7,6,48s11.7,26,26,26
		s26-11.7,26-26C58,41.2,55.3,34.9,51,30.3z M48,63.1c-1.8-1.9-3.3-4.2-4.3-6.6L40,58c1.2,2.9,2.9,5.5,5,7.7
		c-3.6,2.7-8.1,4.3-13,4.3c-12.1,0-22-9.9-22-22s9.9-22,22-22s22,9.9,22,22C54,53.8,51.7,59.1,48,63.1z"/>
	<path d="M82.3,29.6l-2.8,2.8c2.1,2.1,3.7,4.4,4.8,7.1L88,38C86.7,34.8,84.8,32,82.3,29.6z"/>
	<path d="M72.4,68.3L74,72c3.2-1.3,6-3.2,8.4-5.6l-2.8-2.8C77.5,65.6,75.1,67.2,72.4,68.3z"/>
	<path d="M38,48L38,48h4c0-2.9,0.6-5.7,1.6-8.4l-3.7-1.5C38.7,41.2,38,44.6,38,48z"/>
	<path d="M86,48c0,2.9-0.6,5.7-1.7,8.4l3.7,1.5c1.3-3.2,2-6.5,2-9.9v-0.1L86,48z"/>
	<path d="M55.6,68.3L54.1,72c3.1,1.3,6.5,2,9.9,2l0,0v-2.2l0.2-1.8L64,70C61.1,70,58.3,69.4,55.6,68.3z"/>
	<path d="M64,22L64,22v4c2.9,0,5.7,0.6,8.4,1.6l1.5-3.7C70.7,22.7,67.4,22,64,22z"/>
</g>
</svg>
