<?xml version="1.0" encoding="utf-8"?>
<!-- Generator: Adobe Illustrator 22.0.1, SVG Export Plug-In . SVG Version: 6.00 Build 0)  -->
<svg version="1.1" id="Layer_1" xmlns="http://www.w3.org/2000/svg" xmlns:xlink="http://www.w3.org/1999/xlink" x="0px" y="0px"
	 viewBox="0 0 96 96" style="enable-background:new 0 0 96 96;" xml:space="preserve">
<style type="text/css">
	.st0{fill:none;stroke:#000000;stroke-width:8;stroke-miterlimit:10;}
	.st1{fill:none;stroke:#000000;stroke-width:6;stroke-miterlimit:10;}
	.st2{fill:none;stroke:#000000;stroke-width:4;stroke-miterlimit:10;}
	.st3{fill:none;stroke:#FFFFFF;stroke-width:8;stroke-miterlimit:10;}
	.st4{fill:none;stroke:#000000;stroke-width:8;stroke-linecap:round;stroke-linejoin:round;stroke-miterlimit:10;}
	.st5{fill:none;stroke:#000000;stroke-width:12;stroke-linecap:round;stroke-linejoin:round;stroke-miterlimit:10;}
	.st6{fill:none;stroke:#FFFFFF;stroke-width:6;stroke-miterlimit:10;}
	.st7{fill:none;stroke:#000000;stroke-width:10;stroke-miterlimit:10;}
	.st8{fill:none;stroke:#000000;stroke-width:10;stroke-miterlimit:10;stroke-dasharray:9.4223,9.4223;}
	.st9{fill:none;stroke:#000000;stroke-width:8;stroke-miterlimit:10;stroke-dasharray:9.4223,9.4223;}
	.st10{fill:none;stroke:#000000;stroke-width:6;stroke-miterlimit:10;stroke-dasharray:9.4223,9.4223;}
	.st11{fill:none;stroke:#000000;stroke-width:4;stroke-miterlimit:10;stroke-dasharray:9.4223,9.4223;}
</style>
<path d="M27.3,30l-1.7-8H14.3l0.9,4h7.2l6.2,28.7c0.9,3.6,4.2,6.1,7.8,6.1c0.6,0,1.3-0.1,1.9-0.2l37.6-9.4c3.6-0.9,6.1-4.1,6.1-7.8
	V30H27.3z M78,43.3c0,1.8-1.2,3.4-3,3.9l-37.6,9.4c-2.1,0.5-4.3-0.8-4.8-2.8L28.2,34H78V43.3z"/>
<polygon points="31.7,70 39.1,59 34.2,59 24.3,74 64,74 64,70 "/>
</svg>
