<?xml version="1.0" encoding="utf-8"?>
<!-- Generator: Adobe Illustrator 22.0.1, SVG Export Plug-In . SVG Version: 6.00 Build 0)  -->
<svg version="1.1" id="Layer_1" xmlns="http://www.w3.org/2000/svg" xmlns:xlink="http://www.w3.org/1999/xlink" x="0px" y="0px"
	 viewBox="0 0 96 96" style="enable-background:new 0 0 96 96;" xml:space="preserve">
<style type="text/css">
	.st0{fill:none;stroke:#000000;stroke-width:8;stroke-miterlimit:10;}
	.st1{fill:none;stroke:#000000;stroke-width:6;stroke-miterlimit:10;}
	.st2{fill:none;stroke:#000000;stroke-width:4;stroke-miterlimit:10;}
	.st3{fill:none;stroke:#FFFFFF;stroke-width:8;stroke-miterlimit:10;}
	.st4{fill:none;stroke:#000000;stroke-width:8;stroke-linecap:round;stroke-linejoin:round;stroke-miterlimit:10;}
	.st5{fill:none;stroke:#000000;stroke-width:12;stroke-linecap:round;stroke-linejoin:round;stroke-miterlimit:10;}
	.st6{fill:none;stroke:#FFFFFF;stroke-width:6;stroke-miterlimit:10;}
	.st7{fill:none;stroke:#000000;stroke-width:10;stroke-miterlimit:10;}
</style>
<path d="M27.3,30l-1.7-8H10.2l0.9,4h11.3l6.2,28.7c0.9,3.6,4.2,6.1,7.8,6.1c0.6,0,1.3-0.1,1.9-0.2l37.6-9.4c3.6-0.9,6.1-4.1,6.1-7.8
	V30H27.3z M78,43.3c0,1.8-1.2,3.4-3,3.9l-37.6,9.4c-2.1,0.5-4.3-0.8-4.8-2.8L28.2,34H78V43.3z"/>
<path d="M36,76c-1,0-2.1-0.4-2.8-1.2c-0.2-0.2-0.4-0.4-0.5-0.6c-0.1-0.2-0.3-0.5-0.4-0.7c-0.1-0.2-0.2-0.5-0.2-0.8
	C32,72.5,32,72.3,32,72s0-0.5,0.1-0.8c0-0.3,0.1-0.5,0.2-0.8c0.1-0.2,0.2-0.5,0.4-0.7c0.1-0.2,0.3-0.4,0.5-0.6
	c0.7-0.7,1.8-1.2,2.8-1.2c1,0,2.1,0.4,2.8,1.2c0.2,0.2,0.3,0.4,0.5,0.6c0.1,0.2,0.3,0.4,0.4,0.7c0.1,0.2,0.2,0.5,0.2,0.8
	S40,71.7,40,72s0,0.5-0.1,0.8c0,0.3-0.1,0.5-0.2,0.8c-0.1,0.2-0.2,0.5-0.4,0.7c-0.2,0.2-0.3,0.4-0.5,0.6C38.1,75.6,37,76,36,76z"/>
<path d="M56,76c-0.3,0-0.5,0-0.8-0.1s-0.5-0.1-0.8-0.2c-0.2-0.1-0.5-0.2-0.7-0.4c-0.2-0.1-0.4-0.3-0.6-0.5c-0.2-0.2-0.4-0.4-0.5-0.6
	c-0.1-0.2-0.3-0.5-0.4-0.7c-0.1-0.2-0.2-0.5-0.2-0.8c0-0.3-0.1-0.5-0.1-0.8s0-0.5,0.1-0.8s0.1-0.5,0.2-0.8c0.1-0.2,0.2-0.5,0.4-0.7
	c0.1-0.2,0.3-0.4,0.5-0.6c0.2-0.2,0.4-0.4,0.6-0.5c0.2-0.1,0.4-0.3,0.7-0.4c0.2-0.1,0.5-0.2,0.8-0.2c0.5-0.1,1-0.1,1.6,0
	c0.3,0,0.5,0.1,0.8,0.2c0.2,0.1,0.5,0.2,0.7,0.4c0.2,0.1,0.4,0.3,0.6,0.5c0.2,0.2,0.3,0.4,0.5,0.6c0.1,0.2,0.3,0.4,0.4,0.7
	c0.1,0.2,0.2,0.5,0.2,0.8S60,71.7,60,72s0,0.5-0.1,0.8c0,0.3-0.1,0.5-0.2,0.8c-0.1,0.2-0.2,0.5-0.4,0.7c-0.1,0.2-0.3,0.4-0.5,0.6
	C58.1,75.6,57,76,56,76z"/>
</svg>
