<?xml version="1.0" standalone="no"?>
<!DOCTYPE svg PUBLIC "-//W3C//DTD SVG 1.1//EN" "http://www.w3.org/Graphics/SVG/1.1/DTD/svg11.dtd" >
<svg xmlns="http://www.w3.org/2000/svg">
    <defs>
        <font id="Roboto-Medium">
            <font-face font-family="Roboto-Medium"
                       units-per-em="2048"
                       ascent="2146"
                       descent="-555"
                       bbox="-1006 -555 2418 2169"
                    />
            <missing-glyph horiz-adv-x="0" />
            
            <glyph glyph-name="!" unicode="&#x21;" horiz-adv-x="397" d=" M397,491 L154,491 L154,1456 L397,1456 M397,0 L154,0 L154,234 L397,234"/> 
            <glyph glyph-name="&quot;" unicode="&#x22;" horiz-adv-x="598" d=" M280,1287 L178,1038 L66,1038 L66,1562 L280,1562 M598,1287 L496,1038 L384,1038 L384,1562 L598,1562"/> 
            <glyph glyph-name="#" unicode="&#x23;" horiz-adv-x="1176" d=" M683,410 L458,410 L382,0 L215,0 L291,410 L60,410 L60,568 L321,568 L379,881 L136,881 L136,1040 L409,1040 L487,1456 L654,1456 L576,1040 L800,1040 L878,1456 L1046,1456 L968,1040 L1176,1040 L1176,881 L938,881 L880,568 L1101,568 L1101,410 L850,410 L774,0 L607,0 M488,568 L713,568 L771,881 L546,881"/> 
            <glyph glyph-name="$" unicode="&#x24;" horiz-adv-x="1062" d=" M819,380 Q819,465 763.5,521 Q708,577 578,623 Q367,695 261.5,796.5 Q156,898 156,1073 Q156,1239 257,1346 Q358,1453 531,1473 L531,1691 L691,1691 L691,1471 Q862,1445 958.5,1324.5 Q1055,1204 1055,1005 L813,1005 Q813,1130 757,1203 Q701,1276 603,1276 Q501,1276 450,1221.5 Q399,1167 399,1075 Q399,989 452.5,935 Q506,881 645,832 Q856,756 959,656 Q1062,556 1062,382 Q1062,209 957,106 Q852,3 670,-16 L670,-211 L511,-211 L511,-17 Q332,2 216.5,112.5 Q101,223 105,438 L107,443 L343,443 Q343,301 412.5,240 Q482,179 586,179 Q697,179 758,233 Q819,287 819,380"/> 
            <glyph glyph-name="%" unicode="&#x25;" horiz-adv-x="1417" d=" M100,1176 Q100,1304 182.5,1390.5 Q265,1477 408,1477 Q552,1477 634.5,1391 Q717,1305 717,1176 L717,1099 Q717,971 634.5,885.5 Q552,800 410,800 Q266,800 183,885.5 Q100,971 100,1099 M269,1099 Q269,1035 305.5,990.5 Q342,946 410,946 Q476,946 511.5,990 Q547,1034 547,1099 L547,1176 Q547,1241 510.5,1286 Q474,1331 408,1331 Q341,1331 305,1286 Q269,1241 269,1176 M800,357 Q800,484 883,570.5 Q966,657 1108,657 Q1252,657 1334.5,571 Q1417,485 1417,357 L1417,279 Q1417,150 1334.5,64.5 Q1252,-21 1110,-21 Q966,-21 883,65 Q800,151 800,279 M969,279 Q969,215 1006.5,170 Q1044,125 1110,125 Q1180,125 1214,168.5 Q1248,212 1248,279 L1248,357 Q1248,421 1211.5,466 Q1175,511 1108,511 Q1041,511 1005,466 Q969,421 969,357 M460,109 L335,181 L1046,1319 L1171,1247"/> 
            <glyph glyph-name="&amp;" unicode="&#x26;" horiz-adv-x="1267" d=" M62,393 Q62,513 130,601.5 Q198,690 334,780 Q261,875 225,952 Q189,1029 189,1109 Q189,1280 292,1378.5 Q395,1477 570,1477 Q729,1477 828.5,1381.5 Q928,1286 928,1151 Q928,1053 876.5,976.5 Q825,900 731,831 L631,759 L936,397 Q976,460 998.5,535 Q1021,610 1021,694 L1218,694 Q1218,557 1181.5,442 Q1145,327 1071,237 L1267,5 L1265,0 L991,0 L910,95 Q828,38 734.5,8.5 Q641,-21 537,-21 Q320,-21 191,94 Q62,209 62,393 M544,173 Q606,173 667,191 Q728,209 783,244 L455,631 L425,609 Q353,553 329,501 Q305,449 305,401 Q305,301 368,237 Q431,173 544,173 M417,1112 Q417,1064 441.5,1013 Q466,962 514,900 L628,976 Q685,1013 704.5,1053.5 Q724,1094 724,1143 Q724,1197 681.5,1239.5 Q639,1282 570,1282 Q496,1282 456.5,1233 Q417,1184 417,1112"/> 
            <glyph glyph-name="'" unicode="&#x27;" horiz-adv-x="280" d=" M280,1311 L178,1028 L66,1028 L66,1560 L280,1560"/> 
            <glyph glyph-name="(" unicode="&#x28;" horiz-adv-x="674" d=" M128,592 Q128,986 284.5,1262.5 Q441,1539 623,1624 L629,1623 L674,1489 Q540,1387 444.5,1162 Q349,937 349,594 L349,574 Q349,231 444,6 Q539,-219 674,-328 L629,-456 L623,-456 Q440,-370 284,-94 Q128,182 128,576"/> 
            <glyph glyph-name=")" unicode="&#x29;" horiz-adv-x="571" d=" M571,576 Q571,187 411.5,-92 Q252,-371 69,-456 L63,-456 L17,-328 Q150,-226 246,2 Q342,230 342,574 L342,594 Q342,934 243.5,1162.5 Q145,1391 17,1495 L63,1624 L69,1624 Q251,1540 411,1260 Q571,980 571,592"/> 
            <glyph glyph-name="*" unicode="&#x2A;" horiz-adv-x="866" d=" M325,972 L27,1061 L80,1230 L376,1113 L363,1456 L537,1456 L522,1106 L813,1221 L866,1050 L563,962 L758,696 L617,591 L440,878 L266,599 L123,701"/> 
            <glyph glyph-name="+" unicode="&#x2B;" horiz-adv-x="1066" d=" M686,801 L1066,801 L1066,579 L686,579 L686,146 L450,146 L450,579 L68,579 L68,801 L450,801 L450,1206 L686,1206"/> 
            <glyph glyph-name="," unicode="&#x2C;" horiz-adv-x="363" d=" M363,31 L208,-281 L54,-281 L124,40 L124,238 L363,238"/> 
            <glyph glyph-name="-" unicode="&#x2D;" horiz-adv-x="596" d=" M596,521 L71,521 L71,717 L596,717"/> 
            <glyph glyph-name="." unicode="&#x2E;" horiz-adv-x="395" d=" M395,0 L153,0 L153,233 L395,233"/> 
            <glyph glyph-name="/" unicode="&#x2F;" horiz-adv-x="798" d=" M225,-125 L2,-125 L575,1456 L798,1456"/> 
            <glyph glyph-name="0" unicode="&#x30;" horiz-adv-x="1059" d=" M1059,561 Q1059,277 931,128 Q803,-21 583,-21 Q362,-21 233,128 Q104,277 104,561 L104,894 Q104,1177 232,1327 Q360,1477 581,1477 Q801,1477 930,1327 Q1059,1177 1059,894 M816,931 Q816,1110 756,1196 Q696,1282 581,1282 Q466,1282 406.5,1196 Q347,1110 347,931 L347,526 Q347,346 407.5,259.5 Q468,173 583,173 Q698,173 757,259 Q816,345 816,526"/> 
            <glyph glyph-name="1" unicode="&#x31;" horiz-adv-x="718" d=" M718,0 L475,0 L475,1225 L179,1225 L179,1404 L718,1456"/> 
            <glyph glyph-name="2" unicode="&#x32;" horiz-adv-x="1076" d=" M1076,0 L109,0 L109,167 L583,684 Q699,811 743,892.5 Q787,974 787,1052 Q787,1150 730,1216 Q673,1282 576,1282 Q448,1282 386,1210 Q324,1138 324,1012 L89,1012 L87,1018 Q82,1212 214,1344.5 Q346,1477 576,1477 Q786,1477 908,1361 Q1030,1245 1030,1058 Q1030,933 959.5,819 Q889,705 741,542 L417,200 L420,194 L1076,194"/> 
            <glyph glyph-name="3" unicode="&#x33;" horiz-adv-x="1046" d=" M390,838 L559,838 Q677,838 729,896.5 Q781,955 781,1062 Q781,1167 725,1224.5 Q669,1282 560,1282 Q461,1282 398.5,1225.5 Q336,1169 336,1077 L102,1077 L100,1083 Q94,1250 224.5,1363.5 Q355,1477 557,1477 Q770,1477 897,1369 Q1024,1261 1024,1062 Q1024,969 967,882 Q910,795 805,747 Q929,703 987.5,613 Q1046,523 1046,408 Q1046,208 908.5,93.5 Q771,-21 557,-21 Q355,-21 217.5,86.5 Q80,194 86,384 L88,390 L322,390 Q322,293 387,233 Q452,173 560,173 Q673,173 738,234 Q803,295 803,407 Q803,530 743.5,588.5 Q684,647 559,647 L390,647"/> 
            <glyph glyph-name="4" unicode="&#x34;" horiz-adv-x="1113" d=" M929,519 L1113,519 L1113,323 L929,323 L929,0 L687,0 L687,323 L62,323 L56,472 L679,1456 L929,1456 M296,519 L687,519 L687,1110 L681,1112 L661,1069"/> 
            <glyph glyph-name="5" unicode="&#x35;" horiz-adv-x="1062" d=" M156,651 L240,1456 L1009,1456 L1009,1246 L442,1246 L398,881 Q441,913 497.5,933.5 Q554,954 625,956 Q830,958 946,826 Q1062,694 1062,465 Q1062,251 940,115 Q818,-21 587,-21 Q395,-21 262.5,84.5 Q130,190 135,384 L137,389 L364,397 Q364,291 426,232 Q488,173 587,173 Q700,173 759.5,252.5 Q819,332 819,463 Q819,595 758,677.5 Q697,760 584,760 Q484,760 435.5,727.5 Q387,695 365,634"/> 
            <glyph glyph-name="6" unicode="&#x36;" horiz-adv-x="1094" d=" M680,1477 Q758,1477 830,1460.5 Q902,1444 959,1417 L913,1229 Q857,1253 804,1266.5 Q751,1280 681,1280 Q535,1280 446.5,1167.5 Q358,1055 358,864 L358,857 Q418,912 497.5,942 Q577,972 672,972 Q867,972 980.5,835.5 Q1094,699 1094,488 Q1094,265 964,122 Q834,-21 623,-21 Q401,-21 258.5,135 Q116,291 116,571 L116,849 Q116,1133 276.5,1305 Q437,1477 680,1477 M612,783 Q520,783 456,750.5 Q392,718 358,662 L358,558 Q358,373 432.5,273 Q507,173 623,173 Q729,173 790,264 Q851,355 851,488 Q851,619 787,701 Q723,783 612,783"/> 
            <glyph glyph-name="7" unicode="&#x37;" horiz-adv-x="1075" d=" M1075,1261 Q824,966 736,729 Q648,492 608,154 L593,0 L350,0 L365,154 Q404,484 521,752.5 Q638,1021 840,1261 L69,1261 L69,1456 L1075,1456"/> 
            <glyph glyph-name="8" unicode="&#x38;" horiz-adv-x="1066" d=" M1029,1072 Q1029,962 969,877 Q909,792 806,747 Q925,701 995.5,609 Q1066,517 1066,397 Q1066,194 932,86.5 Q798,-21 583,-21 Q365,-21 231,86.5 Q97,194 97,397 Q97,517 166.5,609 Q236,701 357,748 Q253,792 194,876.5 Q135,961 135,1072 Q135,1266 257.5,1371.5 Q380,1477 581,1477 Q780,1477 904.5,1371.5 Q1029,1266 1029,1072 M824,409 Q824,516 755.5,583 Q687,650 581,650 Q473,650 406.5,583.5 Q340,517 340,409 Q340,299 406,236 Q472,173 583,173 Q690,173 757,236.5 Q824,300 824,409 M786,1063 Q786,1159 729,1220.5 Q672,1282 581,1282 Q487,1282 432.5,1222.5 Q378,1163 378,1063 Q378,964 433.5,904.5 Q489,845 583,845 Q675,845 730.5,904.5 Q786,964 786,1063"/> 
            <glyph glyph-name="9" unicode="&#x39;" horiz-adv-x="1047" d=" M515,173 Q645,173 725,269.5 Q805,366 805,551 L805,618 Q756,551 685.5,516.5 Q615,482 531,482 Q323,482 202.5,613.5 Q82,745 82,974 Q82,1192 217,1334.5 Q352,1477 551,1477 Q777,1477 912,1328.5 Q1047,1180 1047,901 L1047,560 Q1047,284 898.5,131.5 Q750,-21 515,-21 Q440,-21 360,-6 Q280,9 213,39 L245,225 Q306,197 370,185 Q434,173 515,173 M554,671 Q645,671 709,707 Q773,743 805,800 L805,930 Q805,1103 740,1192.5 Q675,1282 555,1282 Q457,1282 391,1194.5 Q325,1107 325,974 Q325,838 385.5,754.5 Q446,671 554,671"/> 
            <glyph glyph-name=":" unicode="&#x3A;" horiz-adv-x="395" d=" M395,0 L153,0 L153,233 L395,233 M395,876 L153,876 L153,1109 L395,1109"/> 
            <glyph glyph-name=";" unicode="&#x3B;" horiz-adv-x="414" d=" M396,876 L154,876 L154,1109 L396,1109 M414,31 L259,-281 L105,-281 L175,40 L175,238 L414,238"/> 
            <glyph glyph-name="&lt;" unicode="&#x3C;" horiz-adv-x="900" d=" M322,559 L303,556 L303,550 L322,547 L900,329 L900,86 L63,458 L63,651 L900,1023 L900,781"/> 
            <glyph glyph-name="=" unicode="&#x3D;" horiz-adv-x="1007" d=" M1007,790 L145,790 L145,992 L1007,992 M1007,366 L145,366 L145,567 L1007,567"/> 
            <glyph glyph-name="&gt;" unicode="&#x3E;" horiz-adv-x="992" d=" M128,784 L128,1023 L992,651 L992,458 L128,86 L128,325 L733,551 L751,553 L752,559 L733,563"/> 
            <glyph glyph-name="?" unicode="&#x3F;" horiz-adv-x="928" d=" M340,412 Q341,555 373,616.5 Q405,678 515,771 Q593,847 639,916.5 Q685,986 685,1070 Q685,1167 632.5,1220.5 Q580,1274 483,1274 Q400,1274 342,1228.5 Q284,1183 284,1094 L50,1094 L47,1100 Q44,1278 166.5,1377.5 Q289,1477 483,1477 Q693,1477 810.5,1370 Q928,1263 928,1073 Q928,946 854.5,837.5 Q781,729 669,639 Q612,589 597.5,544 Q583,499 583,412 M587,0 L339,0 L339,233 L587,233"/> 
            <glyph glyph-name="@" unicode="&#x40;" horiz-adv-x="1747" d=" M1731,507 Q1722,291 1607,135 Q1492,-21 1263,-21 Q1188,-21 1133.5,21 Q1079,63 1055,140 Q1008,60 939,20.5 Q870,-19 778,-19 Q645,-19 573.5,100.5 Q502,220 520,416 Q544,672 660.5,827 Q777,982 943,982 Q1053,982 1120.5,956 Q1188,930 1268,876 L1265,872 L1270,872 L1219,293 Q1211,192 1237,154 Q1263,116 1306,116 Q1425,116 1496.5,226.5 Q1568,337 1576,507 Q1592,874 1436,1079 Q1280,1284 952,1284 Q646,1284 462.5,1063 Q279,842 264,478 Q246,113 411.5,-97 Q577,-307 887,-307 Q974,-307 1064,-287 Q1154,-267 1218,-234 L1256,-364 Q1189,-406 1085.5,-429.5 Q982,-453 883,-453 Q496,-453 285,-203.5 Q74,46 91,478 Q109,902 343,1163 Q577,1424 956,1424 Q1339,1424 1543,1178 Q1747,932 1731,507 M721,416 Q711,283 741,214 Q771,145 840,145 Q899,145 949,169.5 Q999,194 1038,257 Q1038,265 1038.5,273 Q1039,281 1040,293 L1085,808 Q1062,817 1036,822.5 Q1010,828 982,828 Q864,828 802,725.5 Q740,623 721,416"/> 
            <glyph glyph-name="A" unicode="&#x41;" horiz-adv-x="1310" d=" M948,340 L378,340 L262,0 L16,0 L551,1456 L781,1456 L1310,0 L1063,0 M448,543 L879,543 L668,1165 L662,1165"/> 
            <glyph glyph-name="B" unicode="&#x42;" horiz-adv-x="1212" d=" M159,0 L159,1456 L643,1456 Q885,1456 1021,1356.5 Q1157,1257 1157,1059 Q1157,960 1100,882 Q1043,804 942,766 Q1072,737 1142,641 Q1212,545 1212,418 Q1212,213 1078,106.5 Q944,0 708,0 M402,662 L402,194 L708,194 Q834,194 902,251.5 Q970,309 970,418 Q970,534 913,598 Q856,662 735,662 M402,843 L670,843 Q783,843 848.5,896.5 Q914,950 914,1048 Q914,1156 845,1208.5 Q776,1261 643,1261 L402,1261"/> 
            <glyph glyph-name="C" unicode="&#x43;" horiz-adv-x="1228" d=" M1221,483 L1223,477 Q1227,256 1079.5,117.5 Q932,-21 680,-21 Q425,-21 265.5,150.5 Q106,322 106,589 L106,866 Q106,1132 263.5,1304.5 Q421,1477 673,1477 Q931,1477 1079.5,1341.5 Q1228,1206 1224,977 L1222,971 L987,971 Q987,1118 907.5,1200 Q828,1282 673,1282 Q524,1282 436.5,1164 Q349,1046 349,868 L349,589 Q349,409 438.5,291 Q528,173 680,173 Q831,173 909,254 Q987,335 987,483"/> 
            <glyph glyph-name="D" unicode="&#x44;" horiz-adv-x="1255" d=" M159,0 L159,1456 L631,1456 Q908,1456 1081.5,1283 Q1255,1110 1255,838 L1255,617 Q1255,344 1081.5,172 Q908,0 631,0 M402,1261 L402,194 L624,194 Q805,194 908.5,312 Q1012,430 1012,617 L1012,840 Q1012,1025 908.5,1143 Q805,1261 624,1261"/> 
            <glyph glyph-name="E" unicode="&#x45;" horiz-adv-x="1141" d=" M1039,655 L402,655 L402,194 L1141,194 L1141,0 L159,0 L159,1456 L1134,1456 L1134,1261 L402,1261 L402,850 L1039,850"/> 
            <glyph glyph-name="F" unicode="&#x46;" horiz-adv-x="1142" d=" M1040,621 L402,621 L402,0 L159,0 L159,1456 L1142,1456 L1142,1261 L402,1261 L402,816 L1040,816"/> 
            <glyph glyph-name="G" unicode="&#x47;" horiz-adv-x="1244" d=" M1244,197 Q1186,114 1053.5,46.5 Q921,-21 713,-21 Q450,-21 280,145.5 Q110,312 110,576 L110,880 Q110,1144 270.5,1310.5 Q431,1477 685,1477 Q942,1477 1084.5,1350.5 Q1227,1224 1230,1021 L1228,1015 L998,1015 Q990,1135 912.5,1208.5 Q835,1282 688,1282 Q537,1282 444.5,1169 Q352,1056 352,882 L352,576 Q352,400 452.5,286.5 Q553,173 713,173 Q827,173 898,199.5 Q969,226 1001,262 L1001,558 L712,558 L712,740 L1244,740"/> 
            <glyph glyph-name="H" unicode="&#x48;" horiz-adv-x="1296" d=" M1296,0 L1054,0 L1054,621 L402,621 L402,0 L159,0 L159,1456 L402,1456 L402,816 L1054,816 L1054,1456 L1296,1456"/> 
            <glyph glyph-name="I" unicode="&#x49;" horiz-adv-x="416" d=" M416,0 L173,0 L173,1456 L416,1456"/> 
            <glyph glyph-name="J" unicode="&#x4A;" horiz-adv-x="998" d=" M755,1456 L998,1456 L998,421 Q998,217 868,98 Q738,-21 534,-21 Q315,-21 187,88 Q59,197 64,407 L66,413 L301,413 Q301,289 362.5,231 Q424,173 534,173 Q630,173 692.5,240 Q755,307 755,421"/> 
            <glyph glyph-name="K" unicode="&#x4B;" horiz-adv-x="1327" d=" M570,630 L402,630 L402,0 L159,0 L159,1456 L402,1456 L402,839 L541,839 L998,1456 L1286,1456 L756,761 L1327,0 L1030,0"/> 
            <glyph glyph-name="L" unicode="&#x4C;" horiz-adv-x="1071" d=" M402,194 L1071,194 L1071,0 L159,0 L159,1456 L402,1456"/> 
            <glyph glyph-name="M" unicode="&#x4D;" horiz-adv-x="1634" d=" M474,1456 L893,336 L899,336 L1319,1456 L1634,1456 L1634,0 L1391,0 L1391,496 L1415,1127 L1409,1128 L977,0 L814,0 L384,1125 L378,1124 L402,496 L402,0 L159,0 L159,1456"/> 
            <glyph glyph-name="N" unicode="&#x4E;" horiz-adv-x="1296" d=" M1296,0 L1054,0 L408,1063 L402,1061 L402,0 L159,0 L159,1456 L402,1456 L1048,394 L1054,396 L1054,1456 L1296,1456"/> 
            <glyph glyph-name="O" unicode="&#x4F;" horiz-adv-x="1294" d=" M1294,597 Q1294,330 1126.5,154.5 Q959,-21 692,-21 Q430,-21 266.5,154.5 Q103,330 103,597 L103,859 Q103,1125 266.5,1301 Q430,1477 691,1477 Q958,1477 1126,1301 Q1294,1125 1294,859 M1052,861 Q1052,1043 954.5,1160 Q857,1277 691,1277 Q531,1277 438,1160 Q345,1043 345,861 L345,597 Q345,413 438,295.5 Q531,178 692,178 Q859,178 955.5,295 Q1052,412 1052,597"/> 
            <glyph glyph-name="P" unicode="&#x50;" horiz-adv-x="1242" d=" M402,552 L402,0 L159,0 L159,1456 L728,1456 Q969,1456 1105.5,1331.5 Q1242,1207 1242,1004 Q1242,799 1105.5,675.5 Q969,552 728,552 M402,747 L728,747 Q863,747 931,819 Q999,891 999,1002 Q999,1113 931,1187 Q863,1261 728,1261 L402,1261"/> 
            <glyph glyph-name="Q" unicode="&#x51;" horiz-adv-x="1360" d=" M1294,597 Q1294,462 1248,346 Q1202,230 1118,146 L1360,-89 L1198,-234 L930,22 Q876,0 816,-10.5 Q756,-21 692,-21 Q430,-21 266.5,154.5 Q103,330 103,597 L103,859 Q103,1125 266.5,1301 Q430,1477 691,1477 Q958,1477 1126,1301 Q1294,1125 1294,859 M1052,861 Q1052,1043 954.5,1160 Q857,1277 691,1277 Q531,1277 438,1160 Q345,1043 345,861 L345,597 Q345,413 438,295.5 Q531,178 692,178 Q859,178 955.5,295 Q1052,412 1052,597"/> 
            <glyph glyph-name="R" unicode="&#x52;" horiz-adv-x="1279" d=" M402,604 L402,0 L159,0 L159,1456 L697,1456 Q941,1456 1074,1346 Q1207,1236 1207,1032 Q1207,919 1148.5,837.5 Q1090,756 978,707 Q1101,668 1155,579.5 Q1209,491 1209,362 L1209,241 Q1209,177 1225,116 Q1241,55 1279,23 L1279,0 L1029,0 Q989,33 977.5,104 Q966,175 966,243 L966,360 Q966,472 902,538 Q838,604 726,604 M402,799 L684,799 Q830,799 897,855 Q964,911 964,1026 Q964,1136 898,1198.5 Q832,1261 697,1261 L402,1261"/> 
            <glyph glyph-name="S" unicode="&#x53;" horiz-adv-x="1191" d=" M948,374 Q948,465 880.5,523 Q813,581 642,627 Q398,691 266.5,796.5 Q135,902 135,1073 Q135,1249 280.5,1363 Q426,1477 656,1477 Q896,1477 1041.5,1348 Q1187,1219 1182,1038 L1180,1032 L947,1032 Q947,1144 871,1213.5 Q795,1283 654,1283 Q521,1283 449.5,1225 Q378,1167 378,1075 Q378,992 455.5,937 Q533,882 712,833 Q947,770 1069,659 Q1191,548 1191,376 Q1191,194 1045.5,86.5 Q900,-21 663,-21 Q435,-21 263,99.5 Q91,220 96,430 L98,436 L332,436 Q332,303 424,237.5 Q516,172 663,172 Q798,172 873,226.5 Q948,281 948,374"/> 
            <glyph glyph-name="T" unicode="&#x54;" horiz-adv-x="1154" d=" M1154,1261 L714,1261 L714,0 L471,0 L471,1261 L31,1261 L31,1456 L1154,1456"/> 
            <glyph glyph-name="U" unicode="&#x55;" horiz-adv-x="1265" d=" M1265,1456 L1265,480 Q1265,238 1107,108.5 Q949,-21 694,-21 Q444,-21 289,109 Q134,239 134,480 L134,1456 L377,1456 L377,480 Q377,327 463,250 Q549,173 694,173 Q844,173 933,250 Q1022,327 1022,480 L1022,1456"/> 
            <glyph glyph-name="V" unicode="&#x56;" horiz-adv-x="1285" d=" M621,381 L647,280 L653,280 L678,379 L1026,1456 L1285,1456 L765,0 L534,0 L15,1456 L274,1456"/> 
            <glyph glyph-name="W" unicode="&#x57;" horiz-adv-x="1763" d=" M512,388 L512,386 L513,391 L804,1456 L998,1456 L1292,388 L1293,381 L1294,391 L1524,1456 L1763,1456 L1417,0 L1196,0 L905,1045 L899,1045 L607,0 L385,0 L40,1456 L279,1456"/> 
            <glyph glyph-name="X" unicode="&#x58;" horiz-adv-x="1262" d=" M650,918 L957,1456 L1245,1456 L797,734 L1262,0 L970,0 L654,547 L338,0 L50,0 L508,734 L60,1456 L346,1456"/> 
            <glyph glyph-name="Y" unicode="&#x59;" horiz-adv-x="1257" d=" M634,748 L986,1456 L1257,1456 L752,511 L752,0 L510,0 L510,524 L13,1456 L284,1456"/> 
            <glyph glyph-name="Z" unicode="&#x5A;" horiz-adv-x="1137" d=" M377,194 L1137,194 L1137,0 L88,0 L88,152 L819,1261 L94,1261 L94,1456 L1112,1456 L1112,1310"/> 
            <glyph glyph-name="[" unicode="&#x5B;" horiz-adv-x="540" d=" M540,1488 L375,1488 L375,-135 L540,-135 L540,-324 L132,-324 L132,1678 L540,1678"/> 
            <glyph glyph-name="\" unicode="&#x5C;" horiz-adv-x="865" d=" M21,1456 L257,1456 L865,-125 L629,-125"/> 
            <glyph glyph-name="]" unicode="&#x5D;" horiz-adv-x="422" d=" M12,1678 L422,1678 L422,-324 L12,-324 L12,-135 L179,-135 L179,1488 L12,1488"/> 
            <glyph glyph-name="^" unicode="&#x5E;" horiz-adv-x="821" d=" M259,729 L53,729 L352,1456 L523,1456 L821,729 L616,729 L451,1142 L439,1196 L433,1196 L421,1142"/> 
            <glyph glyph-name="_" unicode="&#x5F;" horiz-adv-x="920" d=" M920,-191 L3,-191 L3,0 L920,0"/> 
            <glyph glyph-name="`" unicode="&#x60;" horiz-adv-x="535" d=" M535,1212 L339,1212 L80,1472 L82,1478 L350,1478"/> 
            <glyph glyph-name="a" unicode="&#x61;" horiz-adv-x="1025" d=" M779,0 Q766,41 757.5,80 Q749,119 746,158 Q696,82 614.5,30.5 Q533,-21 432,-21 Q263,-21 172.5,66 Q82,153 82,305 Q82,462 206,549.5 Q330,637 555,637 L744,637 L744,732 Q744,817 694,865 Q644,913 551,913 Q468,913 419,873 Q370,833 370,770 L136,770 L135,776 Q128,904 249.5,1003 Q371,1102 566,1102 Q755,1102 871,1006 Q987,910 987,730 L987,249 Q987,182 996,120.5 Q1005,59 1025,0 M481,174 Q573,174 646.5,220 Q720,266 744,325 L744,485 L551,485 Q445,485 385,432.5 Q325,380 325,309 Q325,247 365.5,210.5 Q406,174 481,174"/> 
            <glyph glyph-name="b" unicode="&#x62;" horiz-adv-x="1078" d=" M1078,505 Q1078,268 967.5,123.5 Q857,-21 656,-21 Q555,-21 480.5,20 Q406,61 356,140 L332,0 L128,0 L128,1560 L371,1560 L371,959 Q421,1028 491,1065 Q561,1102 654,1102 Q857,1102 967.5,944 Q1078,786 1078,526 M835,526 Q835,695 777,799 Q719,903 593,903 Q512,903 457.5,867 Q403,831 371,767 L371,313 Q402,248 457,212.5 Q512,177 595,177 Q721,177 778,265.5 Q835,354 835,505"/> 
            <glyph glyph-name="c" unicode="&#x63;" horiz-adv-x="1013" d=" M575,173 Q664,173 725,225.5 Q786,278 786,357 L1006,357 L1008,351 Q1013,199 884.5,89 Q756,-21 575,-21 Q336,-21 208.5,133 Q81,287 81,523 L81,558 Q81,793 208.5,947.5 Q336,1102 575,1102 Q770,1102 891.5,988.5 Q1013,875 1009,700 L1007,694 L786,694 Q786,783 727.5,845 Q669,907 575,907 Q438,907 381,807.5 Q324,708 324,558 L324,523 Q324,370 381,271.5 Q438,173 575,173"/> 
            <glyph glyph-name="d" unicode="&#x64;" horiz-adv-x="1027" d=" M83,526 Q83,785 194,943.5 Q305,1102 506,1102 Q594,1102 663.5,1066.5 Q733,1031 784,965 L784,1560 L1027,1560 L1027,0 L823,0 L799,134 Q747,58 674,18.5 Q601,-21 504,-21 Q305,-21 194,124 Q83,269 83,505 M326,505 Q326,355 383.5,266 Q441,177 566,177 Q643,177 696.5,210 Q750,243 784,304 L784,776 Q750,836 696,869.5 Q642,903 568,903 Q444,903 385,798.5 Q326,694 326,526"/> 
            <glyph glyph-name="e" unicode="&#x65;" horiz-adv-x="1016" d=" M592,-21 Q362,-21 225.5,129.5 Q89,280 89,516 L89,556 Q89,792 224.5,947.5 Q360,1103 564,1102 Q783,1102 899.5,969.5 Q1016,837 1016,614 L1016,471 L341,471 L339,466 Q345,337 414.5,255 Q484,173 607,173 Q705,173 775,197 Q845,221 910,266 L988,107 Q927,53 826,16 Q725,-21 592,-21 M564,907 Q474,907 416,835.5 Q358,764 344,654 L346,649 L775,649 L775,674 Q775,777 722.5,842 Q670,907 564,907"/> 
            <glyph glyph-name="f" unicode="&#x66;" horiz-adv-x="730" d=" M207,0 L207,902 L42,902 L42,1082 L207,1082 L207,1208 Q207,1387 304.5,1484 Q402,1581 578,1581 Q613,1581 649,1575.5 Q685,1570 730,1560 L705,1372 Q685,1376 660.5,1379 Q636,1382 608,1382 Q529,1382 489.5,1337 Q450,1292 450,1208 L450,1082 L670,1082 L670,902 L450,902 L450,0"/> 
            <glyph glyph-name="g" unicode="&#x67;" horiz-adv-x="1032" d=" M84,526 Q84,784 197,943 Q310,1102 511,1102 Q608,1102 681.5,1060.5 Q755,1019 806,941 L830,1082 L1032,1082 L1032,0 Q1032,-209 903,-323 Q774,-437 537,-437 Q458,-437 366.5,-414.5 Q275,-392 201,-355 L253,-164 Q313,-195 385.5,-212.5 Q458,-230 535,-230 Q667,-230 728,-173.5 Q789,-117 789,0 L789,111 Q738,46 668.5,12.5 Q599,-21 509,-21 Q310,-21 197,124 Q84,269 84,505 M327,505 Q327,356 386.5,266.5 Q446,177 571,177 Q649,177 702.5,209.5 Q756,242 789,303 L789,777 Q755,836 701.5,869.5 Q648,903 573,903 Q448,903 387.5,798 Q327,693 327,526"/> 
            <glyph glyph-name="h" unicode="&#x68;" horiz-adv-x="1036" d=" M368,942 Q422,1018 499.5,1060 Q577,1102 671,1102 Q843,1102 939.5,993.5 Q1036,885 1036,659 L1036,0 L793,0 L793,661 Q793,789 742,846 Q691,903 589,903 Q518,903 461.5,873.5 Q405,844 368,792 L368,0 L125,0 L125,1560 L368,1560"/> 
            <glyph glyph-name="i" unicode="&#x69;" horiz-adv-x="387" d=" M387,0 L144,0 L144,1082 L387,1082 M387,1347 L144,1347 L144,1560 L387,1560"/> 
            <glyph glyph-name="j" unicode="&#x6A;" horiz-adv-x="398" d=" M398,1082 L398,-63 Q398,-242 305,-339.5 Q212,-437 46,-437 Q10,-437 -19,-433 Q-48,-429 -80,-420 L-66,-226 Q-49,-231 -24,-234.5 Q1,-238 22,-238 Q84,-238 119.5,-195.5 Q155,-153 155,-63 L155,1082 M392,1347 L149,1347 L149,1560 L392,1560"/> 
            <glyph glyph-name="k" unicode="&#x6B;" horiz-adv-x="1084" d=" M480,473 L371,473 L371,0 L129,0 L129,1560 L371,1560 L371,668 L472,668 L745,1082 L1031,1082 L674,590 L1084,0 L802,0"/> 
            <glyph glyph-name="l" unicode="&#x6C;" horiz-adv-x="387" d=" M387,0 L144,0 L144,1560 L387,1560"/> 
            <glyph glyph-name="m" unicode="&#x6D;" horiz-adv-x="1653" d=" M350,1082 L363,941 Q416,1018 496,1060 Q576,1102 681,1102 Q787,1102 863,1054 Q939,1006 977,910 Q1027,1000 1109,1051 Q1191,1102 1301,1102 Q1464,1102 1558.5,990.5 Q1653,879 1653,652 L1653,0 L1410,0 L1410,653 Q1410,791 1362.5,847 Q1315,903 1220,903 Q1142,903 1088,861 Q1034,819 1010,748 Q1010,733 1011,722 Q1012,711 1012,701 L1012,0 L769,0 L769,653 Q769,786 720.5,844.5 Q672,903 578,903 Q504,903 452.5,874.5 Q401,846 371,794 L371,0 L128,0 L128,1082"/> 
            <glyph glyph-name="n" unicode="&#x6E;" horiz-adv-x="1035" d=" M348,1082 L362,926 Q415,1009 495.5,1055.5 Q576,1102 677,1102 Q846,1102 940.5,999.5 Q1035,897 1035,680 L1035,0 L792,0 L792,678 Q792,800 741.5,851.5 Q691,903 588,903 Q517,903 461,871.5 Q405,840 369,785 L369,0 L126,0 L126,1082"/> 
            <glyph glyph-name="o" unicode="&#x6F;" horiz-adv-x="1076" d=" M83,551 Q83,792 215,947 Q349,1102 578,1102 Q811,1102 943,947 Q1076,793 1076,551 L1076,530 Q1076,286 943,132 Q811,-21 580,-21 Q348,-21 215,133 Q83,287 83,530 M326,530 Q326,372 388,272 Q449,173 580,173 Q707,173 770,272 Q834,372 834,530 L834,551 Q834,706 770,806 Q707,907 578,907 Q451,907 388,806 Q326,705 326,551"/> 
            <glyph glyph-name="p" unicode="&#x70;" horiz-adv-x="1076" d=" M1076,505 Q1076,269 965,124 Q854,-21 656,-21 Q564,-21 493,12 Q422,45 371,109 L371,-416 L128,-416 L128,1082 L333,1082 L357,946 Q409,1022 482.5,1062 Q556,1102 653,1102 Q853,1102 964.5,943.5 Q1076,785 1076,526 M834,526 Q834,692 771.5,797.5 Q709,903 585,903 Q509,903 456,870.5 Q403,838 371,780 L371,291 Q403,234 456,203.5 Q509,173 587,173 Q711,173 772.5,264.5 Q834,356 834,505"/> 
            <glyph glyph-name="q" unicode="&#x71;" horiz-adv-x="1020" d=" M83,526 Q83,785 194,943.5 Q305,1102 506,1102 Q600,1102 672,1063 Q744,1024 795,951 L823,1082 L1020,1082 L1020,-416 L777,-416 L777,102 Q727,41 659,10 Q591,-21 504,-21 Q305,-21 194,124 Q83,269 83,505 M326,505 Q326,355 383.5,264 Q441,173 566,173 Q640,173 691.5,202.5 Q743,232 777,288 L777,792 Q743,846 691,876.5 Q639,907 568,907 Q444,907 385,800.5 Q326,694 326,526"/> 
            <glyph glyph-name="r" unicode="&#x72;" horiz-adv-x="696" d=" M667,863 L563,867 Q492,867 444.5,837 Q397,807 371,752 L371,0 L128,0 L128,1082 L350,1082 L366,925 Q407,1008 471.5,1055 Q536,1102 620,1102 Q642,1102 661,1098.5 Q680,1095 696,1090"/> 
            <glyph glyph-name="s" unicode="&#x73;" horiz-adv-x="975" d=" M736,294 Q736,350 688,387 Q640,424 509,452 Q315,493 215.5,568.5 Q116,644 116,774 Q116,910 231,1006 Q346,1102 534,1102 Q732,1102 848.5,1004.5 Q965,907 960,763 L958,757 L725,757 Q725,824 674,872 Q623,920 534,920 Q446,920 400,880.5 Q354,841 354,784 Q354,727 397.5,693.5 Q441,660 574,634 Q778,592 876.5,515.5 Q975,439 975,307 Q975,161 854.5,70 Q734,-21 537,-21 Q326,-21 204,87 Q82,195 88,335 L90,341 L316,341 Q320,247 384,204 Q448,161 540,161 Q634,161 685,197 Q736,233 736,294"/> 
            <glyph glyph-name="t" unicode="&#x74;" horiz-adv-x="637" d=" M430,1345 L430,1082 L624,1082 L624,902 L430,902 L430,304 Q430,237 459,208.5 Q488,180 536,180 Q556,180 575,183.5 Q594,187 611,193 L637,15 Q606,-2 563,-11.5 Q520,-21 474,-21 Q340,-21 264,57.5 Q188,136 188,304 L188,902 L23,902 L23,1082 L188,1082 L188,1345"/> 
            <glyph glyph-name="u" unicode="&#x75;" horiz-adv-x="1034" d=" M802,158 Q751,72 673,25.5 Q595,-21 493,-21 Q319,-21 221,90 Q123,201 123,435 L123,1082 L365,1082 L365,433 Q365,291 411,234 Q457,177 550,177 Q638,177 697.5,208.5 Q757,240 791,300 L791,1082 L1034,1082 L1034,0 L822,0"/> 
            <glyph glyph-name="v" unicode="&#x76;" horiz-adv-x="1013" d=" M504,366 L522,278 L528,278 L547,366 L762,1082 L1013,1082 L629,0 L418,0 L32,1082 L283,1082"/> 
            <glyph glyph-name="w" unicode="&#x77;" horiz-adv-x="1488" d=" M1080,312 L1086,313 L1255,1082 L1488,1082 L1192,0 L993,0 L763,739 L761,749 L760,739 L532,0 L333,0 L37,1082 L270,1082 L443,324 L449,323 L674,1082 L851,1082"/> 
            <glyph glyph-name="x" unicode="&#x78;" horiz-adv-x="1005" d=" M516,711 L716,1082 L995,1082 L655,547 L1005,0 L729,0 L520,380 L311,0 L33,0 L383,547 L43,1082 L319,1082"/> 
            <glyph glyph-name="y" unicode="&#x79;" horiz-adv-x="1020" d=" M487,434 L511,326 L517,326 L754,1082 L1020,1082 L572,-164 Q529,-277 451,-357 Q373,-437 230,-437 Q200,-437 165.5,-431 Q131,-425 99,-417 L126,-229 Q139,-230 163,-232 Q187,-234 199,-234 Q265,-234 304.5,-189 Q344,-144 369,-85 L409,13 L16,1082 L281,1082"/> 
            <glyph glyph-name="z" unicode="&#x7A;" horiz-adv-x="964" d=" M386,194 L964,194 L964,0 L85,0 L85,159 L631,886 L96,886 L96,1082 L938,1082 L938,928"/> 
            <glyph glyph-name="{" unicode="&#x7B;" horiz-adv-x="657" d=" M609,-360 Q414,-305 331.5,-185 Q249,-65 249,106 L249,309 Q249,413 201.5,471 Q154,529 56,529 L56,707 Q154,707 201.5,765 Q249,823 249,929 L249,1132 Q249,1303 331.5,1422.5 Q414,1542 609,1597 L657,1457 Q559,1424 518.5,1340 Q478,1256 478,1132 L478,929 Q478,825 435,744.5 Q392,664 305,619 Q392,572 435,491.5 Q478,411 478,309 L478,106 Q478,-18 518.5,-102 Q559,-186 657,-219"/> 
            <glyph glyph-name="|" unicode="&#x7C;" horiz-adv-x="341" d=" M341,-270 L174,-270 L174,1456 L341,1456"/> 
            <glyph glyph-name="}" unicode="&#x7D;" horiz-adv-x="629" d=" M27,-219 Q124,-186 165.5,-102 Q207,-18 207,106 L207,309 Q207,414 251.5,494 Q296,574 389,618 Q296,661 251.5,741.5 Q207,822 207,929 L207,1132 Q207,1256 165.5,1340 Q124,1424 27,1457 L75,1597 Q269,1542 352,1422.5 Q435,1303 435,1132 L435,929 Q435,823 482,765 Q529,707 629,707 L629,529 Q529,529 482,471 Q435,413 435,309 L435,106 Q435,-65 352,-185 Q269,-305 75,-360"/> 
            <glyph glyph-name="~" unicode="&#x7E;" horiz-adv-x="1244" d=" M1244,750 Q1244,599 1156,493 Q1068,387 935,387 Q848,387 775.5,419.5 Q703,452 620,523 Q565,569 521,591 Q477,613 431,613 Q371,613 329,561.5 Q287,510 287,438 L117,460 Q117,610 203,712.5 Q289,815 424,815 Q510,815 585.5,781.5 Q661,748 741,680 Q795,632 838,611 Q881,590 928,590 Q987,590 1030,644.5 Q1073,699 1073,773"/> 
            <glyph glyph-name="¡" unicode="&#xA1;" horiz-adv-x="386" d=" M386,-374 L143,-374 L143,590 L386,590 M386,847 L143,847 L143,1082 L386,1082"/> 
            <glyph glyph-name="¢" unicode="&#xA2;" horiz-adv-x="1023" d=" M585,173 Q674,173 735,225.5 Q796,278 796,357 L1018,357 L1020,352 Q1023,223 927.5,121 Q832,19 687,-10 L687,-245 L487,-245 L487,-13 Q294,18 192.5,165.5 Q91,313 91,523 L91,558 Q91,766 192.5,914 Q294,1062 487,1094 L487,1318 L687,1318 L687,1093 Q841,1064 932,956.5 Q1023,849 1020,699 L1018,694 L796,694 Q796,783 737.5,845 Q679,907 585,907 Q448,907 391,807.5 Q334,708 334,558 L334,523 Q334,370 391,271.5 Q448,173 585,173"/> 
            <glyph glyph-name="£" unicode="&#xA3;" horiz-adv-x="1130" d=" M487,600 L492,486 Q492,404 469.5,328 Q447,252 405,194 L1130,194 L1130,0 L144,0 L144,194 L154,194 Q201,207 224.5,295.5 Q248,384 248,478 L243,600 L81,600 L81,795 L236,795 L227,1033 Q227,1240 343,1358.5 Q459,1477 654,1477 Q861,1477 975,1368.5 Q1089,1260 1085,1082 L1083,1076 L848,1076 Q848,1181 793.5,1231.5 Q739,1282 654,1282 Q568,1282 519,1216.5 Q470,1151 470,1033 L479,795 L868,795 L868,600"/> 
            <glyph glyph-name="¤" unicode="&#xA4;" horiz-adv-x="1359" d=" M1085,107 Q1008,46 915.5,13 Q823,-20 723,-20 Q622,-20 530,12.5 Q438,45 363,106 L234,-26 L93,118 L228,255 Q179,331 153.5,420.5 Q128,510 128,608 Q128,709 156,801.5 Q184,894 237,973 L93,1120 L234,1264 L376,1119 Q450,1174 538,1204 Q626,1234 723,1234 Q819,1234 908,1203.5 Q997,1173 1072,1117 L1217,1265 L1359,1120 L1211,969 Q1262,891 1290,799.5 Q1318,708 1318,608 Q1318,511 1292.5,422.5 Q1267,334 1220,259 L1359,118 L1217,-27 M313,608 Q313,423 432.5,294 Q552,165 723,165 Q893,165 1012.5,294 Q1132,423 1132,608 Q1132,792 1012.5,920 Q893,1048 723,1048 Q552,1048 432.5,920 Q313,792 313,608"/> 
            <glyph glyph-name="¥" unicode="&#xA5;" horiz-adv-x="1214" d=" M620,816 L943,1456 L1214,1456 L817,742 L1093,742 L1093,547 L738,547 L738,432 L1093,432 L1093,237 L738,237 L738,0 L495,0 L495,237 L138,237 L138,432 L495,432 L495,547 L138,547 L138,742 L425,742 L26,1456 L298,1456"/> 
            <glyph glyph-name="¦" unicode="&#xA6;" horiz-adv-x="365" d=" M136,-270 L136,525 L365,525 L365,-270 M365,698 L136,698 L136,1456 L365,1456"/> 
            <glyph glyph-name="§" unicode="&#xA7;" horiz-adv-x="1164" d=" M1164,455 Q1164,362 1119.5,293 Q1075,224 993,182 Q1060,132 1094,63 Q1128,-6 1128,-103 Q1128,-278 991.5,-377 Q855,-476 624,-476 Q398,-476 245,-375 Q92,-274 97,-56 L99,-50 L332,-49 Q332,-171 417,-226 Q502,-281 624,-281 Q746,-281 816,-231.5 Q886,-182 886,-105 Q886,-28 819,17 Q752,62 565,118 Q323,182 208.5,275 Q94,368 94,542 Q94,632 137.5,702 Q181,772 263,816 Q196,866 163,935.5 Q130,1005 130,1102 Q130,1271 267.5,1374 Q405,1477 635,1477 Q873,1477 1007,1365.5 Q1141,1254 1136,1053 L1134,1047 L900,1047 Q900,1148 830,1215 Q760,1282 635,1282 Q505,1282 439,1231.5 Q373,1181 373,1104 Q373,1018 434,975 Q495,932 691,880 Q935,814 1049.5,721.5 Q1164,629 1164,455 M601,673 Q559,683 520,695.5 Q481,708 444,722 Q389,701 362.5,658.5 Q336,616 336,558 Q336,469 398,423.5 Q460,378 654,323 Q707,307 742,296.5 Q777,286 809,275 Q864,297 894,339.5 Q924,382 924,439 Q924,519 856,567.5 Q788,616 601,673"/> 
            <glyph glyph-name="¨" unicode="&#xA8;" horiz-adv-x="889" d=" M889,1252 L647,1252 L647,1456 L889,1456 M405,1252 L164,1252 L164,1456 L405,1456"/> 
            <glyph glyph-name="©" unicode="&#xA9;" horiz-adv-x="1506" d=" M1110,596 L1112,590 Q1116,439 1028,360.5 Q940,282 783,282 Q623,282 528.5,388 Q434,494 434,669 L434,788 Q434,961 528.5,1068 Q623,1175 783,1175 Q940,1175 1028.5,1095.5 Q1117,1016 1113,867 L1111,861 L963,861 Q963,955 918,997.5 Q873,1040 783,1040 Q689,1040 638.5,971 Q588,902 588,789 L588,669 Q588,554 638.5,485.5 Q689,417 783,417 Q873,417 917.5,458.5 Q962,500 962,596 M209,729 Q209,465 380.5,284.5 Q552,104 797,104 Q1041,104 1212.5,284.5 Q1384,465 1384,729 Q1384,992 1212.5,1171.5 Q1041,1351 797,1351 Q551,1351 380,1171.5 Q209,992 209,729 M87,729 Q87,1044 294,1260 Q501,1476 797,1476 Q1092,1476 1299,1260 Q1506,1044 1506,729 Q1506,413 1298.5,196 Q1091,-21 797,-21 Q501,-21 294,196 Q87,413 87,729"/> 
            <glyph glyph-name="ª" unicode="&#xAA;" horiz-adv-x="785" d=" M608,706 Q600,727 595,750.5 Q590,774 587,800 Q554,753 498.5,722.5 Q443,692 365,692 Q246,692 181,753 Q116,814 116,920 Q116,1031 200.5,1091 Q285,1151 447,1151 L584,1151 L584,1202 Q584,1264 554.5,1296.5 Q525,1329 468,1329 Q402,1329 366,1303 Q330,1277 330,1230 L165,1243 L164,1249 Q158,1347 243,1412 Q328,1477 468,1477 Q602,1477 680.5,1406 Q759,1335 759,1201 L759,887 Q759,836 765,792 Q771,748 785,706 M408,836 Q459,836 512.5,865 Q566,894 584,929 L584,1034 L448,1034 Q374,1034 332.5,1002 Q291,970 291,924 Q291,881 320,858.5 Q349,836 408,836"/> 
            <glyph glyph-name="«" unicode="&#xAB;" horiz-adv-x="887" d=" M562,772 L809,373 L642,373 L354,763 L354,782 L642,1172 L809,1172 M640,66052 L887,65653 L720,65653 L432,66043 L432,66062 L720,66452 L887,66452"/> 
            <glyph glyph-name="¬" unicode="&#xAC;" horiz-adv-x="962" d=" M962,374 L762,374 L762,634 L127,634 L127,805 L962,805"/> 
            <glyph glyph-name="­" unicode="&#xAD;" horiz-adv-x="596" d=" M596,521 L71,521 L71,717 L596,717"/> 
            <glyph glyph-name="®" unicode="&#xAE;" horiz-adv-x="1506" d=" M87,729 Q87,1044 294,1260 Q501,1476 797,1476 Q1092,1476 1299,1260 Q1506,1044 1506,729 Q1506,413 1298.5,196 Q1091,-21 797,-21 Q501,-21 294,196 Q87,413 87,729 M209,729 Q209,465 380.5,284.5 Q552,104 797,104 Q1041,104 1212.5,284.5 Q1384,465 1384,729 Q1384,992 1212.5,1171.5 Q1041,1351 797,1351 Q551,1351 380,1171.5 Q209,992 209,729 M653,653 L653,316 L502,316 L502,1166 L783,1166 Q934,1166 1021,1099.5 Q1108,1033 1108,906 Q1108,847 1077.5,802 Q1047,757 988,726 Q1050,698 1077.5,644 Q1105,590 1105,515 L1105,459 Q1105,418 1108.5,385.5 Q1112,353 1122,332 L1122,316 L967,316 Q958,337 956,377.5 Q954,418 954,460 L954,514 Q954,585 920.5,619 Q887,653 811,653 M653,787 L796,787 Q864,787 911,817.5 Q958,848 958,903 Q958,975 919,1004 Q880,1033 783,1033 L653,1033"/> 
            <glyph glyph-name="¯" unicode="&#xAF;" horiz-adv-x="862" d=" M862,1298 L135,1298 L135,1456 L862,1456"/> 
            <glyph glyph-name="°" unicode="&#xB0;" horiz-adv-x="651" d=" M127,1208 Q127,1318 204.5,1397.5 Q282,1477 391,1477 Q498,1477 574.5,1397.5 Q651,1318 651,1208 Q651,1098 574.5,1021 Q498,944 391,944 Q282,944 204.5,1021 Q127,1098 127,1208 M266,1208 Q266,1155 302.5,1119.5 Q339,1084 391,1084 Q442,1084 477.5,1119 Q513,1154 513,1208 Q513,1262 477.5,1299 Q442,1336 391,1336 Q339,1336 302.5,1299 Q266,1262 266,1208"/> 
            <glyph glyph-name="±" unicode="&#xB1;" horiz-adv-x="1011" d=" M668,906 L1011,906 L1011,707 L668,707 L668,312 L453,312 L453,707 L95,707 L95,906 L453,906 L453,1290 L668,1290 M961,-23 L126,-23 L126,173 L961,173"/> 
            <glyph glyph-name="²" unicode="&#xB2;" horiz-adv-x="725" d=" M725,667 L118,667 L118,812 L423,1068 Q487,1122 507,1157 Q527,1192 527,1233 Q527,1277 501.5,1305 Q476,1333 422,1333 Q361,1333 329,1303 Q297,1273 297,1225 L116,1225 L114,1231 Q108,1334 194,1406.5 Q280,1479 425,1479 Q564,1479 641.5,1414 Q719,1349 719,1232 Q719,1151 670.5,1092 Q622,1033 502,928 L373,818 L375,812 L725,812"/> 
            <glyph glyph-name="³" unicode="&#xB3;" horiz-adv-x="747" d=" M417,1139 Q482,1139 512.5,1165.5 Q543,1192 543,1240 Q543,1279 510.5,1305.5 Q478,1332 416,1332 Q363,1332 331.5,1310 Q300,1288 300,1254 L119,1254 L117,1260 Q111,1358 197,1418 Q283,1478 413,1478 Q562,1478 648,1418.5 Q734,1359 734,1249 Q734,1194 698.5,1148.5 Q663,1103 602,1078 Q672,1054 709.5,1006.5 Q747,959 747,891 Q747,779 657,717 Q567,655 418,655 Q283,655 190.5,715.5 Q98,776 104,888 L106,894 L287,894 Q287,851 321.5,825.5 Q356,800 417,800 Q481,800 519,826 Q557,852 557,897 Q557,953 521.5,980.5 Q486,1008 417,1008 L294,1008 L294,1139"/> 
            <glyph glyph-name="´" unicode="&#xB4;" horiz-adv-x="582" d=" M311,1478 L580,1478 L582,1472 L309,1212 L120,1212"/> 
            <glyph glyph-name="µ" unicode="&#xB5;" horiz-adv-x="1055" d=" M388,1082 L388,462 Q388,295 438,235 Q488,175 585,175 Q672,175 727.5,205.5 Q783,236 812,296 L812,1082 L1055,1082 L1055,0 L832,0 L825,86 Q780,33 720.5,6 Q661,-21 586,-21 Q525,-21 475.5,-7.5 Q426,6 388,34 L388,-416 L146,-416 L146,1082"/> 
            <glyph glyph-name="¶" unicode="&#xB6;" horiz-adv-x="880" d=" M637,0 L637,520 L554,520 Q321,520 191.5,649.5 Q62,779 62,988 Q62,1195 191.5,1325.5 Q321,1456 554,1456 L880,1456 L880,0"/> 
            <glyph glyph-name="·" unicode="&#xB7;" horiz-adv-x="402" d=" M402,594 L160,594 L160,834 L402,834"/> 
            <glyph glyph-name="¸" unicode="&#xB8;" horiz-adv-x="457" d=" M318,3 L307,-51 Q371,-62 414,-103 Q457,-144 457,-224 Q457,-326 372,-386.5 Q287,-447 130,-447 L123,-310 Q185,-310 222.5,-288 Q260,-266 260,-221 Q260,-177 225.5,-159 Q191,-141 109,-136 L141,3"/> 
            <glyph glyph-name="¹" unicode="&#xB9;" horiz-adv-x="406" d=" M406,665 L214,665 L214,1304 L87,1304 L87,1454 L406,1477"/> 
            <glyph glyph-name="º" unicode="&#xBA;" horiz-adv-x="812" d=" M119,1142 Q119,1290 213,1383.5 Q307,1477 465,1477 Q623,1477 717.5,1383.5 Q812,1290 812,1142 L812,1026 Q812,877 718,784.5 Q624,692 467,692 Q308,692 213.5,784.5 Q119,877 119,1026 M294,1026 Q294,941 338,889.5 Q382,838 467,838 Q549,838 593,889.5 Q637,941 637,1026 L637,1142 Q637,1225 592.5,1277 Q548,1329 465,1329 Q381,1329 337.5,1277 Q294,1225 294,1142"/> 
            <glyph glyph-name="»" unicode="&#xBB;" horiz-adv-x="907" d=" M273,950 L561,560 L561,541 L273,151 L106,151 L353,550 L106,950 M619,950 L907,560 L907,541 L619,151 L452,151 L699,550 L452,950"/> 
            <glyph glyph-name="¼" unicode="&#xBC;" horiz-adv-x="1503" d=" M495,664 L303,664 L303,1303 L176,1303 L176,1453 L495,1476 M450,117 L325,189 L1036,1327 L1161,1255 M1389,290 L1503,290 L1503,145 L1389,145 L1389,0 L1198,0 L1198,145 L785,145 L775,261 L1197,801 L1389,801 M977,295 L980,290 L1198,290 L1198,567 L1192,569 L1180,549"/> 
            <glyph glyph-name="½" unicode="&#xBD;" horiz-adv-x="1536" d=" M463,117 L338,189 L1049,1327 L1174,1255 M495,664 L303,664 L303,1303 L176,1303 L176,1453 L495,1476 M1536,0 L929,0 L929,145 L1234,401 Q1298,455 1318,490 Q1338,525 1338,566 Q1338,610 1312.5,638 Q1287,666 1233,666 Q1172,666 1140,636 Q1108,606 1108,558 L927,558 L925,564 Q919,667 1005,739.5 Q1091,812 1236,812 Q1375,812 1452.5,747 Q1530,682 1530,565 Q1530,484 1481.5,425 Q1433,366 1313,261 L1184,151 L1186,145 L1536,145"/> 
            <glyph glyph-name="¾" unicode="&#xBE;" horiz-adv-x="1692" d=" M633,117 L508,189 L1219,1327 L1344,1255 M1578,290 L1692,290 L1692,145 L1578,145 L1578,0 L1387,0 L1387,145 L974,145 L964,261 L1386,801 L1578,801 M1166,295 L1169,290 L1387,290 L1387,567 L1381,569 L1369,549 M433,1140 Q498,1140 528.5,1166.5 Q559,1193 559,1241 Q559,1280 526.5,1306.5 Q494,1333 432,1333 Q379,1333 347.5,1311 Q316,1289 316,1255 L135,1255 L133,1261 Q127,1359 213,1419 Q299,1479 429,1479 Q578,1479 664,1419.5 Q750,1360 750,1250 Q750,1195 714.5,1149.5 Q679,1104 618,1079 Q688,1055 725.5,1007.5 Q763,960 763,892 Q763,780 673,718 Q583,656 434,656 Q299,656 206.5,716.5 Q114,777 120,889 L122,895 L303,895 Q303,852 337.5,826.5 Q372,801 433,801 Q497,801 535,827 Q573,853 573,898 Q573,954 537.5,981.5 Q502,1009 433,1009 L310,1009 L310,1140"/> 
            <glyph glyph-name="¿" unicode="&#xBF;" horiz-adv-x="979" d=" M684,669 Q682,525 650.5,464 Q619,403 509,311 Q429,232 384,163.5 Q339,95 339,12 Q339,-85 391,-138.5 Q443,-192 542,-192 Q623,-192 681,-146 Q739,-100 741,-11 L975,-11 L978,-17 Q979,-195 856.5,-294.5 Q734,-394 542,-394 Q331,-394 213.5,-287 Q96,-180 96,8 Q96,135 169,243.5 Q242,352 355,442 Q411,491 426.5,536.5 Q442,582 442,669 M438,1082 L686,1082 L686,849 L438,849"/> 
            <glyph glyph-name="À" unicode="&#xC0;" horiz-adv-x="1310" d=" M948,340 L378,340 L262,0 L16,0 L551,1456 L781,1456 L1310,0 L1063,0 M448,543 L879,543 L668,1165 L662,1165 M801,1560 L605,1560 L346,1820 L348,1826 L616,1826"/> 
            <glyph glyph-name="Á" unicode="&#xC1;" horiz-adv-x="1310" d=" M948,340 L378,340 L262,0 L16,0 L551,1456 L781,1456 L1310,0 L1063,0 M448,543 L879,543 L668,1165 L662,1165 M760,1825 L1029,1825 L1031,1819 L758,1559 L569,1559"/> 
            <glyph glyph-name="Â" unicode="&#xC2;" horiz-adv-x="1310" d=" M948,340 L378,340 L262,0 L16,0 L551,1456 L781,1456 L1310,0 L1063,0 M448,543 L879,543 L668,1165 L662,1165 M997,1621 L997,1597 L802,1597 L659,1736 L517,1597 L324,1597 L324,1623 L588,1863 L731,1863"/> 
            <glyph glyph-name="Ã" unicode="&#xC3;" horiz-adv-x="1310" d=" M948,340 L378,340 L262,0 L16,0 L551,1456 L781,1456 L1310,0 L1063,0 M448,543 L879,543 L668,1165 L662,1165 M1021,1852 Q1021,1757 961,1690 Q901,1623 811,1623 Q740,1623 657.5,1667.5 Q575,1712 524,1712 Q485,1712 458,1679.5 Q431,1647 431,1602 L300,1637 Q300,1731 359.5,1800.5 Q419,1870 509,1870 Q565,1870 654.5,1825.5 Q744,1781 796,1781 Q834,1781 862,1813 Q890,1845 890,1891"/> 
            <glyph glyph-name="Ä" unicode="&#xC4;" horiz-adv-x="1310" d=" M948,340 L378,340 L262,0 L16,0 L551,1456 L781,1456 L1310,0 L1063,0 M448,543 L879,543 L668,1165 L662,1165 M1023,1601 L781,1601 L781,1805 L1023,1805 M539,1601 L298,1601 L298,1805 L539,1805"/> 
            <glyph glyph-name="Å" unicode="&#xC5;" horiz-adv-x="1310" d=" M948,340 L378,340 L262,0 L16,0 L551,1456 L781,1456 L1310,0 L1063,0 M448,543 L879,543 L668,1165 L662,1165 M450,1737 Q450,1821 511.5,1878 Q573,1935 662,1935 Q749,1935 809.5,1878 Q870,1821 870,1737 Q870,1652 809.5,1597.5 Q749,1543 662,1543 Q573,1543 511.5,1597.5 Q450,1652 450,1737 M560,1737 Q560,1694 589.5,1665 Q619,1636 662,1636 Q704,1636 732,1664 Q760,1692 760,1737 Q760,1782 732,1811.5 Q704,1841 662,1842 Q619,1841 589.5,1811.5 Q560,1782 560,1737"/> 
            <glyph glyph-name="Æ" unicode="&#xC6;" horiz-adv-x="1879" d=" M1879,0 L981,0 L966,340 L464,340 L280,0 L-10,0 L825,1456 L1817,1456 L1817,1259 L1171,1259 L1188,851 L1736,851 L1736,654 L1196,654 L1216,196 L1879,196 M580,555 L957,555 L930,1192 L925,1193"/> 
            <glyph glyph-name="Ç" unicode="&#xC7;" horiz-adv-x="1228" d=" M1221,483 L1223,477 Q1227,256 1079.5,117.5 Q932,-21 680,-21 Q425,-21 265.5,150.5 Q106,322 106,589 L106,866 Q106,1132 263.5,1304.5 Q421,1477 673,1477 Q931,1477 1079.5,1341.5 Q1228,1206 1224,977 L1222,971 L987,971 Q987,1118 907.5,1200 Q828,1282 673,1282 Q524,1282 436.5,1164 Q349,1046 349,868 L349,589 Q349,409 438.5,291 Q528,173 680,173 Q831,173 909,254 Q987,335 987,483 M763,65535 L752,65481 Q816,65470 859,65429 Q902,65388 902,65308 Q902,65206 817,65145.5 Q732,65085 575,65085 L568,65222 Q630,65222 667.5,65244 Q705,65266 705,65311 Q705,65355 670.5,65373 Q636,65391 554,65396 L586,65535"/> 
            <glyph glyph-name="È" unicode="&#xC8;" horiz-adv-x="1141" d=" M1039,655 L402,655 L402,194 L1141,194 L1141,0 L159,0 L159,1456 L1134,1456 L1134,1261 L402,1261 L402,850 L1039,850 M731,1560 L535,1560 L276,1820 L278,1826 L546,1826"/> 
            <glyph glyph-name="É" unicode="&#xC9;" horiz-adv-x="1141" d=" M1039,655 L402,655 L402,194 L1141,194 L1141,0 L159,0 L159,1456 L1134,1456 L1134,1261 L402,1261 L402,850 L1039,850 M690,1825 L959,1825 L961,1819 L688,1559 L499,1559"/> 
            <glyph glyph-name="Ê" unicode="&#xCA;" horiz-adv-x="1141" d=" M1039,655 L402,655 L402,194 L1141,194 L1141,0 L159,0 L159,1456 L1134,1456 L1134,1261 L402,1261 L402,850 L1039,850 M955,1621 L955,1597 L760,1597 L617,1736 L475,1597 L282,1597 L282,1623 L546,1863 L689,1863"/> 
            <glyph glyph-name="Ë" unicode="&#xCB;" horiz-adv-x="1141" d=" M1039,655 L402,655 L402,194 L1141,194 L1141,0 L159,0 L159,1456 L1134,1456 L1134,1261 L402,1261 L402,850 L1039,850 M980,1601 L738,1601 L738,1805 L980,1805 M496,1601 L255,1601 L255,1805 L496,1805"/> 
            <glyph glyph-name="Ì" unicode="&#xCC;" horiz-adv-x="416" d=" M416,0 L173,0 L173,1456 L416,1456 M65946,1560 L65750,1560 L65491,1820 L65493,1826 L65761,1826"/> 
            <glyph glyph-name="Í" unicode="&#xCD;" horiz-adv-x="638" d=" M416,0 L173,0 L173,1456 L416,1456 M367,1825 L636,1825 L638,1819 L365,1559 L176,1559"/> 
            <glyph glyph-name="Î" unicode="&#xCE;" horiz-adv-x="634" d=" M416,0 L173,0 L173,1456 L416,1456 M66170,1621 L66170,1597 L65975,1597 L65832,1736 L65690,1597 L65497,1597 L65497,1623 L65761,1863 L65904,1863"/> 
            <glyph glyph-name="Ï" unicode="&#xCF;" horiz-adv-x="659" d=" M416,0 L173,0 L173,1456 L416,1456 M66195,1601 L65953,1601 L65953,1805 L66195,1805 M65711,1601 L65470,1601 L65470,1805 L65711,1805"/> 
            <glyph glyph-name="Ð" unicode="&#xD0;" horiz-adv-x="1285" d=" M189,0 L189,657 L36,657 L36,827 L189,827 L189,1456 L661,1456 Q938,1456 1111.5,1283 Q1285,1110 1285,838 L1285,617 Q1285,344 1111.5,172 Q938,0 661,0 M691,657 L432,657 L432,194 L654,194 Q835,194 938.5,312 Q1042,430 1042,617 L1042,840 Q1042,1025 938.5,1143 Q835,1261 654,1261 L432,1261 L432,827 L691,827"/> 
            <glyph glyph-name="Ñ" unicode="&#xD1;" horiz-adv-x="1296" d=" M1296,0 L1054,0 L408,1063 L402,1061 L402,0 L159,0 L159,1456 L402,1456 L1048,394 L1054,396 L1054,1456 L1296,1456 M1087,1852 Q1087,1757 1027,1690 Q967,1623 877,1623 Q806,1623 723.5,1667.5 Q641,1712 590,1712 Q551,1712 524,1679.5 Q497,1647 497,1602 L366,1637 Q366,1731 425.5,1800.5 Q485,1870 575,1870 Q631,1870 720.5,1825.5 Q810,1781 862,1781 Q900,1781 928,1813 Q956,1845 956,1891"/> 
            <glyph glyph-name="Ò" unicode="&#xD2;" horiz-adv-x="1294" d=" M1294,597 Q1294,330 1126.5,154.5 Q959,-21 692,-21 Q430,-21 266.5,154.5 Q103,330 103,597 L103,859 Q103,1125 266.5,1301 Q430,1477 691,1477 Q958,1477 1126,1301 Q1294,1125 1294,859 M1052,861 Q1052,1043 954.5,1160 Q857,1277 691,1277 Q531,1277 438,1160 Q345,1043 345,861 L345,597 Q345,413 438,295.5 Q531,178 692,178 Q859,178 955.5,295 Q1052,412 1052,597 M813,1581 L617,1581 L358,1841 L360,1847 L628,1847"/> 
            <glyph glyph-name="Ó" unicode="&#xD3;" horiz-adv-x="1294" d=" M1294,597 Q1294,330 1126.5,154.5 Q959,-21 692,-21 Q430,-21 266.5,154.5 Q103,330 103,597 L103,859 Q103,1125 266.5,1301 Q430,1477 691,1477 Q958,1477 1126,1301 Q1294,1125 1294,859 M1052,861 Q1052,1043 954.5,1160 Q857,1277 691,1277 Q531,1277 438,1160 Q345,1043 345,861 L345,597 Q345,413 438,295.5 Q531,178 692,178 Q859,178 955.5,295 Q1052,412 1052,597 M772,1846 L1041,1846 L1043,1840 L770,1580 L581,1580"/> 
            <glyph glyph-name="Ô" unicode="&#xD4;" horiz-adv-x="1294" d=" M1294,597 Q1294,330 1126.5,154.5 Q959,-21 692,-21 Q430,-21 266.5,154.5 Q103,330 103,597 L103,859 Q103,1125 266.5,1301 Q430,1477 691,1477 Q958,1477 1126,1301 Q1294,1125 1294,859 M1052,861 Q1052,1043 954.5,1160 Q857,1277 691,1277 Q531,1277 438,1160 Q345,1043 345,861 L345,597 Q345,413 438,295.5 Q531,178 692,178 Q859,178 955.5,295 Q1052,412 1052,597 M1037,1642 L1037,1618 L842,1618 L699,1757 L557,1618 L364,1618 L364,1644 L628,1884 L771,1884"/> 
            <glyph glyph-name="Õ" unicode="&#xD5;" horiz-adv-x="1294" d=" M1294,597 Q1294,330 1126.5,154.5 Q959,-21 692,-21 Q430,-21 266.5,154.5 Q103,330 103,597 L103,859 Q103,1125 266.5,1301 Q430,1477 691,1477 Q958,1477 1126,1301 Q1294,1125 1294,859 M1052,861 Q1052,1043 954.5,1160 Q857,1277 691,1277 Q531,1277 438,1160 Q345,1043 345,861 L345,597 Q345,413 438,295.5 Q531,178 692,178 Q859,178 955.5,295 Q1052,412 1052,597 M1060,1873 Q1060,1778 1000,1711 Q940,1644 850,1644 Q779,1644 696.5,1688.5 Q614,1733 563,1733 Q524,1733 497,1700.5 Q470,1668 470,1623 L339,1658 Q339,1752 398.5,1821.5 Q458,1891 548,1891 Q604,1891 693.5,1846.5 Q783,1802 835,1802 Q873,1802 901,1834 Q929,1866 929,1912"/> 
            <glyph glyph-name="Ö" unicode="&#xD6;" horiz-adv-x="1294" d=" M1294,597 Q1294,330 1126.5,154.5 Q959,-21 692,-21 Q430,-21 266.5,154.5 Q103,330 103,597 L103,859 Q103,1125 266.5,1301 Q430,1477 691,1477 Q958,1477 1126,1301 Q1294,1125 1294,859 M1052,861 Q1052,1043 954.5,1160 Q857,1277 691,1277 Q531,1277 438,1160 Q345,1043 345,861 L345,597 Q345,413 438,295.5 Q531,178 692,178 Q859,178 955.5,295 Q1052,412 1052,597 M1062,1622 L820,1622 L820,1826 L1062,1826 M578,1622 L337,1622 L337,1826 L578,1826"/> 
            <glyph glyph-name="×" unicode="&#xD7;" horiz-adv-x="1004" d=" M77,364 L393,686 L77,1008 L225,1158 L540,836 L856,1158 L1004,1008 L688,686 L1004,364 L856,214 L540,535 L225,214"/> 
            <glyph glyph-name="Ø" unicode="&#xD8;" horiz-adv-x="1294" d=" M1294,597 Q1294,330 1126.5,154.5 Q959,-21 692,-21 Q610,-21 536.5,-3 Q463,15 400,51 L314,-95 L166,-95 L296,126 Q203,210 153,332 Q103,454 103,597 L103,859 Q103,1125 266.5,1301 Q430,1477 691,1477 Q788,1477 873.5,1451.5 Q959,1426 1032,1379 L1114,1518 L1262,1518 L1131,1296 Q1209,1212 1251.5,1099.5 Q1294,987 1294,859 M345,597 Q345,518 362.5,450.5 Q380,383 413,336 L419,335 L923,1193 Q876,1233 818,1255 Q760,1277 691,1277 Q531,1277 438,1160 Q345,1043 345,861 M1052,861 Q1052,922 1040,976.5 Q1028,1031 1007,1073 L1001,1074 L506,232 Q545,205 592,191.5 Q639,178 692,178 Q859,178 955.5,295 Q1052,412 1052,597"/> 
            <glyph glyph-name="Ù" unicode="&#xD9;" horiz-adv-x="1265" d=" M1265,1456 L1265,480 Q1265,238 1107,108.5 Q949,-21 694,-21 Q444,-21 289,109 Q134,239 134,480 L134,1456 L377,1456 L377,480 Q377,327 463,250 Q549,173 694,173 Q844,173 933,250 Q1022,327 1022,480 L1022,1456 M814,1560 L618,1560 L359,1820 L361,1826 L629,1826"/> 
            <glyph glyph-name="Ú" unicode="&#xDA;" horiz-adv-x="1265" d=" M1265,1456 L1265,480 Q1265,238 1107,108.5 Q949,-21 694,-21 Q444,-21 289,109 Q134,239 134,480 L134,1456 L377,1456 L377,480 Q377,327 463,250 Q549,173 694,173 Q844,173 933,250 Q1022,327 1022,480 L1022,1456 M773,1825 L1042,1825 L1044,1819 L771,1559 L582,1559"/> 
            <glyph glyph-name="Û" unicode="&#xDB;" horiz-adv-x="1265" d=" M1265,1456 L1265,480 Q1265,238 1107,108.5 Q949,-21 694,-21 Q444,-21 289,109 Q134,239 134,480 L134,1456 L377,1456 L377,480 Q377,327 463,250 Q549,173 694,173 Q844,173 933,250 Q1022,327 1022,480 L1022,1456 M1038,1621 L1038,1597 L843,1597 L700,1736 L558,1597 L365,1597 L365,1623 L629,1863 L772,1863"/> 
            <glyph glyph-name="Ü" unicode="&#xDC;" horiz-adv-x="1265" d=" M1265,1456 L1265,480 Q1265,238 1107,108.5 Q949,-21 694,-21 Q444,-21 289,109 Q134,239 134,480 L134,1456 L377,1456 L377,480 Q377,327 463,250 Q549,173 694,173 Q844,173 933,250 Q1022,327 1022,480 L1022,1456 M1063,1601 L821,1601 L821,1805 L1063,1805 M579,1601 L338,1601 L338,1805 L579,1805"/> 
            <glyph glyph-name="Ý" unicode="&#xDD;" horiz-adv-x="1257" d=" M634,748 L986,1456 L1257,1456 L752,511 L752,0 L510,0 L510,524 L13,1456 L284,1456 M711,1825 L980,1825 L982,1819 L709,1559 L520,1559"/> 
            <glyph glyph-name="Þ" unicode="&#xDE;" horiz-adv-x="1150" d=" M391,1456 L391,1176 L637,1176 Q879,1176 1014.5,1054.5 Q1150,933 1150,738 Q1150,542 1014.5,421 Q879,300 637,300 L391,300 L391,0 L148,0 L148,1456 M391,981 L391,495 L637,495 Q772,495 839.5,564.5 Q907,634 907,736 Q907,840 839.5,910.5 Q772,981 637,981"/> 
            <glyph glyph-name="ß" unicode="&#xDF;" horiz-adv-x="1179" d=" M378,0 L136,0 L136,1093 Q136,1317 259,1442 Q382,1567 584,1567 Q754,1567 863.5,1475.5 Q973,1384 973,1211 Q973,1098 914,994.5 Q855,891 855,829 Q855,761 1017,619 Q1179,477 1179,339 Q1179,159 1070,69 Q961,-21 764,-21 Q682,-21 597.5,-4 Q513,13 475,41 L524,238 Q565,213 626.5,193 Q688,173 750,173 Q843,173 890,214.5 Q937,256 937,327 Q937,403 774.5,541.5 Q612,680 612,825 Q612,910 675,1015 Q738,1120 738,1195 Q738,1275 690.5,1323.5 Q643,1372 580,1372 Q489,1372 433.5,1298 Q378,1224 378,1091"/> 
            <glyph glyph-name="à" unicode="&#xE0;" horiz-adv-x="1025" d=" M779,0 Q766,41 757.5,80 Q749,119 746,158 Q696,82 614.5,30.5 Q533,-21 432,-21 Q263,-21 172.5,66 Q82,153 82,305 Q82,462 206,549.5 Q330,637 555,637 L744,637 L744,732 Q744,817 694,865 Q644,913 551,913 Q468,913 419,873 Q370,833 370,770 L136,770 L135,776 Q128,904 249.5,1003 Q371,1102 566,1102 Q755,1102 871,1006 Q987,910 987,730 L987,249 Q987,182 996,120.5 Q1005,59 1025,0 M481,174 Q573,174 646.5,220 Q720,266 744,325 L744,485 L551,485 Q445,485 385,432.5 Q325,380 325,309 Q325,247 365.5,210.5 Q406,174 481,174 M664,1238 L468,1238 L209,1498 L211,1504 L479,1504"/> 
            <glyph glyph-name="á" unicode="&#xE1;" horiz-adv-x="1025" d=" M779,0 Q766,41 757.5,80 Q749,119 746,158 Q696,82 614.5,30.5 Q533,-21 432,-21 Q263,-21 172.5,66 Q82,153 82,305 Q82,462 206,549.5 Q330,637 555,637 L744,637 L744,732 Q744,817 694,865 Q644,913 551,913 Q468,913 419,873 Q370,833 370,770 L136,770 L135,776 Q128,904 249.5,1003 Q371,1102 566,1102 Q755,1102 871,1006 Q987,910 987,730 L987,249 Q987,182 996,120.5 Q1005,59 1025,0 M481,174 Q573,174 646.5,220 Q720,266 744,325 L744,485 L551,485 Q445,485 385,432.5 Q325,380 325,309 Q325,247 365.5,210.5 Q406,174 481,174 M623,1503 L892,1503 L894,1497 L621,1237 L432,1237"/> 
            <glyph glyph-name="â" unicode="&#xE2;" horiz-adv-x="1025" d=" M779,0 Q766,41 757.5,80 Q749,119 746,158 Q696,82 614.5,30.5 Q533,-21 432,-21 Q263,-21 172.5,66 Q82,153 82,305 Q82,462 206,549.5 Q330,637 555,637 L744,637 L744,732 Q744,817 694,865 Q644,913 551,913 Q468,913 419,873 Q370,833 370,770 L136,770 L135,776 Q128,904 249.5,1003 Q371,1102 566,1102 Q755,1102 871,1006 Q987,910 987,730 L987,249 Q987,182 996,120.5 Q1005,59 1025,0 M481,174 Q573,174 646.5,220 Q720,266 744,325 L744,485 L551,485 Q445,485 385,432.5 Q325,380 325,309 Q325,247 365.5,210.5 Q406,174 481,174 M888,1299 L888,1275 L693,1275 L550,1414 L408,1275 L215,1275 L215,1301 L479,1541 L622,1541"/> 
            <glyph glyph-name="ã" unicode="&#xE3;" horiz-adv-x="1025" d=" M779,0 Q766,41 757.5,80 Q749,119 746,158 Q696,82 614.5,30.5 Q533,-21 432,-21 Q263,-21 172.5,66 Q82,153 82,305 Q82,462 206,549.5 Q330,637 555,637 L744,637 L744,732 Q744,817 694,865 Q644,913 551,913 Q468,913 419,873 Q370,833 370,770 L136,770 L135,776 Q128,904 249.5,1003 Q371,1102 566,1102 Q755,1102 871,1006 Q987,910 987,730 L987,249 Q987,182 996,120.5 Q1005,59 1025,0 M481,174 Q573,174 646.5,220 Q720,266 744,325 L744,485 L551,485 Q445,485 385,432.5 Q325,380 325,309 Q325,247 365.5,210.5 Q406,174 481,174 M911,1530 Q911,1435 851,1368 Q791,1301 701,1301 Q630,1301 547.5,1345.5 Q465,1390 414,1390 Q375,1390 348,1357.5 Q321,1325 321,1280 L190,1315 Q190,1409 249.5,1478.5 Q309,1548 399,1548 Q455,1548 544.5,1503.5 Q634,1459 686,1459 Q724,1459 752,1491 Q780,1523 780,1569"/> 
            <glyph glyph-name="ä" unicode="&#xE4;" horiz-adv-x="1025" d=" M779,0 Q766,41 757.5,80 Q749,119 746,158 Q696,82 614.5,30.5 Q533,-21 432,-21 Q263,-21 172.5,66 Q82,153 82,305 Q82,462 206,549.5 Q330,637 555,637 L744,637 L744,732 Q744,817 694,865 Q644,913 551,913 Q468,913 419,873 Q370,833 370,770 L136,770 L135,776 Q128,904 249.5,1003 Q371,1102 566,1102 Q755,1102 871,1006 Q987,910 987,730 L987,249 Q987,182 996,120.5 Q1005,59 1025,0 M481,174 Q573,174 646.5,220 Q720,266 744,325 L744,485 L551,485 Q445,485 385,432.5 Q325,380 325,309 Q325,247 365.5,210.5 Q406,174 481,174 M913,1279 L671,1279 L671,1483 L913,1483 M429,1279 L188,1279 L188,1483 L429,1483"/> 
            <glyph glyph-name="å" unicode="&#xE5;" horiz-adv-x="1025" d=" M779,0 Q766,41 757.5,80 Q749,119 746,158 Q696,82 614.5,30.5 Q533,-21 432,-21 Q263,-21 172.5,66 Q82,153 82,305 Q82,462 206,549.5 Q330,637 555,637 L744,637 L744,732 Q744,817 694,865 Q644,913 551,913 Q468,913 419,873 Q370,833 370,770 L136,770 L135,776 Q128,904 249.5,1003 Q371,1102 566,1102 Q755,1102 871,1006 Q987,910 987,730 L987,249 Q987,182 996,120.5 Q1005,59 1025,0 M481,174 Q573,174 646.5,220 Q720,266 744,325 L744,485 L551,485 Q445,485 385,432.5 Q325,380 325,309 Q325,247 365.5,210.5 Q406,174 481,174 M339,1415 Q339,1499 400.5,1556 Q462,1613 551,1613 Q638,1613 698.5,1556 Q759,1499 759,1415 Q759,1330 698.5,1275.5 Q638,1221 551,1221 Q462,1221 400.5,1275.5 Q339,1330 339,1415 M449,1415 Q449,1372 478.5,1343 Q508,1314 551,1314 Q593,1314 621,1342 Q649,1370 649,1415 Q649,1460 621,1489.5 Q593,1519 551,1520 Q508,1519 478.5,1489.5 Q449,1460 449,1415"/> 
            <glyph glyph-name="æ" unicode="&#xE6;" horiz-adv-x="1668" d=" M1254,-21 Q1122,-21 1020,23.5 Q918,68 851,151 Q792,77 685,28 Q578,-21 429,-21 Q249,-21 150.5,68.5 Q52,158 52,312 Q52,470 172.5,556 Q293,642 524,642 L730,642 L730,713 Q730,804 683.5,855.5 Q637,907 551,907 Q458,907 404.5,862 Q351,817 351,752 L118,770 L116,776 Q110,917 231,1009.5 Q352,1102 553,1102 Q660,1102 745.5,1069 Q831,1036 887,972 Q950,1035 1034,1068.5 Q1118,1102 1218,1102 Q1432,1102 1550,971 Q1668,840 1668,612 L1668,471 L988,471 L985,465 Q989,334 1059,253.5 Q1129,173 1268,173 Q1366,173 1429,196 Q1492,219 1573,265 L1646,100 Q1589,55 1488,17 Q1387,-21 1254,-21 M476,164 Q543,164 616,200.5 Q689,237 730,286 L730,475 L526,475 Q417,475 356,426 Q295,377 295,308 Q295,243 340.5,203.5 Q386,164 476,164 M1218,907 Q1114,907 1056,835.5 Q998,764 988,647 L990,642 L1428,642 L1428,672 Q1428,777 1376.5,842 Q1325,907 1218,907"/> 
            <glyph glyph-name="ç" unicode="&#xE7;" horiz-adv-x="1013" d=" M575,173 Q664,173 725,225.5 Q786,278 786,357 L1006,357 L1008,351 Q1013,199 884.5,89 Q756,-21 575,-21 Q336,-21 208.5,133 Q81,287 81,523 L81,558 Q81,793 208.5,947.5 Q336,1102 575,1102 Q770,1102 891.5,988.5 Q1013,875 1009,700 L1007,694 L786,694 Q786,783 727.5,845 Q669,907 575,907 Q438,907 381,807.5 Q324,708 324,558 L324,523 Q324,370 381,271.5 Q438,173 575,173 M636,65535 L625,65481 Q689,65470 732,65429 Q775,65388 775,65308 Q775,65206 690,65145.5 Q605,65085 448,65085 L441,65222 Q503,65222 540.5,65244 Q578,65266 578,65311 Q578,65355 543.5,65373 Q509,65391 427,65396 L459,65535"/> 
            <glyph glyph-name="è" unicode="&#xE8;" horiz-adv-x="1016" d=" M592,-21 Q362,-21 225.5,129.5 Q89,280 89,516 L89,556 Q89,792 224.5,947.5 Q360,1103 564,1102 Q783,1102 899.5,969.5 Q1016,837 1016,614 L1016,471 L341,471 L339,466 Q345,337 414.5,255 Q484,173 607,173 Q705,173 775,197 Q845,221 910,266 L988,107 Q927,53 826,16 Q725,-21 592,-21 M564,907 Q474,907 416,835.5 Q358,764 344,654 L346,649 L775,649 L775,674 Q775,777 722.5,842 Q670,907 564,907 M666,1239 L470,1239 L211,1499 L213,1505 L481,1505"/> 
            <glyph glyph-name="é" unicode="&#xE9;" horiz-adv-x="1016" d=" M592,-21 Q362,-21 225.5,129.5 Q89,280 89,516 L89,556 Q89,792 224.5,947.5 Q360,1103 564,1102 Q783,1102 899.5,969.5 Q1016,837 1016,614 L1016,471 L341,471 L339,466 Q345,337 414.5,255 Q484,173 607,173 Q705,173 775,197 Q845,221 910,266 L988,107 Q927,53 826,16 Q725,-21 592,-21 M564,907 Q474,907 416,835.5 Q358,764 344,654 L346,649 L775,649 L775,674 Q775,777 722.5,842 Q670,907 564,907 M625,1504 L894,1504 L896,1498 L623,1238 L434,1238"/> 
            <glyph glyph-name="ê" unicode="&#xEA;" horiz-adv-x="1016" d=" M592,-21 Q362,-21 225.5,129.5 Q89,280 89,516 L89,556 Q89,792 224.5,947.5 Q360,1103 564,1102 Q783,1102 899.5,969.5 Q1016,837 1016,614 L1016,471 L341,471 L339,466 Q345,337 414.5,255 Q484,173 607,173 Q705,173 775,197 Q845,221 910,266 L988,107 Q927,53 826,16 Q725,-21 592,-21 M564,907 Q474,907 416,835.5 Q358,764 344,654 L346,649 L775,649 L775,674 Q775,777 722.5,842 Q670,907 564,907 M890,1300 L890,1276 L695,1276 L552,1415 L410,1276 L217,1276 L217,1302 L481,1542 L624,1542"/> 
            <glyph glyph-name="ë" unicode="&#xEB;" horiz-adv-x="1016" d=" M592,-21 Q362,-21 225.5,129.5 Q89,280 89,516 L89,556 Q89,792 224.5,947.5 Q360,1103 564,1102 Q783,1102 899.5,969.5 Q1016,837 1016,614 L1016,471 L341,471 L339,466 Q345,337 414.5,255 Q484,173 607,173 Q705,173 775,197 Q845,221 910,266 L988,107 Q927,53 826,16 Q725,-21 592,-21 M564,907 Q474,907 416,835.5 Q358,764 344,654 L346,649 L775,649 L775,674 Q775,777 722.5,842 Q670,907 564,907 M915,1280 L673,1280 L673,1484 L915,1484 M431,1280 L190,1280 L190,1484 L431,1484"/> 
            <glyph glyph-name="ì" unicode="&#xEC;" horiz-adv-x="386" d=" M386,0 L143,0 L143,1082 L386,1082 M65917,1217 L65721,1217 L65462,1477 L65464,1483 L65732,1483"/> 
            <glyph glyph-name="í" unicode="&#xED;" horiz-adv-x="609" d=" M386,0 L143,0 L143,1082 L386,1082 M338,1482 L607,1482 L609,1476 L336,1216 L147,1216"/> 
            <glyph glyph-name="î" unicode="&#xEE;" horiz-adv-x="605" d=" M386,0 L143,0 L143,1082 L386,1082 M66141,1278 L66141,1254 L65946,1254 L65803,1393 L65661,1254 L65468,1254 L65468,1280 L65732,1520 L65875,1520"/> 
            <glyph glyph-name="ï" unicode="&#xEF;" horiz-adv-x="630" d=" M386,0 L143,0 L143,1082 L386,1082 M66166,1258 L65924,1258 L65924,1462 L66166,1462 M65682,1258 L65441,1258 L65441,1462 L65682,1462"/> 
            <glyph glyph-name="ð" unicode="&#xF0;" horiz-adv-x="1102" d=" M897,1292 Q995,1187 1048.5,1049 Q1102,911 1102,748 L1102,541 Q1102,293 952,136 Q802,-21 577,-21 Q350,-21 205,119.5 Q60,260 60,468 Q60,694 196.5,833.5 Q333,973 555,973 Q640,973 715.5,941.5 Q791,910 843,858 L847,863 Q835,957 794,1035.5 Q753,1114 689,1174 L421,1024 L343,1133 L562,1256 L562,1262 Q529,1279 490.5,1294 Q452,1309 413,1321 L488,1517 Q572,1498 648,1464.5 Q724,1431 790,1385 L997,1501 L1075,1392 M581,173 Q706,173 782.5,277 Q859,381 859,541 L859,673 Q824,721 751.5,753 Q679,785 576,785 Q450,785 376.5,695 Q303,605 303,468 Q303,347 378.5,260 Q454,173 581,173"/> 
            <glyph glyph-name="ñ" unicode="&#xF1;" horiz-adv-x="1035" d=" M348,1082 L362,926 Q415,1009 495.5,1055.5 Q576,1102 677,1102 Q846,1102 940.5,999.5 Q1035,897 1035,680 L1035,0 L792,0 L792,678 Q792,800 741.5,851.5 Q691,903 588,903 Q517,903 461,871.5 Q405,840 369,785 L369,0 L126,0 L126,1082 M938,1530 Q938,1435 878,1368 Q818,1301 728,1301 Q657,1301 574.5,1345.5 Q492,1390 441,1390 Q402,1390 375,1357.5 Q348,1325 348,1280 L217,1315 Q217,1409 276.5,1478.5 Q336,1548 426,1548 Q482,1548 571.5,1503.5 Q661,1459 713,1459 Q751,1459 779,1491 Q807,1523 807,1569"/> 
            <glyph glyph-name="ò" unicode="&#xF2;" horiz-adv-x="1076" d=" M83,551 Q83,792 215,947 Q349,1102 578,1102 Q811,1102 943,947 Q1076,793 1076,551 L1076,530 Q1076,286 943,132 Q811,-21 580,-21 Q348,-21 215,133 Q83,287 83,530 M326,530 Q326,372 388,272 Q449,173 580,173 Q707,173 770,272 Q834,372 834,530 L834,551 Q834,706 770,806 Q707,907 578,907 Q451,907 388,806 Q326,705 326,551 M693,1238 L497,1238 L238,1498 L240,1504 L508,1504"/> 
            <glyph glyph-name="ó" unicode="&#xF3;" horiz-adv-x="1076" d=" M83,551 Q83,792 215,947 Q349,1102 578,1102 Q811,1102 943,947 Q1076,793 1076,551 L1076,530 Q1076,286 943,132 Q811,-21 580,-21 Q348,-21 215,133 Q83,287 83,530 M326,530 Q326,372 388,272 Q449,173 580,173 Q707,173 770,272 Q834,372 834,530 L834,551 Q834,706 770,806 Q707,907 578,907 Q451,907 388,806 Q326,705 326,551 M652,1503 L921,1503 L923,1497 L650,1237 L461,1237"/> 
            <glyph glyph-name="ô" unicode="&#xF4;" horiz-adv-x="1076" d=" M83,551 Q83,792 215,947 Q349,1102 578,1102 Q811,1102 943,947 Q1076,793 1076,551 L1076,530 Q1076,286 943,132 Q811,-21 580,-21 Q348,-21 215,133 Q83,287 83,530 M326,530 Q326,372 388,272 Q449,173 580,173 Q707,173 770,272 Q834,372 834,530 L834,551 Q834,706 770,806 Q707,907 578,907 Q451,907 388,806 Q326,705 326,551 M917,1299 L917,1275 L722,1275 L579,1414 L437,1275 L244,1275 L244,1301 L508,1541 L651,1541"/> 
            <glyph glyph-name="õ" unicode="&#xF5;" horiz-adv-x="1076" d=" M83,551 Q83,792 215,947 Q349,1102 578,1102 Q811,1102 943,947 Q1076,793 1076,551 L1076,530 Q1076,286 943,132 Q811,-21 580,-21 Q348,-21 215,133 Q83,287 83,530 M326,530 Q326,372 388,272 Q449,173 580,173 Q707,173 770,272 Q834,372 834,530 L834,551 Q834,706 770,806 Q707,907 578,907 Q451,907 388,806 Q326,705 326,551 M940,1530 Q940,1435 880,1368 Q820,1301 730,1301 Q659,1301 576.5,1345.5 Q494,1390 443,1390 Q404,1390 377,1357.5 Q350,1325 350,1280 L219,1315 Q219,1409 278.5,1478.5 Q338,1548 428,1548 Q484,1548 573.5,1503.5 Q663,1459 715,1459 Q753,1459 781,1491 Q809,1523 809,1569"/> 
            <glyph glyph-name="ö" unicode="&#xF6;" horiz-adv-x="1076" d=" M83,551 Q83,792 215,947 Q349,1102 578,1102 Q811,1102 943,947 Q1076,793 1076,551 L1076,530 Q1076,286 943,132 Q811,-21 580,-21 Q348,-21 215,133 Q83,287 83,530 M326,530 Q326,372 388,272 Q449,173 580,173 Q707,173 770,272 Q834,372 834,530 L834,551 Q834,706 770,806 Q707,907 578,907 Q451,907 388,806 Q326,705 326,551 M942,1279 L700,1279 L700,1483 L942,1483 M458,1279 L217,1279 L217,1483 L458,1483"/> 
            <glyph glyph-name="÷" unicode="&#xF7;" horiz-adv-x="1079" d=" M1079,582 L67,582 L67,794 L1079,794 M696,985 L453,985 L453,1206 L696,1206 M696,170 L453,170 L453,391 L696,391"/> 
            <glyph glyph-name="ø" unicode="&#xF8;" horiz-adv-x="1076" d=" M83,551 Q83,793 215.5,947.5 Q348,1102 578,1102 Q631,1102 680.5,1092.5 Q730,1083 775,1066 L847,1212 L991,1212 L887,1001 Q978,927 1027,810.5 Q1076,694 1076,551 L1076,530 Q1076,286 943.5,132.5 Q811,-21 580,-21 Q532,-21 487,-13.5 Q442,-6 400,8 L328,-138 L184,-138 L286,69 Q187,140 135,260 Q83,380 83,530 M326,530 Q326,452 340.5,388 Q355,324 385,284 L391,283 L685,883 Q661,894 634.5,900.5 Q608,907 578,907 Q451,907 388.5,806.5 Q326,706 326,551 M834,551 Q834,619 821,678 Q808,737 784,778 L778,779 L489,189 Q509,181 532,177 Q555,173 580,173 Q707,173 770.5,272.5 Q834,372 834,530"/> 
            <glyph glyph-name="ù" unicode="&#xF9;" horiz-adv-x="1034" d=" M802,158 Q751,72 673,25.5 Q595,-21 493,-21 Q319,-21 221,90 Q123,201 123,435 L123,1082 L365,1082 L365,433 Q365,291 411,234 Q457,177 550,177 Q638,177 697.5,208.5 Q757,240 791,300 L791,1082 L1034,1082 L1034,0 L822,0 M692,1217 L496,1217 L237,1477 L239,1483 L507,1483"/> 
            <glyph glyph-name="ú" unicode="&#xFA;" horiz-adv-x="1034" d=" M802,158 Q751,72 673,25.5 Q595,-21 493,-21 Q319,-21 221,90 Q123,201 123,435 L123,1082 L365,1082 L365,433 Q365,291 411,234 Q457,177 550,177 Q638,177 697.5,208.5 Q757,240 791,300 L791,1082 L1034,1082 L1034,0 L822,0 M651,1482 L920,1482 L922,1476 L649,1216 L460,1216"/> 
            <glyph glyph-name="û" unicode="&#xFB;" horiz-adv-x="1034" d=" M802,158 Q751,72 673,25.5 Q595,-21 493,-21 Q319,-21 221,90 Q123,201 123,435 L123,1082 L365,1082 L365,433 Q365,291 411,234 Q457,177 550,177 Q638,177 697.5,208.5 Q757,240 791,300 L791,1082 L1034,1082 L1034,0 L822,0 M916,1278 L916,1254 L721,1254 L578,1393 L436,1254 L243,1254 L243,1280 L507,1520 L650,1520"/> 
            <glyph glyph-name="ü" unicode="&#xFC;" horiz-adv-x="1034" d=" M802,158 Q751,72 673,25.5 Q595,-21 493,-21 Q319,-21 221,90 Q123,201 123,435 L123,1082 L365,1082 L365,433 Q365,291 411,234 Q457,177 550,177 Q638,177 697.5,208.5 Q757,240 791,300 L791,1082 L1034,1082 L1034,0 L822,0 M941,1258 L699,1258 L699,1462 L941,1462 M457,1258 L216,1258 L216,1462 L457,1462"/> 
            <glyph glyph-name="ý" unicode="&#xFD;" horiz-adv-x="1020" d=" M487,434 L511,326 L517,326 L754,1082 L1020,1082 L572,-164 Q529,-277 451,-357 Q373,-437 230,-437 Q200,-437 165.5,-431 Q131,-425 99,-417 L126,-229 Q139,-230 163,-232 Q187,-234 199,-234 Q265,-234 304.5,-189 Q344,-144 369,-85 L409,13 L16,1082 L281,1082 M591,1482 L860,1482 L862,1476 L589,1216 L400,1216"/> 
            <glyph glyph-name="þ" unicode="&#xFE;" horiz-adv-x="1086" d=" M1086,505 Q1086,269 975,124 Q864,-21 666,-21 Q574,-21 503,12 Q432,45 381,109 L381,-416 L138,-416 L138,1560 L381,1560 L381,965 Q431,1031 501.5,1066.5 Q572,1102 663,1102 Q863,1102 974.5,943.5 Q1086,785 1086,526 M844,526 Q844,692 781.5,797.5 Q719,903 595,903 Q519,903 466,870.5 Q413,838 381,780 L381,291 Q413,234 466,203.5 Q519,173 597,173 Q721,173 782.5,264.5 Q844,356 844,505"/> 
            <glyph glyph-name="ÿ" unicode="&#xFF;" horiz-adv-x="1020" d=" M487,434 L511,326 L517,326 L754,1082 L1020,1082 L572,-164 Q529,-277 451,-357 Q373,-437 230,-437 Q200,-437 165.5,-431 Q131,-425 99,-417 L126,-229 Q139,-230 163,-232 Q187,-234 199,-234 Q265,-234 304.5,-189 Q344,-144 369,-85 L409,13 L16,1082 L281,1082 M1139,1258 L897,1258 L897,1462 L1139,1462 M655,1258 L414,1258 L414,1462 L655,1462"/> 
            <glyph glyph-name="Ā" unicode="&#x100;" horiz-adv-x="1310" d=" M948,340 L378,340 L262,0 L16,0 L551,1456 L781,1456 L1310,0 L1063,0 M448,543 L879,543 L668,1165 L662,1165 M1024,1624 L297,1624 L297,1782 L1024,1782"/> 
            <glyph glyph-name="ā" unicode="&#x101;" horiz-adv-x="1025" d=" M779,0 Q766,41 757.5,80 Q749,119 746,158 Q696,82 614.5,30.5 Q533,-21 432,-21 Q263,-21 172.5,66 Q82,153 82,305 Q82,462 206,549.5 Q330,637 555,637 L744,637 L744,732 Q744,817 694,865 Q644,913 551,913 Q468,913 419,873 Q370,833 370,770 L136,770 L135,776 Q128,904 249.5,1003 Q371,1102 566,1102 Q755,1102 871,1006 Q987,910 987,730 L987,249 Q987,182 996,120.5 Q1005,59 1025,0 M481,174 Q573,174 646.5,220 Q720,266 744,325 L744,485 L551,485 Q445,485 385,432.5 Q325,380 325,309 Q325,247 365.5,210.5 Q406,174 481,174 M917,1302 L190,1302 L190,1460 L917,1460"/> 
            <glyph glyph-name="Ă" unicode="&#x102;" horiz-adv-x="1310" d=" M948,340 L378,340 L262,0 L16,0 L551,1456 L781,1456 L1310,0 L1063,0 M448,543 L879,543 L668,1165 L662,1165 M975,1884 L978,1878 Q982,1755 895,1678 Q808,1601 661,1601 Q513,1601 426,1678 Q339,1755 344,1878 L347,1884 L527,1884 Q527,1826 559.5,1789 Q592,1752 661,1752 Q728,1752 761,1789 Q794,1826 794,1884"/> 
            <glyph glyph-name="ă" unicode="&#x103;" horiz-adv-x="1025" d=" M779,0 Q766,41 757.5,80 Q749,119 746,158 Q696,82 614.5,30.5 Q533,-21 432,-21 Q263,-21 172.5,66 Q82,153 82,305 Q82,462 206,549.5 Q330,637 555,637 L744,637 L744,732 Q744,817 694,865 Q644,913 551,913 Q468,913 419,873 Q370,833 370,770 L136,770 L135,776 Q128,904 249.5,1003 Q371,1102 566,1102 Q755,1102 871,1006 Q987,910 987,730 L987,249 Q987,182 996,120.5 Q1005,59 1025,0 M481,174 Q573,174 646.5,220 Q720,266 744,325 L744,485 L551,485 Q445,485 385,432.5 Q325,380 325,309 Q325,247 365.5,210.5 Q406,174 481,174 M865,1562 L868,1556 Q872,1433 785,1356 Q698,1279 551,1279 Q403,1279 316,1356 Q229,1433 234,1556 L237,1562 L417,1562 Q417,1504 449.5,1467 Q482,1430 551,1430 Q618,1430 651,1467 Q684,1504 684,1562"/> 
            <glyph glyph-name="Ą" unicode="&#x104;" horiz-adv-x="1352" d=" M948,340 L378,340 L262,0 L16,0 L551,1456 L781,1456 L1310,0 L1063,0 M448,543 L879,543 L668,1165 L662,1165 M1257,0 Q1195,-51 1162.5,-93.5 Q1130,-136 1130,-187 Q1130,-221 1149.5,-244 Q1169,-267 1221,-267 Q1248,-267 1268.5,-261 Q1289,-255 1317,-244 L1352,-386 Q1316,-405 1272,-417.5 Q1228,-430 1167,-430 Q1066,-430 1000.5,-373.5 Q935,-317 935,-216 Q935,-137 989.5,-66 Q1044,5 1158,60"/> 
            <glyph glyph-name="ą" unicode="&#x105;" horiz-adv-x="1067" d=" M779,0 Q766,41 757.5,80 Q749,119 746,158 Q696,82 614.5,30.5 Q533,-21 432,-21 Q263,-21 172.5,66 Q82,153 82,305 Q82,462 206,549.5 Q330,637 555,637 L744,637 L744,732 Q744,817 694,865 Q644,913 551,913 Q468,913 419,873 Q370,833 370,770 L136,770 L135,776 Q128,904 249.5,1003 Q371,1102 566,1102 Q755,1102 871,1006 Q987,910 987,730 L987,249 Q987,182 996,120.5 Q1005,59 1025,0 M481,174 Q573,174 646.5,220 Q720,266 744,325 L744,485 L551,485 Q445,485 385,432.5 Q325,380 325,309 Q325,247 365.5,210.5 Q406,174 481,174 M972,0 Q910,-51 877.5,-93.5 Q845,-136 845,-187 Q845,-221 864.5,-244 Q884,-267 936,-267 Q963,-267 983.5,-261 Q1004,-255 1032,-244 L1067,-386 Q1031,-405 987,-417.5 Q943,-430 882,-430 Q781,-430 715.5,-373.5 Q650,-317 650,-216 Q650,-137 704.5,-66 Q759,5 873,60"/> 
            <glyph glyph-name="Ć" unicode="&#x106;" horiz-adv-x="1228" d=" M1221,483 L1223,477 Q1227,256 1079.5,117.5 Q932,-21 680,-21 Q425,-21 265.5,150.5 Q106,322 106,589 L106,866 Q106,1132 263.5,1304.5 Q421,1477 673,1477 Q931,1477 1079.5,1341.5 Q1228,1206 1224,977 L1222,971 L987,971 Q987,1118 907.5,1200 Q828,1282 673,1282 Q524,1282 436.5,1164 Q349,1046 349,868 L349,589 Q349,409 438.5,291 Q528,173 680,173 Q831,173 909,254 Q987,335 987,483 M748,1846 L1017,1846 L1019,1840 L746,1580 L557,1580"/> 
            <glyph glyph-name="ć" unicode="&#x107;" horiz-adv-x="1013" d=" M575,173 Q664,173 725,225.5 Q786,278 786,357 L1006,357 L1008,351 Q1013,199 884.5,89 Q756,-21 575,-21 Q336,-21 208.5,133 Q81,287 81,523 L81,558 Q81,793 208.5,947.5 Q336,1102 575,1102 Q770,1102 891.5,988.5 Q1013,875 1009,700 L1007,694 L786,694 Q786,783 727.5,845 Q669,907 575,907 Q438,907 381,807.5 Q324,708 324,558 L324,523 Q324,370 381,271.5 Q438,173 575,173 M607,1503 L876,1503 L878,1497 L605,1237 L416,1237"/> 
            <glyph glyph-name="Ĉ" unicode="&#x108;" horiz-adv-x="1228" d=" M1221,483 L1223,477 Q1227,256 1079.5,117.5 Q932,-21 680,-21 Q425,-21 265.5,150.5 Q106,322 106,589 L106,866 Q106,1132 263.5,1304.5 Q421,1477 673,1477 Q931,1477 1079.5,1341.5 Q1228,1206 1224,977 L1222,971 L987,971 Q987,1118 907.5,1200 Q828,1282 673,1282 Q524,1282 436.5,1164 Q349,1046 349,868 L349,589 Q349,409 438.5,291 Q528,173 680,173 Q831,173 909,254 Q987,335 987,483 M1013,1642 L1013,1618 L818,1618 L675,1757 L533,1618 L340,1618 L340,1644 L604,1884 L747,1884"/> 
            <glyph glyph-name="ĉ" unicode="&#x109;" horiz-adv-x="1013" d=" M575,173 Q664,173 725,225.5 Q786,278 786,357 L1006,357 L1008,351 Q1013,199 884.5,89 Q756,-21 575,-21 Q336,-21 208.5,133 Q81,287 81,523 L81,558 Q81,793 208.5,947.5 Q336,1102 575,1102 Q770,1102 891.5,988.5 Q1013,875 1009,700 L1007,694 L786,694 Q786,783 727.5,845 Q669,907 575,907 Q438,907 381,807.5 Q324,708 324,558 L324,523 Q324,370 381,271.5 Q438,173 575,173 M872,1299 L872,1275 L677,1275 L534,1414 L392,1275 L199,1275 L199,1301 L463,1541 L606,1541"/> 
            <glyph glyph-name="Ċ" unicode="&#x10A;" horiz-adv-x="1228" d=" M1221,483 L1223,477 Q1227,256 1079.5,117.5 Q932,-21 680,-21 Q425,-21 265.5,150.5 Q106,322 106,589 L106,866 Q106,1132 263.5,1304.5 Q421,1477 673,1477 Q931,1477 1079.5,1341.5 Q1228,1206 1224,977 L1222,971 L987,971 Q987,1118 907.5,1200 Q828,1282 673,1282 Q524,1282 436.5,1164 Q349,1046 349,868 L349,589 Q349,409 438.5,291 Q528,173 680,173 Q831,173 909,254 Q987,335 987,483 M803,1623 L544,1623 L544,1846 L803,1846"/> 
            <glyph glyph-name="ċ" unicode="&#x10B;" horiz-adv-x="1013" d=" M575,173 Q664,173 725,225.5 Q786,278 786,357 L1006,357 L1008,351 Q1013,199 884.5,89 Q756,-21 575,-21 Q336,-21 208.5,133 Q81,287 81,523 L81,558 Q81,793 208.5,947.5 Q336,1102 575,1102 Q770,1102 891.5,988.5 Q1013,875 1009,700 L1007,694 L786,694 Q786,783 727.5,845 Q669,907 575,907 Q438,907 381,807.5 Q324,708 324,558 L324,523 Q324,370 381,271.5 Q438,173 575,173 M662,1280 L403,1280 L403,1503 L662,1503"/> 
            <glyph glyph-name="Č" unicode="&#x10C;" horiz-adv-x="1228" d=" M1221,483 L1223,477 Q1227,256 1079.5,117.5 Q932,-21 680,-21 Q425,-21 265.5,150.5 Q106,322 106,589 L106,866 Q106,1132 263.5,1304.5 Q421,1477 673,1477 Q931,1477 1079.5,1341.5 Q1228,1206 1224,977 L1222,971 L987,971 Q987,1118 907.5,1200 Q828,1282 673,1282 Q524,1282 436.5,1164 Q349,1046 349,868 L349,589 Q349,409 438.5,291 Q528,173 680,173 Q831,173 909,254 Q987,335 987,483 M674,1755 L806,1891 L1021,1891 L1021,1874 L753,1622 L596,1622 L329,1872 L329,1891 L542,1891"/> 
            <glyph glyph-name="č" unicode="&#x10D;" horiz-adv-x="1013" d=" M575,173 Q664,173 725,225.5 Q786,278 786,357 L1006,357 L1008,351 Q1013,199 884.5,89 Q756,-21 575,-21 Q336,-21 208.5,133 Q81,287 81,523 L81,558 Q81,793 208.5,947.5 Q336,1102 575,1102 Q770,1102 891.5,988.5 Q1013,875 1009,700 L1007,694 L786,694 Q786,783 727.5,845 Q669,907 575,907 Q438,907 381,807.5 Q324,708 324,558 L324,523 Q324,370 381,271.5 Q438,173 575,173 M533,1412 L665,1548 L880,1548 L880,1531 L612,1279 L455,1279 L188,1529 L188,1548 L401,1548"/> 
            <glyph glyph-name="Ď" unicode="&#x10E;" horiz-adv-x="1255" d=" M159,0 L159,1456 L631,1456 Q908,1456 1081.5,1283 Q1255,1110 1255,838 L1255,617 Q1255,344 1081.5,172 Q908,0 631,0 M402,1261 L402,194 L624,194 Q805,194 908.5,312 Q1012,430 1012,617 L1012,840 Q1012,1025 908.5,1143 Q805,1261 624,1261 M607,1734 L739,1870 L954,1870 L954,1853 L686,1601 L529,1601 L262,1851 L262,1870 L475,1870"/> 
            <glyph glyph-name="ď" unicode="&#x10F;" horiz-adv-x="1338" d=" M83,526 Q83,785 194,943.5 Q305,1102 506,1102 Q594,1102 663.5,1066.5 Q733,1031 784,965 L784,1560 L1027,1560 L1027,0 L823,0 L799,134 Q747,58 674,18.5 Q601,-21 504,-21 Q305,-21 194,124 Q83,269 83,505 M326,505 Q326,355 383.5,266 Q441,177 566,177 Q643,177 696.5,210 Q750,243 784,304 L784,776 Q750,836 696,869.5 Q642,903 568,903 Q444,903 385,798.5 Q326,694 326,526 M1338,1408 L1212,1170 L1102,1170 L1163,1418 L1163,1560 L1338,1560"/> 
            <glyph glyph-name="Đ" unicode="&#x110;" horiz-adv-x="1285" d=" M189,0 L189,657 L36,657 L36,827 L189,827 L189,1456 L661,1456 Q938,1456 1111.5,1283 Q1285,1110 1285,838 L1285,617 Q1285,344 1111.5,172 Q938,0 661,0 M691,657 L432,657 L432,194 L654,194 Q835,194 938.5,312 Q1042,430 1042,617 L1042,840 Q1042,1025 938.5,1143 Q835,1261 654,1261 L432,1261 L432,827 L691,827"/> 
            <glyph glyph-name="đ" unicode="&#x111;" horiz-adv-x="1199" d=" M1199,1225 L1027,1225 L1027,0 L823,0 L799,134 Q747,58 674,18.5 Q601,-21 504,-21 Q305,-21 194,124 Q83,269 83,505 L83,526 Q83,785 194,943.5 Q305,1102 506,1102 Q594,1102 663.5,1066.5 Q733,1031 784,965 L784,1225 L544,1225 L544,1395 L784,1395 L784,1560 L1027,1560 L1027,1395 L1199,1395 M326,505 Q326,355 383.5,266 Q441,177 566,177 Q643,177 696.5,210 Q750,243 784,304 L784,776 Q750,836 696,869.5 Q642,903 568,903 Q444,903 385,798.5 Q326,694 326,526"/> 
            <glyph glyph-name="Ē" unicode="&#x112;" horiz-adv-x="1141" d=" M1039,655 L402,655 L402,194 L1141,194 L1141,0 L159,0 L159,1456 L1134,1456 L1134,1261 L402,1261 L402,850 L1039,850 M984,1624 L257,1624 L257,1782 L984,1782"/> 
            <glyph glyph-name="ē" unicode="&#x113;" horiz-adv-x="1016" d=" M592,-21 Q362,-21 225.5,129.5 Q89,280 89,516 L89,556 Q89,792 224.5,947.5 Q360,1103 564,1102 Q783,1102 899.5,969.5 Q1016,837 1016,614 L1016,471 L341,471 L339,466 Q345,337 414.5,255 Q484,173 607,173 Q705,173 775,197 Q845,221 910,266 L988,107 Q927,53 826,16 Q725,-21 592,-21 M564,907 Q474,907 416,835.5 Q358,764 344,654 L346,649 L775,649 L775,674 Q775,777 722.5,842 Q670,907 564,907 M919,1303 L192,1303 L192,1461 L919,1461"/> 
            <glyph glyph-name="Ĕ" unicode="&#x114;" horiz-adv-x="1141" d=" M1039,655 L402,655 L402,194 L1141,194 L1141,0 L159,0 L159,1456 L1134,1456 L1134,1261 L402,1261 L402,850 L1039,850 M932,1884 L935,1878 Q939,1755 852,1678 Q765,1601 618,1601 Q470,1601 383,1678 Q296,1755 301,1878 L304,1884 L484,1884 Q484,1826 516.5,1789 Q549,1752 618,1752 Q685,1752 718,1789 Q751,1826 751,1884"/> 
            <glyph glyph-name="ĕ" unicode="&#x115;" horiz-adv-x="1016" d=" M592,-21 Q362,-21 225.5,129.5 Q89,280 89,516 L89,556 Q89,792 224.5,947.5 Q360,1103 564,1102 Q783,1102 899.5,969.5 Q1016,837 1016,614 L1016,471 L341,471 L339,466 Q345,337 414.5,255 Q484,173 607,173 Q705,173 775,197 Q845,221 910,266 L988,107 Q927,53 826,16 Q725,-21 592,-21 M564,907 Q474,907 416,835.5 Q358,764 344,654 L346,649 L775,649 L775,674 Q775,777 722.5,842 Q670,907 564,907 M867,1563 L870,1557 Q874,1434 787,1357 Q700,1280 553,1280 Q405,1280 318,1357 Q231,1434 236,1557 L239,1563 L419,1563 Q419,1505 451.5,1468 Q484,1431 553,1431 Q620,1431 653,1468 Q686,1505 686,1563"/> 
            <glyph glyph-name="Ė" unicode="&#x116;" horiz-adv-x="1141" d=" M1039,655 L402,655 L402,194 L1141,194 L1141,0 L159,0 L159,1456 L1134,1456 L1134,1261 L402,1261 L402,850 L1039,850 M745,1602 L486,1602 L486,1825 L745,1825"/> 
            <glyph glyph-name="ė" unicode="&#x117;" horiz-adv-x="1016" d=" M592,-21 Q362,-21 225.5,129.5 Q89,280 89,516 L89,556 Q89,792 224.5,947.5 Q360,1103 564,1102 Q783,1102 899.5,969.5 Q1016,837 1016,614 L1016,471 L341,471 L339,466 Q345,337 414.5,255 Q484,173 607,173 Q705,173 775,197 Q845,221 910,266 L988,107 Q927,53 826,16 Q725,-21 592,-21 M564,907 Q474,907 416,835.5 Q358,764 344,654 L346,649 L775,649 L775,674 Q775,777 722.5,842 Q670,907 564,907 M680,1281 L421,1281 L421,1504 L680,1504"/> 
            <glyph glyph-name="Ę" unicode="&#x118;" horiz-adv-x="1141" d=" M1039,655 L402,655 L402,194 L1141,194 L1141,0 L159,0 L159,1456 L1134,1456 L1134,1261 L402,1261 L402,850 L1039,850 M707,0 Q645,-51 612.5,-93.5 Q580,-136 580,-187 Q580,-221 599.5,-244 Q619,-267 671,-267 Q698,-267 718.5,-261 Q739,-255 767,-244 L802,-386 Q766,-405 722,-417.5 Q678,-430 617,-430 Q516,-430 450.5,-373.5 Q385,-317 385,-216 Q385,-137 439.5,-66 Q494,5 608,60"/> 
            <glyph glyph-name="ę" unicode="&#x119;" horiz-adv-x="1016" d=" M592,-21 Q362,-21 225.5,129.5 Q89,280 89,516 L89,556 Q89,792 224.5,947.5 Q360,1103 564,1102 Q783,1102 899.5,969.5 Q1016,837 1016,614 L1016,471 L341,471 L339,466 Q345,337 414.5,255 Q484,173 607,173 Q705,173 775,197 Q845,221 910,266 L988,107 Q927,53 826,16 Q725,-21 592,-21 M564,907 Q474,907 416,835.5 Q358,764 344,654 L346,649 L775,649 L775,674 Q775,777 722.5,842 Q670,907 564,907 M879,52 Q817,1 784.5,-41.5 Q752,-84 752,-135 Q752,-169 771.5,-192 Q791,-215 843,-215 Q870,-215 890.5,-209 Q911,-203 939,-192 L974,-334 Q938,-353 894,-365.5 Q850,-378 789,-378 Q688,-378 622.5,-321.5 Q557,-265 557,-164 Q557,-85 611.5,-14 Q666,57 780,112"/> 
            <glyph glyph-name="Ě" unicode="&#x11A;" horiz-adv-x="1141" d=" M1039,655 L402,655 L402,194 L1141,194 L1141,0 L159,0 L159,1456 L1134,1456 L1134,1261 L402,1261 L402,850 L1039,850 M616,1734 L748,1870 L963,1870 L963,1853 L695,1601 L538,1601 L271,1851 L271,1870 L484,1870"/> 
            <glyph glyph-name="ě" unicode="&#x11B;" horiz-adv-x="1016" d=" M592,-21 Q362,-21 225.5,129.5 Q89,280 89,516 L89,556 Q89,792 224.5,947.5 Q360,1103 564,1102 Q783,1102 899.5,969.5 Q1016,837 1016,614 L1016,471 L341,471 L339,466 Q345,337 414.5,255 Q484,173 607,173 Q705,173 775,197 Q845,221 910,266 L988,107 Q927,53 826,16 Q725,-21 592,-21 M564,907 Q474,907 416,835.5 Q358,764 344,654 L346,649 L775,649 L775,674 Q775,777 722.5,842 Q670,907 564,907 M551,1413 L683,1549 L898,1549 L898,1532 L630,1280 L473,1280 L206,1530 L206,1549 L419,1549"/> 
            <glyph glyph-name="Ĝ" unicode="&#x11C;" horiz-adv-x="1244" d=" M1244,197 Q1186,114 1053.5,46.5 Q921,-21 713,-21 Q450,-21 280,145.5 Q110,312 110,576 L110,880 Q110,1144 270.5,1310.5 Q431,1477 685,1477 Q942,1477 1084.5,1350.5 Q1227,1224 1230,1021 L1228,1015 L998,1015 Q990,1135 912.5,1208.5 Q835,1282 688,1282 Q537,1282 444.5,1169 Q352,1056 352,882 L352,576 Q352,400 452.5,286.5 Q553,173 713,173 Q827,173 898,199.5 Q969,226 1001,262 L1001,558 L712,558 L712,740 L1244,740 M1008,1642 L1008,1618 L813,1618 L670,1757 L528,1618 L335,1618 L335,1644 L599,1884 L742,1884"/> 
            <glyph glyph-name="ĝ" unicode="&#x11D;" horiz-adv-x="1032" d=" M84,526 Q84,784 197,943 Q310,1102 511,1102 Q608,1102 681.5,1060.5 Q755,1019 806,941 L830,1082 L1032,1082 L1032,0 Q1032,-209 903,-323 Q774,-437 537,-437 Q458,-437 366.5,-414.5 Q275,-392 201,-355 L253,-164 Q313,-195 385.5,-212.5 Q458,-230 535,-230 Q667,-230 728,-173.5 Q789,-117 789,0 L789,111 Q738,46 668.5,12.5 Q599,-21 509,-21 Q310,-21 197,124 Q84,269 84,505 M327,505 Q327,356 386.5,266.5 Q446,177 571,177 Q649,177 702.5,209.5 Q756,242 789,303 L789,777 Q755,836 701.5,869.5 Q648,903 573,903 Q448,903 387.5,798 Q327,693 327,526 M898,1299 L898,1275 L703,1275 L560,1414 L418,1275 L225,1275 L225,1301 L489,1541 L632,1541"/> 
            <glyph glyph-name="Ğ" unicode="&#x11E;" horiz-adv-x="1244" d=" M1244,197 Q1186,114 1053.5,46.5 Q921,-21 713,-21 Q450,-21 280,145.5 Q110,312 110,576 L110,880 Q110,1144 270.5,1310.5 Q431,1477 685,1477 Q942,1477 1084.5,1350.5 Q1227,1224 1230,1021 L1228,1015 L998,1015 Q990,1135 912.5,1208.5 Q835,1282 688,1282 Q537,1282 444.5,1169 Q352,1056 352,882 L352,576 Q352,400 452.5,286.5 Q553,173 713,173 Q827,173 898,199.5 Q969,226 1001,262 L1001,558 L712,558 L712,740 L1244,740 M985,1905 L988,1899 Q992,1776 905,1699 Q818,1622 671,1622 Q523,1622 436,1699 Q349,1776 354,1899 L357,1905 L537,1905 Q537,1847 569.5,1810 Q602,1773 671,1773 Q738,1773 771,1810 Q804,1847 804,1905"/> 
            <glyph glyph-name="ğ" unicode="&#x11F;" horiz-adv-x="1032" d=" M84,526 Q84,784 197,943 Q310,1102 511,1102 Q608,1102 681.5,1060.5 Q755,1019 806,941 L830,1082 L1032,1082 L1032,0 Q1032,-209 903,-323 Q774,-437 537,-437 Q458,-437 366.5,-414.5 Q275,-392 201,-355 L253,-164 Q313,-195 385.5,-212.5 Q458,-230 535,-230 Q667,-230 728,-173.5 Q789,-117 789,0 L789,111 Q738,46 668.5,12.5 Q599,-21 509,-21 Q310,-21 197,124 Q84,269 84,505 M327,505 Q327,356 386.5,266.5 Q446,177 571,177 Q649,177 702.5,209.5 Q756,242 789,303 L789,777 Q755,836 701.5,869.5 Q648,903 573,903 Q448,903 387.5,798 Q327,693 327,526 M875,1562 L878,1556 Q882,1433 795,1356 Q708,1279 561,1279 Q413,1279 326,1356 Q239,1433 244,1556 L247,1562 L427,1562 Q427,1504 459.5,1467 Q492,1430 561,1430 Q628,1430 661,1467 Q694,1504 694,1562"/> 
            <glyph glyph-name="Ġ" unicode="&#x120;" horiz-adv-x="1244" d=" M1244,197 Q1186,114 1053.5,46.5 Q921,-21 713,-21 Q450,-21 280,145.5 Q110,312 110,576 L110,880 Q110,1144 270.5,1310.5 Q431,1477 685,1477 Q942,1477 1084.5,1350.5 Q1227,1224 1230,1021 L1228,1015 L998,1015 Q990,1135 912.5,1208.5 Q835,1282 688,1282 Q537,1282 444.5,1169 Q352,1056 352,882 L352,576 Q352,400 452.5,286.5 Q553,173 713,173 Q827,173 898,199.5 Q969,226 1001,262 L1001,558 L712,558 L712,740 L1244,740 M798,1623 L539,1623 L539,1846 L798,1846"/> 
            <glyph glyph-name="ġ" unicode="&#x121;" horiz-adv-x="1032" d=" M84,526 Q84,784 197,943 Q310,1102 511,1102 Q608,1102 681.5,1060.5 Q755,1019 806,941 L830,1082 L1032,1082 L1032,0 Q1032,-209 903,-323 Q774,-437 537,-437 Q458,-437 366.5,-414.5 Q275,-392 201,-355 L253,-164 Q313,-195 385.5,-212.5 Q458,-230 535,-230 Q667,-230 728,-173.5 Q789,-117 789,0 L789,111 Q738,46 668.5,12.5 Q599,-21 509,-21 Q310,-21 197,124 Q84,269 84,505 M327,505 Q327,356 386.5,266.5 Q446,177 571,177 Q649,177 702.5,209.5 Q756,242 789,303 L789,777 Q755,836 701.5,869.5 Q648,903 573,903 Q448,903 387.5,798 Q327,693 327,526 M688,1280 L429,1280 L429,1503 L688,1503"/> 
            <glyph glyph-name="Ģ" unicode="&#x122;" horiz-adv-x="1244" d=" M1244,197 Q1186,114 1053.5,46.5 Q921,-21 713,-21 Q450,-21 280,145.5 Q110,312 110,576 L110,880 Q110,1144 270.5,1310.5 Q431,1477 685,1477 Q942,1477 1084.5,1350.5 Q1227,1224 1230,1021 L1228,1015 L998,1015 Q990,1135 912.5,1208.5 Q835,1282 688,1282 Q537,1282 444.5,1169 Q352,1056 352,882 L352,576 Q352,400 452.5,286.5 Q553,173 713,173 Q827,173 898,199.5 Q969,226 1001,262 L1001,558 L712,558 L712,740 L1244,740 M757,65274 L631,65036 L521,65036 L582,65284 L582,65426 L757,65426"/> 
            <glyph glyph-name="ģ" unicode="&#x123;" horiz-adv-x="1032" d=" M84,526 Q84,784 197,943 Q310,1102 511,1102 Q608,1102 681.5,1060.5 Q755,1019 806,941 L830,1082 L1032,1082 L1032,0 Q1032,-209 903,-323 Q774,-437 537,-437 Q458,-437 366.5,-414.5 Q275,-392 201,-355 L253,-164 Q313,-195 385.5,-212.5 Q458,-230 535,-230 Q667,-230 728,-173.5 Q789,-117 789,0 L789,111 Q738,46 668.5,12.5 Q599,-21 509,-21 Q310,-21 197,124 Q84,269 84,505 M327,505 Q327,356 386.5,266.5 Q446,177 571,177 Q649,177 702.5,209.5 Q756,242 789,303 L789,777 Q755,836 701.5,869.5 Q648,903 573,903 Q448,903 387.5,798 Q327,693 327,526 M445,1419 L564,1674 L690,1674 L663,1409 L663,1255 L445,1255"/> 
            <glyph glyph-name="Ĥ" unicode="&#x124;" horiz-adv-x="1296" d=" M1296,0 L1054,0 L1054,621 L402,621 L402,0 L159,0 L159,1456 L402,1456 L402,816 L1054,816 L1054,1456 L1296,1456 M1060,1621 L1060,1597 L865,1597 L722,1736 L580,1597 L387,1597 L387,1623 L651,1863 L794,1863"/> 
            <glyph glyph-name="ĥ" unicode="&#x125;" horiz-adv-x="1036" d=" M368,942 Q422,1018 499.5,1060 Q577,1102 671,1102 Q843,1102 939.5,993.5 Q1036,885 1036,659 L1036,0 L793,0 L793,661 Q793,789 742,846 Q691,903 589,903 Q518,903 461.5,873.5 Q405,844 368,792 L368,0 L125,0 L125,1560 L368,1560 M851,1621 L851,1597 L656,1597 L513,1736 L371,1597 L178,1597 L178,1623 L442,1863 L585,1863"/> 
            <glyph glyph-name="Ħ" unicode="&#x126;" horiz-adv-x="1430" d=" M1294,1188 L1430,1188 L1430,1026 L1294,1026 L1294,0 L1052,0 L1052,621 L400,621 L400,0 L157,0 L157,1026 L24,1026 L24,1188 L157,1188 L157,1456 L400,1456 L400,1188 L1052,1188 L1052,1456 L1294,1456 M400,816 L1052,816 L1052,1026 L400,1026"/> 
            <glyph glyph-name="ħ" unicode="&#x127;" horiz-adv-x="1066" d=" M652,1223 L398,1223 L398,942 Q452,1018 529.5,1060 Q607,1102 701,1102 Q873,1102 969.5,993.5 Q1066,885 1066,659 L1066,0 L823,0 L823,661 Q823,789 772,846 Q721,903 619,903 Q548,903 491.5,873.5 Q435,844 398,792 L398,0 L155,0 L155,1223 L-3,1223 L-3,1393 L155,1393 L155,1560 L398,1560 L398,1393 L652,1393"/> 
            <glyph glyph-name="Ĩ" unicode="&#x128;" horiz-adv-x="657" d=" M416,0 L173,0 L173,1456 L416,1456 M66193,1852 Q66193,1757 66133,1690 Q66073,1623 65983,1623 Q65912,1623 65829.5,1667.5 Q65747,1712 65696,1712 Q65657,1712 65630,1679.5 Q65603,1647 65603,1602 L65472,1637 Q65472,1731 65531.5,1800.5 Q65591,1870 65681,1870 Q65737,1870 65826.5,1825.5 Q65916,1781 65968,1781 Q66006,1781 66034,1813 Q66062,1845 66062,1891"/> 
            <glyph glyph-name="ĩ" unicode="&#x129;" horiz-adv-x="628" d=" M386,0 L143,0 L143,1082 L386,1082 M66164,1509 Q66164,1414 66104,1347 Q66044,1280 65954,1280 Q65883,1280 65800.5,1324.5 Q65718,1369 65667,1369 Q65628,1369 65601,1336.5 Q65574,1304 65574,1259 L65443,1294 Q65443,1388 65502.5,1457.5 Q65562,1527 65652,1527 Q65708,1527 65797.5,1482.5 Q65887,1438 65939,1438 Q65977,1438 66005,1470 Q66033,1502 66033,1548"/> 
            <glyph glyph-name="Ī" unicode="&#x12A;" horiz-adv-x="663" d=" M416,0 L173,0 L173,1456 L416,1456 M66199,1624 L65472,1624 L65472,1782 L66199,1782"/> 
            <glyph glyph-name="ī" unicode="&#x12B;" horiz-adv-x="634" d=" M386,0 L143,0 L143,1082 L386,1082 M66170,66819 L65443,66819 L65443,66977 L66170,66977"/> 
            <glyph glyph-name="Ĭ" unicode="&#x12C;" horiz-adv-x="618" d=" M416,0 L173,0 L173,1456 L416,1456 M66147,1884 L66150,1878 Q66154,1755 66067,1678 Q65980,1601 65833,1601 Q65685,1601 65598,1678 Q65511,1755 65516,1878 L65519,1884 L65699,1884 Q65699,1826 65731.5,1789 Q65764,1752 65833,1752 Q65900,1752 65933,1789 Q65966,1826 65966,1884"/> 
            <glyph glyph-name="ĭ" unicode="&#x12D;" horiz-adv-x="589" d=" M386,0 L143,0 L143,1082 L386,1082 M66118,1541 L66121,1535 Q66125,1412 66038,1335 Q65951,1258 65804,1258 Q65656,1258 65569,1335 Q65482,1412 65487,1535 L65490,1541 L65670,1541 Q65670,1483 65702.5,1446 Q65735,1409 65804,1409 Q65871,1409 65904,1446 Q65937,1483 65937,1541"/> 
            <glyph glyph-name="Į" unicode="&#x12E;" horiz-adv-x="460" d=" M416,0 L173,0 L173,1456 L416,1456 M621,0 Q559,-51 526.5,-93.5 Q494,-136 494,-187 Q494,-221 513.5,-244 Q533,-267 585,-267 Q612,-267 632.5,-261 Q653,-255 681,-244 L716,-386 Q680,-405 636,-417.5 Q592,-430 531,-430 Q430,-430 364.5,-373.5 Q299,-317 299,-216 Q299,-137 353.5,-66 Q408,5 522,60"/> 
            <glyph glyph-name="į" unicode="&#x12F;" horiz-adv-x="431" d=" M387,0 L144,0 L144,1082 L387,1082 M387,1347 L144,1347 L144,1560 L387,1560 M592,0 Q530,-51 497.5,-93.5 Q465,-136 465,-187 Q465,-221 484.5,-244 Q504,-267 556,-267 Q583,-267 603.5,-261 Q624,-255 652,-244 L687,-386 Q651,-405 607,-417.5 Q563,-430 502,-430 Q401,-430 335.5,-373.5 Q270,-317 270,-216 Q270,-137 324.5,-66 Q379,5 493,60"/> 
            <glyph glyph-name="İ" unicode="&#x130;" horiz-adv-x="422" d=" M416,0 L173,0 L173,1456 L416,1456 M422,1602 L163,1602 L163,1825 L422,1825"/> 
            <glyph glyph-name="ı" unicode="&#x131;" horiz-adv-x="386" d=" M386,0 L143,0 L143,1082 L386,1082"/> 
            <glyph glyph-name="Ĳ" unicode="&#x132;" horiz-adv-x="1587" d=" M416,0 L173,0 L173,1456 L416,1456 M1344,1456 L1587,1456 L1587,421 Q1587,217 1457,98 Q1327,-21 1123,-21 Q904,-21 776,88 Q648,197 653,407 L655,413 L890,413 Q890,289 951.5,231 Q1013,173 1123,173 Q1219,173 1281.5,240 Q1344,307 1344,421"/> 
            <glyph glyph-name="ĳ" unicode="&#x133;" horiz-adv-x="929" d=" M387,0 L144,0 L144,1082 L387,1082 M387,1347 L144,1347 L144,1560 L387,1560 M929,1082 L929,-63 Q929,-242 836,-339.5 Q743,-437 577,-437 Q541,-437 512,-433 Q483,-429 451,-420 L465,-226 Q482,-231 507,-234.5 Q532,-238 553,-238 Q615,-238 650.5,-195.5 Q686,-153 686,-63 L686,1082 M923,1347 L680,1347 L680,1560 L923,1560"/> 
            <glyph glyph-name="Ĵ" unicode="&#x134;" horiz-adv-x="1202" d=" M755,1456 L998,1456 L998,421 Q998,217 868,98 Q738,-21 534,-21 Q315,-21 187,88 Q59,197 64,407 L66,413 L301,413 Q301,289 362.5,231 Q424,173 534,173 Q630,173 692.5,240 Q755,307 755,421 M1202,1613 L1202,1589 L1007,1589 L864,1728 L722,1589 L529,1589 L529,1615 L793,1855 L936,1855"/> 
            <glyph glyph-name="ĵ" unicode="&#x135;" horiz-adv-x="613" d=" M403,1082 L403,-63 Q403,-242 310,-339.5 Q217,-437 51,-437 Q15,-437 -14,-433 Q-43,-429 -75,-420 L-60,-229 Q-43,-234 -14,-238 Q15,-242 37,-242 Q95,-242 128,-194.5 Q161,-147 161,-63 L161,1082 M66149,66802 L66149,66778 L65954,66778 L65811,66917 L65669,66778 L65476,66778 L65476,66804 L65740,67044 L65883,67044"/> 
            <glyph glyph-name="Ķ" unicode="&#x136;" horiz-adv-x="1327" d=" M570,630 L402,630 L402,0 L159,0 L159,1456 L402,1456 L402,839 L541,839 L998,1456 L1286,1456 L756,761 L1327,0 L1030,0 M719,65288 L593,65050 L483,65050 L544,65298 L544,65440 L719,65440"/> 
            <glyph glyph-name="ķ" unicode="&#x137;" horiz-adv-x="1084" d=" M480,473 L371,473 L371,0 L129,0 L129,1560 L371,1560 L371,668 L472,668 L745,1082 L1031,1082 L674,590 L1084,0 L802,0 M628,65290 L502,65052 L392,65052 L453,65300 L453,65442 L628,65442"/> 
            <glyph glyph-name="ĸ" unicode="&#x138;" horiz-adv-x="1131" d=" M495,428 L384,428 L384,0 L142,0 L142,1082 L384,1082 L384,650 L469,650 L805,1082 L1098,1082 L1101,1077 L685,564 L1131,0 L822,0"/> 
            <glyph glyph-name="Ĺ" unicode="&#x139;" horiz-adv-x="1071" d=" M402,194 L1071,194 L1071,0 L159,0 L159,1456 L402,1456 M353,1784 L622,1784 L624,1778 L351,1518 L162,1518"/> 
            <glyph glyph-name="ĺ" unicode="&#x13A;" horiz-adv-x="609" d=" M387,0 L144,0 L144,1560 L387,1560 M338,1865 L607,1865 L609,1859 L336,1599 L147,1599"/> 
            <glyph glyph-name="Ļ" unicode="&#x13B;" horiz-adv-x="1071" d=" M402,194 L1071,194 L1071,0 L159,0 L159,1456 L402,1456 M698,65290 L572,65052 L462,65052 L523,65300 L523,65442 L698,65442"/> 
            <glyph glyph-name="ļ" unicode="&#x13C;" horiz-adv-x="387" d=" M387,0 L144,0 L144,1560 L387,1560 M344,65290 L218,65052 L108,65052 L169,65300 L169,65442 L344,65442"/> 
            <glyph glyph-name="Ľ" unicode="&#x13D;" horiz-adv-x="1071" d=" M402,194 L1071,194 L1071,0 L159,0 L159,1456 L402,1456 M833,1306 L707,1068 L597,1068 L658,1316 L658,1458 L833,1458"/> 
            <glyph glyph-name="ľ" unicode="&#x13E;" horiz-adv-x="715" d=" M387,0 L144,0 L144,1560 L387,1560 M715,1408 L589,1170 L479,1170 L540,1418 L540,1560 L715,1560"/> 
            <glyph glyph-name="Ŀ" unicode="&#x13F;" horiz-adv-x="1071" d=" M402,194 L1071,194 L1071,0 L159,0 L159,1456 L402,1456 M856,66220 L597,66220 L597,66443 L856,66443"/> 
            <glyph glyph-name="ŀ" unicode="&#x140;" horiz-adv-x="759" d=" M387,0 L144,0 L144,1560 L387,1560 M759,66183 L500,66183 L500,66406 L759,66406"/> 
            <glyph glyph-name="Ł" unicode="&#x141;" horiz-adv-x="1054" d=" M385,864 L645,943 L645,759 L385,680 L385,194 L1054,194 L1054,0 L142,0 L142,607 L27,572 L27,756 L142,791 L142,1456 L385,1456"/> 
            <glyph glyph-name="ł" unicode="&#x142;" horiz-adv-x="552" d=" M407,891 L552,943 L552,759 L407,707 L407,0 L164,0 L164,621 L27,572 L27,756 L164,805 L164,1560 L407,1560"/> 
            <glyph glyph-name="Ń" unicode="&#x143;" horiz-adv-x="1296" d=" M1296,0 L1054,0 L408,1063 L402,1061 L402,0 L159,0 L159,1456 L402,1456 L1048,394 L1054,396 L1054,1456 L1296,1456 M799,1825 L1068,1825 L1070,1819 L797,1559 L608,1559"/> 
            <glyph glyph-name="ń" unicode="&#x144;" horiz-adv-x="1035" d=" M348,1082 L362,926 Q415,1009 495.5,1055.5 Q576,1102 677,1102 Q846,1102 940.5,999.5 Q1035,897 1035,680 L1035,0 L792,0 L792,678 Q792,800 741.5,851.5 Q691,903 588,903 Q517,903 461,871.5 Q405,840 369,785 L369,0 L126,0 L126,1082 M650,1503 L919,1503 L921,1497 L648,1237 L459,1237"/> 
            <glyph glyph-name="Ņ" unicode="&#x145;" horiz-adv-x="1296" d=" M1296,0 L1054,0 L408,1063 L402,1061 L402,0 L159,0 L159,1456 L402,1456 L1048,394 L1054,396 L1054,1456 L1296,1456 M805,65290 L679,65052 L569,65052 L630,65300 L630,65442 L805,65442"/> 
            <glyph glyph-name="ņ" unicode="&#x146;" horiz-adv-x="1035" d=" M348,1082 L362,926 Q415,1009 495.5,1055.5 Q576,1102 677,1102 Q846,1102 940.5,999.5 Q1035,897 1035,680 L1035,0 L792,0 L792,678 Q792,800 741.5,851.5 Q691,903 588,903 Q517,903 461,871.5 Q405,840 369,785 L369,0 L126,0 L126,1082 M656,65290 L530,65052 L420,65052 L481,65300 L481,65442 L656,65442"/> 
            <glyph glyph-name="Ň" unicode="&#x147;" horiz-adv-x="1296" d=" M1296,0 L1054,0 L408,1063 L402,1061 L402,0 L159,0 L159,1456 L402,1456 L1048,394 L1054,396 L1054,1456 L1296,1456 M725,1734 L857,1870 L1072,1870 L1072,1853 L804,1601 L647,1601 L380,1851 L380,1870 L593,1870"/> 
            <glyph glyph-name="ň" unicode="&#x148;" horiz-adv-x="1035" d=" M348,1082 L362,926 Q415,1009 495.5,1055.5 Q576,1102 677,1102 Q846,1102 940.5,999.5 Q1035,897 1035,680 L1035,0 L792,0 L792,678 Q792,800 741.5,851.5 Q691,903 588,903 Q517,903 461,871.5 Q405,840 369,785 L369,0 L126,0 L126,1082 M576,1412 L708,1548 L923,1548 L923,1531 L655,1279 L498,1279 L231,1529 L231,1548 L444,1548"/> 
            <glyph glyph-name="ŉ" unicode="&#x149;" horiz-adv-x="1035" d=" M348,1082 L362,926 Q415,1009 495.5,1055.5 Q576,1102 677,1102 Q846,1102 940.5,999.5 Q1035,897 1035,680 L1035,0 L792,0 L792,678 Q792,800 741.5,851.5 Q691,903 588,903 Q517,903 461,871.5 Q405,840 369,785 L369,0 L126,0 L126,1082 M65742,1408 L65616,1170 L65506,1170 L65567,1418 L65567,1560 L65742,1560"/> 
            <glyph glyph-name="Ŋ" unicode="&#x14A;" horiz-adv-x="1284" d=" M1284,1456 L1284,-63 Q1284,-242 1190.5,-339.5 Q1097,-437 931,-437 Q895,-437 865.5,-433 Q836,-429 804,-420 L818,-229 Q835,-234 865.5,-238 Q896,-242 917,-242 Q976,-242 1008.5,-194.5 Q1041,-147 1041,-63 L1041,0 L396,1049 L390,1047 L390,0 L147,0 L147,1456 L390,1456 L1035,407 L1041,409 L1041,1456"/> 
            <glyph glyph-name="ŋ" unicode="&#x14B;" horiz-adv-x="1030" d=" M348,1082 L361,932 Q415,1013 494.5,1057.5 Q574,1102 672,1102 Q841,1102 935.5,998 Q1030,894 1030,673 L1030,-63 Q1030,-242 936.5,-339.5 Q843,-437 677,-437 Q641,-437 611.5,-433 Q582,-429 550,-420 L564,-222 Q581,-227 611,-230.5 Q641,-234 663,-234 Q722,-234 754.5,-190.5 Q787,-147 787,-63 L787,671 Q787,797 738,850 Q689,903 589,903 Q514,903 459,876 Q404,849 369,800 L369,0 L126,0 L126,1082"/> 
            <glyph glyph-name="Ō" unicode="&#x14C;" horiz-adv-x="1294" d=" M1294,597 Q1294,330 1126.5,154.5 Q959,-21 692,-21 Q430,-21 266.5,154.5 Q103,330 103,597 L103,859 Q103,1125 266.5,1301 Q430,1477 691,1477 Q958,1477 1126,1301 Q1294,1125 1294,859 M1052,861 Q1052,1043 954.5,1160 Q857,1277 691,1277 Q531,1277 438,1160 Q345,1043 345,861 L345,597 Q345,413 438,295.5 Q531,178 692,178 Q859,178 955.5,295 Q1052,412 1052,597 M1066,1645 L339,1645 L339,1803 L1066,1803"/> 
            </font>
</defs>
</svg>
