<?xml version="1.0" standalone="no"?>
<!DOCTYPE svg PUBLIC "-//W3C//DTD SVG 1.1//EN" "http://www.w3.org/Graphics/SVG/1.1/DTD/svg11.dtd" >
<svg xmlns="http://www.w3.org/2000/svg">
    <defs>
        <font id="Roboto-Bold">
            <font-face font-family="Roboto-Bold"
                       units-per-em="2048"
                       ascent="2146"
                       descent="-555"
                       bbox="-1035 -555 2440 2172"
                    />
            <missing-glyph horiz-adv-x="0" />
            
            <glyph glyph-name="!" unicode="&#x21;" horiz-adv-x="426" d=" M426,502 L134,502 L134,1456 L426,1456 M426,0 L134,0 L134,256 L426,256"/> 
            <glyph glyph-name="&quot;" unicode="&#x22;" horiz-adv-x="606" d=" M280,1288 L178,1039 L50,1039 L50,1563 L280,1563 M606,1288 L504,1039 L376,1039 L376,1563 L606,1563"/> 
            <glyph glyph-name="#" unicode="&#x23;" horiz-adv-x="1164" d=" M650,410 L458,410 L387,0 L203,0 L275,410 L48,410 L48,579 L304,579 L355,869 L123,869 L123,1040 L385,1040 L458,1456 L641,1456 L568,1040 L760,1040 L834,1456 L1017,1456 L944,1040 L1164,1040 L1164,869 L914,869 L863,579 L1088,579 L1088,410 L834,410 L762,0 L578,0 M488,579 L679,579 L730,869 L538,869"/> 
            <glyph glyph-name="$" unicode="&#x24;" horiz-adv-x="1080" d=" M789,383 Q789,464 742.5,515 Q696,566 583,610 Q361,691 253.5,790.5 Q146,890 146,1071 Q146,1239 253.5,1346.5 Q361,1454 543,1473 L543,1688 L702,1688 L702,1471 Q878,1445 978.5,1324 Q1079,1203 1077,1010 L1074,1005 L789,1005 Q789,1123 740.5,1187 Q692,1251 608,1251 Q522,1251 480,1201.5 Q438,1152 438,1070 Q438,992 482.5,943.5 Q527,895 646,848 Q867,761 973.5,662 Q1080,563 1080,385 Q1080,211 973,107 Q866,3 682,-16 L682,-214 L523,-214 L523,-17 Q336,2 214,115.5 Q92,229 96,449 L98,454 L383,454 Q383,320 444.5,262 Q506,204 601,204 Q692,204 740.5,252.5 Q789,301 789,383"/> 
            <glyph glyph-name="%" unicode="&#x25;" horiz-adv-x="1425" d=" M95,1176 Q95,1305 178.5,1391 Q262,1477 411,1477 Q562,1477 645,1391.5 Q728,1306 728,1176 L728,1099 Q728,970 645,885 Q562,800 413,800 Q263,800 179,885 Q95,970 95,1099 M289,1099 Q289,1041 321,1001.5 Q353,962 413,962 Q471,962 502.5,1001.5 Q534,1041 534,1099 L534,1176 Q534,1234 502,1274.5 Q470,1315 411,1315 Q352,1315 320.5,1274.5 Q289,1234 289,1176 M791,357 Q791,485 875,571 Q959,657 1108,657 Q1258,657 1341.5,571.5 Q1425,486 1425,357 L1425,280 Q1425,150 1342,65 Q1259,-20 1110,-20 Q960,-20 875.5,65.5 Q791,151 791,280 M985,280 Q985,223 1019.5,182.5 Q1054,142 1110,142 Q1175,142 1203,179.5 Q1231,217 1231,280 L1231,357 Q1231,414 1199,454.5 Q1167,495 1108,495 Q1048,495 1016.5,454.5 Q985,414 985,357 M461,109 L319,184 L1030,1322 L1172,1247"/> 
            <glyph glyph-name="&amp;" unicode="&#x26;" horiz-adv-x="1308" d=" M61,392 Q61,510 126,595.5 Q191,681 324,774 Q256,866 222.5,942 Q189,1018 189,1097 Q189,1270 297,1373.5 Q405,1477 586,1477 Q745,1477 844.5,1378.5 Q944,1280 944,1140 Q944,1042 895,961 Q846,880 761,819 L668,753 L944,431 Q980,491 1000,561 Q1020,631 1020,709 L1238,709 Q1238,571 1204,455 Q1170,339 1100,249 L1308,5 L1306,0 L982,0 L905,89 Q820,34 730,6.5 Q640,-21 537,-21 Q319,-21 190,93.5 Q61,208 61,392 M552,203 Q605,203 658,216.5 Q711,230 760,257 L460,605 L441,592 Q390,544 371.5,498.5 Q353,453 353,407 Q353,318 408,260.5 Q463,203 552,203 M450,1100 Q450,1057 471.5,1011.5 Q493,966 536,911 L622,967 Q678,1003 697.5,1041 Q717,1079 717,1124 Q717,1174 680.5,1213 Q644,1252 585,1252 Q520,1252 485,1208.5 Q450,1165 450,1100"/> 
            <glyph glyph-name="'" unicode="&#x27;" horiz-adv-x="280" d=" M280,1291 L178,1008 L50,1008 L50,1560 L280,1560"/> 
            <glyph glyph-name="(" unicode="&#x28;" horiz-adv-x="679" d=" M124,592 Q124,984 276,1257.5 Q428,1531 620,1612 L626,1612 L679,1466 Q548,1368 459,1150 Q370,932 370,594 L370,568 Q370,229 459,11.5 Q548,-206 679,-307 L626,-450 L620,-450 Q428,-369 276,-96 Q124,177 124,570"/> 
            <glyph glyph-name=")" unicode="&#x29;" horiz-adv-x="602" d=" M602,570 Q602,187 443.5,-91.5 Q285,-370 91,-450 L85,-450 L31,-307 Q160,-209 250,10 Q340,229 340,568 L340,594 Q340,930 249,1150.5 Q158,1371 31,1470 L85,1612 L91,1612 Q285,1532 443.5,1253 Q602,974 602,592"/> 
            <glyph glyph-name="*" unicode="&#x2A;" horiz-adv-x="878" d=" M329,966 L27,1055 L84,1232 L381,1109 L363,1456 L550,1456 L531,1103 L822,1223 L878,1043 L572,954 L772,689 L620,579 L446,869 L273,588 L120,694"/> 
            <glyph glyph-name="+" unicode="&#x2B;" horiz-adv-x="1054" d=" M694,812 L1054,812 L1054,560 L694,560 L694,146 L418,146 L418,560 L56,560 L56,812 L418,812 L418,1206 L694,1206"/> 
            <glyph glyph-name="," unicode="&#x2C;" horiz-adv-x="417" d=" M417,13 L258,-302 L63,-302 L133,22 L133,250 L417,250"/> 
            <glyph glyph-name="-" unicode="&#x2D;" horiz-adv-x="677" d=" M677,510 L113,510 L113,735 L677,735"/> 
            <glyph glyph-name="." unicode="&#x2E;" horiz-adv-x="436" d=" M436,0 L144,0 L144,256 L436,256"/> 
            <glyph glyph-name="/" unicode="&#x2F;" horiz-adv-x="804" d=" M270,-125 L-14,-125 L520,1456 L804,1456"/> 
            <glyph glyph-name="0" unicode="&#x30;" horiz-adv-x="1080" d=" M1080,567 Q1080,278 947.5,128.5 Q815,-21 589,-21 Q361,-21 228,128.5 Q95,278 95,567 L95,888 Q95,1176 227.5,1326.5 Q360,1477 587,1477 Q813,1477 946.5,1326.5 Q1080,1176 1080,888 M789,918 Q789,1091 737,1171.5 Q685,1252 587,1252 Q488,1252 437,1172 Q386,1092 386,918 L386,539 Q386,363 437.5,283 Q489,203 589,203 Q687,203 738,283 Q789,363 789,539"/> 
            <glyph glyph-name="1" unicode="&#x31;" horiz-adv-x="759" d=" M759,0 L467,0 L467,1198 L171,1198 L171,1404 L759,1456"/> 
            <glyph glyph-name="2" unicode="&#x32;" horiz-adv-x="1093" d=" M1093,0 L99,0 L99,191 L570,696 Q672,813 715,893.5 Q758,974 758,1043 Q758,1135 708.5,1193.5 Q659,1252 568,1252 Q467,1252 414.5,1183.5 Q362,1115 362,1001 L78,1001 L76,1007 Q71,1204 205.5,1340.5 Q340,1477 568,1477 Q793,1477 921.5,1360 Q1050,1243 1050,1048 Q1050,916 977.5,804.5 Q905,693 738,512 L479,229 L481,224 L1093,224"/> 
            <glyph glyph-name="3" unicode="&#x33;" horiz-adv-x="1077" d=" M394,852 L558,852 Q662,852 712,906.5 Q762,961 762,1058 Q762,1146 712,1199 Q662,1252 567,1252 Q485,1252 429,1204 Q373,1156 373,1078 L90,1078 L88,1084 Q82,1255 219,1366 Q356,1477 559,1477 Q785,1477 919.5,1369 Q1054,1261 1054,1061 Q1054,966 994,880.5 Q934,795 829,747 Q950,704 1013.5,615 Q1077,526 1077,408 Q1077,208 931.5,93.5 Q786,-21 559,-21 Q356,-21 210.5,86.5 Q65,194 70,390 L72,396 L355,396 Q355,312 415,257.5 Q475,203 567,203 Q668,203 726.5,259 Q785,315 785,411 Q785,526 727.5,579.5 Q670,633 558,633 L394,633"/> 
            <glyph glyph-name="4" unicode="&#x34;" horiz-adv-x="1120" d=" M955,542 L1120,542 L1120,316 L955,316 L955,0 L664,0 L664,316 L70,316 L57,491 L661,1456 L955,1456 M329,542 L664,542 L664,1066 L658,1068 L635,1027"/> 
            <glyph glyph-name="5" unicode="&#x35;" horiz-adv-x="1083" d=" M136,645 L220,1456 L1032,1456 L1032,1222 L459,1222 L419,886 Q459,916 516,935.5 Q573,955 642,956 Q852,959 967.5,829 Q1083,699 1083,467 Q1083,257 956.5,118 Q830,-21 592,-21 Q391,-21 248,88.5 Q105,198 110,390 L112,395 L393,409 Q393,312 448,257.5 Q503,203 592,203 Q694,203 742.5,275.5 Q791,348 791,465 Q791,591 739,667 Q687,743 585,743 Q501,743 456.5,712 Q412,681 393,628"/> 
            <glyph glyph-name="6" unicode="&#x36;" horiz-adv-x="1110" d=" M684,1477 Q766,1477 835.5,1461.5 Q905,1446 975,1416 L923,1202 Q857,1225 805.5,1236.5 Q754,1248 686,1248 Q553,1248 472.5,1148.5 Q392,1049 398,873 L401,868 Q450,919 525,948 Q600,977 694,977 Q889,977 999.5,838.5 Q1110,700 1110,485 Q1110,265 973.5,122 Q837,-21 620,-21 Q389,-21 244,135.5 Q99,292 99,569 L99,853 Q99,1139 264,1308 Q429,1477 684,1477 M617,756 Q536,756 479,730 Q422,704 391,659 L391,562 Q391,389 453.5,296 Q516,203 620,203 Q710,203 764.5,285.5 Q819,368 819,485 Q819,606 764,681 Q709,756 617,756"/> 
            <glyph glyph-name="7" unicode="&#x37;" horiz-adv-x="1089" d=" M1089,1231 Q855,957 769.5,720 Q684,483 647,148 L633,0 L341,0 L355,148 Q389,469 501,737.5 Q613,1006 808,1231 L60,1231 L60,1456 L1089,1456"/> 
            <glyph glyph-name="8" unicode="&#x38;" horiz-adv-x="1084" d=" M1050,1070 Q1050,961 992.5,877 Q935,793 834,746 Q950,697 1017,606 Q1084,515 1084,398 Q1084,196 947,87.5 Q810,-21 589,-21 Q366,-21 228.5,87.5 Q91,196 91,398 Q91,516 157.5,606.5 Q224,697 341,747 Q239,794 182,877.5 Q125,961 125,1070 Q125,1264 252,1370.5 Q379,1477 587,1477 Q794,1477 922,1370.5 Q1050,1264 1050,1070 M792,418 Q792,516 735,575 Q678,634 587,634 Q495,634 439.5,575 Q384,516 384,418 Q384,318 440,260.5 Q496,203 589,203 Q680,203 736,261 Q792,319 792,418 M759,1057 Q759,1145 712.5,1198.5 Q666,1252 587,1252 Q507,1252 462,1199.5 Q417,1147 417,1057 Q417,966 462.5,912.5 Q508,859 589,859 Q668,859 713.5,912.5 Q759,966 759,1057"/> 
            <glyph glyph-name="9" unicode="&#x39;" horiz-adv-x="1072" d=" M520,203 Q635,203 707.5,288.5 Q780,374 780,533 L780,605 Q731,543 663.5,511 Q596,479 518,479 Q315,479 198.5,611.5 Q82,744 82,970 Q82,1188 220,1332.5 Q358,1477 571,1477 Q794,1477 933,1323.5 Q1072,1170 1072,892 L1072,548 Q1072,283 916.5,131 Q761,-21 520,-21 Q444,-21 363.5,-5.5 Q283,10 214,40 L248,251 Q313,226 376.5,214.5 Q440,203 520,203 M567,693 Q639,693 693,720 Q747,747 780,792 L780,926 Q780,1086 724,1169 Q668,1252 572,1252 Q484,1252 428.5,1170 Q373,1088 373,970 Q373,846 423.5,769.5 Q474,693 567,693"/> 
            <glyph glyph-name=":" unicode="&#x3A;" horiz-adv-x="436" d=" M436,0 L144,0 L144,256 L436,256 M436,876 L144,876 L144,1132 L436,1132"/> 
            <glyph glyph-name=";" unicode="&#x3B;" horiz-adv-x="468" d=" M437,876 L145,876 L145,1132 L437,1132 M468,13 L309,-302 L114,-302 L184,22 L184,250 L468,250"/> 
            <glyph glyph-name="&lt;" unicode="&#x3C;" horiz-adv-x="916" d=" M339,550 L339,544 L916,341 L916,69 L54,436 L54,663 L916,1029 L916,757"/> 
            <glyph glyph-name="=" unicode="&#x3D;" horiz-adv-x="1032" d=" M1032,763 L136,763 L136,992 L1032,992 M1032,332 L136,332 L136,561 L1032,561"/> 
            <glyph glyph-name="&gt;" unicode="&#x3E;" horiz-adv-x="991" d=" M705,548 L705,554 L119,760 L119,1029 L991,663 L991,436 L119,69 L119,339"/> 
            <glyph glyph-name="?" unicode="&#x3F;" horiz-adv-x="975" d=" M324,414 Q325,554 365.5,619 Q406,684 527,777 Q598,835 640.5,902 Q683,969 683,1052 Q683,1144 634.5,1196 Q586,1248 496,1248 Q422,1248 370.5,1204 Q319,1160 318,1075 L34,1075 L32,1081 Q29,1273 158.5,1375 Q288,1477 496,1477 Q720,1477 847.5,1363.5 Q975,1250 975,1055 Q975,928 900.5,820 Q826,712 714,639 Q653,592 634,544.5 Q615,497 615,414 M617,0 L323,0 L323,250 L617,250"/> 
            <glyph glyph-name="@" unicode="&#x40;" horiz-adv-x="1746" d=" M1730,513 Q1721,295 1602,137 Q1483,-21 1246,-21 Q1168,-21 1111,23 Q1054,67 1030,146 Q986,64 920.5,23 Q855,-18 767,-18 Q626,-18 550.5,101 Q475,220 495,416 Q520,670 638.5,823 Q757,976 926,976 Q1042,976 1112.5,950 Q1183,924 1267,870 L1264,866 L1269,866 L1218,293 Q1211,198 1232,163 Q1253,128 1289,128 Q1404,128 1473.5,237 Q1543,346 1551,513 Q1567,866 1414.5,1064 Q1262,1262 943,1262 Q640,1262 459,1049 Q278,836 263,478 Q246,123 409,-82 Q572,-287 878,-287 Q963,-287 1053.5,-267 Q1144,-247 1209,-217 L1247,-364 Q1180,-406 1076.5,-429.5 Q973,-453 874,-453 Q478,-453 263.5,-204 Q49,45 66,478 Q84,905 321.5,1161.5 Q559,1418 947,1418 Q1334,1418 1540,1175.5 Q1746,933 1730,513 M720,416 Q710,289 738.5,223.5 Q767,158 831,158 Q887,158 932.5,184 Q978,210 1014,280 Q1014,284 1014,286.5 Q1014,289 1015,293 L1059,789 Q1036,796 1013,800 Q990,804 965,804 Q854,804 796,707.5 Q738,611 720,416"/> 
            <glyph glyph-name="A" unicode="&#x41;" horiz-adv-x="1311" d=" M917,314 L406,314 L307,0 L12,0 L513,1456 L812,1456 L1311,0 L1016,0 M478,543 L845,543 L665,1115 L659,1115"/> 
            <glyph glyph-name="B" unicode="&#x42;" horiz-adv-x="1226" d=" M136,0 L136,1456 L628,1456 Q885,1456 1029,1356 Q1173,1256 1173,1057 Q1173,956 1119.5,876.5 Q1066,797 964,757 Q1095,729 1160.5,637 Q1226,545 1226,424 Q1226,215 1088,107.5 Q950,0 697,0 M428,644 L428,224 L697,224 Q813,224 874,274.5 Q935,325 935,424 Q935,531 883,587.5 Q831,644 719,644 M428,846 L638,846 Q755,846 818,894 Q881,942 881,1034 Q881,1135 817.5,1183 Q754,1231 628,1231 L428,1231"/> 
            <glyph glyph-name="C" unicode="&#x43;" horiz-adv-x="1243" d=" M1235,495 L1237,489 Q1241,254 1093.5,116.5 Q946,-21 684,-21 Q421,-21 257,148 Q93,317 93,583 L93,872 Q93,1137 253,1307 Q413,1477 669,1477 Q939,1477 1091,1338.5 Q1243,1200 1239,961 L1237,955 L953,955 Q953,1099 884,1175.5 Q815,1252 669,1252 Q538,1252 461,1145.5 Q384,1039 384,874 L384,583 Q384,416 465,309.5 Q546,203 684,203 Q821,203 886.5,276.5 Q952,350 952,495"/> 
            <glyph glyph-name="D" unicode="&#x44;" horiz-adv-x="1249" d=" M136,0 L136,1456 L636,1456 Q903,1456 1076,1285.5 Q1249,1115 1249,848 L1249,607 Q1249,339 1076,169.5 Q903,0 636,0 M428,1231 L428,224 L621,224 Q778,224 867,330 Q956,436 956,607 L956,850 Q956,1019 867,1125 Q778,1231 621,1231"/> 
            <glyph glyph-name="E" unicode="&#x45;" horiz-adv-x="1133" d=" M1031,640 L428,640 L428,224 L1133,224 L1133,0 L136,0 L136,1456 L1131,1456 L1131,1231 L428,1231 L428,865 L1031,865"/> 
            <glyph glyph-name="F" unicode="&#x46;" horiz-adv-x="1140" d=" M1038,605 L428,605 L428,0 L136,0 L136,1456 L1140,1456 L1140,1231 L428,1231 L428,830 L1038,830"/> 
            <glyph glyph-name="G" unicode="&#x47;" horiz-adv-x="1254" d=" M1254,199 Q1189,113 1051.5,46 Q914,-21 704,-21 Q437,-21 268,145 Q99,311 99,576 L99,880 Q99,1144 261.5,1310.5 Q424,1477 680,1477 Q946,1477 1087.5,1347.5 Q1229,1218 1232,1007 L1230,1001 L955,1001 Q947,1117 881,1184.5 Q815,1252 688,1252 Q554,1252 472,1148.5 Q390,1045 390,882 L390,576 Q390,410 475,306.5 Q560,203 704,203 Q806,203 868,224 Q930,245 962,276 L962,546 L704,546 L704,748 L1254,748"/> 
            <glyph glyph-name="H" unicode="&#x48;" horiz-adv-x="1313" d=" M1313,0 L1022,0 L1022,605 L428,605 L428,0 L136,0 L136,1456 L428,1456 L428,830 L1022,830 L1022,1456 L1313,1456"/> 
            <glyph glyph-name="I" unicode="&#x49;" horiz-adv-x="446" d=" M446,0 L154,0 L154,1456 L446,1456"/> 
            <glyph glyph-name="J" unicode="&#x4A;" horiz-adv-x="1037" d=" M746,1456 L1037,1456 L1037,437 Q1037,226 899.5,102.5 Q762,-21 552,-21 Q324,-21 191,90 Q58,201 63,417 L65,423 L349,423 Q349,308 404,255.5 Q459,203 552,203 Q633,203 689.5,265.5 Q746,328 746,437"/> 
            <glyph glyph-name="K" unicode="&#x4B;" horiz-adv-x="1337" d=" M590,608 L428,608 L428,0 L136,0 L136,1456 L428,1456 L428,861 L555,861 L941,1456 L1298,1456 L808,778 L1337,0 L981,0"/> 
            <glyph glyph-name="L" unicode="&#x4C;" horiz-adv-x="1076" d=" M428,224 L1076,224 L1076,0 L136,0 L136,1456 L428,1456"/> 
            <glyph glyph-name="M" unicode="&#x4D;" horiz-adv-x="1650" d=" M517,1456 L888,383 L894,383 L1268,1456 L1650,1456 L1650,0 L1358,0 L1358,434 L1386,1077 L1380,1078 L990,0 L794,0 L406,1074 L400,1073 L428,434 L428,0 L136,0 L136,1456"/> 
            <glyph glyph-name="N" unicode="&#x4E;" horiz-adv-x="1313" d=" M1313,0 L1022,0 L434,995 L428,994 L428,0 L136,0 L136,1456 L428,1456 L1016,462 L1022,463 L1022,1456 L1313,1456"/> 
            <glyph glyph-name="O" unicode="&#x4F;" horiz-adv-x="1307" d=" M1307,597 Q1307,329 1137.5,154 Q968,-21 697,-21 Q428,-21 260,154 Q92,329 92,597 L92,859 Q92,1126 259.5,1301.5 Q427,1477 696,1477 Q967,1477 1137,1301.5 Q1307,1126 1307,859 M1015,861 Q1015,1031 930,1140 Q845,1249 696,1249 Q547,1249 465,1140.5 Q383,1032 383,861 L383,597 Q383,424 466,315 Q549,206 697,206 Q847,206 931,315 Q1015,424 1015,597"/> 
            <glyph glyph-name="P" unicode="&#x50;" horiz-adv-x="1255" d=" M428,528 L428,0 L136,0 L136,1456 L716,1456 Q967,1456 1111,1328 Q1255,1200 1255,991 Q1255,782 1111,655 Q967,528 716,528 M428,753 L716,753 Q838,753 901,819.5 Q964,886 964,989 Q964,1094 901.5,1162.5 Q839,1231 716,1231 L428,1231"/> 
            <glyph glyph-name="Q" unicode="&#x51;" horiz-adv-x="1382" d=" M1307,597 Q1307,465 1264,352.5 Q1221,240 1141,157 L1382,-79 L1191,-235 L929,19 Q875,0 817,-10.5 Q759,-21 697,-21 Q428,-21 260,154 Q92,329 92,597 L92,859 Q92,1126 259.5,1301.5 Q427,1477 696,1477 Q967,1477 1137,1301.5 Q1307,1126 1307,859 M1015,861 Q1015,1031 930,1140 Q845,1249 696,1249 Q547,1249 465,1140.5 Q383,1032 383,861 L383,597 Q383,424 466,315 Q549,206 697,206 Q847,206 931,315 Q1015,424 1015,597"/> 
            <glyph glyph-name="R" unicode="&#x52;" horiz-adv-x="1298" d=" M428,582 L428,0 L136,0 L136,1456 L685,1456 Q934,1456 1074.5,1342.5 Q1215,1229 1215,1026 Q1215,913 1156,832 Q1097,751 983,701 Q1112,663 1168.5,574 Q1225,485 1225,354 L1225,247 Q1225,186 1241.5,119.5 Q1258,53 1298,21 L1298,0 L997,0 Q957,32 945,107 Q933,182 933,249 L933,352 Q933,461 873.5,521.5 Q814,582 706,582 M428,807 L680,807 Q803,807 863.5,859 Q924,911 924,1013 Q924,1113 863.5,1172 Q803,1231 685,1231 L428,1231"/> 
            <glyph glyph-name="S" unicode="&#x53;" horiz-adv-x="1214" d=" M922,380 Q922,464 862.5,515 Q803,566 654,611 Q394,686 261,789 Q128,892 128,1071 Q128,1250 280.5,1363.5 Q433,1477 670,1477 Q910,1477 1061,1349.5 Q1212,1222 1207,1035 L1205,1029 L922,1029 Q922,1130 854.5,1192.5 Q787,1255 665,1255 Q548,1255 484,1203 Q420,1151 420,1070 Q420,996 488.5,948.5 Q557,901 725,848 Q966,781 1090,671 Q1214,561 1214,382 Q1214,195 1066.5,87 Q919,-21 677,-21 Q439,-21 262,101.5 Q85,224 90,445 L92,451 L376,451 Q376,321 455.5,260.5 Q535,200 677,200 Q796,200 859,249 Q922,298 922,380"/> 
            <glyph glyph-name="T" unicode="&#x54;" horiz-adv-x="1142" d=" M1142,1231 L730,1231 L730,0 L438,0 L438,1231 L28,1231 L28,1456 L1142,1456"/> 
            <glyph glyph-name="U" unicode="&#x55;" horiz-adv-x="1288" d=" M1288,1456 L1288,490 Q1288,245 1126,112 Q964,-21 702,-21 Q441,-21 280.5,112 Q120,245 120,490 L120,1456 L413,1456 L413,490 Q413,346 490,274.5 Q567,203 702,203 Q839,203 917,274 Q995,345 995,490 L995,1456"/> 
            <glyph glyph-name="V" unicode="&#x56;" horiz-adv-x="1296" d=" M630,387 L648,308 L654,308 L671,385 L988,1456 L1296,1456 L801,0 L501,0 L7,1456 L315,1456"/> 
            <glyph glyph-name="W" unicode="&#x57;" horiz-adv-x="1787" d=" M1288,458 L1294,458 L1502,1456 L1787,1456 L1447,0 L1176,0 L909,961 L903,961 L636,0 L365,0 L24,1456 L310,1456 L519,459 L525,458 L798,1456 L1013,1456"/> 
            <glyph glyph-name="X" unicode="&#x58;" horiz-adv-x="1287" d=" M649,940 L922,1456 L1262,1456 L830,734 L1287,0 L934,0 L653,525 L372,0 L31,0 L474,734 L42,1456 L380,1456"/> 
            <glyph glyph-name="Y" unicode="&#x59;" horiz-adv-x="1287" d=" M643,785 L649,785 L967,1456 L1287,1456 L787,512 L787,0 L496,0 L496,527 L5,1456 L325,1456"/> 
            <glyph glyph-name="Z" unicode="&#x5A;" horiz-adv-x="1142" d=" M430,224 L1142,224 L1142,0 L77,0 L77,152 L769,1231 L78,1231 L78,1456 L1125,1456 L1125,1310"/> 
            <glyph glyph-name="[" unicode="&#x5B;" horiz-adv-x="553" d=" M553,1475 L412,1475 L412,-120 L553,-120 L553,-336 L119,-336 L119,1691 L553,1691"/> 
            <glyph glyph-name="\" unicode="&#x5C;" horiz-adv-x="899" d=" M2,1456 L291,1456 L899,-125 L610,-125"/> 
            <glyph glyph-name="]" unicode="&#x5D;" horiz-adv-x="447" d=" M13,1691 L447,1691 L447,-336 L13,-336 L13,-120 L155,-120 L155,1475 L13,1475"/> 
            <glyph glyph-name="^" unicode="&#x5E;" horiz-adv-x="854" d=" M275,729 L44,729 L343,1456 L555,1456 L854,729 L623,729 L458,1142 L450,1176 L444,1176 L437,1142"/> 
            <glyph glyph-name="_" unicode="&#x5F;" horiz-adv-x="911" d=" M911,-219 L1,-219 L1,0 L911,0"/> 
            <glyph glyph-name="`" unicode="&#x60;" horiz-adv-x="585" d=" M585,1212 L348,1212 L77,1472 L79,1478 L388,1478"/> 
            <glyph glyph-name="a" unicode="&#x61;" horiz-adv-x="1039" d=" M747,0 Q731,37 719.5,78 Q708,119 703,162 Q658,83 584.5,31 Q511,-21 409,-21 Q239,-21 147,66.5 Q55,154 55,305 Q55,464 177.5,551.5 Q300,639 535,639 L698,639 L698,725 Q698,803 657,846 Q616,889 536,889 Q465,889 426.5,854.5 Q388,820 388,759 L106,760 L105,766 Q98,903 224,1002.5 Q350,1102 555,1102 Q749,1102 870,1003.5 Q991,905 991,723 L991,276 Q991,200 1002.5,133 Q1014,66 1039,0 M480,195 Q557,195 617,233 Q677,271 698,321 L698,474 L535,474 Q442,474 394,427.5 Q346,381 346,315 Q346,261 382,228 Q418,195 480,195"/> 
            <glyph glyph-name="b" unicode="&#x62;" horiz-adv-x="1088" d=" M1088,511 Q1088,269 980,124 Q872,-21 668,-21 Q574,-21 503.5,18.5 Q433,58 384,134 L362,0 L112,0 L112,1560 L403,1560 L403,967 Q450,1032 515.5,1067 Q581,1102 666,1102 Q872,1102 980,946.5 Q1088,791 1088,532 M797,532 Q797,690 750.5,782.5 Q704,875 592,875 Q524,875 477,846.5 Q430,818 403,765 L403,307 Q430,258 477.5,232 Q525,206 594,206 Q707,206 752,285.5 Q797,365 797,511"/> 
            <glyph glyph-name="c" unicode="&#x63;" horiz-adv-x="1010" d=" M566,203 Q644,203 691,248.5 Q738,294 738,370 L1003,370 L1006,364 Q1010,200 882.5,89.5 Q755,-21 566,-21 Q324,-21 193,132 Q62,285 62,525 L62,555 Q62,794 192.5,948 Q323,1102 565,1102 Q765,1102 887.5,988 Q1010,874 1006,688 L1004,682 L738,682 Q738,766 692,821.5 Q646,877 565,877 Q449,877 401.5,787 Q354,697 354,555 L354,525 Q354,380 401.5,291.5 Q449,203 566,203"/> 
            <glyph glyph-name="d" unicode="&#x64;" horiz-adv-x="1042" d=" M67,532 Q67,788 177.5,945 Q288,1102 489,1102 Q570,1102 635,1067 Q700,1032 749,967 L749,1560 L1042,1560 L1042,0 L791,0 L767,132 Q716,57 646.5,18 Q577,-21 487,-21 Q288,-21 177.5,125 Q67,271 67,511 M358,511 Q358,369 406,287.5 Q454,206 562,206 Q625,206 672,231.5 Q719,257 749,306 L749,767 Q719,818 672.5,846.5 Q626,875 564,875 Q457,875 407.5,780 Q358,685 358,532"/> 
            <glyph glyph-name="e" unicode="&#x65;" horiz-adv-x="1026" d=" M591,-21 Q357,-21 217,129 Q77,279 77,510 L77,550 Q77,791 209.5,947 Q342,1103 565,1102 Q784,1102 905,970 Q1026,838 1026,613 L1026,454 L380,454 L378,448 Q386,341 449.5,272 Q513,203 622,203 Q719,203 783,222.5 Q847,242 923,284 L1002,104 Q936,50 829,14.5 Q722,-21 591,-21 M565,877 Q484,877 437,815 Q390,753 379,652 L382,647 L740,647 L740,673 Q740,766 696.5,821.5 Q653,877 565,877"/> 
            <glyph glyph-name="f" unicode="&#x66;" horiz-adv-x="748" d=" M188,0 L188,877 L27,877 L27,1082 L188,1082 L188,1202 Q188,1384 293,1482.5 Q398,1581 588,1581 Q625,1581 663.5,1575.5 Q702,1570 748,1560 L723,1343 Q699,1347 676.5,1350 Q654,1353 624,1353 Q553,1353 516.5,1314 Q480,1275 480,1202 L480,1082 L695,1082 L695,877 L480,877 L480,0"/> 
            <glyph glyph-name="g" unicode="&#x67;" horiz-adv-x="1044" d=" M67,532 Q67,788 178.5,945 Q290,1102 491,1102 Q582,1102 651,1061 Q720,1020 769,944 L792,1082 L1044,1082 L1044,5 Q1044,-206 905.5,-321.5 Q767,-437 520,-437 Q438,-437 346,-414.5 Q254,-392 176,-353 L230,-135 Q297,-167 366.5,-183.5 Q436,-200 518,-200 Q638,-200 694.5,-150 Q751,-100 751,6 L751,104 Q703,43 638,11 Q573,-21 489,-21 Q290,-21 178.5,125.5 Q67,272 67,511 M359,511 Q359,369 407,287.5 Q455,206 563,206 Q630,206 676.5,230.5 Q723,255 751,302 L751,772 Q723,821 676.5,848 Q630,875 565,875 Q458,875 408.5,780 Q359,685 359,532"/> 
            <glyph glyph-name="h" unicode="&#x68;" horiz-adv-x="1048" d=" M397,945 Q448,1019 522,1060.5 Q596,1102 686,1102 Q855,1102 951.5,989.5 Q1048,877 1048,642 L1048,0 L756,0 L756,644 Q756,770 711.5,822.5 Q667,875 579,875 Q519,875 473,853.5 Q427,832 397,793 L397,0 L105,0 L105,1560 L397,1560"/> 
            <glyph glyph-name="i" unicode="&#x69;" horiz-adv-x="419" d=" M419,0 L127,0 L127,1082 L419,1082 M419,1341 L127,1341 L127,1560 L419,1560"/> 
            <glyph glyph-name="j" unicode="&#x6A;" horiz-adv-x="427" d=" M427,1082 L427,-40 Q427,-230 326,-333.5 Q225,-437 45,-437 Q5,-437 -28,-433 Q-61,-429 -98,-420 L-84,-197 Q-61,-203 -38,-206 Q-15,-209 11,-209 Q70,-209 102,-167.5 Q134,-126 134,-40 L134,1082 M421,1343 L128,1343 L128,1560 L421,1560"/> 
            <glyph glyph-name="k" unicode="&#x6B;" horiz-adv-x="1118" d=" M484,453 L404,453 L404,0 L112,0 L112,1560 L404,1560 L404,675 L476,675 L727,1082 L1065,1082 L719,592 L1118,0 L783,0"/> 
            <glyph glyph-name="l" unicode="&#x6C;" horiz-adv-x="419" d=" M419,0 L127,0 L127,1560 L419,1560"/> 
            <glyph glyph-name="m" unicode="&#x6D;" horiz-adv-x="1660" d=" M383,1082 L395,939 Q447,1017 525.5,1059.5 Q604,1102 707,1102 Q811,1102 885,1056 Q959,1010 997,917 Q1047,1004 1127,1053 Q1207,1102 1315,1102 Q1475,1102 1567.5,991.5 Q1660,881 1660,655 L1660,0 L1368,0 L1368,656 Q1368,779 1328,827 Q1288,875 1209,875 Q1147,875 1101.5,847.5 Q1056,820 1029,771 Q1029,752 1030,738.5 Q1031,725 1031,711 L1031,0 L740,0 L740,656 Q740,776 700,825.5 Q660,875 580,875 Q521,875 476.5,852.5 Q432,830 403,789 L403,0 L112,0 L112,1082"/> 
            <glyph glyph-name="n" unicode="&#x6E;" horiz-adv-x="1050" d=" M379,1082 L392,927 Q446,1010 525,1056 Q604,1102 702,1102 Q866,1102 958,999 Q1050,896 1050,676 L1050,0 L757,0 L757,675 Q757,784 713,829.5 Q669,875 580,875 Q522,875 476,851.5 Q430,828 399,785 L399,0 L107,0 L107,1082"/> 
            <glyph glyph-name="o" unicode="&#x6F;" horiz-adv-x="1088" d=" M67,551 Q67,793 202,947.5 Q337,1102 576,1102 Q816,1102 952,948 Q1088,794 1088,551 L1088,530 Q1088,286 952.5,132.5 Q817,-21 578,-21 Q338,-21 202.5,132.5 Q67,286 67,530 M358,530 Q358,382 410,292.5 Q462,203 578,203 Q691,203 743.5,293 Q796,383 796,530 L796,551 Q796,695 743,786 Q690,877 576,877 Q463,877 410.5,785.5 Q358,694 358,551"/> 
            <glyph glyph-name="p" unicode="&#x70;" horiz-adv-x="1088" d=" M1088,511 Q1088,271 977,125 Q866,-21 667,-21 Q582,-21 516,10.5 Q450,42 403,103 L403,-416 L112,-416 L112,1082 L375,1082 L392,954 Q440,1025 507.5,1063.5 Q575,1102 665,1102 Q866,1102 977,945 Q1088,788 1088,532 M796,532 Q796,685 745,780 Q694,875 589,875 Q523,875 476.5,848 Q430,821 403,771 L403,297 Q430,251 476.5,227 Q523,203 591,203 Q697,203 746.5,286 Q796,369 796,511"/> 
            <glyph glyph-name="q" unicode="&#x71;" horiz-adv-x="1039" d=" M67,532 Q67,788 177.5,945 Q288,1102 489,1102 Q579,1102 647,1062.5 Q715,1023 764,949 L791,1082 L1039,1082 L1039,-416 L747,-416 L747,101 Q699,41 634.5,10 Q570,-21 487,-21 Q288,-21 177.5,125 Q67,271 67,511 M358,511 Q358,369 406,286 Q454,203 562,203 Q626,203 672,227 Q718,251 747,297 L747,777 Q718,825 672.5,851 Q627,877 564,877 Q457,877 407.5,781 Q358,685 358,532"/> 
            <glyph glyph-name="r" unicode="&#x72;" horiz-adv-x="712" d=" M681,831 L574,834 Q509,834 467,807 Q425,780 403,731 L403,0 L112,0 L112,1082 L383,1082 L396,922 Q434,1007 494.5,1054.5 Q555,1102 634,1102 Q656,1102 674.5,1098.5 Q693,1095 712,1090"/> 
            <glyph glyph-name="s" unicode="&#x73;" horiz-adv-x="980" d=" M697,298 Q697,346 650.5,381 Q604,416 478,443 Q286,482 188.5,558.5 Q91,635 91,767 Q91,907 208.5,1004.5 Q326,1102 523,1102 Q730,1102 852.5,1005 Q975,908 970,760 L968,754 L686,754 Q686,819 644.5,860 Q603,901 523,901 Q452,901 411.5,866.5 Q371,832 371,780 Q371,730 413.5,698 Q456,666 586,641 Q786,601 883,523.5 Q980,446 980,310 Q980,164 855,71.5 Q730,-21 525,-21 Q309,-21 183.5,88.5 Q58,198 64,338 L66,344 L333,344 Q336,257 390,218 Q444,179 531,179 Q612,179 654.5,211 Q697,243 697,298"/> 
            <glyph glyph-name="t" unicode="&#x74;" horiz-adv-x="658" d=" M459,1347 L459,1082 L641,1082 L641,877 L459,877 L459,326 Q459,263 485,236 Q511,209 555,209 Q578,209 594.5,211.5 Q611,214 633,220 L658,9 Q614,-6 572,-13.5 Q530,-21 481,-21 Q330,-21 248.5,62 Q167,145 167,325 L167,877 L9,877 L9,1082 L167,1082 L167,1347"/> 
            <glyph glyph-name="u" unicode="&#x75;" horiz-adv-x="1048" d=" M773,156 Q723,71 646,25 Q569,-21 469,-21 Q298,-21 201.5,88.5 Q105,198 105,429 L105,1082 L396,1082 L396,427 Q396,309 436,257.5 Q476,206 554,206 Q624,206 674,228.5 Q724,251 756,295 L756,1082 L1048,1082 L1048,0 L799,0"/> 
            <glyph glyph-name="v" unicode="&#x76;" horiz-adv-x="1031" d=" M503,403 L522,303 L528,303 L548,403 L726,1082 L1031,1082 L663,0 L384,0 L16,1082 L321,1082"/> 
            <glyph glyph-name="w" unicode="&#x77;" horiz-adv-x="1474" d=" M1053,387 L1059,387 L1200,1082 L1474,1082 L1199,0 L955,0 L754,644 L748,644 L547,0 L304,0 L29,1082 L303,1082 L446,389 L452,389 L654,1082 L849,1082"/> 
            <glyph glyph-name="x" unicode="&#x78;" horiz-adv-x="1032" d=" M519,738 L525,738 L691,1082 L1021,1082 L695,547 L1032,0 L703,0 L526,359 L349,0 L19,0 L356,547 L29,1082 L357,1082"/> 
            <glyph glyph-name="y" unicode="&#x79;" horiz-adv-x="1041" d=" M502,454 L514,394 L520,394 L727,1082 L1041,1082 L602,-162 Q556,-278 477,-357.5 Q398,-437 240,-437 Q203,-437 171.5,-431 Q140,-425 95,-414 L129,-201 Q142,-203 157,-205 Q172,-207 184,-207 Q256,-207 295,-171.5 Q334,-136 355,-83 L389,1 L5,1082 L319,1082"/> 
            <glyph glyph-name="z" unicode="&#x7A;" horiz-adv-x="974" d=" M438,224 L974,224 L974,0 L75,0 L75,172 L590,856 L91,856 L91,1082 L957,1082 L957,915"/> 
            <glyph glyph-name="{" unicode="&#x7B;" horiz-adv-x="641" d=" M585,-360 Q390,-305 307.5,-185 Q225,-65 225,106 L225,309 Q225,408 181.5,463 Q138,518 48,518 L48,719 Q138,719 181.5,773.5 Q225,828 225,929 L225,1132 Q225,1303 307.5,1422.5 Q390,1542 585,1597 L641,1440 Q556,1409 521,1329.5 Q486,1250 486,1132 L486,929 Q486,825 441.5,744.5 Q397,664 307,619 Q397,572 441.5,491.5 Q486,411 486,309 L486,106 Q486,-12 521,-91.5 Q556,-171 641,-202"/> 
            <glyph glyph-name="|" unicode="&#x7C;" horiz-adv-x="349" d=" M349,-270 L173,-270 L173,1456 L349,1456"/> 
            <glyph glyph-name="}" unicode="&#x7D;" horiz-adv-x="628" d=" M34,-202 Q119,-171 154,-91.5 Q189,-12 189,106 L189,309 Q189,413 235,493 Q281,573 375,618 Q281,663 235,743.5 Q189,824 189,929 L189,1132 Q189,1250 154,1329.5 Q119,1409 34,1440 L90,1597 Q284,1542 367,1422.5 Q450,1303 450,1132 L450,929 Q450,828 493,773.5 Q536,719 628,719 L628,518 Q536,518 493,463 Q450,408 450,309 L450,106 Q450,-65 367,-185 Q284,-305 90,-360"/> 
            <glyph glyph-name="~" unicode="&#x7E;" horiz-adv-x="1220" d=" M1220,758 Q1220,597 1131.5,487.5 Q1043,378 908,378 Q823,378 751,409.5 Q679,441 601,511 Q549,555 511.5,575 Q474,595 430,595 Q378,595 342.5,544 Q307,493 307,422 L105,448 Q105,610 191.5,717.5 Q278,825 415,825 Q498,825 573.5,791.5 Q649,758 725,692 Q774,647 811.5,627.5 Q849,608 893,608 Q943,608 980,660 Q1017,712 1017,785"/> 
            <glyph glyph-name="¡" unicode="&#xA1;" horiz-adv-x="434" d=" M434,-374 L142,-374 L142,579 L434,579 M434,825 L142,825 L142,1082 L434,1082"/> 
            <glyph glyph-name="¢" unicode="&#xA2;" horiz-adv-x="1022" d=" M576,203 Q654,203 701,248.5 Q748,294 748,370 L1015,370 L1017,365 Q1020,230 931.5,128 Q843,26 700,-7 L700,-245 L500,-245 L500,-16 Q293,7 182.5,156.5 Q72,306 72,525 L72,555 Q72,773 182.5,922.5 Q293,1072 500,1097 L500,1318 L700,1318 L700,1089 Q848,1055 935,947.5 Q1022,840 1022,682 L748,682 Q748,766 702,821.5 Q656,877 575,877 Q459,877 411.5,787 Q364,697 364,555 L364,525 Q364,380 411.5,291.5 Q459,203 576,203"/> 
            <glyph glyph-name="£" unicode="&#xA3;" horiz-adv-x="1152" d=" M551,588 L555,503 Q555,425 525,353 Q495,281 439,224 L1152,224 L1152,0 L156,0 L156,224 L166,224 Q213,236 236.5,319 Q260,402 260,490 L256,588 L92,588 L92,813 L247,813 L239,1027 Q239,1237 359.5,1357 Q480,1477 682,1477 Q897,1477 1015.5,1365.5 Q1134,1254 1130,1071 L1128,1065 L844,1065 Q844,1161 798,1206.5 Q752,1252 681,1252 Q611,1252 571,1193.5 Q531,1135 531,1027 L541,813 L896,813 L896,588"/> 
            <glyph glyph-name="¤" unicode="&#xA4;" horiz-adv-x="1346" d=" M1072,107 Q995,45 903,12.5 Q811,-20 711,-20 Q610,-20 517.5,12.5 Q425,45 350,106 L221,-26 L80,118 L215,255 Q166,331 140.5,420.5 Q115,510 115,608 Q115,709 143,802 Q171,895 224,973 L80,1120 L221,1264 L363,1119 Q437,1174 525.5,1204 Q614,1234 711,1234 Q807,1234 896,1203.5 Q985,1173 1060,1117 L1204,1265 L1346,1120 L1198,969 Q1249,891 1277,799.5 Q1305,708 1305,608 Q1305,511 1279.5,422.5 Q1254,334 1207,259 L1346,118 L1204,-27 M301,608 Q301,423 420,296 Q539,169 711,169 Q881,169 1000.5,296.5 Q1120,424 1120,608 Q1120,791 1000.5,918 Q881,1045 711,1045 Q539,1045 420,918 Q301,791 301,608"/> 
            <glyph glyph-name="¥" unicode="&#xA5;" horiz-adv-x="1230" d=" M623,848 L629,848 L910,1456 L1230,1456 L848,742 L1092,742 L1092,542 L768,542 L768,432 L1092,432 L1092,232 L768,232 L768,0 L476,0 L476,232 L137,232 L137,432 L476,432 L476,542 L137,542 L137,742 L404,742 L22,1456 L343,1456"/> 
            <glyph glyph-name="¦" unicode="&#xA6;" horiz-adv-x="389" d=" M127,-270 L127,525 L389,525 L389,-270 M389,698 L127,698 L127,1456 L389,1456"/> 
            <glyph glyph-name="§" unicode="&#xA7;" horiz-adv-x="1180" d=" M1180,475 Q1180,384 1138,316 Q1096,248 1017,205 Q1085,154 1119.5,84 Q1154,14 1154,-84 Q1154,-261 1014,-361 Q874,-461 637,-461 Q405,-461 249.5,-361.5 Q94,-262 99,-44 L101,-38 L384,-37 Q384,-143 456.5,-189 Q529,-235 637,-235 Q744,-235 803.5,-193.5 Q863,-152 863,-85 Q863,-18 802,22.5 Q741,63 572,113 Q328,177 211,270.5 Q94,364 94,536 Q94,625 136,694 Q178,763 257,807 Q188,857 154,927.5 Q120,998 120,1096 Q120,1268 261.5,1372.5 Q403,1477 640,1477 Q883,1477 1020.5,1366 Q1158,1255 1153,1055 L1151,1049 L868,1049 Q868,1137 808,1194.5 Q748,1252 640,1252 Q526,1252 469,1208.5 Q412,1165 412,1098 Q412,1023 467.5,984.5 Q523,946 700,898 Q947,834 1063.5,740.5 Q1180,647 1180,475 M599,663 Q559,673 525,684 Q491,695 460,706 Q422,684 403.5,647 Q385,610 385,562 Q385,482 440.5,440.5 Q496,399 673,347 Q707,337 741.5,327 Q776,317 811,306 Q850,328 871.5,365 Q893,402 893,450 Q893,521 831,566 Q769,611 599,663"/> 
            <glyph glyph-name="¨" unicode="&#xA8;" horiz-adv-x="922" d=" M922,1252 L656,1252 L656,1456 L922,1456 M422,1252 L156,1252 L156,1456 L422,1456"/> 
            <glyph glyph-name="©" unicode="&#xA9;" horiz-adv-x="1506" d=" M1109,596 L1111,590 Q1115,439 1027,360.5 Q939,282 782,282 Q622,282 527.5,388 Q433,494 433,669 L433,788 Q433,961 527.5,1068 Q622,1175 782,1175 Q939,1175 1027.5,1095.5 Q1116,1016 1112,867 L1110,861 L962,861 Q962,955 917,997.5 Q872,1040 782,1040 Q688,1040 638,971 Q588,902 588,789 L588,669 Q588,554 638,485.5 Q688,417 782,417 Q872,417 916.5,458.5 Q961,500 961,596 M208,729 Q208,465 379.5,284.5 Q551,104 796,104 Q1040,104 1211.5,284.5 Q1383,465 1383,729 Q1383,992 1211.5,1171.5 Q1040,1351 796,1351 Q550,1351 379,1171.5 Q208,992 208,729 M86,729 Q86,1044 293,1260 Q500,1476 796,1476 Q1091,1476 1298.5,1260 Q1506,1044 1506,729 Q1506,413 1298,196 Q1090,-21 796,-21 Q500,-21 293,196 Q86,413 86,729"/> 
            <glyph glyph-name="ª" unicode="&#xAA;" horiz-adv-x="781" d=" M604,706 Q596,727 591,750.5 Q586,774 583,800 Q550,753 494.5,722.5 Q439,692 361,692 Q242,692 177,753 Q112,814 112,920 Q112,1031 196.5,1091 Q281,1151 443,1151 L580,1151 L580,1202 Q580,1264 550.5,1296.5 Q521,1329 464,1329 Q398,1329 362,1303 Q326,1277 326,1230 L161,1243 L160,1249 Q154,1347 239,1412 Q324,1477 464,1477 Q598,1477 676.5,1406 Q755,1335 755,1201 L755,887 Q755,836 761,792 Q767,748 781,706 M404,836 Q455,836 509,866 Q563,896 580,931 L580,1034 L444,1034 Q370,1034 328.5,1002 Q287,970 287,924 Q287,881 316,858.5 Q345,836 404,836"/> 
            <glyph glyph-name="«" unicode="&#xAB;" horiz-adv-x="899" d=" M581,772 L821,373 L634,373 L354,763 L354,782 L634,1172 L821,1172 M659,66052 L899,65653 L712,65653 L432,66043 L432,66062 L712,66452 L899,66452"/> 
            <glyph glyph-name="¬" unicode="&#xAC;" horiz-adv-x="961" d=" M961,374 L761,374 L761,634 L126,634 L126,805 L961,805"/> 
            <glyph glyph-name="­" unicode="&#xAD;" horiz-adv-x="677" d=" M677,510 L113,510 L113,735 L677,735"/> 
            <glyph glyph-name="®" unicode="&#xAE;" horiz-adv-x="1506" d=" M86,729 Q86,1044 293,1260 Q500,1476 796,1476 Q1091,1476 1298.5,1260 Q1506,1044 1506,729 Q1506,413 1298,196 Q1090,-21 796,-21 Q500,-21 293,196 Q86,413 86,729 M208,729 Q208,465 379.5,284.5 Q551,104 796,104 Q1040,104 1211.5,284.5 Q1383,465 1383,729 Q1383,992 1211.5,1171.5 Q1040,1351 796,1351 Q550,1351 379,1171.5 Q208,992 208,729 M652,653 L652,316 L501,316 L501,1166 L782,1166 Q933,1166 1020,1098 Q1107,1030 1107,904 Q1107,846 1078,802.5 Q1049,759 993,728 Q1051,698 1077.5,643.5 Q1104,589 1104,515 L1104,459 Q1104,418 1107.5,385.5 Q1111,353 1121,332 L1121,316 L966,316 Q957,337 955,377.5 Q953,418 953,460 L953,514 Q953,585 919.5,619 Q886,653 810,653 M652,787 L787,787 Q858,787 907.5,817 Q957,847 957,903 Q957,975 918,1004 Q879,1033 782,1033 L652,1033"/> 
            <glyph glyph-name="¯" unicode="&#xAF;" horiz-adv-x="879" d=" M879,1292 L148,1292 L148,1457 L879,1457"/> 
            <glyph glyph-name="°" unicode="&#xB0;" horiz-adv-x="667" d=" M126,1203 Q126,1315 206.5,1396 Q287,1477 399,1477 Q509,1477 588,1396 Q667,1315 667,1203 Q667,1090 588,1011 Q509,932 399,932 Q286,932 206,1011 Q126,1090 126,1203 M273,1203 Q273,1150 310,1114.5 Q347,1079 399,1079 Q450,1079 485,1114 Q520,1149 520,1203 Q520,1257 485,1294 Q450,1331 399,1331 Q347,1331 310,1294 Q273,1257 273,1203"/> 
            <glyph glyph-name="±" unicode="&#xB1;" horiz-adv-x="1006" d=" M679,947 L1006,947 L1006,715 L679,715 L679,332 L423,332 L423,715 L90,715 L90,947 L423,947 L423,1310 L679,1310 M948,-43 L114,-43 L114,185 L948,185"/> 
            <glyph glyph-name="²" unicode="&#xB2;" horiz-adv-x="736" d=" M736,667 L114,667 L114,822 L423,1074 Q483,1124 500.5,1157.5 Q518,1191 518,1232 Q518,1271 494.5,1297.5 Q471,1324 422,1324 Q367,1324 339,1294 Q311,1264 311,1217 L110,1217 L108,1223 Q102,1329 190.5,1404 Q279,1479 427,1479 Q571,1479 650,1414 Q729,1349 729,1231 Q729,1149 675.5,1086.5 Q622,1024 497,921 L388,828 L390,822 L736,822"/> 
            <glyph glyph-name="³" unicode="&#xB3;" horiz-adv-x="754" d=" M408,1139 Q470,1139 500,1163.5 Q530,1188 530,1234 Q530,1272 501.5,1297.5 Q473,1323 418,1323 Q367,1323 338.5,1301 Q310,1279 310,1248 L110,1248 L108,1254 Q102,1355 190,1416.5 Q278,1478 412,1478 Q564,1478 652.5,1418.5 Q741,1359 741,1249 Q741,1194 705.5,1148.5 Q670,1103 609,1078 Q679,1054 716.5,1006.5 Q754,959 754,891 Q754,779 664.5,717 Q575,655 423,655 Q277,655 183,717.5 Q89,780 95,893 L97,899 L298,899 Q298,857 329.5,833.5 Q361,810 421,810 Q477,810 511,834 Q545,858 545,902 Q545,952 510,979 Q475,1006 408,1006 L297,1006 L297,1139"/> 
            <glyph glyph-name="´" unicode="&#xB4;" horiz-adv-x="618" d=" M307,1478 L616,1478 L618,1472 L341,1212 L108,1212"/> 
            <glyph glyph-name="µ" unicode="&#xB5;" horiz-adv-x="1105" d=" M430,1082 L430,462 Q430,313 475,259.5 Q520,206 610,206 Q685,206 735,233.5 Q785,261 813,313 L813,1082 L1105,1082 L1105,0 L833,0 L827,67 Q783,24 726.5,1.5 Q670,-21 603,-21 Q552,-21 508.5,-10.5 Q465,0 430,23 L430,-416 L139,-416 L139,1082"/> 
            <glyph glyph-name="¶" unicode="&#xB6;" horiz-adv-x="928" d=" M636,0 L636,520 L553,520 Q320,520 190.5,649.5 Q61,779 61,988 Q61,1195 190.5,1325.5 Q320,1456 553,1456 L928,1456 L928,0"/> 
            <glyph glyph-name="·" unicode="&#xB7;" horiz-adv-x="451" d=" M451,568 L159,568 L159,828 L451,828"/> 
            <glyph glyph-name="¸" unicode="&#xB8;" horiz-adv-x="486" d=" M347,6 L336,-51 Q400,-62 443,-103 Q486,-144 486,-224 Q486,-331 394.5,-395 Q303,-459 135,-459 L128,-298 Q179,-298 209,-277.5 Q239,-257 239,-215 Q239,-174 207,-157.5 Q175,-141 97,-136 L128,6"/> 
            <glyph glyph-name="¹" unicode="&#xB9;" horiz-adv-x="416" d=" M416,665 L205,665 L205,1295 L78,1295 L78,1454 L416,1477"/> 
            <glyph glyph-name="º" unicode="&#xBA;" horiz-adv-x="811" d=" M118,1142 Q118,1290 212,1383.5 Q306,1477 464,1477 Q622,1477 716.5,1383.5 Q811,1290 811,1142 L811,1025 Q811,876 717,783.5 Q623,691 466,691 Q307,691 212.5,783.5 Q118,876 118,1025 M293,1025 Q293,940 337,888.5 Q381,837 466,837 Q548,837 592,888.5 Q636,940 636,1025 L636,1142 Q636,1225 591.5,1277 Q547,1329 464,1329 Q380,1329 336.5,1277 Q293,1225 293,1142"/> 
            <glyph glyph-name="»" unicode="&#xBB;" horiz-adv-x="916" d=" M290,950 L570,560 L570,541 L290,151 L102,151 L341,550 L102,950 M636,950 L916,560 L916,541 L636,151 L448,151 L687,550 L448,950"/> 
            <glyph glyph-name="¼" unicode="&#xBC;" horiz-adv-x="1498" d=" M505,664 L294,664 L294,1294 L167,1294 L167,1453 L505,1476 M451,117 L309,192 L1020,1330 L1162,1255 M1397,296 L1498,296 L1498,139 L1397,139 L1397,0 L1186,0 L1186,139 L776,139 L762,265 L1186,801 L1397,801 M978,296 L1186,296 L1186,553 L1180,555 L1167,535"/> 
            <glyph glyph-name="½" unicode="&#xBD;" horiz-adv-x="1547" d=" M464,117 L322,192 L1033,1330 L1175,1255 M505,664 L294,664 L294,1294 L167,1294 L167,1453 L505,1476 M1547,0 L925,0 L925,155 L1234,407 Q1294,457 1311.5,490.5 Q1329,524 1329,565 Q1329,604 1305.5,630.5 Q1282,657 1233,657 Q1178,657 1150,627 Q1122,597 1122,550 L921,550 L919,556 Q913,662 1001.5,737 Q1090,812 1238,812 Q1382,812 1461,747 Q1540,682 1540,564 Q1540,482 1486.5,419.5 Q1433,357 1308,254 L1199,161 L1201,155 L1547,155"/> 
            <glyph glyph-name="¾" unicode="&#xBE;" horiz-adv-x="1687" d=" M634,117 L492,192 L1203,1330 L1345,1255 M1586,296 L1687,296 L1687,139 L1586,139 L1586,0 L1375,0 L1375,139 L965,139 L951,265 L1375,801 L1586,801 M1167,296 L1375,296 L1375,553 L1369,555 L1356,535 M424,1140 Q486,1140 516,1164.5 Q546,1189 546,1235 Q546,1273 517.5,1298.5 Q489,1324 434,1324 Q383,1324 354.5,1302 Q326,1280 326,1249 L126,1249 L124,1255 Q118,1356 206,1417.5 Q294,1479 428,1479 Q580,1479 668.5,1419.5 Q757,1360 757,1250 Q757,1195 721.5,1149.5 Q686,1104 625,1079 Q695,1055 732.5,1007.5 Q770,960 770,892 Q770,780 680.5,718 Q591,656 439,656 Q293,656 199,718.5 Q105,781 111,894 L113,900 L314,900 Q314,858 345.5,834.5 Q377,811 437,811 Q493,811 527,835 Q561,859 561,903 Q561,953 526,980 Q491,1007 424,1007 L313,1007 L313,1140"/> 
            <glyph glyph-name="¿" unicode="&#xBF;" horiz-adv-x="1020" d=" M726,668 Q724,527 683.5,461.5 Q643,396 524,304 Q452,246 409.5,178.5 Q367,111 367,29 Q367,-61 415.5,-113 Q464,-165 555,-165 Q628,-165 679,-122 Q730,-79 733,6 L1016,6 L1018,0 Q1020,-191 890.5,-292.5 Q761,-394 555,-394 Q329,-394 202,-281 Q75,-168 75,27 Q75,152 149,260 Q223,368 336,443 Q396,488 415.5,535.5 Q435,583 435,668 M433,1082 L727,1082 L727,831 L433,831"/> 
            <glyph glyph-name="À" unicode="&#xC0;" horiz-adv-x="1311" d=" M917,314 L406,314 L307,0 L12,0 L513,1456 L812,1456 L1311,0 L1016,0 M478,543 L845,543 L665,1115 L659,1115 M815,1560 L578,1560 L307,1820 L309,1826 L618,1826"/> 
            <glyph glyph-name="Á" unicode="&#xC1;" horiz-adv-x="1311" d=" M917,314 L406,314 L307,0 L12,0 L513,1456 L812,1456 L1311,0 L1016,0 M478,543 L845,543 L665,1115 L659,1115 M718,1826 L1027,1826 L1029,1820 L752,1560 L519,1560"/> 
            <glyph glyph-name="Â" unicode="&#xC2;" horiz-adv-x="1311" d=" M917,314 L406,314 L307,0 L12,0 L513,1456 L812,1456 L1311,0 L1016,0 M478,543 L845,543 L665,1115 L659,1115 M1024,1615 L1024,1592 L792,1592 L652,1725 L513,1592 L286,1592 L286,1618 L568,1858 L737,1858"/> 
            <glyph glyph-name="Ã" unicode="&#xC3;" horiz-adv-x="1311" d=" M917,314 L406,314 L307,0 L12,0 L513,1456 L812,1456 L1311,0 L1016,0 M478,543 L845,543 L665,1115 L659,1115 M1030,1856 Q1030,1760 970.5,1692.5 Q911,1625 820,1625 Q750,1625 661.5,1668.5 Q573,1712 521,1712 Q485,1712 461,1679.5 Q437,1647 437,1602 L281,1644 Q281,1738 340.5,1807.5 Q400,1877 490,1877 Q546,1877 642,1833.5 Q738,1790 790,1790 Q824,1790 850,1822 Q876,1854 876,1901"/> 
            <glyph glyph-name="Ä" unicode="&#xC4;" horiz-adv-x="1311" d=" M917,314 L406,314 L307,0 L12,0 L513,1456 L812,1456 L1311,0 L1016,0 M478,543 L845,543 L665,1115 L659,1115 M1038,1601 L772,1601 L772,1805 L1038,1805 M538,1601 L272,1601 L272,1805 L538,1805"/> 
            <glyph glyph-name="Å" unicode="&#xC5;" horiz-adv-x="1311" d=" M917,314 L406,314 L307,0 L12,0 L513,1456 L812,1456 L1311,0 L1016,0 M478,543 L845,543 L665,1115 L659,1115 M444,1739 Q444,1822 505.5,1878.5 Q567,1935 657,1935 Q745,1935 806,1878.5 Q867,1822 867,1739 Q867,1655 806.5,1601 Q746,1547 657,1547 Q567,1547 505.5,1601 Q444,1655 444,1739 M560,1739 Q560,1696 588,1668.5 Q616,1641 657,1641 Q698,1641 724.5,1668.5 Q751,1696 751,1739 Q751,1783 724.5,1811 Q698,1839 657,1839 Q615,1839 587.5,1810.5 Q560,1782 560,1739"/> 
            <glyph glyph-name="Æ" unicode="&#xC6;" horiz-adv-x="1865" d=" M1865,0 L967,0 L953,335 L513,335 L345,0 L3,0 L787,1456 L1803,1456 L1803,1228 L1207,1228 L1223,862 L1722,862 L1722,635 L1232,635 L1249,227 L1865,227 M633,575 L943,575 L920,1134 L914,1135"/> 
            <glyph glyph-name="Ç" unicode="&#xC7;" horiz-adv-x="1243" d=" M1235,495 L1237,489 Q1241,254 1093.5,116.5 Q946,-21 684,-21 Q421,-21 257,148 Q93,317 93,583 L93,872 Q93,1137 253,1307 Q413,1477 669,1477 Q939,1477 1091,1338.5 Q1243,1200 1239,961 L1237,955 L953,955 Q953,1099 884,1175.5 Q815,1252 669,1252 Q538,1252 461,1145.5 Q384,1039 384,874 L384,583 Q384,416 465,309.5 Q546,203 684,203 Q821,203 886.5,276.5 Q952,350 952,495 M774,65541 L763,65484 Q827,65473 870,65432 Q913,65391 913,65311 Q913,65204 821.5,65140 Q730,65076 562,65076 L555,65237 Q606,65237 636,65257.5 Q666,65278 666,65320 Q666,65361 634,65377.5 Q602,65394 524,65399 L555,65541"/> 
            <glyph glyph-name="È" unicode="&#xC8;" horiz-adv-x="1133" d=" M1031,640 L428,640 L428,224 L1133,224 L1133,0 L136,0 L136,1456 L1131,1456 L1131,1231 L428,1231 L428,865 L1031,865 M752,1560 L515,1560 L244,1820 L246,1826 L555,1826"/> 
            <glyph glyph-name="É" unicode="&#xC9;" horiz-adv-x="1133" d=" M1031,640 L428,640 L428,224 L1133,224 L1133,0 L136,0 L136,1456 L1131,1456 L1131,1231 L428,1231 L428,865 L1031,865 M655,1826 L964,1826 L966,1820 L689,1560 L456,1560"/> 
            <glyph glyph-name="Ê" unicode="&#xCA;" horiz-adv-x="1133" d=" M1031,640 L428,640 L428,224 L1133,224 L1133,0 L136,0 L136,1456 L1131,1456 L1131,1231 L428,1231 L428,865 L1031,865 M976,1615 L976,1592 L744,1592 L604,1725 L465,1592 L238,1592 L238,1618 L520,1858 L689,1858"/> 
            <glyph glyph-name="Ë" unicode="&#xCB;" horiz-adv-x="1133" d=" M1031,640 L428,640 L428,224 L1133,224 L1133,0 L136,0 L136,1456 L1131,1456 L1131,1231 L428,1231 L428,865 L1031,865 M987,1601 L721,1601 L721,1805 L987,1805 M487,1601 L221,1601 L221,1805 L487,1805"/> 
            <glyph glyph-name="Ì" unicode="&#xCC;" horiz-adv-x="450" d=" M446,0 L154,0 L154,1456 L446,1456 M65986,1560 L65749,1560 L65478,1820 L65480,1826 L65789,1826"/> 
            <glyph glyph-name="Í" unicode="&#xCD;" horiz-adv-x="662" d=" M446,0 L154,0 L154,1456 L446,1456 M351,1826 L660,1826 L662,1820 L385,1560 L152,1560"/> 
            <glyph glyph-name="Î" unicode="&#xCE;" horiz-adv-x="674" d=" M446,0 L154,0 L154,1456 L446,1456 M66210,1615 L66210,1592 L65978,1592 L65838,1725 L65699,1592 L65472,1592 L65472,1618 L65754,1858 L65923,1858"/> 
            <glyph glyph-name="Ï" unicode="&#xCF;" horiz-adv-x="685" d=" M446,0 L154,0 L154,1456 L446,1456 M66221,1601 L65955,1601 L65955,1805 L66221,1805 M65721,1601 L65455,1601 L65455,1805 L65721,1805"/> 
            <glyph glyph-name="Ð" unicode="&#xD0;" horiz-adv-x="1279" d=" M166,0 L166,652 L31,652 L31,833 L166,833 L166,1456 L666,1456 Q933,1456 1106,1285.5 Q1279,1115 1279,848 L1279,607 Q1279,339 1106,169.5 Q933,0 666,0 M702,652 L458,652 L458,224 L651,224 Q808,224 897,330 Q986,436 986,607 L986,850 Q986,1019 897,1125 Q808,1231 651,1231 L458,1231 L458,833 L702,833"/> 
            <glyph glyph-name="Ñ" unicode="&#xD1;" horiz-adv-x="1313" d=" M1313,0 L1022,0 L434,995 L428,994 L428,0 L136,0 L136,1456 L428,1456 L1016,462 L1022,463 L1022,1456 L1313,1456 M1098,1856 Q1098,1760 1038.5,1692.5 Q979,1625 888,1625 Q818,1625 729.5,1668.5 Q641,1712 589,1712 Q553,1712 529,1679.5 Q505,1647 505,1602 L349,1644 Q349,1738 408.5,1807.5 Q468,1877 558,1877 Q614,1877 710,1833.5 Q806,1790 858,1790 Q892,1790 918,1822 Q944,1854 944,1901"/> 
            <glyph glyph-name="Ò" unicode="&#xD2;" horiz-adv-x="1307" d=" M1307,597 Q1307,329 1137.5,154 Q968,-21 697,-21 Q428,-21 260,154 Q92,329 92,597 L92,859 Q92,1126 259.5,1301.5 Q427,1477 696,1477 Q967,1477 1137,1301.5 Q1307,1126 1307,859 M1015,861 Q1015,1031 930,1140 Q845,1249 696,1249 Q547,1249 465,1140.5 Q383,1032 383,861 L383,597 Q383,424 466,315 Q549,206 697,206 Q847,206 931,315 Q1015,424 1015,597 M847,1560 L610,1560 L339,1820 L341,1826 L650,1826"/> 
            <glyph glyph-name="Ó" unicode="&#xD3;" horiz-adv-x="1307" d=" M1307,597 Q1307,329 1137.5,154 Q968,-21 697,-21 Q428,-21 260,154 Q92,329 92,597 L92,859 Q92,1126 259.5,1301.5 Q427,1477 696,1477 Q967,1477 1137,1301.5 Q1307,1126 1307,859 M1015,861 Q1015,1031 930,1140 Q845,1249 696,1249 Q547,1249 465,1140.5 Q383,1032 383,861 L383,597 Q383,424 466,315 Q549,206 697,206 Q847,206 931,315 Q1015,424 1015,597 M750,1847 L1059,1847 L1061,1841 L784,1581 L551,1581"/> 
            <glyph glyph-name="Ô" unicode="&#xD4;" horiz-adv-x="1307" d=" M1307,597 Q1307,329 1137.5,154 Q968,-21 697,-21 Q428,-21 260,154 Q92,329 92,597 L92,859 Q92,1126 259.5,1301.5 Q427,1477 696,1477 Q967,1477 1137,1301.5 Q1307,1126 1307,859 M1015,861 Q1015,1031 930,1140 Q845,1249 696,1249 Q547,1249 465,1140.5 Q383,1032 383,861 L383,597 Q383,424 466,315 Q549,206 697,206 Q847,206 931,315 Q1015,424 1015,597 M1071,1636 L1071,1613 L839,1613 L699,1746 L560,1613 L333,1613 L333,1639 L615,1879 L784,1879"/> 
            <glyph glyph-name="Õ" unicode="&#xD5;" horiz-adv-x="1307" d=" M1307,597 Q1307,329 1137.5,154 Q968,-21 697,-21 Q428,-21 260,154 Q92,329 92,597 L92,859 Q92,1126 259.5,1301.5 Q427,1477 696,1477 Q967,1477 1137,1301.5 Q1307,1126 1307,859 M1015,861 Q1015,1031 930,1140 Q845,1249 696,1249 Q547,1249 465,1140.5 Q383,1032 383,861 L383,597 Q383,424 466,315 Q549,206 697,206 Q847,206 931,315 Q1015,424 1015,597 M1073,1877 Q1073,1781 1013.5,1713.5 Q954,1646 863,1646 Q793,1646 704.5,1689.5 Q616,1733 564,1733 Q528,1733 504,1700.5 Q480,1668 480,1623 L324,1665 Q324,1759 383.5,1828.5 Q443,1898 533,1898 Q589,1898 685,1854.5 Q781,1811 833,1811 Q867,1811 893,1843 Q919,1875 919,1922"/> 
            <glyph glyph-name="Ö" unicode="&#xD6;" horiz-adv-x="1307" d=" M1307,597 Q1307,329 1137.5,154 Q968,-21 697,-21 Q428,-21 260,154 Q92,329 92,597 L92,859 Q92,1126 259.5,1301.5 Q427,1477 696,1477 Q967,1477 1137,1301.5 Q1307,1126 1307,859 M1015,861 Q1015,1031 930,1140 Q845,1249 696,1249 Q547,1249 465,1140.5 Q383,1032 383,861 L383,597 Q383,424 466,315 Q549,206 697,206 Q847,206 931,315 Q1015,424 1015,597 M1082,1622 L816,1622 L816,1826 L1082,1826 M582,1622 L316,1622 L316,1826 L582,1826"/> 
            <glyph glyph-name="×" unicode="&#xD7;" horiz-adv-x="1015" d=" M64,371 L373,686 L64,1001 L236,1165 L539,855 L843,1165 L1015,1001 L706,686 L1015,371 L843,207 L539,516 L236,207"/> 
            <glyph glyph-name="Ø" unicode="&#xD8;" horiz-adv-x="1307" d=" M1307,597 Q1307,329 1137.5,154 Q968,-21 697,-21 Q618,-21 546,-5 Q474,11 413,42 L333,-95 L190,-95 L309,109 Q205,192 148.5,318.5 Q92,445 92,597 L92,859 Q92,1126 259.5,1301.5 Q427,1477 696,1477 Q796,1477 884.5,1450.5 Q973,1424 1047,1376 L1130,1518 L1273,1518 L1143,1295 Q1222,1212 1264.5,1100 Q1307,988 1307,859 M383,597 Q383,523 398.5,459.5 Q414,396 444,352 L450,351 L918,1154 Q876,1199 820,1224 Q764,1249 696,1249 Q547,1249 465,1140.5 Q383,1032 383,861 M1015,861 Q1015,906 1008,948 Q1001,990 990,1021 L984,1022 L535,251 Q568,229 609,217.5 Q650,206 697,206 Q847,206 931,315 Q1015,424 1015,597"/> 
            <glyph glyph-name="Ù" unicode="&#xD9;" horiz-adv-x="1288" d=" M1288,1456 L1288,490 Q1288,245 1126,112 Q964,-21 702,-21 Q441,-21 280.5,112 Q120,245 120,490 L120,1456 L413,1456 L413,490 Q413,346 490,274.5 Q567,203 702,203 Q839,203 917,274 Q995,345 995,490 L995,1456 M852,1560 L615,1560 L344,1820 L346,1826 L655,1826"/> 
            <glyph glyph-name="Ú" unicode="&#xDA;" horiz-adv-x="1288" d=" M1288,1456 L1288,490 Q1288,245 1126,112 Q964,-21 702,-21 Q441,-21 280.5,112 Q120,245 120,490 L120,1456 L413,1456 L413,490 Q413,346 490,274.5 Q567,203 702,203 Q839,203 917,274 Q995,345 995,490 L995,1456 M755,1826 L1064,1826 L1066,1820 L789,1560 L556,1560"/> 
            <glyph glyph-name="Û" unicode="&#xDB;" horiz-adv-x="1288" d=" M1288,1456 L1288,490 Q1288,245 1126,112 Q964,-21 702,-21 Q441,-21 280.5,112 Q120,245 120,490 L120,1456 L413,1456 L413,490 Q413,346 490,274.5 Q567,203 702,203 Q839,203 917,274 Q995,345 995,490 L995,1456 M1076,1615 L1076,1592 L844,1592 L704,1725 L565,1592 L338,1592 L338,1618 L620,1858 L789,1858"/> 
            <glyph glyph-name="Ü" unicode="&#xDC;" horiz-adv-x="1288" d=" M1288,1456 L1288,490 Q1288,245 1126,112 Q964,-21 702,-21 Q441,-21 280.5,112 Q120,245 120,490 L120,1456 L413,1456 L413,490 Q413,346 490,274.5 Q567,203 702,203 Q839,203 917,274 Q995,345 995,490 L995,1456 M1087,1601 L821,1601 L821,1805 L1087,1805 M587,1601 L321,1601 L321,1805 L587,1805"/> 
            <glyph glyph-name="Ý" unicode="&#xDD;" horiz-adv-x="1287" d=" M643,785 L649,785 L967,1456 L1287,1456 L787,512 L787,0 L496,0 L496,527 L5,1456 L325,1456 M703,1826 L1012,1826 L1014,1820 L737,1560 L504,1560"/> 
            <glyph glyph-name="Þ" unicode="&#xDE;" horiz-adv-x="1183" d=" M424,1456 L424,1186 L645,1186 Q899,1186 1041,1062 Q1183,938 1183,738 Q1183,537 1041,413 Q899,289 645,289 L424,289 L424,0 L132,0 L132,1456 M424,961 L424,514 L645,514 Q768,514 829.5,577.5 Q891,641 891,736 Q891,831 829.5,896 Q768,961 645,961"/> 
            <glyph glyph-name="ß" unicode="&#xDF;" horiz-adv-x="1227" d=" M426,0 L135,0 L135,1101 Q135,1327 264,1450 Q393,1573 616,1573 Q796,1573 915,1477.5 Q1034,1382 1034,1206 Q1034,1098 980.5,1000.5 Q927,903 927,835 Q927,779 1077,637.5 Q1227,496 1227,356 Q1227,167 1112,73 Q997,-21 780,-21 Q699,-21 619.5,-6 Q540,9 501,35 L556,258 Q595,236 652,219.5 Q709,203 774,203 Q850,203 893,241 Q936,279 936,344 Q936,415 786,549.5 Q636,684 636,826 Q636,916 690.5,1016 Q745,1116 745,1191 Q745,1259 700,1304 Q655,1349 597,1349 Q521,1349 473.5,1281.5 Q426,1214 426,1097"/> 
            <glyph glyph-name="à" unicode="&#xE0;" horiz-adv-x="1039" d=" M747,0 Q731,37 719.5,78 Q708,119 703,162 Q658,83 584.5,31 Q511,-21 409,-21 Q239,-21 147,66.5 Q55,154 55,305 Q55,464 177.5,551.5 Q300,639 535,639 L698,639 L698,725 Q698,803 657,846 Q616,889 536,889 Q465,889 426.5,854.5 Q388,820 388,759 L106,760 L105,766 Q98,903 224,1002.5 Q350,1102 555,1102 Q749,1102 870,1003.5 Q991,905 991,723 L991,276 Q991,200 1002.5,133 Q1014,66 1039,0 M480,195 Q557,195 617,233 Q677,271 698,321 L698,474 L535,474 Q442,474 394,427.5 Q346,381 346,315 Q346,261 382,228 Q418,195 480,195 M692,1232 L455,1232 L184,1492 L186,1498 L495,1498"/> 
            <glyph glyph-name="á" unicode="&#xE1;" horiz-adv-x="1039" d=" M747,0 Q731,37 719.5,78 Q708,119 703,162 Q658,83 584.5,31 Q511,-21 409,-21 Q239,-21 147,66.5 Q55,154 55,305 Q55,464 177.5,551.5 Q300,639 535,639 L698,639 L698,725 Q698,803 657,846 Q616,889 536,889 Q465,889 426.5,854.5 Q388,820 388,759 L106,760 L105,766 Q98,903 224,1002.5 Q350,1102 555,1102 Q749,1102 870,1003.5 Q991,905 991,723 L991,276 Q991,200 1002.5,133 Q1014,66 1039,0 M480,195 Q557,195 617,233 Q677,271 698,321 L698,474 L535,474 Q442,474 394,427.5 Q346,381 346,315 Q346,261 382,228 Q418,195 480,195 M595,1498 L904,1498 L906,1492 L629,1232 L396,1232"/> 
            <glyph glyph-name="â" unicode="&#xE2;" horiz-adv-x="1039" d=" M747,0 Q731,37 719.5,78 Q708,119 703,162 Q658,83 584.5,31 Q511,-21 409,-21 Q239,-21 147,66.5 Q55,154 55,305 Q55,464 177.5,551.5 Q300,639 535,639 L698,639 L698,725 Q698,803 657,846 Q616,889 536,889 Q465,889 426.5,854.5 Q388,820 388,759 L106,760 L105,766 Q98,903 224,1002.5 Q350,1102 555,1102 Q749,1102 870,1003.5 Q991,905 991,723 L991,276 Q991,200 1002.5,133 Q1014,66 1039,0 M480,195 Q557,195 617,233 Q677,271 698,321 L698,474 L535,474 Q442,474 394,427.5 Q346,381 346,315 Q346,261 382,228 Q418,195 480,195 M916,1293 L916,1270 L684,1270 L544,1403 L405,1270 L178,1270 L178,1296 L460,1536 L629,1536"/> 
            <glyph glyph-name="ã" unicode="&#xE3;" horiz-adv-x="1039" d=" M747,0 Q731,37 719.5,78 Q708,119 703,162 Q658,83 584.5,31 Q511,-21 409,-21 Q239,-21 147,66.5 Q55,154 55,305 Q55,464 177.5,551.5 Q300,639 535,639 L698,639 L698,725 Q698,803 657,846 Q616,889 536,889 Q465,889 426.5,854.5 Q388,820 388,759 L106,760 L105,766 Q98,903 224,1002.5 Q350,1102 555,1102 Q749,1102 870,1003.5 Q991,905 991,723 L991,276 Q991,200 1002.5,133 Q1014,66 1039,0 M480,195 Q557,195 617,233 Q677,271 698,321 L698,474 L535,474 Q442,474 394,427.5 Q346,381 346,315 Q346,261 382,228 Q418,195 480,195 M918,1534 Q918,1438 858.5,1370.5 Q799,1303 708,1303 Q638,1303 549.5,1346.5 Q461,1390 409,1390 Q373,1390 349,1357.5 Q325,1325 325,1280 L169,1322 Q169,1416 228.5,1485.5 Q288,1555 378,1555 Q434,1555 530,1511.5 Q626,1468 678,1468 Q712,1468 738,1500 Q764,1532 764,1579"/> 
            <glyph glyph-name="ä" unicode="&#xE4;" horiz-adv-x="1039" d=" M747,0 Q731,37 719.5,78 Q708,119 703,162 Q658,83 584.5,31 Q511,-21 409,-21 Q239,-21 147,66.5 Q55,154 55,305 Q55,464 177.5,551.5 Q300,639 535,639 L698,639 L698,725 Q698,803 657,846 Q616,889 536,889 Q465,889 426.5,854.5 Q388,820 388,759 L106,760 L105,766 Q98,903 224,1002.5 Q350,1102 555,1102 Q749,1102 870,1003.5 Q991,905 991,723 L991,276 Q991,200 1002.5,133 Q1014,66 1039,0 M480,195 Q557,195 617,233 Q677,271 698,321 L698,474 L535,474 Q442,474 394,427.5 Q346,381 346,315 Q346,261 382,228 Q418,195 480,195 M927,1279 L661,1279 L661,1483 L927,1483 M427,1279 L161,1279 L161,1483 L427,1483"/> 
            <glyph glyph-name="å" unicode="&#xE5;" horiz-adv-x="1039" d=" M747,0 Q731,37 719.5,78 Q708,119 703,162 Q658,83 584.5,31 Q511,-21 409,-21 Q239,-21 147,66.5 Q55,154 55,305 Q55,464 177.5,551.5 Q300,639 535,639 L698,639 L698,725 Q698,803 657,846 Q616,889 536,889 Q465,889 426.5,854.5 Q388,820 388,759 L106,760 L105,766 Q98,903 224,1002.5 Q350,1102 555,1102 Q749,1102 870,1003.5 Q991,905 991,723 L991,276 Q991,200 1002.5,133 Q1014,66 1039,0 M480,195 Q557,195 617,233 Q677,271 698,321 L698,474 L535,474 Q442,474 394,427.5 Q346,381 346,315 Q346,261 382,228 Q418,195 480,195 M332,1417 Q332,1500 393.5,1556.5 Q455,1613 545,1613 Q633,1613 694,1556.5 Q755,1500 755,1417 Q755,1333 694.5,1279 Q634,1225 545,1225 Q455,1225 393.5,1279 Q332,1333 332,1417 M448,1417 Q448,1374 476,1346.5 Q504,1319 545,1319 Q586,1319 612.5,1346.5 Q639,1374 639,1417 Q639,1461 612.5,1489 Q586,1517 545,1517 Q503,1517 475.5,1488.5 Q448,1460 448,1417"/> 
            <glyph glyph-name="æ" unicode="&#xE6;" horiz-adv-x="1677" d=" M1246,-21 Q1117,-21 1016.5,19.5 Q916,60 849,136 Q789,68 687.5,23.5 Q586,-21 447,-21 Q255,-21 150.5,69.5 Q46,160 46,317 Q46,476 173,562 Q300,648 543,648 L724,648 L724,707 Q724,786 683,831.5 Q642,877 568,877 Q487,877 441,839.5 Q395,802 395,746 L112,764 L110,770 Q104,914 231.5,1008 Q359,1102 571,1102 Q673,1102 757,1074.5 Q841,1047 900,995 Q961,1047 1042.5,1074.5 Q1124,1102 1223,1102 Q1435,1102 1556,970 Q1677,838 1677,612 L1677,454 L1027,454 L1025,448 Q1029,336 1091,269.5 Q1153,203 1277,203 Q1369,203 1431,223 Q1493,243 1571,284 L1648,100 Q1586,52 1479,15.5 Q1372,-21 1246,-21 M503,185 Q561,185 624,215.5 Q687,246 724,288 L724,464 L545,464 Q447,464 392.5,420 Q338,376 338,313 Q338,254 379.5,219.5 Q421,185 503,185 M1223,877 Q1128,877 1081,815.5 Q1034,754 1027,649 L1029,644 L1391,644 L1391,672 Q1391,766 1348.5,821.5 Q1306,877 1223,877"/> 
            <glyph glyph-name="ç" unicode="&#xE7;" horiz-adv-x="1010" d=" M566,203 Q644,203 691,248.5 Q738,294 738,370 L1003,370 L1006,364 Q1010,200 882.5,89.5 Q755,-21 566,-21 Q324,-21 193,132 Q62,285 62,525 L62,555 Q62,794 192.5,948 Q323,1102 565,1102 Q765,1102 887.5,988 Q1010,874 1006,688 L1004,682 L738,682 Q738,766 692,821.5 Q646,877 565,877 Q449,877 401.5,787 Q354,697 354,555 L354,525 Q354,380 401.5,291.5 Q449,203 566,203 M665,65541 L654,65484 Q718,65473 761,65432 Q804,65391 804,65311 Q804,65204 712.5,65140 Q621,65076 453,65076 L446,65237 Q497,65237 527,65257.5 Q557,65278 557,65320 Q557,65361 525,65377.5 Q493,65394 415,65399 L446,65541"/> 
            <glyph glyph-name="è" unicode="&#xE8;" horiz-adv-x="1026" d=" M591,-21 Q357,-21 217,129 Q77,279 77,510 L77,550 Q77,791 209.5,947 Q342,1103 565,1102 Q784,1102 905,970 Q1026,838 1026,613 L1026,454 L380,454 L378,448 Q386,341 449.5,272 Q513,203 622,203 Q719,203 783,222.5 Q847,242 923,284 L1002,104 Q936,50 829,14.5 Q722,-21 591,-21 M565,877 Q484,877 437,815 Q390,753 379,652 L382,647 L740,647 L740,673 Q740,766 696.5,821.5 Q653,877 565,877 M694,1238 L457,1238 L186,1498 L188,1504 L497,1504"/> 
            <glyph glyph-name="é" unicode="&#xE9;" horiz-adv-x="1026" d=" M591,-21 Q357,-21 217,129 Q77,279 77,510 L77,550 Q77,791 209.5,947 Q342,1103 565,1102 Q784,1102 905,970 Q1026,838 1026,613 L1026,454 L380,454 L378,448 Q386,341 449.5,272 Q513,203 622,203 Q719,203 783,222.5 Q847,242 923,284 L1002,104 Q936,50 829,14.5 Q722,-21 591,-21 M565,877 Q484,877 437,815 Q390,753 379,652 L382,647 L740,647 L740,673 Q740,766 696.5,821.5 Q653,877 565,877 M597,1504 L906,1504 L908,1498 L631,1238 L398,1238"/> 
            <glyph glyph-name="ê" unicode="&#xEA;" horiz-adv-x="1026" d=" M591,-21 Q357,-21 217,129 Q77,279 77,510 L77,550 Q77,791 209.5,947 Q342,1103 565,1102 Q784,1102 905,970 Q1026,838 1026,613 L1026,454 L380,454 L378,448 Q386,341 449.5,272 Q513,203 622,203 Q719,203 783,222.5 Q847,242 923,284 L1002,104 Q936,50 829,14.5 Q722,-21 591,-21 M565,877 Q484,877 437,815 Q390,753 379,652 L382,647 L740,647 L740,673 Q740,766 696.5,821.5 Q653,877 565,877 M918,1294 L918,1271 L686,1271 L546,1404 L407,1271 L180,1271 L180,1297 L462,1537 L631,1537"/> 
            <glyph glyph-name="ë" unicode="&#xEB;" horiz-adv-x="1026" d=" M591,-21 Q357,-21 217,129 Q77,279 77,510 L77,550 Q77,791 209.5,947 Q342,1103 565,1102 Q784,1102 905,970 Q1026,838 1026,613 L1026,454 L380,454 L378,448 Q386,341 449.5,272 Q513,203 622,203 Q719,203 783,222.5 Q847,242 923,284 L1002,104 Q936,50 829,14.5 Q722,-21 591,-21 M565,877 Q484,877 437,815 Q390,753 379,652 L382,647 L740,647 L740,673 Q740,766 696.5,821.5 Q653,877 565,877 M929,1280 L663,1280 L663,1484 L929,1484 M429,1280 L163,1280 L163,1484 L429,1484"/> 
            <glyph glyph-name="ì" unicode="&#xEC;" horiz-adv-x="430" d=" M425,0 L133,0 L133,1082 L425,1082 M65966,1238 L65729,1238 L65458,1498 L65460,1504 L65769,1504"/> 
            <glyph glyph-name="í" unicode="&#xED;" horiz-adv-x="642" d=" M425,0 L133,0 L133,1082 L425,1082 M331,1483 L640,1483 L642,1477 L365,1217 L132,1217"/> 
            <glyph glyph-name="î" unicode="&#xEE;" horiz-adv-x="654" d=" M425,0 L133,0 L133,1082 L425,1082 M66190,66810 L66190,66787 L65958,66787 L65818,66920 L65679,66787 L65452,66787 L65452,66813 L65734,67053 L65903,67053"/> 
            <glyph glyph-name="ï" unicode="&#xEF;" horiz-adv-x="665" d=" M425,0 L133,0 L133,1082 L425,1082 M66201,1258 L65935,1258 L65935,1462 L66201,1462 M65701,1258 L65435,1258 L65435,1462 L65701,1462"/> 
            <glyph glyph-name="ð" unicode="&#xF0;" horiz-adv-x="1136" d=" M921,1290 Q1023,1184 1079.5,1045 Q1136,906 1136,742 L1136,546 Q1136,296 979,137.5 Q822,-21 587,-21 Q349,-21 198.5,119.5 Q48,260 48,468 Q48,694 182.5,830.5 Q317,967 548,967 Q629,967 701,941.5 Q773,916 825,871 L829,875 Q815,958 775,1028.5 Q735,1099 675,1154 L430,1018 L352,1131 L544,1237 L543,1243 Q512,1259 475,1273 Q438,1287 398,1299 L490,1517 Q578,1498 658.5,1464.5 Q739,1431 808,1384 L1006,1493 L1083,1380 M591,203 Q707,203 775.5,299.5 Q844,396 844,546 L844,664 Q809,703 745,729 Q681,755 594,755 Q472,755 406,676 Q340,597 340,468 Q340,356 408,279.5 Q476,203 591,203"/> 
            <glyph glyph-name="ñ" unicode="&#xF1;" horiz-adv-x="1050" d=" M379,1082 L392,927 Q446,1010 525,1056 Q604,1102 702,1102 Q866,1102 958,999 Q1050,896 1050,676 L1050,0 L757,0 L757,675 Q757,784 713,829.5 Q669,875 580,875 Q522,875 476,851.5 Q430,828 399,785 L399,0 L107,0 L107,1082 M951,1534 Q951,1438 891.5,1370.5 Q832,1303 741,1303 Q671,1303 582.5,1346.5 Q494,1390 442,1390 Q406,1390 382,1357.5 Q358,1325 358,1280 L202,1322 Q202,1416 261.5,1485.5 Q321,1555 411,1555 Q467,1555 563,1511.5 Q659,1468 711,1468 Q745,1468 771,1500 Q797,1532 797,1579"/> 
            <glyph glyph-name="ò" unicode="&#xF2;" horiz-adv-x="1088" d=" M67,551 Q67,793 202,947.5 Q337,1102 576,1102 Q816,1102 952,948 Q1088,794 1088,551 L1088,530 Q1088,286 952.5,132.5 Q817,-21 578,-21 Q338,-21 202.5,132.5 Q67,286 67,530 M358,530 Q358,382 410,292.5 Q462,203 578,203 Q691,203 743.5,293 Q796,383 796,530 L796,551 Q796,695 743,786 Q690,877 576,877 Q463,877 410.5,785.5 Q358,694 358,551 M725,1238 L488,1238 L217,1498 L219,1504 L528,1504"/> 
            <glyph glyph-name="ó" unicode="&#xF3;" horiz-adv-x="1088" d=" M67,551 Q67,793 202,947.5 Q337,1102 576,1102 Q816,1102 952,948 Q1088,794 1088,551 L1088,530 Q1088,286 952.5,132.5 Q817,-21 578,-21 Q338,-21 202.5,132.5 Q67,286 67,530 M358,530 Q358,382 410,292.5 Q462,203 578,203 Q691,203 743.5,293 Q796,383 796,530 L796,551 Q796,695 743,786 Q690,877 576,877 Q463,877 410.5,785.5 Q358,694 358,551 M628,1504 L937,1504 L939,1498 L662,1238 L429,1238"/> 
            <glyph glyph-name="ô" unicode="&#xF4;" horiz-adv-x="1088" d=" M67,551 Q67,793 202,947.5 Q337,1102 576,1102 Q816,1102 952,948 Q1088,794 1088,551 L1088,530 Q1088,286 952.5,132.5 Q817,-21 578,-21 Q338,-21 202.5,132.5 Q67,286 67,530 M358,530 Q358,382 410,292.5 Q462,203 578,203 Q691,203 743.5,293 Q796,383 796,530 L796,551 Q796,695 743,786 Q690,877 576,877 Q463,877 410.5,785.5 Q358,694 358,551 M949,1293 L949,1270 L717,1270 L577,1403 L438,1270 L211,1270 L211,1296 L493,1536 L662,1536"/> 
            <glyph glyph-name="õ" unicode="&#xF5;" horiz-adv-x="1088" d=" M67,551 Q67,793 202,947.5 Q337,1102 576,1102 Q816,1102 952,948 Q1088,794 1088,551 L1088,530 Q1088,286 952.5,132.5 Q817,-21 578,-21 Q338,-21 202.5,132.5 Q67,286 67,530 M358,530 Q358,382 410,292.5 Q462,203 578,203 Q691,203 743.5,293 Q796,383 796,530 L796,551 Q796,695 743,786 Q690,877 576,877 Q463,877 410.5,785.5 Q358,694 358,551 M951,1534 Q951,1438 891.5,1370.5 Q832,1303 741,1303 Q671,1303 582.5,1346.5 Q494,1390 442,1390 Q406,1390 382,1357.5 Q358,1325 358,1280 L202,1322 Q202,1416 261.5,1485.5 Q321,1555 411,1555 Q467,1555 563,1511.5 Q659,1468 711,1468 Q745,1468 771,1500 Q797,1532 797,1579"/> 
            <glyph glyph-name="ö" unicode="&#xF6;" horiz-adv-x="1088" d=" M67,551 Q67,793 202,947.5 Q337,1102 576,1102 Q816,1102 952,948 Q1088,794 1088,551 L1088,530 Q1088,286 952.5,132.5 Q817,-21 578,-21 Q338,-21 202.5,132.5 Q67,286 67,530 M358,530 Q358,382 410,292.5 Q462,203 578,203 Q691,203 743.5,293 Q796,383 796,530 L796,551 Q796,695 743,786 Q690,877 576,877 Q463,877 410.5,785.5 Q358,694 358,551 M960,1279 L694,1279 L694,1483 L960,1483 M460,1279 L194,1279 L194,1483 L460,1483"/> 
            <glyph glyph-name="÷" unicode="&#xF7;" horiz-adv-x="1092" d=" M1092,573 L63,573 L63,800 L1092,800 M725,973 L432,973 L432,1206 L725,1206 M725,164 L432,164 L432,397 L725,397"/> 
            <glyph glyph-name="ø" unicode="&#xF8;" horiz-adv-x="1088" d=" M67,551 Q67,793 202,947.5 Q337,1102 576,1102 Q626,1102 672.5,1094 Q719,1086 763,1072 L833,1215 L994,1215 L891,1004 Q986,930 1037,812.5 Q1088,695 1088,551 L1088,530 Q1088,286 952.5,132.5 Q817,-21 578,-21 Q530,-21 486,-14 Q442,-7 402,5 L331,-141 L170,-141 L273,70 Q172,141 119.5,260.5 Q67,380 67,530 M358,530 Q358,468 366.5,416 Q375,364 393,330 L399,329 L659,860 Q640,868 619.5,872.5 Q599,877 576,877 Q463,877 410.5,785.5 Q358,694 358,551 M796,551 Q796,605 788,653 Q780,701 766,735 L760,736 L505,215 Q520,208 538.5,205.5 Q557,203 578,203 Q691,203 743.5,293 Q796,383 796,530"/> 
            <glyph glyph-name="ù" unicode="&#xF9;" horiz-adv-x="1048" d=" M773,156 Q723,71 646,25 Q569,-21 469,-21 Q298,-21 201.5,88.5 Q105,198 105,429 L105,1082 L396,1082 L396,427 Q396,309 436,257.5 Q476,206 554,206 Q624,206 674,228.5 Q724,251 756,295 L756,1082 L1048,1082 L1048,0 L799,0 M724,1217 L487,1217 L216,1477 L218,1483 L527,1483"/> 
            <glyph glyph-name="ú" unicode="&#xFA;" horiz-adv-x="1048" d=" M773,156 Q723,71 646,25 Q569,-21 469,-21 Q298,-21 201.5,88.5 Q105,198 105,429 L105,1082 L396,1082 L396,427 Q396,309 436,257.5 Q476,206 554,206 Q624,206 674,228.5 Q724,251 756,295 L756,1082 L1048,1082 L1048,0 L799,0 M627,1483 L936,1483 L938,1477 L661,1217 L428,1217"/> 
            <glyph glyph-name="û" unicode="&#xFB;" horiz-adv-x="1048" d=" M773,156 Q723,71 646,25 Q569,-21 469,-21 Q298,-21 201.5,88.5 Q105,198 105,429 L105,1082 L396,1082 L396,427 Q396,309 436,257.5 Q476,206 554,206 Q624,206 674,228.5 Q724,251 756,295 L756,1082 L1048,1082 L1048,0 L799,0 M948,1530 L948,1507 L716,1507 L576,1640 L437,1507 L210,1507 L210,1533 L492,1773 L661,1773"/> 
            <glyph glyph-name="ü" unicode="&#xFC;" horiz-adv-x="1048" d=" M773,156 Q723,71 646,25 Q569,-21 469,-21 Q298,-21 201.5,88.5 Q105,198 105,429 L105,1082 L396,1082 L396,427 Q396,309 436,257.5 Q476,206 554,206 Q624,206 674,228.5 Q724,251 756,295 L756,1082 L1048,1082 L1048,0 L799,0 M959,1258 L693,1258 L693,1462 L959,1462 M459,1258 L193,1258 L193,1462 L459,1462"/> 
            <glyph glyph-name="ý" unicode="&#xFD;" horiz-adv-x="1041" d=" M502,454 L514,394 L520,394 L727,1082 L1041,1082 L602,-162 Q556,-278 477,-357.5 Q398,-437 240,-437 Q203,-437 171.5,-431 Q140,-425 95,-414 L129,-201 Q142,-203 157,-205 Q172,-207 184,-207 Q256,-207 295,-171.5 Q334,-136 355,-83 L389,1 L5,1082 L319,1082 M574,1483 L883,1483 L885,1477 L608,1217 L375,1217"/> 
            <glyph glyph-name="þ" unicode="&#xFE;" horiz-adv-x="1098" d=" M1098,511 Q1098,271 987,125 Q876,-21 677,-21 Q592,-21 526,10.5 Q460,42 413,103 L413,-416 L122,-416 L122,0 L121,0 L121,1560 L413,1560 L413,969 Q460,1033 525,1067.5 Q590,1102 675,1102 Q876,1102 987,945 Q1098,788 1098,532 M806,532 Q806,685 755,780 Q704,875 599,875 Q533,875 486.5,848 Q440,821 413,771 L413,297 Q440,251 486.5,227 Q533,203 601,203 Q707,203 756.5,286 Q806,369 806,511"/> 
            <glyph glyph-name="ÿ" unicode="&#xFF;" horiz-adv-x="1041" d=" M502,454 L514,394 L520,394 L727,1082 L1041,1082 L602,-162 Q556,-278 477,-357.5 Q398,-437 240,-437 Q203,-437 171.5,-431 Q140,-425 95,-414 L129,-201 Q142,-203 157,-205 Q172,-207 184,-207 Q256,-207 295,-171.5 Q334,-136 355,-83 L389,1 L5,1082 L319,1082 M1164,1258 L898,1258 L898,1462 L1164,1462 M664,1258 L398,1258 L398,1462 L664,1462"/> 
            <glyph glyph-name="Ā" unicode="&#x100;" horiz-adv-x="1311" d=" M917,314 L406,314 L307,0 L12,0 L513,1456 L812,1456 L1311,0 L1016,0 M478,543 L845,543 L665,1115 L659,1115 M1021,1613 L290,1613 L290,1778 L1021,1778"/> 
            <glyph glyph-name="ā" unicode="&#x101;" horiz-adv-x="1039" d=" M747,0 Q731,37 719.5,78 Q708,119 703,162 Q658,83 584.5,31 Q511,-21 409,-21 Q239,-21 147,66.5 Q55,154 55,305 Q55,464 177.5,551.5 Q300,639 535,639 L698,639 L698,725 Q698,803 657,846 Q616,889 536,889 Q465,889 426.5,854.5 Q388,820 388,759 L106,760 L105,766 Q98,903 224,1002.5 Q350,1102 555,1102 Q749,1102 870,1003.5 Q991,905 991,723 L991,276 Q991,200 1002.5,133 Q1014,66 1039,0 M480,195 Q557,195 617,233 Q677,271 698,321 L698,474 L535,474 Q442,474 394,427.5 Q346,381 346,315 Q346,261 382,228 Q418,195 480,195 M911,1292 L180,1292 L180,1457 L911,1457"/> 
            <glyph glyph-name="Ă" unicode="&#x102;" horiz-adv-x="1311" d=" M917,314 L406,314 L307,0 L12,0 L513,1456 L812,1456 L1311,0 L1016,0 M478,543 L845,543 L665,1115 L659,1115 M994,1896 L996,1890 Q1001,1763 907.5,1682.5 Q814,1602 656,1602 Q497,1602 403,1682.5 Q309,1763 315,1890 L317,1896 L530,1896 Q530,1843 560.5,1809 Q591,1775 656,1775 Q719,1775 749.5,1809 Q780,1843 780,1896"/> 
            <glyph glyph-name="ă" unicode="&#x103;" horiz-adv-x="1039" d=" M747,0 Q731,37 719.5,78 Q708,119 703,162 Q658,83 584.5,31 Q511,-21 409,-21 Q239,-21 147,66.5 Q55,154 55,305 Q55,464 177.5,551.5 Q300,639 535,639 L698,639 L698,725 Q698,803 657,846 Q616,889 536,889 Q465,889 426.5,854.5 Q388,820 388,759 L106,760 L105,766 Q98,903 224,1002.5 Q350,1102 555,1102 Q749,1102 870,1003.5 Q991,905 991,723 L991,276 Q991,200 1002.5,133 Q1014,66 1039,0 M480,195 Q557,195 617,233 Q677,271 698,321 L698,474 L535,474 Q442,474 394,427.5 Q346,381 346,315 Q346,261 382,228 Q418,195 480,195 M883,1574 L885,1568 Q890,1441 796.5,1360.5 Q703,1280 545,1280 Q386,1280 292,1360.5 Q198,1441 204,1568 L206,1574 L419,1574 Q419,1521 449.5,1487 Q480,1453 545,1453 Q608,1453 638.5,1487 Q669,1521 669,1574"/> 
            <glyph glyph-name="Ą" unicode="&#x104;" horiz-adv-x="1338" d=" M917,314 L406,314 L307,0 L12,0 L513,1456 L812,1456 L1311,0 L1016,0 M478,543 L845,543 L665,1115 L659,1115 M1227,0 Q1173,-53 1148,-90 Q1123,-127 1123,-176 Q1123,-203 1140,-224.5 Q1157,-246 1209,-246 Q1237,-246 1258.5,-240 Q1280,-234 1303,-226 L1338,-380 Q1302,-399 1257.5,-411.5 Q1213,-424 1152,-424 Q1044,-424 974.5,-367.5 Q905,-311 905,-210 Q905,-133 951,-63.5 Q997,6 1095,60"/> 
            <glyph glyph-name="ą" unicode="&#x105;" horiz-adv-x="1065" d=" M747,0 Q731,37 719.5,78 Q708,119 703,162 Q658,83 584.5,31 Q511,-21 409,-21 Q239,-21 147,66.5 Q55,154 55,305 Q55,464 177.5,551.5 Q300,639 535,639 L698,639 L698,725 Q698,803 657,846 Q616,889 536,889 Q465,889 426.5,854.5 Q388,820 388,759 L106,760 L105,766 Q98,903 224,1002.5 Q350,1102 555,1102 Q749,1102 870,1003.5 Q991,905 991,723 L991,276 Q991,200 1002.5,133 Q1014,66 1039,0 M480,195 Q557,195 617,233 Q677,271 698,321 L698,474 L535,474 Q442,474 394,427.5 Q346,381 346,315 Q346,261 382,228 Q418,195 480,195 M954,0 Q900,-53 875,-90 Q850,-127 850,-176 Q850,-203 867,-224.5 Q884,-246 936,-246 Q964,-246 985.5,-240 Q1007,-234 1030,-226 L1065,-380 Q1029,-399 984.5,-411.5 Q940,-424 879,-424 Q771,-424 701.5,-367.5 Q632,-311 632,-210 Q632,-133 678,-63.5 Q724,6 822,60"/> 
            <glyph glyph-name="Ć" unicode="&#x106;" horiz-adv-x="1243" d=" M1235,495 L1237,489 Q1241,254 1093.5,116.5 Q946,-21 684,-21 Q421,-21 257,148 Q93,317 93,583 L93,872 Q93,1137 253,1307 Q413,1477 669,1477 Q939,1477 1091,1338.5 Q1243,1200 1239,961 L1237,955 L953,955 Q953,1099 884,1175.5 Q815,1252 669,1252 Q538,1252 461,1145.5 Q384,1039 384,874 L384,583 Q384,416 465,309.5 Q546,203 684,203 Q821,203 886.5,276.5 Q952,350 952,495 M724,1847 L1033,1847 L1035,1841 L758,1581 L525,1581"/> 
            <glyph glyph-name="ć" unicode="&#x107;" horiz-adv-x="1010" d=" M566,203 Q644,203 691,248.5 Q738,294 738,370 L1003,370 L1006,364 Q1010,200 882.5,89.5 Q755,-21 566,-21 Q324,-21 193,132 Q62,285 62,525 L62,555 Q62,794 192.5,948 Q323,1102 565,1102 Q765,1102 887.5,988 Q1010,874 1006,688 L1004,682 L738,682 Q738,766 692,821.5 Q646,877 565,877 Q449,877 401.5,787 Q354,697 354,555 L354,525 Q354,380 401.5,291.5 Q449,203 566,203 M582,1504 L891,1504 L893,1498 L616,1238 L383,1238"/> 
            <glyph glyph-name="Ĉ" unicode="&#x108;" horiz-adv-x="1243" d=" M1235,495 L1237,489 Q1241,254 1093.5,116.5 Q946,-21 684,-21 Q421,-21 257,148 Q93,317 93,583 L93,872 Q93,1137 253,1307 Q413,1477 669,1477 Q939,1477 1091,1338.5 Q1243,1200 1239,961 L1237,955 L953,955 Q953,1099 884,1175.5 Q815,1252 669,1252 Q538,1252 461,1145.5 Q384,1039 384,874 L384,583 Q384,416 465,309.5 Q546,203 684,203 Q821,203 886.5,276.5 Q952,350 952,495 M1045,1636 L1045,1613 L813,1613 L673,1746 L534,1613 L307,1613 L307,1639 L589,1879 L758,1879"/> 
            <glyph glyph-name="ĉ" unicode="&#x109;" horiz-adv-x="1010" d=" M566,203 Q644,203 691,248.5 Q738,294 738,370 L1003,370 L1006,364 Q1010,200 882.5,89.5 Q755,-21 566,-21 Q324,-21 193,132 Q62,285 62,525 L62,555 Q62,794 192.5,948 Q323,1102 565,1102 Q765,1102 887.5,988 Q1010,874 1006,688 L1004,682 L738,682 Q738,766 692,821.5 Q646,877 565,877 Q449,877 401.5,787 Q354,697 354,555 L354,525 Q354,380 401.5,291.5 Q449,203 566,203 M903,1293 L903,1270 L671,1270 L531,1403 L392,1270 L165,1270 L165,1296 L447,1536 L616,1536"/> 
            <glyph glyph-name="Ċ" unicode="&#x10A;" horiz-adv-x="1243" d=" M1235,495 L1237,489 Q1241,254 1093.5,116.5 Q946,-21 684,-21 Q421,-21 257,148 Q93,317 93,583 L93,872 Q93,1137 253,1307 Q413,1477 669,1477 Q939,1477 1091,1338.5 Q1243,1200 1239,961 L1237,955 L953,955 Q953,1099 884,1175.5 Q815,1252 669,1252 Q538,1252 461,1145.5 Q384,1039 384,874 L384,583 Q384,416 465,309.5 Q546,203 684,203 Q821,203 886.5,276.5 Q952,350 952,495 M822,1622 L518,1622 L518,1863 L822,1863"/> 
            <glyph glyph-name="ċ" unicode="&#x10B;" horiz-adv-x="1010" d=" M566,203 Q644,203 691,248.5 Q738,294 738,370 L1003,370 L1006,364 Q1010,200 882.5,89.5 Q755,-21 566,-21 Q324,-21 193,132 Q62,285 62,525 L62,555 Q62,794 192.5,948 Q323,1102 565,1102 Q765,1102 887.5,988 Q1010,874 1006,688 L1004,682 L738,682 Q738,766 692,821.5 Q646,877 565,877 Q449,877 401.5,787 Q354,697 354,555 L354,525 Q354,380 401.5,291.5 Q449,203 566,203 M680,1279 L376,1279 L376,1520 L680,1520"/> 
            <glyph glyph-name="Č" unicode="&#x10C;" horiz-adv-x="1243" d=" M1235,495 L1237,489 Q1241,254 1093.5,116.5 Q946,-21 684,-21 Q421,-21 257,148 Q93,317 93,583 L93,872 Q93,1137 253,1307 Q413,1477 669,1477 Q939,1477 1091,1338.5 Q1243,1200 1239,961 L1237,955 L953,955 Q953,1099 884,1175.5 Q815,1252 669,1252 Q538,1252 461,1145.5 Q384,1039 384,874 L384,583 Q384,416 465,309.5 Q546,203 684,203 Q821,203 886.5,276.5 Q952,350 952,495 M672,1767 L789,1894 L1053,1894 L1053,1877 L772,1622 L573,1622 L292,1878 L292,1894 L556,1894"/> 
            <glyph glyph-name="č" unicode="&#x10D;" horiz-adv-x="1010" d=" M566,203 Q644,203 691,248.5 Q738,294 738,370 L1003,370 L1006,364 Q1010,200 882.5,89.5 Q755,-21 566,-21 Q324,-21 193,132 Q62,285 62,525 L62,555 Q62,794 192.5,948 Q323,1102 565,1102 Q765,1102 887.5,988 Q1010,874 1006,688 L1004,682 L738,682 Q738,766 692,821.5 Q646,877 565,877 Q449,877 401.5,787 Q354,697 354,555 L354,525 Q354,380 401.5,291.5 Q449,203 566,203 M530,1424 L647,1551 L911,1551 L911,1534 L630,1279 L431,1279 L150,1535 L150,1551 L414,1551"/> 
            <glyph glyph-name="Ď" unicode="&#x10E;" horiz-adv-x="1249" d=" M136,0 L136,1456 L636,1456 Q903,1456 1076,1285.5 Q1249,1115 1249,848 L1249,607 Q1249,339 1076,169.5 Q903,0 636,0 M428,1231 L428,224 L621,224 Q778,224 867,330 Q956,436 956,607 L956,850 Q956,1019 867,1125 Q778,1231 621,1231 M592,1746 L709,1873 L973,1873 L973,1856 L692,1601 L493,1601 L212,1857 L212,1873 L476,1873"/> 
            <glyph glyph-name="ď" unicode="&#x10F;" horiz-adv-x="1368" d=" M67,532 Q67,788 177.5,945 Q288,1102 489,1102 Q570,1102 635,1067 Q700,1032 749,967 L749,1560 L1042,1560 L1042,0 L791,0 L767,132 Q716,57 646.5,18 Q577,-21 487,-21 Q288,-21 177.5,125 Q67,271 67,511 M358,511 Q358,369 406,287.5 Q454,206 562,206 Q625,206 672,231.5 Q719,257 749,306 L749,767 Q719,818 672.5,846.5 Q626,875 564,875 Q457,875 407.5,780 Q358,685 358,532 M1368,1398 L1239,1163 L1117,1163 L1178,1408 L1178,1559 L1368,1559"/> 
            <glyph glyph-name="Đ" unicode="&#x110;" horiz-adv-x="1279" d=" M166,0 L166,652 L31,652 L31,833 L166,833 L166,1456 L666,1456 Q933,1456 1106,1285.5 Q1279,1115 1279,848 L1279,607 Q1279,339 1106,169.5 Q933,0 666,0 M702,652 L458,652 L458,224 L651,224 Q808,224 897,330 Q986,436 986,607 L986,850 Q986,1019 897,1125 Q808,1231 651,1231 L458,1231 L458,833 L702,833"/> 
            <glyph glyph-name="đ" unicode="&#x111;" horiz-adv-x="1186" d=" M1186,1220 L1042,1220 L1042,0 L791,0 L767,132 Q716,57 646.5,18 Q577,-21 487,-21 Q288,-21 177.5,125 Q67,271 67,511 L67,532 Q67,788 177.5,945 Q288,1102 489,1102 Q570,1102 635,1067 Q700,1032 749,967 L749,1220 L515,1220 L515,1401 L749,1401 L749,1560 L1042,1560 L1042,1401 L1186,1401 M358,511 Q358,369 406,287.5 Q454,206 562,206 Q625,206 672,231.5 Q719,257 749,306 L749,767 Q719,818 672.5,846.5 Q626,875 564,875 Q457,875 407.5,780 Q358,685 358,532"/> 
            <glyph glyph-name="Ē" unicode="&#x112;" horiz-adv-x="1133" d=" M1031,640 L428,640 L428,224 L1133,224 L1133,0 L136,0 L136,1456 L1131,1456 L1131,1231 L428,1231 L428,865 L1031,865 M971,1613 L240,1613 L240,1778 L971,1778"/> 
            <glyph glyph-name="ē" unicode="&#x113;" horiz-adv-x="1026" d=" M591,-21 Q357,-21 217,129 Q77,279 77,510 L77,550 Q77,791 209.5,947 Q342,1103 565,1102 Q784,1102 905,970 Q1026,838 1026,613 L1026,454 L380,454 L378,448 Q386,341 449.5,272 Q513,203 622,203 Q719,203 783,222.5 Q847,242 923,284 L1002,104 Q936,50 829,14.5 Q722,-21 591,-21 M565,877 Q484,877 437,815 Q390,753 379,652 L382,647 L740,647 L740,673 Q740,766 696.5,821.5 Q653,877 565,877 M913,1292 L182,1292 L182,1457 L913,1457"/> 
            <glyph glyph-name="Ĕ" unicode="&#x114;" horiz-adv-x="1133" d=" M1031,640 L428,640 L428,224 L1133,224 L1133,0 L136,0 L136,1456 L1131,1456 L1131,1231 L428,1231 L428,865 L1031,865 M943,1896 L945,1890 Q950,1763 856.5,1682.5 Q763,1602 605,1602 Q446,1602 352,1682.5 Q258,1763 264,1890 L266,1896 L479,1896 Q479,1843 509.5,1809 Q540,1775 605,1775 Q668,1775 698.5,1809 Q729,1843 729,1896"/> 
            <glyph glyph-name="ĕ" unicode="&#x115;" horiz-adv-x="1026" d=" M591,-21 Q357,-21 217,129 Q77,279 77,510 L77,550 Q77,791 209.5,947 Q342,1103 565,1102 Q784,1102 905,970 Q1026,838 1026,613 L1026,454 L380,454 L378,448 Q386,341 449.5,272 Q513,203 622,203 Q719,203 783,222.5 Q847,242 923,284 L1002,104 Q936,50 829,14.5 Q722,-21 591,-21 M565,877 Q484,877 437,815 Q390,753 379,652 L382,647 L740,647 L740,673 Q740,766 696.5,821.5 Q653,877 565,877 M885,1575 L887,1569 Q892,1442 798.5,1361.5 Q705,1281 547,1281 Q388,1281 294,1361.5 Q200,1442 206,1569 L208,1575 L421,1575 Q421,1522 451.5,1488 Q482,1454 547,1454 Q610,1454 640.5,1488 Q671,1522 671,1575"/> 
            <glyph glyph-name="Ė" unicode="&#x116;" horiz-adv-x="1133" d=" M1031,640 L428,640 L428,224 L1133,224 L1133,0 L136,0 L136,1456 L1131,1456 L1131,1231 L428,1231 L428,865 L1031,865 M753,1601 L449,1601 L449,1842 L753,1842"/> 
            <glyph glyph-name="ė" unicode="&#x117;" horiz-adv-x="1026" d=" M591,-21 Q357,-21 217,129 Q77,279 77,510 L77,550 Q77,791 209.5,947 Q342,1103 565,1102 Q784,1102 905,970 Q1026,838 1026,613 L1026,454 L380,454 L378,448 Q386,341 449.5,272 Q513,203 622,203 Q719,203 783,222.5 Q847,242 923,284 L1002,104 Q936,50 829,14.5 Q722,-21 591,-21 M565,877 Q484,877 437,815 Q390,753 379,652 L382,647 L740,647 L740,673 Q740,766 696.5,821.5 Q653,877 565,877 M695,1280 L391,1280 L391,1521 L695,1521"/> 
            <glyph glyph-name="Ę" unicode="&#x118;" horiz-adv-x="1133" d=" M1031,640 L428,640 L428,224 L1133,224 L1133,0 L136,0 L136,1456 L1131,1456 L1131,1231 L428,1231 L428,865 L1031,865 M693,0 Q639,-53 614,-90 Q589,-127 589,-176 Q589,-203 606,-224.5 Q623,-246 675,-246 Q703,-246 724.5,-240 Q746,-234 769,-226 L804,-380 Q768,-399 723.5,-411.5 Q679,-424 618,-424 Q510,-424 440.5,-367.5 Q371,-311 371,-210 Q371,-133 417,-63.5 Q463,6 561,60"/> 
            <glyph glyph-name="ę" unicode="&#x119;" horiz-adv-x="1026" d=" M591,-21 Q357,-21 217,129 Q77,279 77,510 L77,550 Q77,791 209.5,947 Q342,1103 565,1102 Q784,1102 905,970 Q1026,838 1026,613 L1026,454 L380,454 L378,448 Q386,341 449.5,272 Q513,203 622,203 Q719,203 783,222.5 Q847,242 923,284 L1002,104 Q936,50 829,14.5 Q722,-21 591,-21 M565,877 Q484,877 437,815 Q390,753 379,652 L382,647 L740,647 L740,673 Q740,766 696.5,821.5 Q653,877 565,877 M877,43 Q823,-10 798,-47 Q773,-84 773,-133 Q773,-160 790,-181.5 Q807,-203 859,-203 Q887,-203 908.5,-197 Q930,-191 953,-183 L988,-337 Q952,-356 907.5,-368.5 Q863,-381 802,-381 Q694,-381 624.5,-324.5 Q555,-268 555,-167 Q555,-90 601,-20.5 Q647,49 745,103"/> 
            <glyph glyph-name="Ě" unicode="&#x11A;" horiz-adv-x="1133" d=" M1031,640 L428,640 L428,224 L1133,224 L1133,0 L136,0 L136,1456 L1131,1456 L1131,1231 L428,1231 L428,865 L1031,865 M603,1746 L720,1873 L984,1873 L984,1856 L703,1601 L504,1601 L223,1857 L223,1873 L487,1873"/> 
            <glyph glyph-name="ě" unicode="&#x11B;" horiz-adv-x="1026" d=" M591,-21 Q357,-21 217,129 Q77,279 77,510 L77,550 Q77,791 209.5,947 Q342,1103 565,1102 Q784,1102 905,970 Q1026,838 1026,613 L1026,454 L380,454 L378,448 Q386,341 449.5,272 Q513,203 622,203 Q719,203 783,222.5 Q847,242 923,284 L1002,104 Q936,50 829,14.5 Q722,-21 591,-21 M565,877 Q484,877 437,815 Q390,753 379,652 L382,647 L740,647 L740,673 Q740,766 696.5,821.5 Q653,877 565,877 M545,1425 L662,1552 L926,1552 L926,1535 L645,1280 L446,1280 L165,1536 L165,1552 L429,1552"/> 
            <glyph glyph-name="Ĝ" unicode="&#x11C;" horiz-adv-x="1254" d=" M1254,199 Q1189,113 1051.5,46 Q914,-21 704,-21 Q437,-21 268,145 Q99,311 99,576 L99,880 Q99,1144 261.5,1310.5 Q424,1477 680,1477 Q946,1477 1087.5,1347.5 Q1229,1218 1232,1007 L1230,1001 L955,1001 Q947,1117 881,1184.5 Q815,1252 688,1252 Q554,1252 472,1148.5 Q390,1045 390,882 L390,576 Q390,410 475,306.5 Q560,203 704,203 Q806,203 868,224 Q930,245 962,276 L962,546 L704,546 L704,748 L1254,748 M1046,1636 L1046,1613 L814,1613 L674,1746 L535,1613 L308,1613 L308,1639 L590,1879 L759,1879"/> 
            <glyph glyph-name="ĝ" unicode="&#x11D;" horiz-adv-x="1044" d=" M67,532 Q67,788 178.5,945 Q290,1102 491,1102 Q582,1102 651,1061 Q720,1020 769,944 L792,1082 L1044,1082 L1044,5 Q1044,-206 905.5,-321.5 Q767,-437 520,-437 Q438,-437 346,-414.5 Q254,-392 176,-353 L230,-135 Q297,-167 366.5,-183.5 Q436,-200 518,-200 Q638,-200 694.5,-150 Q751,-100 751,6 L751,104 Q703,43 638,11 Q573,-21 489,-21 Q290,-21 178.5,125.5 Q67,272 67,511 M359,511 Q359,369 407,287.5 Q455,206 563,206 Q630,206 676.5,230.5 Q723,255 751,302 L751,772 Q723,821 676.5,848 Q630,875 565,875 Q458,875 408.5,780 Q359,685 359,532 M928,1293 L928,1270 L696,1270 L556,1403 L417,1270 L190,1270 L190,1296 L472,1536 L641,1536"/> 
            <glyph glyph-name="Ğ" unicode="&#x11E;" horiz-adv-x="1254" d=" M1254,199 Q1189,113 1051.5,46 Q914,-21 704,-21 Q437,-21 268,145 Q99,311 99,576 L99,880 Q99,1144 261.5,1310.5 Q424,1477 680,1477 Q946,1477 1087.5,1347.5 Q1229,1218 1232,1007 L1230,1001 L955,1001 Q947,1117 881,1184.5 Q815,1252 688,1252 Q554,1252 472,1148.5 Q390,1045 390,882 L390,576 Q390,410 475,306.5 Q560,203 704,203 Q806,203 868,224 Q930,245 962,276 L962,546 L704,546 L704,748 L1254,748 M1013,1917 L1015,1911 Q1020,1784 926.5,1703.5 Q833,1623 675,1623 Q516,1623 422,1703.5 Q328,1784 334,1911 L336,1917 L549,1917 Q549,1864 579.5,1830 Q610,1796 675,1796 Q738,1796 768.5,1830 Q799,1864 799,1917"/> 
            <glyph glyph-name="ğ" unicode="&#x11F;" horiz-adv-x="1044" d=" M67,532 Q67,788 178.5,945 Q290,1102 491,1102 Q582,1102 651,1061 Q720,1020 769,944 L792,1082 L1044,1082 L1044,5 Q1044,-206 905.5,-321.5 Q767,-437 520,-437 Q438,-437 346,-414.5 Q254,-392 176,-353 L230,-135 Q297,-167 366.5,-183.5 Q436,-200 518,-200 Q638,-200 694.5,-150 Q751,-100 751,6 L751,104 Q703,43 638,11 Q573,-21 489,-21 Q290,-21 178.5,125.5 Q67,272 67,511 M359,511 Q359,369 407,287.5 Q455,206 563,206 Q630,206 676.5,230.5 Q723,255 751,302 L751,772 Q723,821 676.5,848 Q630,875 565,875 Q458,875 408.5,780 Q359,685 359,532 M895,1574 L897,1568 Q902,1441 808.5,1360.5 Q715,1280 557,1280 Q398,1280 304,1360.5 Q210,1441 216,1568 L218,1574 L431,1574 Q431,1521 461.5,1487 Q492,1453 557,1453 Q620,1453 650.5,1487 Q681,1521 681,1574"/> 
            <glyph glyph-name="Ġ" unicode="&#x120;" horiz-adv-x="1254" d=" M1254,199 Q1189,113 1051.5,46 Q914,-21 704,-21 Q437,-21 268,145 Q99,311 99,576 L99,880 Q99,1144 261.5,1310.5 Q424,1477 680,1477 Q946,1477 1087.5,1347.5 Q1229,1218 1232,1007 L1230,1001 L955,1001 Q947,1117 881,1184.5 Q815,1252 688,1252 Q554,1252 472,1148.5 Q390,1045 390,882 L390,576 Q390,410 475,306.5 Q560,203 704,203 Q806,203 868,224 Q930,245 962,276 L962,546 L704,546 L704,748 L1254,748 M823,1622 L519,1622 L519,1863 L823,1863"/> 
            <glyph glyph-name="ġ" unicode="&#x121;" horiz-adv-x="1044" d=" M67,532 Q67,788 178.5,945 Q290,1102 491,1102 Q582,1102 651,1061 Q720,1020 769,944 L792,1082 L1044,1082 L1044,5 Q1044,-206 905.5,-321.5 Q767,-437 520,-437 Q438,-437 346,-414.5 Q254,-392 176,-353 L230,-135 Q297,-167 366.5,-183.5 Q436,-200 518,-200 Q638,-200 694.5,-150 Q751,-100 751,6 L751,104 Q703,43 638,11 Q573,-21 489,-21 Q290,-21 178.5,125.5 Q67,272 67,511 M359,511 Q359,369 407,287.5 Q455,206 563,206 Q630,206 676.5,230.5 Q723,255 751,302 L751,772 Q723,821 676.5,848 Q630,875 565,875 Q458,875 408.5,780 Q359,685 359,532 M705,1279 L401,1279 L401,1520 L705,1520"/> 
            <glyph glyph-name="Ģ" unicode="&#x122;" horiz-adv-x="1254" d=" M1254,199 Q1189,113 1051.5,46 Q914,-21 704,-21 Q437,-21 268,145 Q99,311 99,576 L99,880 Q99,1144 261.5,1310.5 Q424,1477 680,1477 Q946,1477 1087.5,1347.5 Q1229,1218 1232,1007 L1230,1001 L955,1001 Q947,1117 881,1184.5 Q815,1252 688,1252 Q554,1252 472,1148.5 Q390,1045 390,882 L390,576 Q390,410 475,306.5 Q560,203 704,203 Q806,203 868,224 Q930,245 962,276 L962,546 L704,546 L704,748 L1254,748 M778,65270 L649,65035 L527,65035 L588,65280 L588,65431 L778,65431"/> 
            <glyph glyph-name="ģ" unicode="&#x123;" horiz-adv-x="1044" d=" M67,532 Q67,788 178.5,945 Q290,1102 491,1102 Q582,1102 651,1061 Q720,1020 769,944 L792,1082 L1044,1082 L1044,5 Q1044,-206 905.5,-321.5 Q767,-437 520,-437 Q438,-437 346,-414.5 Q254,-392 176,-353 L230,-135 Q297,-167 366.5,-183.5 Q436,-200 518,-200 Q638,-200 694.5,-150 Q751,-100 751,6 L751,104 Q703,43 638,11 Q573,-21 489,-21 Q290,-21 178.5,125.5 Q67,272 67,511 M359,511 Q359,369 407,287.5 Q455,206 563,206 Q630,206 676.5,230.5 Q723,255 751,302 L751,772 Q723,821 676.5,848 Q630,875 565,875 Q458,875 408.5,780 Q359,685 359,532 M431,1433 L546,1693 L705,1693 L670,1423 L670,1258 L431,1258"/> 
            <glyph glyph-name="Ĥ" unicode="&#x124;" horiz-adv-x="1313" d=" M1313,0 L1022,0 L1022,605 L428,605 L428,0 L136,0 L136,1456 L428,1456 L428,830 L1022,830 L1022,1456 L1313,1456 M1094,1615 L1094,1592 L862,1592 L722,1725 L583,1592 L356,1592 L356,1618 L638,1858 L807,1858"/> 
            <glyph glyph-name="ĥ" unicode="&#x125;" horiz-adv-x="1048" d=" M397,945 Q448,1019 522,1060.5 Q596,1102 686,1102 Q855,1102 951.5,989.5 Q1048,877 1048,642 L1048,0 L756,0 L756,644 Q756,770 711.5,822.5 Q667,875 579,875 Q519,875 473,853.5 Q427,832 397,793 L397,0 L105,0 L105,1560 L397,1560 M890,1616 L890,1593 L658,1593 L518,1726 L379,1593 L152,1593 L152,1619 L434,1859 L603,1859"/> 
            <glyph glyph-name="Ħ" unicode="&#x126;" horiz-adv-x="1438" d=" M1311,1199 L1438,1199 L1438,1028 L1311,1028 L1311,0 L1020,0 L1020,605 L426,605 L426,0 L134,0 L134,1028 L16,1028 L16,1199 L134,1199 L134,1456 L426,1456 L426,1199 L1020,1199 L1020,1456 L1311,1456 M426,830 L1020,830 L1020,1028 L426,1028"/> 
            <glyph glyph-name="ħ" unicode="&#x127;" horiz-adv-x="1078" d=" M665,1217 L427,1217 L427,945 Q478,1019 552,1060.5 Q626,1102 716,1102 Q885,1102 981.5,989.5 Q1078,877 1078,642 L1078,0 L786,0 L786,644 Q786,770 741.5,822.5 Q697,875 609,875 Q549,875 503,853.5 Q457,832 427,793 L427,0 L135,0 L135,1217 L-6,1217 L-6,1398 L135,1398 L135,1560 L427,1560 L427,1398 L665,1398"/> 
            <glyph glyph-name="Ĩ" unicode="&#x128;" horiz-adv-x="676" d=" M446,0 L154,0 L154,1456 L446,1456 M66212,1856 Q66212,1760 66152.5,1692.5 Q66093,1625 66002,1625 Q65932,1625 65843.5,1668.5 Q65755,1712 65703,1712 Q65667,1712 65643,1679.5 Q65619,1647 65619,1602 L65463,1644 Q65463,1738 65522.5,1807.5 Q65582,1877 65672,1877 Q65728,1877 65824,1833.5 Q65920,1790 65972,1790 Q66006,1790 66032,1822 Q66058,1854 66058,1901"/> 
            <glyph glyph-name="ĩ" unicode="&#x129;" horiz-adv-x="656" d=" M425,0 L133,0 L133,1082 L425,1082 M66192,1513 Q66192,1417 66132.5,1349.5 Q66073,1282 65982,1282 Q65912,1282 65823.5,1325.5 Q65735,1369 65683,1369 Q65647,1369 65623,1336.5 Q65599,1304 65599,1259 L65443,1301 Q65443,1395 65502.5,1464.5 Q65562,1534 65652,1534 Q65708,1534 65804,1490.5 Q65900,1447 65952,1447 Q65986,1447 66012,1479 Q66038,1511 66038,1558"/> 
            <glyph glyph-name="Ī" unicode="&#x12A;" horiz-adv-x="669" d=" M446,0 L154,0 L154,1456 L446,1456 M66205,1613 L65474,1613 L65474,1778 L66205,1778"/> 
            <glyph glyph-name="ī" unicode="&#x12B;" horiz-adv-x="649" d=" M425,0 L133,0 L133,1082 L425,1082 M66185,66808 L65454,66808 L65454,66973 L66185,66973"/> 
            <glyph glyph-name="Ĭ" unicode="&#x12C;" horiz-adv-x="648" d=" M446,0 L154,0 L154,1456 L446,1456 M66177,1896 L66179,1890 Q66184,1763 66090.5,1682.5 Q65997,1602 65839,1602 Q65680,1602 65586,1682.5 Q65492,1763 65498,1890 L65500,1896 L65713,1896 Q65713,1843 65743.5,1809 Q65774,1775 65839,1775 Q65902,1775 65932.5,1809 Q65963,1843 65963,1896"/> 
            <glyph glyph-name="ĭ" unicode="&#x12D;" horiz-adv-x="628" d=" M425,0 L133,0 L133,1082 L425,1082 M66157,1553 L66159,1547 Q66164,1420 66070.5,1339.5 Q65977,1259 65819,1259 Q65660,1259 65566,1339.5 Q65472,1420 65478,1547 L65480,1553 L65693,1553 Q65693,1500 65723.5,1466 Q65754,1432 65819,1432 Q65882,1432 65912.5,1466 Q65943,1500 65943,1553"/> 
            <glyph glyph-name="Į" unicode="&#x12E;" horiz-adv-x="474" d=" M446,0 L154,0 L154,1456 L446,1456 M619,0 Q565,-53 540,-90 Q515,-127 515,-176 Q515,-203 532,-224.5 Q549,-246 601,-246 Q629,-246 650.5,-240 Q672,-234 695,-226 L730,-380 Q694,-399 649.5,-411.5 Q605,-424 544,-424 Q436,-424 366.5,-367.5 Q297,-311 297,-210 Q297,-133 343,-63.5 Q389,6 487,60"/> 
            <glyph glyph-name="į" unicode="&#x12F;" horiz-adv-x="447" d=" M419,0 L127,0 L127,1082 L419,1082 M419,1341 L127,1341 L127,1560 L419,1560 M592,0 Q538,-53 513,-90 Q488,-127 488,-176 Q488,-203 505,-224.5 Q522,-246 574,-246 Q602,-246 623.5,-240 Q645,-234 668,-226 L703,-380 Q667,-399 622.5,-411.5 Q578,-424 517,-424 Q409,-424 339.5,-367.5 Q270,-311 270,-210 Q270,-133 316,-63.5 Q362,6 460,60"/> 
            <glyph glyph-name="İ" unicode="&#x130;" horiz-adv-x="450" d=" M446,0 L154,0 L154,1456 L446,1456 M450,1601 L146,1601 L146,1842 L450,1842"/> 
            <glyph glyph-name="ı" unicode="&#x131;" horiz-adv-x="425" d=" M425,0 L133,0 L133,1082 L425,1082"/> 
            <glyph glyph-name="Ĳ" unicode="&#x132;" horiz-adv-x="1638" d=" M446,0 L154,0 L154,1456 L446,1456 M1347,1456 L1638,1456 L1638,437 Q1638,226 1500.5,102.5 Q1363,-21 1153,-21 Q925,-21 792,90 Q659,201 664,417 L666,423 L950,423 Q950,308 1005,255.5 Q1060,203 1153,203 Q1234,203 1290.5,265.5 Q1347,328 1347,437"/> 
            <glyph glyph-name="ĳ" unicode="&#x133;" horiz-adv-x="974" d=" M419,0 L127,0 L127,1082 L419,1082 M419,1341 L127,1341 L127,1560 L419,1560 M974,1082 L974,-40 Q974,-230 873,-333.5 Q772,-437 592,-437 Q552,-437 519,-433 Q486,-429 449,-420 L463,-197 Q486,-203 509,-206 Q532,-209 558,-209 Q617,-209 649,-167.5 Q681,-126 681,-40 L681,1082 M968,1343 L675,1343 L675,1560 L968,1560"/> 
            <glyph glyph-name="Ĵ" unicode="&#x134;" horiz-adv-x="1246" d=" M746,1456 L1037,1456 L1037,437 Q1037,226 899.5,102.5 Q762,-21 552,-21 Q324,-21 191,90 Q58,201 63,417 L65,423 L349,423 Q349,308 404,255.5 Q459,203 552,203 Q633,203 689.5,265.5 Q746,328 746,437 M1246,1611 L1246,1588 L1014,1588 L874,1721 L735,1588 L508,1588 L508,1614 L790,1854 L959,1854"/> 
            <glyph glyph-name="ĵ" unicode="&#x135;" horiz-adv-x="648" d=" M441,1082 L441,-40 Q441,-230 340,-333.5 Q239,-437 60,-437 Q19,-437 -13.5,-433 Q-46,-429 -84,-420 L-69,-199 Q-46,-205 -21.5,-208.5 Q3,-212 29,-212 Q86,-212 118,-167 Q150,-122 150,-40 L150,1082 M66184,66802 L66184,66779 L65952,66779 L65812,66912 L65673,66779 L65446,66779 L65446,66805 L65728,67045 L65897,67045"/> 
            <glyph glyph-name="Ķ" unicode="&#x136;" horiz-adv-x="1337" d=" M590,608 L428,608 L428,0 L136,0 L136,1456 L428,1456 L428,861 L555,861 L941,1456 L1298,1456 L808,778 L1337,0 L981,0 M734,65282 L605,65047 L483,65047 L544,65292 L544,65443 L734,65443"/> 
            <glyph glyph-name="ķ" unicode="&#x137;" horiz-adv-x="1118" d=" M484,453 L404,453 L404,0 L112,0 L112,1560 L404,1560 L404,675 L476,675 L727,1082 L1065,1082 L719,592 L1118,0 L783,0 M654,65283 L525,65048 L403,65048 L464,65293 L464,65444 L654,65444"/> 
            <glyph glyph-name="ĸ" unicode="&#x138;" horiz-adv-x="1172" d=" M537,405 L421,405 L421,0 L129,0 L129,1082 L421,1082 L421,670 L508,670 L787,1082 L1155,1082 L771,575 L1172,0 L798,0"/> 
            <glyph glyph-name="Ĺ" unicode="&#x139;" horiz-adv-x="1076" d=" M428,224 L1076,224 L1076,0 L136,0 L136,1456 L428,1456 M335,1803 L644,1803 L646,1797 L369,1537 L136,1537"/> 
            <glyph glyph-name="ĺ" unicode="&#x13A;" horiz-adv-x="635" d=" M419,0 L127,0 L127,1560 L419,1560 M324,1867 L633,1867 L635,1861 L358,1601 L125,1601"/> 
            <glyph glyph-name="Ļ" unicode="&#x13B;" horiz-adv-x="1076" d=" M428,224 L1076,224 L1076,0 L136,0 L136,1456 L428,1456 M696,65283 L567,65048 L445,65048 L506,65293 L506,65444 L696,65444"/> 
            <glyph glyph-name="ļ" unicode="&#x13C;" horiz-adv-x="419" d=" M419,0 L127,0 L127,1560 L419,1560 M361,65283 L232,65048 L110,65048 L171,65293 L171,65444 L361,65444"/> 
            <glyph glyph-name="Ľ" unicode="&#x13D;" horiz-adv-x="1076" d=" M428,224 L1076,224 L1076,0 L136,0 L136,1456 L428,1456 M866,1297 L737,1062 L615,1062 L676,1307 L676,1458 L866,1458"/> 
            <glyph glyph-name="ľ" unicode="&#x13E;" horiz-adv-x="759" d=" M419,0 L127,0 L127,1560 L419,1560 M759,1398 L630,1163 L508,1163 L569,1408 L569,1559 L759,1559"/> 
            <glyph glyph-name="Ŀ" unicode="&#x13F;" horiz-adv-x="1076" d=" M428,224 L1076,224 L1076,0 L136,0 L136,1456 L428,1456 M882,66217 L578,66217 L578,66458 L882,66458"/> 
            <glyph glyph-name="ŀ" unicode="&#x140;" horiz-adv-x="819" d=" M419,0 L127,0 L127,1560 L419,1560 M819,66165 L515,66165 L515,66406 L819,66406"/> 
            <glyph glyph-name="Ł" unicode="&#x141;" horiz-adv-x="1059" d=" M411,882 L662,954 L662,759 L411,687 L411,224 L1059,224 L1059,0 L119,0 L119,603 L12,572 L12,767 L119,798 L119,1456 L411,1456"/> 
            <glyph glyph-name="ł" unicode="&#x142;" horiz-adv-x="580" d=" M439,907 L580,954 L580,759 L439,712 L439,0 L147,0 L147,615 L15,572 L15,767 L147,810 L147,1560 L439,1560"/> 
            <glyph glyph-name="Ń" unicode="&#x143;" horiz-adv-x="1313" d=" M1313,0 L1022,0 L434,995 L428,994 L428,0 L136,0 L136,1456 L428,1456 L1016,462 L1022,463 L1022,1456 L1313,1456 M775,1826 L1084,1826 L1086,1820 L809,1560 L576,1560"/> 
            <glyph glyph-name="ń" unicode="&#x144;" horiz-adv-x="1050" d=" M379,1082 L392,927 Q446,1010 525,1056 Q604,1102 702,1102 Q866,1102 958,999 Q1050,896 1050,676 L1050,0 L757,0 L757,675 Q757,784 713,829.5 Q669,875 580,875 Q522,875 476,851.5 Q430,828 399,785 L399,0 L107,0 L107,1082 M628,1504 L937,1504 L939,1498 L662,1238 L429,1238"/> 
            <glyph glyph-name="Ņ" unicode="&#x145;" horiz-adv-x="1313" d=" M1313,0 L1022,0 L434,995 L428,994 L428,0 L136,0 L136,1456 L428,1456 L1016,462 L1022,463 L1022,1456 L1313,1456 M812,65283 L683,65048 L561,65048 L622,65293 L622,65444 L812,65444"/> 
            <glyph glyph-name="ņ" unicode="&#x146;" horiz-adv-x="1050" d=" M379,1082 L392,927 Q446,1010 525,1056 Q604,1102 702,1102 Q866,1102 958,999 Q1050,896 1050,676 L1050,0 L757,0 L757,675 Q757,784 713,829.5 Q669,875 580,875 Q522,875 476,851.5 Q430,828 399,785 L399,0 L107,0 L107,1082 M665,65283 L536,65048 L414,65048 L475,65293 L475,65444 L665,65444"/> 
            <glyph glyph-name="Ň" unicode="&#x147;" horiz-adv-x="1313" d=" M1313,0 L1022,0 L434,995 L428,994 L428,0 L136,0 L136,1456 L428,1456 L1016,462 L1022,463 L1022,1456 L1313,1456 M723,1746 L840,1873 L1104,1873 L1104,1856 L823,1601 L624,1601 L343,1857 L343,1873 L607,1873"/> 
            <glyph glyph-name="ň" unicode="&#x148;" horiz-adv-x="1050" d=" M379,1082 L392,927 Q446,1010 525,1056 Q604,1102 702,1102 Q866,1102 958,999 Q1050,896 1050,676 L1050,0 L757,0 L757,675 Q757,784 713,829.5 Q669,875 580,875 Q522,875 476,851.5 Q430,828 399,785 L399,0 L107,0 L107,1082 M576,1424 L693,1551 L957,1551 L957,1534 L676,1279 L477,1279 L196,1535 L196,1551 L460,1551"/> 
            <glyph glyph-name="ŉ" unicode="&#x149;" horiz-adv-x="1050" d=" M379,1082 L392,927 Q446,1010 525,1056 Q604,1102 702,1102 Q866,1102 958,999 Q1050,896 1050,676 L1050,0 L757,0 L757,675 Q757,784 713,829.5 Q669,875 580,875 Q522,875 476,851.5 Q430,828 399,785 L399,0 L107,0 L107,1082 M65761,1398 L65632,1163 L65510,1163 L65571,1408 L65571,1559 L65761,1559"/> 
            <glyph glyph-name="Ŋ" unicode="&#x14A;" horiz-adv-x="1308" d=" M1308,1456 L1308,-40 Q1308,-230 1207,-333.5 Q1106,-437 927,-437 Q886,-437 852,-433 Q818,-429 782,-420 L796,-199 Q819,-205 844,-208.5 Q869,-212 896,-212 Q953,-212 985,-167 Q1017,-122 1017,-40 L1017,0 L430,982 L424,981 L424,0 L131,0 L131,1456 L424,1456 L1011,475 L1017,476 L1017,1456"/> 
            <glyph glyph-name="ŋ" unicode="&#x14B;" horiz-adv-x="1048" d=" M379,1082 L392,930 Q445,1011 524,1056.5 Q603,1102 700,1102 Q864,1102 956,996.5 Q1048,891 1048,663 L1048,-40 Q1048,-230 947,-333.5 Q846,-437 666,-437 Q626,-437 592,-433 Q558,-429 522,-420 L536,-196 Q558,-202 583,-205 Q608,-208 635,-208 Q693,-208 724,-165 Q755,-122 755,-40 L755,662 Q755,778 714.5,826.5 Q674,875 593,875 Q529,875 480,851.5 Q431,828 399,786 L399,0 L107,0 L107,1082"/> 
            <glyph glyph-name="Ō" unicode="&#x14C;" horiz-adv-x="1307" d=" M1307,597 Q1307,329 1137.5,154 Q968,-21 697,-21 Q428,-21 260,154 Q92,329 92,597 L92,859 Q92,1126 259.5,1301.5 Q427,1477 696,1477 Q967,1477 1137,1301.5 Q1307,1126 1307,859 M1015,861 Q1015,1031 930,1140 Q845,1249 696,1249 Q547,1249 465,1140.5 Q383,1032 383,861 L383,597 Q383,424 466,315 Q549,206 697,206 Q847,206 931,315 Q1015,424 1015,597 M1066,1634 L335,1634 L335,1799 L1066,1799"/> 
            </font>
</defs>
</svg>
