<?xml version="1.0" standalone="no"?>
<!DOCTYPE svg PUBLIC "-//W3C//DTD SVG 1.1//EN" "http://www.w3.org/Graphics/SVG/1.1/DTD/svg11.dtd" >
<svg xmlns="http://www.w3.org/2000/svg">
<metadata>
Created by FontPrep 20130207 at Fri Nov  3 10:39:23 2017
 By Sil van Diepen
Copyright 2015 Google Inc. All Rights Reserved.
</metadata>
<defs>
<font id="28b90a31d30f36c01a4b4d6ff9cac6db" horiz-adv-x='1024' >
  <font-face 
    font-family="RobotoMono-Regular"
    font-weight="400"
    font-stretch="normal"
    units-per-em="2048"
    panose-1="0 0 0 0 0 0 0 0 0 0"
    ascent="1638"
    descent="-410"
    x-height="1082"
    cap-height="1456"
    bbox="-1019 -555 1945.03 2163"
    underline-thickness="100"
    underline-position="-100"
    unicode-range="U+0002-FFFD"
  />
<missing-glyph 
 />
    <glyph glyph-name=".notdef" 
 />
    <glyph glyph-name=".null" horiz-adv-x="0" 
 />
    <glyph glyph-name="nonmarkingreturn" unicode="&#xd;" 
 />
    <glyph glyph-name="NULL" horiz-adv-x="0" 
 />
    <glyph glyph-name="NULL" horiz-adv-x="0" 
 />
    <glyph glyph-name="uni0002" 
 />
    <glyph glyph-name="uni0009" unicode="&#x9;" 
 />
    <glyph glyph-name="space" unicode=" " 
 />
    <glyph glyph-name="exclam" unicode="!" 
d="M486 98q0 47 28.5 79t85.5 32t86.5 -32t29.5 -79t-29.5 -78t-86.5 -31t-85.5 31t-28.5 78zM690 471h-186v985h186v-985z" />
    <glyph glyph-name="quotedbl" unicode="&#x22;" 
d="M713 1536h150l-1 -109l-21 -370h-129l1 354v125zM355 1536h150v-109l-21 -370h-130l1 354v125z" />
    <glyph glyph-name="numbersign" unicode="#" 
d="M469 547h264l69 354h-264zM61 410v137h265l69 354h-258v139h285l82 416h143l-82 -416h264l82 416h143l-82 -416h205v-139h-232l-69 -354h226v-137h-252l-80 -410h-143l80 410h-264l-80 -410h-143l80 410h-239z" />
    <glyph glyph-name="dollar" unicode="$" 
d="M313.5 1347.5q95.5 103.5 262.5 124.5v220h149v-220q168 -23 261 -141.5t94 -322.5h-184q0 213 -94 260t-153 47q-121 0 -183 -63t-62 -166t65.5 -164t189.5 -102q125 -42 279.5 -120.5t154.5 -322.5q0 -171 -103 -272.5t-282 -120.5v-192h-149v191q-273 28 -335 180.5
t-62 265.5h185q0 -153 81.5 -221t198.5 -68q199 0 239.5 90t40.5 145q2 177 -254 259q-228 73 -331.5 175t-103.5 268q0 167 95.5 270.5z" />
    <glyph glyph-name="percent" unicode="%" 
d="M398 188l-111 62l567 1037l111 -62zM783 260q0 -109 47.5 -135t83.5 -26q66 0 97.5 46.5t31.5 114.5v78q0 110 -47.5 135.5t-83.5 25.5q-66 0 -97.5 -46t-31.5 -115v-78zM645 338q0 119 71.5 200.5t197.5 81.5t197 -81.5t71 -200.5v-78q0 -119 -71 -200t-197 -81
t-197.5 81t-71.5 200v78zM182 1117q0 -108 47 -134t83 -26q66 0 98 47.5t32 112.5v77q0 110 -47 136t-83 26q-66 0 -98 -46t-32 -116v-77zM44 1194q0 119 70.5 201t197.5 82t197.5 -82t70.5 -201v-77q0 -119 -70.5 -200t-196.5 -81t-197.5 81t-71.5 200v77z" />
    <glyph glyph-name="ampersand" unicode="&#x26;" 
d="M734 1157q0 76 -39.5 122t-92.5 46q-92 0 -137 -57t-45 -149t95 -229l117 93q102 69 102 174zM292 373q0 -105 65 -174t194 -69t248 100l-323 431l-28 -24q-156 -128 -156 -264zM889 110q-153 -130 -350 -130t-314.5 109.5t-117.5 286.5t106 271.5t167 137.5
q-67 91 -106.5 172t-39.5 167q0 169 97 261t249 92t238.5 -90.5t86.5 -224.5q0 -133 -81 -205.5t-125 -105.5l-94 -80l307 -403q74 135 76 304h167q0 -255 -143 -435l181 -237h-221z" />
    <glyph glyph-name="quotesingle" unicode="'" 
d="M495 1536h158v-111l-21 -368h-138l1 352v127z" />
    <glyph glyph-name="parenleft" unicode="(" 
d="M357 591q0 392 132.5 630.5t219.5 316t137 105.5l39 -122q-228 -173 -285.5 -457t-57.5 -471v-14q0 -343 100 -581.5t243 -354.5l-39 -113q-178 100 -333.5 378t-155.5 673v10z" />
    <glyph glyph-name="parenright" unicode=")" 
d="M849 581q0 -506 -189 -747t-301 -304l-39 113q141 105 242 348.5t101 587.5v14q0 343 -104.5 586t-238.5 351l39 113q179 -100 334.5 -380t155.5 -672v-10z" />
    <glyph glyph-name="asterisk" unicode="*" 
d="M537 683l-377 96l54 175l365 -151l-25 421h178l-29 -427l363 150l54 -178l-382 -94l256 -324l-146 -110l-214 363l-212 -354l-146 106z" />
    <glyph glyph-name="plus" unicode="+" 
d="M710 781h407v-184h-407v-451h-185v451h-406v184h406v425h185v-425z" />
    <glyph glyph-name="comma" unicode="," 
d="M442 40v179h201v-176q0 -153 -66 -248t-108 -131l-115 63q88 128 88 313z" />
    <glyph glyph-name="hyphen" unicode="-" horiz-adv-x="1230" 
d="M983 561h-765v152h765v-152z" />
    <glyph glyph-name="period" unicode="." 
d="M496 120q0 30 9.5 56t27.5 45.5t45 30.5t80 11t91.5 -40.5t38.5 -86.5q0 -45 -9.5 -70.5t-28 -44.5t-46 -29.5t-63.5 -10.5t-63 10.5t-45 29.5t-27.5 44t-9.5 55z" />
    <glyph glyph-name="slash" unicode="/" 
d="M418 -125h-166l608 1581h165z" />
    <glyph glyph-name="zero" unicode="0" 
d="M902 518v334l-566 -433q35 -289 282 -289q284 0 284 388zM331 939v-345l567 435q-33 296 -282 296q-285 0 -285 -386zM1088 557q0 -276 -123 -426.5t-346 -150.5t-348.5 150.5t-125.5 426.5v341q0 276 123.5 427.5t347.5 151.5t348 -151.5t124 -427.5v-341z" />
    <glyph glyph-name="one" unicode="1" 
d="M774 0h-185v1220l-381 -145v169l551 212h15v-1456z" />
    <glyph glyph-name="two" unicode="2" 
d="M1067 0h-954v133l477 530q129 143 176.5 228t47.5 156q0 129 -70.5 203t-186.5 74q-213 0 -249.5 -114.5t-36.5 -182.5h-186q0 190 128 319.5t338 129.5t329.5 -113.5t119.5 -287.5t-109 -307t-164 -193l-391 -424h731v-151z" />
    <glyph glyph-name="three" unicode="3" 
d="M390 817h132q135 0 211.5 69t76.5 189t-65 184.5t-187 64.5t-194 -68.5t-72 -181.5h-186q0 170 125.5 286t325.5 116q199 0 318.5 -107t119.5 -305q0 -146 -82.5 -219t-141.5 -98q246 -80 246 -341q0 -198 -129.5 -312t-330.5 -114t-332 109.5t-131 294.5h185
q0 -115 75 -184t237.5 -69t201.5 101.5t39 169.5q0 131 -82.5 198t-227.5 67h-132v150z" />
    <glyph glyph-name="four" unicode="4" 
d="M739 489v721l-30 -56l-429 -665h459zM924 489h203v-151h-203v-338h-185v338h-664v109l652 1009h197v-967z" />
    <glyph glyph-name="five" unicode="5" 
d="M654 951q216 0 332.5 -132.5t116.5 -352.5t-116.5 -353t-340.5 -133q-186 0 -313 103.5t-146 299.5h176q17 -124 91.5 -188t198.5 -64t194.5 89t70.5 236t-78 238t-213 91q-84 0 -134 -22.5t-105 -70.5l-148 38l73 726h747v-180h-591l-41 -388q109 63 226 63z" />
    <glyph glyph-name="six" unicode="6" 
d="M328 533q0 -185 82.5 -292.5t203.5 -107.5q122 0 193.5 91.5t71.5 236.5t-68.5 242.5t-186.5 97.5q-103 0 -182.5 -56.5t-113.5 -149.5v-62zM330 809q122 146 344 146q80 0 158.5 -41.5t153.5 -141.5t75 -306t-118.5 -346t-337.5 -140t-341.5 170t-122.5 388v87
q0 655 278 743.5t421 88.5h16v-166h-16q-332 0 -416.5 -176t-93.5 -306z" />
    <glyph glyph-name="seven" unicode="7" 
d="M112 1294v162h984v-104l-603 -1352h-194l601 1294h-788z" />
    <glyph glyph-name="eight" unicode="8" 
d="M638 1324q-108 0 -174.5 -68.5t-66.5 -182t67.5 -181t175.5 -67.5t176 68t68 178t-69 181.5t-177 71.5zM840 596.5q-78 76.5 -202 76.5q-125 0 -200 -76.5t-75 -199.5q0 -191 107.5 -228.5t169.5 -37.5t113 18t108 71t57 176q0 124 -78 200.5zM421 750q-210 104 -210 346
q0 74 32 149t118.5 153t275.5 78t311 -107t122 -293q-1 -109 -59 -194t-155 -133q247 -106 247 -375q0 -80 -36.5 -157t-131.5 -157t-296 -80t-331.5 109.5t-130.5 298.5q0 188 94 263t150 99z" />
    <glyph glyph-name="nine" unicode="9" 
d="M584 640q105 0 184.5 60.5t112.5 151.5v60q0 188 -81.5 299t-202.5 111t-193.5 -95t-72.5 -240t48.5 -216.5t98 -101t106.5 -29.5zM255.5 631q-106.5 144 -106.5 351t118.5 350.5t343.5 143.5q226 0 340 -174t114 -415v-67q0 -226 -35.5 -348t-140 -297.5t-516.5 -175.5
h-19v165h19q426 0 464.5 204t41.5 265q-117 -146 -317 -146t-306.5 144z" />
    <glyph glyph-name="colon" unicode=":" 
d="M546 120q0 30 10 56t27 46q18 20 45 30q27 11 63 11q70 0 109 -41q38 -41 38 -86q0 -44 -10 -70t-28 -45t-46 -29t-63 -11q-36 1 -63 11t-45 29q-17 19 -27 45q-10 24 -10 54zM546 996q0 30 10 56t27 46q18 20 45 30q27 11 63 11q70 0 109 -41q38 -41 38 -86
q0 -44 -10 -70t-28 -45t-46 -29t-63 -11q-36 1 -63 11t-45 29q-17 19 -27 45q-10 24 -10 54z" />
    <glyph glyph-name="semicolon" unicode=";" 
d="M537 996q-1 30 9 56t28 46t45 30q27 11 63 11q70 0 109 -41q38 -41 38 -86q1 -44 -9 -70t-28 -45t-46 -29t-64 -11q-36 1 -63 11t-45 29t-28 45q-10 24 -9 54zM574 40v179h201v-176q0 -153 -100 -297q-32 -46 -74 -82l-115 63q88 128 88 313z" />
    <glyph glyph-name="less" unicode="&#x3c;" 
d="M406 663l-53 -17l53 -18l612 -236v-196l-848 379v146l848 378v-196z" />
    <glyph glyph-name="equal" unicode="=" 
d="M1066 365h-893v160h893v-160zM1066 780h-893v161h893v-161z" />
    <glyph glyph-name="greater" unicode="&#x3e;" 
d="M178 909v191l883 -378v-146l-883 -379v192l647 244l60 17l-60 19z" />
    <glyph glyph-name="question" unicode="?" 
d="M490 98q0 47 28.5 79t85.5 32t86.5 -32t29.5 -79t-29.5 -78t-86.5 -31t-85.5 31t-28.5 78zM623 1315q-165 0 -206 -73.5t-41 -125.5h-185q2 164 123.5 262t316.5 98t307.5 -100.5t112.5 -280.5q0 -181 -112.5 -294.5t-163.5 -160.5t-65 -95.5t-14 -134.5h-185
q2 144 22.5 191t50.5 80.5t80 79.5q102 105 152 173.5t50 167.5q0 98 -63 155.5t-180 57.5z" />
    <glyph glyph-name="at" unicode="@" 
d="M686 1033q-180 0 -216 -359q-10 -216 88 -216q103 0 158 117l39 445q-27 13 -69 13zM627 119q122 0 218 65l32 -117q-99 -75 -254 -75q-293 0 -428.5 189.5t-124.5 510.5t173.5 543.5t409.5 222.5t380.5 -182t123.5 -489t-105 -387t-169 -80q-123 0 -159 121
q-76 -121 -200 -121q-96 0 -142.5 97.5t-36.5 232.5q20 248 112 377t221 129t193 -89l-44 -504q-8 -109 23.5 -120t57.5 -11t54.5 28.5t57 101t31.5 213.5q6 271 -99 414t-301 143t-324 -178.5t-136 -462.5q-15 -418 149.5 -495t286.5 -77z" />
    <glyph glyph-name="A" unicode="A" 
d="M433 538h387l-192 632zM869 377h-486l-117 -377h-185l470 1456h155l462 -1456h-184z" />
    <glyph glyph-name="B" unicode="B" 
d="M358 835h258q113 2 195.5 64.5t82.5 173.5q0 110 -81 166.5t-202 58.5h-253v-463zM358 681v-524h285q118 2 203.5 72.5t86.5 189.5t-78 188.5t-202 73.5h-295zM172 0v1456h433q200 -2 338.5 -99.5t135.5 -295.5q-3 -199 -224 -295q185 -54 225 -167t40 -197t-40 -162
t-142 -158t-300 -82h-466z" />
    <glyph glyph-name="C" unicode="C" 
d="M625 1476q213 0 340 -126t152 -340h-185q-30 222 -132 268.5t-172 46.5t-120 -21.5t-102 -74t-82.5 -165t-30.5 -233.5v-205q0 -192 74.5 -344t257.5 -152q265 0 307 308h185q-27 -208 -156 -333t-329 -125q-342 0 -432.5 237.5t-92.5 408.5v203q3 265 132 456t386 191z
" />
    <glyph glyph-name="D" unicode="D" 
d="M343 1304v-1153h149q225 2 341 145.5t118 377.5v109q-2 232 -117 374.5t-342 146.5h-149zM155 0v1456h337q301 -4 471.5 -187t172.5 -488v-107q-2 -305 -173 -488.5t-471 -185.5h-337z" />
    <glyph glyph-name="E" unicode="E" 
d="M975 673h-608v-516h709v-157h-894v1456h885v-158h-700v-468h608v-157z" />
    <glyph glyph-name="F" unicode="F" 
d="M984 643h-606v-643h-187v1456h894v-158h-707v-498h606v-157z" />
    <glyph glyph-name="G" unicode="G" 
d="M626 1318q-123 0 -231.5 -108.5t-108.5 -395.5v-171q4 -194 90.5 -348.5t268.5 -157.5q141 -4 204 34t86 71l2 327h-296v156h472l3 -534q-181 -213 -472 -211q-258 3 -399.5 201t-144.5 462v169q3 268 107.5 425.5t215 198t207.5 40.5q200 0 333 -121.5t151 -325.5h-183
q-50 289 -305 289z" />
    <glyph glyph-name="H" unicode="H" 
d="M1087 0h-175v673h-597v-673h-174v1456h174v-626h597v626h175v-1456z" />
    <glyph glyph-name="I" unicode="I" 
d="M174 1456h880v-161h-349v-1135h349v-160h-880v160h341v1135h-341v161z" />
    <glyph glyph-name="J" unicode="J" 
d="M857 1456h189v-1013q-4 -202 -138 -332.5t-336 -130.5t-329 119t-145 322h188q6 -123 83 -203.5t204 -80.5t203.5 87.5t80.5 218.5v1013z" />
    <glyph glyph-name="K" unicode="K" 
d="M361 0h-189v1456h189v-711l568 711h225l-509 -637l543 -819h-225l-440 676l-162 -184v-492z" />
    <glyph glyph-name="L" unicode="L" 
d="M383 157h712v-157h-897v1456h185v-1299z" />
    <glyph glyph-name="M" unicode="M" 
d="M1100 1456v-1456h-180v581l15 608l-269 -784h-106l-247 763l15 -587v-581h-180v1456h229l237 -728l256 728h230z" />
    <glyph glyph-name="N" unicode="N" 
d="M1086 0h-188l-565 1088l-3 -1088h-187v1456h188l565 -1086l3 1086h187v-1456z" />
    <glyph glyph-name="O" unicode="O" 
d="M614 1311q-64 0 -113.5 -23t-128 -107t-84.5 -369v-168q4 -190 77 -345.5t273 -155.5t249 185.5t51 315.5v168q-7 383 -133.5 441t-190.5 58zM236.5 180.5q-127.5 200.5 -130.5 463.5v166q3 265 129 465.5t378.5 200.5t378.5 -200t129 -466v-166q-3 -267 -129 -465.5
t-377 -198.5t-378.5 200.5z" />
    <glyph glyph-name="P" unicode="P" 
d="M376 736h287q130 2 213.5 77t83.5 204.5t-83 207t-214 79.5h-287v-568zM376 584v-584h-185v1456h472q206 -4 344 -119t138 -317.5t-138.5 -318t-343.5 -117.5h-287z" />
    <glyph glyph-name="Q" unicode="Q" 
d="M614 1311q-68 0 -119 -23.5t-103 -79t-83 -174t-31 -241.5v-130q0 -198 76 -359t261 -161q236 0 284.5 192t50.5 328v130q-7 402 -137.5 460t-198.5 58zM604 -20q-82 0 -156 28.5t-158 100t-139 226.5t-57 328v128q3 270 105 435.5t212 207.5t203 42t167.5 -28.5
t158 -99.5t138 -227t56.5 -330v-128q-3 -274 -83 -402t-138 -177l251 -209l-127 -121l-288 244q-63 -18 -145 -18z" />
    <glyph glyph-name="R" unicode="R" 
d="M365 746h248q129 2 216 75t87 204t-84 204t-224 75h-243v-558zM365 594v-594h-184v1456h427q217 -4 355.5 -115t138.5 -317q0 -272 -273 -390l309 -622l-1 -12h-195l-286 594h-291z" />
    <glyph glyph-name="S" unicode="S" 
d="M936 372q0 115 -86 171.5t-201 93.5t-194.5 72t-145 86t-107 120.5t-41.5 206t143.5 245.5t334.5 109t336.5 -122t149.5 -317h-190q-25 199 -130 240t-165 41q-121 0 -203.5 -63t-82.5 -173q2 -154 135 -202t185 -64t107 -37.5t136.5 -66t146.5 -132.5t65 -198
q0 -195 -147.5 -298.5t-345.5 -103.5t-355 121t-163 319h189q18 -134 108 -208.5t228 -74.5q191 0 242 85.5t51 149.5z" />
    <glyph glyph-name="T" unicode="T" 
d="M1156 1298h-450v-1298h-180v1298h-450v158h1080v-158z" />
    <glyph glyph-name="U" unicode="U" 
d="M273 121.5q-132 141.5 -134 348.5l2 986h176l4 -986q2 -137 79.5 -235t213.5 -98t212 96.5t80 236.5l3 986h179l2 -986q-4 -208 -137.5 -349t-340.5 -141t-339 141.5z" />
    <glyph glyph-name="V" unicode="V" 
d="M610 298l344 1158h197l-459 -1456h-161l-460 1456h198z" />
    <glyph glyph-name="W" unicode="W" 
d="M896 394l111 1062h175l-177 -1456h-189l-187 1097l-189 -1097h-190l-177 1456h176l111 -1062l187 1062h161z" />
    <glyph glyph-name="X" unicode="X" 
d="M625 885l314 571h218l-423 -722l433 -734h-216l-322 582l-323 -582h-219l434 734l-423 722h217z" />
    <glyph glyph-name="Y" unicode="Y" 
d="M603 725l332 731h210l-453 -913l-3 -543h-172l-3 543l-453 913h211z" />
    <glyph glyph-name="Z" unicode="Z" 
d="M1079 157v-157h-963l-2 144l725 1154h-712v158h923l2 -141l-727 -1158h754z" />
    <glyph glyph-name="bracketleft" unicode="[" 
d="M822 1512h-221v-1672h221v-152h-396v1976h396v-152z" />
    <glyph glyph-name="backslash" unicode="\" 
d="M231 1456h167l608 -1581h-167z" />
    <glyph glyph-name="bracketright" unicode="]" 
d="M405 1664h397v-1976h-397v152h222v1672h-222v152z" />
    <glyph glyph-name="asciicircum" unicode="^" 
d="M403 677h-172l320 779h127l319 -779h-171l-198 486l-15 68l-15 -68z" />
    <glyph glyph-name="underscore" unicode="_" 
d="M1072 -151h-917v151h917v-151z" />
    <glyph glyph-name="grave" unicode="`" 
d="M813 1215h-150l-248 266h223z" />
    <glyph glyph-name="a" unicode="a" 
d="M683 525q-342 0 -342 -199q0 -129 81.5 -157t159 -28t158.5 48.5t115 116.5v219h-172zM858 118q-138 -138 -316 -138t-282 90.5t-104 229.5q0 174 132.5 265t364.5 91h202v85q0 97 -69 154.5t-181 57.5t-176.5 -49.5t-64.5 -121.5h-186q2 126 120.5 223t310.5 97
q299 0 365 -136t66 -227v-503q0 -125 38 -220v-16h-193q-20 38 -27 118z" />
    <glyph glyph-name="b" unicode="b" 
d="M619 137q145 0 216 111.5t71 280.5v21q0 273 -104.5 334t-184.5 61q-178 0 -257 -167v-473q84 -168 259 -168zM360 966q109 136 308 136t311 -152t112 -400v-21q0 -240 -112.5 -394.5t-312.5 -154.5t-312 143l-9 -123h-170v1536h185v-570z" />
    <glyph glyph-name="c" unicode="c" 
d="M616 130q122 0 202 61.5t82 149.5h175q-2 -145 -135.5 -253t-304.5 -108q-234 0 -363 156t-129 384v42q0 228 129 384t363 156q189 0 314.5 -112.5t125.5 -279.5h-175q-2 98 -77 169t-175 71q-172 0 -245.5 -114t-73.5 -274v-42q0 -261 109.5 -325.5t177.5 -64.5z" />
    <glyph glyph-name="d" unicode="d" 
d="M867 794q-82 151 -239 151t-230.5 -112.5t-73.5 -282.5v-21q0 -269 107.5 -330.5t184.5 -61.5q171 0 251 155v502zM139 529v21q0 245 118.5 398.5t309.5 153.5t300 -127v561h185v-1536h-170l-8 114q-110 -134 -304 -134t-312.5 157t-118.5 392z" />
    <glyph glyph-name="e" unicode="e" 
d="M636 950q-122 0 -205.5 -82t-104.5 -228h582v14q-11 196 -109.5 246t-162.5 50zM1079 189q-139 -209 -445 -209q-96 0 -191.5 39t-201.5 148t-106 336v42q0 252 148.5 404.5t359.5 152.5t330.5 -147t119.5 -384v-83h-773q6 -152 100 -254.5t242 -102.5q191 0 304 146z
" />
    <glyph glyph-name="f" unicode="f" horiz-adv-x="1230" 
d="M636 1158v-76h417v-143h-417v-939h-186v939h-298v143h298v76q0 203 114.5 312t309.5 109q106 0 257 -39l-22 -153q-102 35 -212 35q-261 -2 -261 -264z" />
    <glyph glyph-name="g" unicode="g" 
d="M868 791q-82 154 -239 154q-158 0 -231 -112t-73 -283v-21q0 -269 107 -330.5t184 -61.5q171 0 252 158v496zM140 529v21q0 247 117 399.5t313 152.5t306 -138l9 118h168v-1059q0 -209 -125.5 -329t-314.5 -120q-190 0 -286 67t-133 120l96 111q122 -147 291 -147
q206 0 246.5 109.5t40.5 179.5v93q-111 -127 -302 -127q-192 0 -309 156t-117 393z" />
    <glyph glyph-name="h" unicode="h" 
d="M1068 681v-681h-185v683q0 133 -63.5 198t-167.5 65q-194 -1 -293 -160v-786h-185v1536h185v-615q122 179 334 181q271 0 323 -156t52 -265z" />
    <glyph glyph-name="i" unicode="i" 
d="M547 1366q0 46 27.5 77.5t83.5 31.5t83.5 -31.5t27.5 -77.5t-27.5 -75.5t-83.5 -29.5t-83.5 29.5t-27.5 75.5zM203 1082h553v-922h353v-160h-906v160h368v761h-368v161z" />
    <glyph glyph-name="j" unicode="j" 
d="M634 1367q0 45 27 76.5t83 31.5t84 -31.5t28 -76.5t-28 -75.5t-84 -30.5t-83 30.5t-27 75.5zM376 -280q84 0 184 29t100 244v928h-361v161h546v-1089q0 -313 -161.5 -371.5t-270.5 -58.5t-202 17l13 152q68 -12 152 -12z" />
    <glyph glyph-name="k" unicode="k" 
d="M362 0h-186v1536h186v-940l121 130l355 356h225l-438 -451l505 -631h-235l-397 505l-136 -131v-374z" />
    <glyph glyph-name="l" unicode="l" 
d="M203 1536h553v-1376h353v-160h-906v160h368v1215h-368v161z" />
    <glyph glyph-name="m" unicode="m" 
d="M1138 808v-808h-176v810q0 136 -125 135q-119 0 -134 -112v-833h-176v811q0 136 -121 134q-104 0 -137 -84v-861h-176v1082h166l5 -102q70 120 217 121q148 1 198 -115q70 114 201 115q258 2 258 -293z" />
    <glyph glyph-name="n" unicode="n" 
d="M1065 687v-687h-185v683q0 205 -93 233.5t-169 28.5t-146.5 -46.5t-112.5 -122.5v-776h-185v1082h166l13 -160q125 178 337 180q271 0 323 -153.5t52 -261.5z" />
    <glyph glyph-name="o" unicode="o" 
d="M307 529q0 -171 80 -285t227 -114t227 114t80 285v22q0 168 -80.5 283.5t-226.5 115.5t-226.5 -114.5t-80.5 -284.5v-22zM122 551q0 239 134 395t358 156t358 -156t134 -395v-22q0 -238 -133.5 -393.5t-358.5 -155.5t-358.5 155.5t-133.5 393.5v22z" />
    <glyph glyph-name="p" unicode="p" 
d="M902 529v21q0 170 -75.5 282.5t-230.5 112.5q-156 0 -238 -148v-521q82 -145 238 -145t231 114t75 284zM351 964q111 138 311 138t312.5 -152t112.5 -400v-21q0 -240 -112.5 -394.5t-308.5 -154.5t-308 124v-520h-185v1498h169z" />
    <glyph glyph-name="q" unicode="q" 
d="M325 550v-21q0 -170 75 -284t228 -114t239 144v534q-86 141 -239 141q-152 0 -227.5 -115t-75.5 -285zM140 529v21q0 248 116.5 400t311.5 152t306 -127l8 107h170v-1498h-185v514q-112 -118 -302 -118t-307.5 155t-117.5 394z" />
    <glyph glyph-name="r" unicode="r" 
d="M883 1102q129 0 190 -26l-25 -181q-103 23 -204 23q-249 0 -329 -224v-694h-186v1082h176l9 -172q142 192 369 192z" />
    <glyph glyph-name="s" unicode="s" 
d="M331.5 1010q119.5 92 309.5 92t308 -97t118 -241h-185q0 73 -69.5 129.5t-178.5 56.5q-171 0 -204 -64t-33 -96q0 -65 54.5 -102t178.5 -62q237 -48 342.5 -123t105.5 -210q0 -136 -122.5 -224.5t-324.5 -88.5t-329 103.5t-127 249.5h185q7 -105 88 -154t194 -49
q114 0 182 43t68 112t-60 112t-179 67t-195.5 51t-161 85t-84.5 188t119.5 222z" />
    <glyph glyph-name="t" unicode="t" 
d="M814 137q89 0 225 32l26 -131q-95 -58 -297 -58q-240 0 -291 135.5t-51 235.5v588h-284v143h284v262h186v-262h412v-143h-412v-588q0 -214 202 -214z" />
    <glyph glyph-name="u" unicode="u" 
d="M180 439v643h185v-645q0 -244 82.5 -272.5t135.5 -28.5q212 0 286 170v776h186v-1082h-168l-11 149q-114 -169 -322 -169q-270 0 -322 169t-52 290z" />
    <glyph glyph-name="v" unicode="v" 
d="M598 266l17 -67l18 67l303 816h189l-441 -1082h-141l-445 1082h190z" />
    <glyph glyph-name="w" unicode="w" 
d="M338 392l22 -155l27 155l173 690h119l172 -690l29 -170l27 170l120 690h164l-230 -1082h-146l-169 663l-28 168l-27 -168l-167 -663h-146l-230 1082h164z" />
    <glyph glyph-name="x" unicode="x" 
d="M621 681l289 401h217l-403 -535l414 -547h-214l-299 412l-299 -412h-216l414 547l-403 535h214z" />
    <glyph glyph-name="y" unicode="y" 
d="M390 -410q-56 -27 -113 -27t-130 16l30 151l88 -5q94 0 139.5 81t55.5 101l74 144l-466 1031h207l297 -698l48 -131l330 829h207l-549 -1249q-49 -108 -105.5 -162t-112.5 -81z" />
    <glyph glyph-name="z" unicode="z" 
d="M1085 151v-151h-925v136l646 793h-637v153h880v-131l-653 -800h689z" />
    <glyph glyph-name="braceleft" unicode="{" 
d="M787 99q0 -229 75 -288.5t137 -61.5l-21 -115q-239 7 -308 180t-69 285v169q0 144 -68.5 209t-209.5 66v145q141 0 209.5 64.5t68.5 209.5v170q0 180 91.5 319.5t285.5 145.5l21 -115q-185 -5 -198.5 -147t-13.5 -203v-170q-2 -257 -227 -348q225 -89 227 -346v-169z" />
    <glyph glyph-name="bar" unicode="|" 
d="M689 -398h-149v1854h149v-1854z" />
    <glyph glyph-name="braceright" unicode="}" 
d="M536 962v170q0 155 -28 219.5t-70 96.5t-114 34l20 115q250 -7 313.5 -179.5t63.5 -285.5v-170q0 -145 69 -209.5t209 -64.5v-145q-140 -1 -209 -66t-69 -209v-169q0 -180 -98 -320.5t-279 -144.5l-21 115q112 4 162.5 105.5t50.5 244.5v169q0 256 226 346
q-226 92 -226 348z" />
    <glyph glyph-name="asciitilde" unicode="~" 
d="M48 473q0 136 85 232.5t214 96.5t206 -53.5t125 -93.5q110 -92 190 -91t129 59t49 135l134 -18q0 -136 -86 -237t-205 -101q-100 0 -173 34t-142 93q-70 58 -120 84.5t-96 26.5q-81 -1 -128.5 -54.5t-47.5 -129.5z" />
    <glyph glyph-name="nonbreakingspace" unicode="&#xa0;" 
 />
    <glyph glyph-name="exclamdown" unicode="&#xa1;" 
d="M728 991q0 -47 -30 -78.5t-86 -31.5t-85 31.5t-29 78.5t29 79.5t85 32.5t86 -32.5t30 -79.5zM522 611h185v-983h-185v983z" />
    <glyph glyph-name="cent" unicode="&#xa2;" 
d="M620 130q122 0 202 61.5t82 149.5h175q-2 -126 -107 -228t-254 -126v-232h-185v235q-185 35 -285.5 183t-100.5 347v42q0 197 100 346t286 184v226h185v-222q158 -24 259.5 -131.5t101.5 -254.5h-175q-2 98 -77 169t-175 71q-172 0 -245.5 -114t-73.5 -274v-42
q0 -261 109.5 -325.5t177.5 -64.5z" />
    <glyph glyph-name="sterling" unicode="&#xa3;" 
d="M117 0v151h75q49 13 71.5 88t22.5 161l-8 226h-165v152h160l-9 261q0 200 124 318.5t317.5 118.5t303 -106t109.5 -281h-186q0 119 -69 177.5t-173 58.5q-105 0 -172.5 -77t-67.5 -209l8 -261h320v-152h-315l8 -226q0 -158 -61 -249h738l-1 -151h-1030z" />
    <glyph glyph-name="currency" unicode="&#xa4;" 
d="M309 515q0 -74 25 -140t68.5 -115.5t103 -79t128.5 -29.5t128 29.5t102.5 79t68 115.5t24.5 140t-24.5 140t-68 115.5t-102.5 78.5t-128 29t-128.5 -29t-103 -78.5t-68.5 -115.5t-25 -140zM137 520q0 167 86 300l-120 124l131 135l117 -122q125 92 283.5 92t283.5 -94
l120 125l132 -136l-124 -128q84 -134 84 -296q0 -161 -76 -292l116 -119l-132 -136l-107 111q-129 -104 -295 -104t-298 102l-104 -108l-131 135l112 115q-78 129 -78 296z" />
    <glyph glyph-name="yen" unicode="&#xa5;" 
d="M1092 736v-121h-388l-1 -2v-167h389v-120h-389v-326h-185v326h-380v120h380v169h-380v121h316l-421 720h212l369 -677l369 677h212l-421 -720h318z" />
    <glyph glyph-name="brokenbar" unicode="&#xa6;" 
d="M696 698h-185v758h185v-758zM511 -270v791h185v-791h-185z" />
    <glyph glyph-name="section" unicode="&#xa7;" 
d="M278 562q0 -62 18 -99t72.5 -76.5t218.5 -85.5q164 -47 206 -63q76 20 119.5 69t43.5 109t-20 96.5t-78 77t-260 101.5q-96 25 -163 51q-78 -18 -117.5 -68t-39.5 -112zM275 825q-137 102 -137 276q0 175 133.5 275t358.5 100t356.5 -112.5t131.5 -318.5h-185
q0 122 -82.5 201t-225.5 79t-222.5 -59t-79.5 -157q0 -97 71 -147t229 -94q157 -44 243.5 -79t180 -108.5t93.5 -256.5t-186 -268q142 -99 142 -278t-133.5 -276t-354.5 -97q-351 0 -436 155.5t-85 275.5l185 2q0 -143 99 -212t236 -69q138 0 221 59t83 152q0 94 -76.5 146
t-228.5 97q-152 44 -238.5 78.5t-180.5 110t-94 257.5q0 181 182 268z" />
    <glyph glyph-name="dieresis" unicode="&#xa8;" 
d="M717 1370q0 44 27.5 75t81.5 31t82 -31t28 -75t-28 -75t-82 -31t-81.5 31t-27.5 75zM287 1371q0 45 27.5 75.5t81.5 30.5t82 -30.5t28 -75.5t-28 -75t-82 -30t-81.5 30t-27.5 75z" />
    <glyph glyph-name="copyright" unicode="&#xa9;" 
d="M90 522q0 98 18.5 169.5t70 166t174.5 169.5t253 75t227 -44t168.5 -119.5t112.5 -177.5t41 -219t-41 -219.5t-112.5 -179t-168.5 -120.5t-210 -44t-210.5 44t-169 120.5t-112.5 178.5t-41 200zM305.5 206q128.5 -138 316.5 -138t317 138.5t129 334.5t-128 333t-318 137
q-189 0 -317 -137t-128 -333q0 -197 128.5 -335zM862 443q0 -116 -65.5 -175.5t-184.5 -59.5t-189 81.5t-70 208.5v87q0 126 69.5 208.5t189.5 82.5q119 0 185 -60t66 -175h-110q-1 71 -34.5 104t-88.5 33q-168 0 -168 -192v-88q0 -134 56.5 -163.5t111.5 -29.5t88 33
t34 105h110z" />
    <glyph glyph-name="ordfeminine" unicode="&#xaa;" 
d="M446 922q0 -94 126 -94q87 0 131.5 41t52.5 59v109h-140q-79 0 -124.5 -33t-45.5 -82zM919 886q0 -97 26 -181h-165q-15 44 -21 97q-77 -110 -243 -110q-101 0 -166.5 61t-65.5 169t86.5 167.5t244.5 59.5h141v52q-2 135 -126 135q-67 0 -107.5 -26.5t-41.5 -78.5
l-161 12q2 103 86.5 168t223.5 65q205 0 247 -104t42 -172v-314z" />
    <glyph glyph-name="guillemotleft" unicode="&#xab;" 
d="M390 515l258 -397h-141l-295 388v19l295 389h141zM725 515l258 -397h-141l-295 388v19l295 389h141z" />
    <glyph glyph-name="logicalnot" unicode="&#xac;" 
d="M1019 375h-185v264h-645v161h830v-425z" />
    <glyph glyph-name="uni00AD" unicode="&#xad;" horiz-adv-x="1230" 
d="M983 561h-765v152h765v-152z" />
    <glyph glyph-name="registered" unicode="&#xae;" 
d="M508 582h119q48 1 83 24.5t35 71.5t-30 70t-103 22h-104v-188zM852 675q0 -111 -136 -156l147 -287h-110l-120 253h-125v-253h-107v635h211q172 0 206 -72t34 -120zM303 206.5q129 -137.5 317 -137.5t316.5 137.5t128.5 334.5t-128.5 333t-316.5 136q-189 0 -317.5 -136
t-128.5 -333t129 -334.5zM87 540q0 117 41 219.5t112.5 178.5t169 119.5t210.5 43.5t210 -43.5t168.5 -119.5t112.5 -178.5t41 -219.5t-41 -219.5t-112.5 -178t-168.5 -119.5t-210 -44t-210.5 44t-169 119.5t-112.5 178t-41 219.5z" />
    <glyph glyph-name="macron" unicode="&#xaf;" 
d="M971 1313h-714v143h714v-143z" />
    <glyph glyph-name="macron" unicode="&#x2c9;" 
d="M971 1313h-714v143h714v-143z" />
    <glyph glyph-name="degree" unicode="&#xb0;" 
d="M485 1216q0 -28 10.5 -51t28 -40.5t41.5 -27t64.5 -9.5t77 36t36.5 78t-9.5 66.5t-27 42.5t-40.5 28t-50 10t-51 -10t-41.5 -28t-28 -42.5t-10.5 -52.5zM436 1399q75 77 179 77t177.5 -77t73.5 -183t-73.5 -181t-177.5 -75t-179 75t-75 181t75 183z" />
    <glyph glyph-name="plusminus" unicode="&#xb1;" 
d="M1030 1h-835v151h835v-151zM709 855h363v-152h-363v-414h-168v414h-385v152h385v412h168v-412z" />
    <glyph glyph-name="twosuperior" unicode="&#xb2;" 
d="M934 667h-599v108l288 271q121 112 121 182q0 49 -33 79.5t-99 30.5t-101.5 -37.5t-36.5 -95.5h-158q0 112 82.5 187t217.5 75q202 0 244 -90.5t42 -138.5q0 -82 -46.5 -145t-145.5 -153l-175 -145h399v-128z" />
    <glyph glyph-name="threesuperior" unicode="&#xb3;" 
d="M610 1009h-84v116h84q70 0 108 29t38 77t-33 77t-95 29t-99 -24t-38 -68h-157q0 100 82 160.5t204 60.5q206 0 249.5 -85t43.5 -141t-35.5 -100.5t-100.5 -69.5q150 -42 150 -184q0 -109 -87 -170t-219 -61q-198 0 -248 86t-50 147h158q1 -46 41 -75.5t106 -29.5t104 30
t37 81q0 115 -159 115z" />
    <glyph glyph-name="acute" unicode="&#xb4;" 
d="M594 1481h224l-268 -266h-140z" />
    <glyph glyph-name="mu" unicode="&#xb5;" 
d="M373 -416h-185v1498h185v-622q0 -271 86 -300.5t134 -29.5q199 0 261 153v799h186v-1082h-167l-9 116q-92 -136 -251 -136q-158 0 -240 73v-469z" />
    <glyph glyph-name="paragraph" unicode="&#xb6;" 
d="M790 0v520h-87q-230 0 -361 129t-131 338t131.5 339t360.5 130h273v-1456h-186z" />
    <glyph glyph-name="periodcentered" unicode="&#xb7;" 
d="M504 730q0 48 29 79.5t85 31.5t86 -31.5t30 -79.5t-30 -79.5t-86 -31.5t-85 31.5t-29 79.5z" />
    <glyph glyph-name="cedilla" unicode="&#xb8;" 
d="M771 -225q0 -97 -79 -153t-224 -57l-7 107q113 0 139.5 36t26.5 62q0 50 -39 70t-122 26l31 134h133l-12 -52q153 -26 153 -173z" />
    <glyph glyph-name="onesuperior" unicode="&#xb9;" 
d="M758 665h-157v601l-215 -57v128l354 117h18v-789z" />
    <glyph glyph-name="ordmasculine" unicode="&#xba;" 
d="M435 1024q0 -135 67.5 -165t112.5 -30q87 0 133 54.5t46 140.5v117q0 135 -67.5 165t-133.5 30t-112 -54.5t-46 -140.5v-117zM272 1141q0 148 93.5 241.5t249 93.5t248.5 -93t93 -242v-117q0 -147 -92 -240.5t-249 -93.5q-156 0 -249.5 93.5t-93.5 240.5v117z" />
    <glyph glyph-name="guillemotright" unicode="&#xbb;" 
d="M383 949l294 -389v-19l-294 -389h-142l258 398l-258 399h142zM728 949l294 -389v-19l-294 -389h-142l258 398l-258 399h142z" />
    <glyph glyph-name="onequarter" unicode="&#xbc;" 
d="M409 676h-141v541l-194 -51v115l319 105h16v-710zM402 221l-113 66l513 954l114 -66zM895 269v260l-15 -25l-186 -235h201zM1036 269h96v-117h-96v-152h-141v152h-338l-5 92l339 466h145v-441z" />
    <glyph glyph-name="onehalf" unicode="&#xbd;" 
d="M342 221l-113 66l513 954l114 -66zM399 672h-141v541l-194 -51v115l319 105h16v-710zM1141 0h-539v97l259 244q109 101 109 164q0 44 -30 71t-89 28q-59 0 -91 -34t-33 -86h-142q0 101 74 168q74 68 196 68q182 0 239 -125q18 -39 18 -82q0 -74 -42 -130
q-42 -57 -131 -137l-157 -131h359v-115z" />
    <glyph glyph-name="threequarters" unicode="&#xbe;" 
d="M469 220l-113 66l513 954l114 -66zM925 269v260l-15 -25l-186 -235h201zM1066 269h96v-117h-96v-152h-141v152h-338l-5 92l339 466h145v-441zM320 979h-75v104h75q63 0 97 26t35 70q0 43 -30 69t-86 26t-89 -22t-34 -61h-141q0 90 73 144q74 55 184 55q185 0 244 -115
q19 -38 20 -88q0 -50 -32 -90q-32 -41 -91 -63q135 -38 135 -166q0 -98 -78 -153t-197 -55q-178 0 -245 115q-23 40 -23 95h142q1 -41 36 -68q36 -27 96 -27t94 27t33 73q0 104 -143 104z" />
    <glyph glyph-name="questiondown" unicode="&#xbf;" 
d="M509 989q0 47 29 79.5t86 32.5t86 -32.5t29 -79.5t-29 -78.5t-86 -31.5t-86 31.5t-29 78.5zM614 -231q151 0 188 73.5t37 125.5h185q-2 -166 -117 -263t-293 -97q-296 0 -353 144.5t-57 225.5q0 136 70 244.5t186 219.5q54 54 66.5 98.5t12.5 132.5h185
q-2 -144 -21 -189.5t-48.5 -79t-78.5 -78.5q-96 -108 -141.5 -176t-45.5 -167t58 -156.5t167 -57.5z" />
    <glyph glyph-name="Agrave" unicode="&#xc0;" 
d="M433 538h387l-192 632zM869 377h-486l-117 -377h-185l470 1456h155l462 -1456h-184zM710 1561h-150l-248 266h223z" />
    <glyph glyph-name="Aacute" unicode="&#xc1;" 
d="M433 538h387l-192 632zM869 377h-486l-117 -377h-185l470 1456h155l462 -1456h-184zM727 1824h224l-268 -266h-140z" />
    <glyph glyph-name="Acircumflex" unicode="&#xc2;" 
d="M433 538h387l-192 632zM869 377h-486l-117 -377h-185l470 1456h155l462 -1456h-184zM933 1599h-154l-150 151l-149 -151h-152v26l245 239h112l248 -240v-25z" />
    <glyph glyph-name="Atilde" unicode="&#xc3;" 
d="M433 538h387l-192 632zM869 377h-486l-117 -377h-185l470 1456h155l462 -1456h-184zM620 1668q-72 48 -123 47t-79 -33t-29 -78l-104 24q0 92 59 160q59 69 147 69q55 -1 114 -33t91 -47t62 -15q52 0 82 33t30 79l103 -30q0 -92 -58 -158t-141 -66q-82 0 -154 48z" />
    <glyph glyph-name="Adieresis" unicode="&#xc4;" 
d="M433 538h387l-192 632zM869 377h-486l-117 -377h-185l470 1456h155l462 -1456h-184zM732 1716q0 44 28 76q28 31 81 31q54 0 82 -31q28 -32 28 -76t-28 -74t-82 -31q-53 1 -81 31t-28 74zM302 1718q0 46 28 76t81 30q54 0 82 -30t28 -76q0 -45 -28 -75t-82 -30
q-53 0 -81 30t-28 75z" />
    <glyph glyph-name="Aring" unicode="&#xc5;" 
d="M433 538h387l-192 632zM869 377h-486l-117 -377h-185l470 1456h155l462 -1456h-184zM523 1745q1 -35 9 -54t22 -33t34 -23q19 -8 41 -8q43 0 73 30q30 31 30 77t-30 76t-73 31q-44 -1 -75 -31t-31 -65zM424 1732q0 44 16 80t44 62t66 42q38 15 79 15q43 0 79 -15
q36 -16 64 -42t43 -62q16 -36 16 -80q0 -43 -16 -79q-15 -35 -43 -61t-64 -40t-79 -14q-41 0 -79 14t-66 40t-44 61q-16 36 -16 79z" />
    <glyph glyph-name="AE" unicode="&#xc6;" 
d="M414 527h249l-2 706zM1195 0h-531l-1 353h-310l-123 -353h-198l560 1456h580v-152h-337l2 -471h302v-151h-302l1 -531h357v-151z" />
    <glyph glyph-name="Ccedilla" unicode="&#xc7;" 
d="M825 -225q0 -97 -79 -153t-224 -57l-7 107q113 0 153 54q14 18 13 44q0 50 -39 70t-122 26l28 119q-274 38 -386 330q-53 140 -55 311v203q3 265 125 445q137 202 393 202q213 0 340 -126t152 -340h-185q-30 222 -180 290q-54 24 -124 25t-120 -21t-86 -59
q-67 -68 -98 -180t-31 -234v-205q0 -192 67 -329q82 -167 265 -167q265 0 307 308h185q-27 -208 -147 -324t-290 -132l-8 -34q153 -26 153 -173z" />
    <glyph glyph-name="Egrave" unicode="&#xc8;" 
d="M975 673h-608v-516h709v-157h-894v1456h885v-158h-700v-468h608v-157zM700 1561h-150l-248 266h223z" />
    <glyph glyph-name="Eacute" unicode="&#xc9;" 
d="M975 673h-608v-516h709v-157h-894v1456h885v-158h-700v-468h608v-157zM717 1824h224l-268 -266h-140z" />
    <glyph glyph-name="Ecircumflex" unicode="&#xca;" 
d="M975 673h-608v-516h709v-157h-894v1456h885v-158h-700v-468h608v-157zM923 1599h-154l-150 151l-149 -151h-152v26l245 239h112l248 -240v-25z" />
    <glyph glyph-name="Edieresis" unicode="&#xcb;" 
d="M975 673h-608v-516h709v-157h-894v1456h885v-158h-700v-468h608v-157zM722 1716q0 44 28 76q28 31 81 31q54 0 82 -31q28 -32 28 -76t-28 -74t-82 -31q-53 1 -81 31t-28 74zM292 1718q0 46 28 76t81 30q54 0 82 -30t28 -76q0 -45 -28 -75t-82 -30q-53 0 -81 30t-28 75z
" />
    <glyph glyph-name="Igrave" unicode="&#xcc;" 
d="M174 1456h880v-161h-349v-1135h349v-160h-880v160h341v1135h-341v161zM648 1561h-150l-248 266h223z" />
    <glyph glyph-name="Iacute" unicode="&#xcd;" 
d="M174 1456h880v-161h-349v-1135h349v-160h-880v160h341v1135h-341v161zM665 1824h224l-268 -266h-140z" />
    <glyph glyph-name="Icircumflex" unicode="&#xce;" 
d="M174 1456h880v-161h-349v-1135h349v-160h-880v160h341v1135h-341v161zM871 1599h-154l-150 151l-149 -151h-152v26l245 239h112l248 -240v-25z" />
    <glyph glyph-name="Idieresis" unicode="&#xcf;" 
d="M174 1456h880v-161h-349v-1135h349v-160h-880v160h341v1135h-341v161zM671 1716q-1 44 27 76q28 31 82 31t82 -31q28 -32 28 -76t-28 -74t-82 -31q-54 1 -82 31t-27 74zM241 1718q-1 46 27 76t82 30t82 -30t28 -76q0 -45 -28 -75t-82 -30t-82 30t-27 75z" />
    <glyph glyph-name="Eth" unicode="&#xd0;" horiz-adv-x="1259" 
d="M593 666h-220v-515h149q225 2 341 145.5t118 377.5v109q-2 232 -117 374.5t-342 146.5h-149v-487h220v-151zM185 0v666h-229v151h229v639h337q301 -4 471.5 -187t172.5 -488v-107q-2 -305 -173 -488.5t-471 -185.5h-337z" />
    <glyph glyph-name="Ntilde" unicode="&#xd1;" 
d="M1086 0h-188l-565 1088l-3 -1088h-187v1456h188l565 -1086l3 1086h187v-1456zM581 1668q-72 47 -123 47q-50 -1 -78 -33t-30 -78l-104 24q0 92 59 160q59 69 147 69q56 -1 114 -33t90 -47t63 -15q52 0 82 33t30 79l103 -30q0 -92 -58 -158t-141 -66q-82 0 -154 48z" />
    <glyph glyph-name="Ograve" unicode="&#xd2;" 
d="M614 1311q-64 0 -114 -23q-49 -24 -85 -62q-121 -130 -127 -414v-168q4 -190 68 -327q82 -174 259 -174q223 -1 297 279q24 92 26 222v168q-7 382 -211 476q-49 22 -113 23zM227 196q-118 185 -121 448v166q4 266 120 450q136 216 388 216t388 -216q116 -185 119 -450
v-166q-3 -267 -119 -449q-136 -215 -387 -215t-388 216zM714 1582h-150l-248 266h223z" />
    <glyph glyph-name="Oacute" unicode="&#xd3;" 
d="M614 1311q-64 0 -114 -23q-49 -24 -85 -62q-121 -130 -127 -414v-168q4 -190 68 -327q82 -174 259 -174q223 -1 297 279q24 92 26 222v168q-7 382 -211 476q-49 22 -113 23zM227 196q-118 185 -121 448v166q4 266 120 450q136 216 388 216t388 -216q116 -185 119 -450
v-166q-3 -267 -119 -449q-136 -215 -387 -215t-388 216zM731 1845h224l-268 -266h-140z" />
    <glyph glyph-name="Ocircumflex" unicode="&#xd4;" 
d="M614 1311q-64 0 -114 -23q-49 -24 -85 -62q-121 -130 -127 -414v-168q4 -190 68 -327q82 -174 259 -174q223 -1 297 279q24 92 26 222v168q-7 382 -211 476q-49 22 -113 23zM227 196q-118 185 -121 448v166q4 266 120 450q136 216 388 216t388 -216q116 -185 119 -450
v-166q-3 -267 -119 -449q-136 -215 -387 -215t-388 216zM937 1620h-154l-150 151l-149 -151h-152v26l245 239h112l248 -240v-25z" />
    <glyph glyph-name="Otilde" unicode="&#xd5;" 
d="M614 1311q-64 0 -114 -23q-49 -24 -85 -62q-121 -130 -127 -414v-168q4 -190 68 -327q82 -174 259 -174q223 -1 297 279q24 92 26 222v168q-7 382 -211 476q-49 22 -113 23zM227 196q-118 185 -121 448v166q4 266 120 450q136 216 388 216t388 -216q116 -185 119 -450
v-166q-3 -267 -119 -449q-136 -215 -387 -215t-388 216zM624 1688q-72 48 -123 48t-79 -32t-29 -79l-104 24q0 92 59 160q59 69 147 69q55 0 113 -32t92 -48q32 -15 62 -15q52 0 82 33t30 79l103 -30q0 -92 -58 -158t-141 -66q-82 -1 -154 47z" />
    <glyph glyph-name="Odieresis" unicode="&#xd6;" 
d="M614 1311q-64 0 -114 -23q-49 -24 -85 -62q-121 -130 -127 -414v-168q4 -190 68 -327q82 -174 259 -174q223 -1 297 279q24 92 26 222v168q-7 382 -211 476q-49 22 -113 23zM227 196q-118 185 -121 448v166q4 266 120 450q136 216 388 216t388 -216q116 -185 119 -450
v-166q-3 -267 -119 -449q-136 -215 -387 -215t-388 216zM736 1738q0 44 28 75t81 31q54 0 82 -31t28 -75t-28 -76q-28 -30 -82 -30q-53 0 -81 30q-28 32 -28 76zM306 1739q0 45 28 75t81 31q54 -1 82 -31t28 -75t-28 -75t-82 -30q-53 0 -81 30t-28 75z" />
    <glyph glyph-name="multiply" unicode="&#xd7;" 
d="M181 329l330 337l-327 334l119 123l328 -335l329 335l119 -123l-328 -334l331 -337l-119 -123l-332 337l-331 -337z" />
    <glyph glyph-name="Oslash" unicode="&#xd8;" 
d="M404 231q79 -88 203 -88q223 0 272 185.5t51 315.5v168q-2 143 -35 249zM831 1193q-82 118 -226 118q-223 0 -273 -190t-52 -309v-168q2 -172 53 -294zM607 -20q-168 0 -290 103l-104 -176h-142l160 270q-133 192 -133 467v166q3 265 129 465.5t378 200.5q190 0 318 -128
l99 168h142l-161 -272q105 -177 110 -434v-166q-3 -267 -129 -465.5t-377 -198.5z" />
    <glyph glyph-name="Ugrave" unicode="&#xd9;" 
d="M273 121q-132 141 -134 349l2 986h176l4 -986q2 -137 80 -235t213 -98q136 0 212 97t80 236l3 986h179l2 -986q-4 -208 -138 -349q-133 -141 -340 -141t-339 141zM740 1549h-150l-248 266h223z" />
    <glyph glyph-name="Uacute" unicode="&#xda;" 
d="M273 121q-132 141 -134 349l2 986h176l4 -986q2 -137 80 -235t213 -98q136 0 212 97t80 236l3 986h179l2 -986q-4 -208 -138 -349q-133 -141 -340 -141t-339 141zM757 1812h224l-268 -266h-140z" />
    <glyph glyph-name="Ucircumflex" unicode="&#xdb;" 
d="M273 121q-132 141 -134 349l2 986h176l4 -986q2 -137 80 -235t213 -98q136 0 212 97t80 236l3 986h179l2 -986q-4 -208 -138 -349q-133 -141 -340 -141t-339 141zM963 1587h-154l-150 151l-149 -151h-152v26l245 239h112l248 -240v-25z" />
    <glyph glyph-name="Udieresis" unicode="&#xdc;" 
d="M273 121q-132 141 -134 349l2 986h176l4 -986q2 -137 80 -235t213 -98q136 0 212 97t80 236l3 986h179l2 -986q-4 -208 -138 -349q-133 -141 -340 -141t-339 141zM762 1704q0 44 28 76q28 31 81 31q54 0 82 -31q28 -32 28 -76t-28 -74t-82 -31q-53 1 -81 31t-28 74z
M332 1706q0 46 28 76t81 30q54 0 82 -30t28 -76q0 -45 -28 -75t-82 -30q-53 0 -81 30t-28 75z" />
    <glyph glyph-name="Yacute" unicode="&#xdd;" 
d="M603 725l332 731h210l-453 -913l-3 -543h-172l-3 543l-453 913h211zM707 1823h224l-268 -266h-140z" />
    <glyph glyph-name="Thorn" unicode="&#xde;" 
d="M353 1011v-546h277q147 0 225 78t78 193t-76.5 195t-226.5 80h-277zM353 1456v-293h277q228 0 358 -117.5t130 -307.5t-130 -307.5t-358 -117.5h-277v-313h-185v1456h185z" />
    <glyph glyph-name="germandbls" unicode="&#xdf;" 
d="M498 206q124 -76 248 -76t146.5 70t22.5 112t-22.5 80.5t-56.5 73t-131 120.5t-97 239q0 67 25.5 115.5t43.5 76t43.5 76t25.5 105.5q0 100 -52 154t-122 54q-99 0 -158.5 -82t-60.5 -237v-1087h-184v1087q0 221 109.5 346t275.5 125t266.5 -86.5t100.5 -251.5
q0 -116 -44 -193t-63.5 -115.5t-19.5 -86.5t22.5 -85t56.5 -72t130.5 -119.5t96.5 -219.5q0 -177 -94.5 -263.5t-238.5 -86.5t-217.5 28t-93.5 44z" />
    <glyph glyph-name="agrave" unicode="&#xe0;" 
d="M683 525q-342 0 -342 -199q0 -129 122 -171q41 -14 95 -14q101 0 182 48t115 117v219h-172zM858 118q-138 -138 -316 -138t-282 91t-104 229q0 174 133 265t364 91h202v85q0 97 -69 155t-181 57q-112 0 -176 -50q-65 -50 -65 -121h-186q2 126 121 223t310 97
q299 0 398 -204q33 -68 33 -159v-503q0 -125 38 -220v-16h-193q-20 38 -27 118zM706 1239h-150l-248 266h223z" />
    <glyph glyph-name="aacute" unicode="&#xe1;" 
d="M683 525q-342 0 -342 -199q0 -129 122 -171q41 -14 95 -14q101 0 182 48t115 117v219h-172zM858 118q-138 -138 -316 -138t-282 91t-104 229q0 174 133 265t364 91h202v85q0 97 -69 155t-181 57q-112 0 -176 -50q-65 -50 -65 -121h-186q2 126 121 223t310 97
q299 0 398 -204q33 -68 33 -159v-503q0 -125 38 -220v-16h-193q-20 38 -27 118zM723 1502h224l-268 -266h-140z" />
    <glyph glyph-name="acircumflex" unicode="&#xe2;" 
d="M683 525q-342 0 -342 -199q0 -129 122 -171q41 -14 95 -14q101 0 182 48t115 117v219h-172zM858 118q-138 -138 -316 -138t-282 91t-104 229q0 174 133 265t364 91h202v85q0 97 -69 155t-181 57q-112 0 -176 -50q-65 -50 -65 -121h-186q2 126 121 223t310 97
q299 0 398 -204q33 -68 33 -159v-503q0 -125 38 -220v-16h-193q-20 38 -27 118zM929 1277h-154l-150 151l-149 -151h-152v26l245 239h112l248 -240v-25z" />
    <glyph glyph-name="atilde" unicode="&#xe3;" 
d="M683 525q-342 0 -342 -199q0 -129 122 -171q41 -14 95 -14q101 0 182 48t115 117v219h-172zM858 118q-138 -138 -316 -138t-282 91t-104 229q0 174 133 265t364 91h202v85q0 97 -69 155t-181 57q-112 0 -176 -50q-65 -50 -65 -121h-186q2 126 121 223t310 97
q299 0 398 -204q33 -68 33 -159v-503q0 -125 38 -220v-16h-193q-20 38 -27 118zM616 1346q-72 47 -123 47q-51 -1 -79 -33t-29 -78l-104 24q0 92 59 160q59 69 147 69q55 -1 113 -33t92 -47q32 -15 62 -15q52 0 82 33t30 79l103 -30q0 -92 -58 -158t-141 -66q-82 0 -154 48z
" />
    <glyph glyph-name="adieresis" unicode="&#xe4;" 
d="M683 525q-342 0 -342 -199q0 -129 122 -171q41 -14 95 -14q101 0 182 48t115 117v219h-172zM858 118q-138 -138 -316 -138t-282 91t-104 229q0 174 133 265t364 91h202v85q0 97 -69 155t-181 57q-112 0 -176 -50q-65 -50 -65 -121h-186q2 126 121 223t310 97
q299 0 398 -204q33 -68 33 -159v-503q0 -125 38 -220v-16h-193q-20 38 -27 118zM728 1394q0 44 28 76q28 31 81 31q54 0 82 -31q28 -32 28 -76t-28 -74t-82 -31q-53 1 -81 31t-28 74zM298 1396q0 46 28 76t81 30q54 0 82 -30t28 -76q0 -45 -28 -75t-82 -30q-53 0 -81 30
t-28 75z" />
    <glyph glyph-name="aring" unicode="&#xe5;" 
d="M683 525q-342 0 -342 -199q0 -129 122 -171q41 -14 95 -14q101 0 182 48t115 117v219h-172zM858 118q-138 -138 -316 -138t-282 91t-104 229q0 174 133 265t364 91h202v85q0 97 -69 155t-181 57q-112 0 -176 -50q-65 -50 -65 -121h-186q2 126 121 223t310 97
q299 0 398 -204q33 -68 33 -159v-503q0 -125 38 -220v-16h-193q-20 38 -27 118zM519 1423q1 -35 9 -54t22 -33t34 -23q19 -8 41 -8q43 0 73 30q30 31 30 77t-30 76t-73 31q-44 -1 -75 -31t-31 -65zM420 1410q0 44 16 80t44 62t66 42q38 15 79 15q43 0 79 -15q36 -16 64 -42
t43 -62q16 -36 16 -80q0 -43 -16 -79q-15 -35 -43 -61t-64 -40t-79 -14q-41 0 -79 14t-66 40t-44 61q-16 36 -16 79z" />
    <glyph glyph-name="ae" unicode="&#xe6;" 
d="M450 495q-103 0 -164.5 -63t-61.5 -139q0 -77 39 -120t109 -43t140 72l-1 293h-61zM733.5 882q-43.5 -68 -45.5 -173v-69h329v128q0 74 -42 128t-120 54t-121.5 -68zM43 298q0 153 104 245t301 92h63v148q0 167 -130 167q-63 0 -102 -41.5t-39 -116.5l-179 8
q0 137 86.5 219.5t243.5 82.5t235 -107q90 107 242 107t238.5 -100t86.5 -271v-234h-505v-86q0 -281 244 -281q96 0 198 70l46 -136q-109 -84 -280 -84q-202 0 -297 146q-96 -146 -264 -146q-138 0 -215 82.5t-77 235.5z" />
    <glyph glyph-name="ccedilla" unicode="&#xe7;" 
d="M616 130q122 0 202 61t82 150h175q-2 -145 -135 -253q-105 -85 -239 -103l-8 -37q153 -26 153 -173q0 -97 -79 -153t-224 -57l-7 107q112 0 152 54q14 18 14 44q0 50 -39 70t-122 26l27 117q-187 20 -306 165q-119 144 -119 372v42q0 228 129 384t363 156q189 0 315 -113
q125 -113 125 -279h-175q-2 98 -77 169t-175 71q-172 0 -252 -124q-67 -103 -67 -264v-42q1 -262 161 -356q58 -34 126 -34z" />
    <glyph glyph-name="egrave" unicode="&#xe8;" 
d="M636 950q-122 0 -206 -82q-83 -82 -104 -228h582v14q-12 196 -158 270q-50 26 -114 26zM1079 189q-139 -209 -445 -209q-96 0 -192 39t-163 109q-144 148 -144 375v42q0 252 148 404q148 153 360 153q211 0 331 -147q119 -147 119 -384v-83h-773q6 -152 100 -254
q94 -103 242 -103q191 0 304 146zM701 1240h-150l-248 266h223z" />
    <glyph glyph-name="eacute" unicode="&#xe9;" 
d="M636 950q-122 0 -206 -82q-83 -82 -104 -228h582v14q-12 196 -158 270q-50 26 -114 26zM1079 189q-139 -209 -445 -209q-96 0 -192 39t-163 109q-144 148 -144 375v42q0 252 148 404q148 153 360 153q211 0 331 -147q119 -147 119 -384v-83h-773q6 -152 100 -254
q94 -103 242 -103q191 0 304 146zM718 1503h224l-268 -266h-140z" />
    <glyph glyph-name="ecircumflex" unicode="&#xea;" 
d="M636 950q-122 0 -206 -82q-83 -82 -104 -228h582v14q-12 196 -158 270q-50 26 -114 26zM1079 189q-139 -209 -445 -209q-96 0 -192 39t-163 109q-144 148 -144 375v42q0 252 148 404q148 153 360 153q211 0 331 -147q119 -147 119 -384v-83h-773q6 -152 100 -254
q94 -103 242 -103q191 0 304 146zM924 1278h-154l-150 151l-149 -151h-152v26l245 239h112l248 -240v-25z" />
    <glyph glyph-name="edieresis" unicode="&#xeb;" 
d="M636 950q-122 0 -206 -82q-83 -82 -104 -228h582v14q-12 196 -158 270q-50 26 -114 26zM1079 189q-139 -209 -445 -209q-96 0 -192 39t-163 109q-144 148 -144 375v42q0 252 148 404q148 153 360 153q211 0 331 -147q119 -147 119 -384v-83h-773q6 -152 100 -254
q94 -103 242 -103q191 0 304 146zM723 1396q-1 44 27 75t82 31t82 -31t28 -75t-28 -76q-28 -30 -82 -30t-82 30q-28 32 -27 76zM293 1397q-1 45 27 75t82 31q54 -1 82 -31t28 -75t-28 -75t-82 -30t-82 30t-27 75z" />
    <glyph glyph-name="igrave" unicode="&#xec;" 
d="M203 1082h553v-922h353v-160h-906v160h368v761h-368v161zM747 1218h-150l-248 266h223z" />
    <glyph glyph-name="iacute" unicode="&#xed;" 
d="M203 1082h553v-922h353v-160h-906v160h368v761h-368v161zM764 1481h224l-268 -266h-140z" />
    <glyph glyph-name="icircumflex" unicode="&#xee;" 
d="M203 1082h553v-922h353v-160h-906v160h368v761h-368v161zM970 1256h-154l-150 151l-149 -151h-152v26l245 239h112l248 -240v-25z" />
    <glyph glyph-name="idieresis" unicode="&#xef;" 
d="M203 1082h553v-922h353v-160h-906v160h368v761h-368v161zM769 1374q-1 44 27 75t82 31t82 -31t28 -75t-28 -76q-28 -30 -82 -30t-82 30q-28 32 -27 76zM339 1375q-1 45 27 75t82 31q54 -1 82 -31t28 -75t-28 -75t-82 -30t-82 30t-27 75z" />
    <glyph glyph-name="eth" unicode="&#xf0;" 
d="M558 825q-132 0 -215.5 -103.5t-83.5 -245.5t85 -244t226 -102t226 120.5t85 320.5v64l-1 50q-61 96 -158.5 118t-163.5 22zM1066 633v-62q0 -271 -140 -431t-358 -160t-356.5 140t-138.5 357q0 218 137.5 359t350.5 141q172 0 298 -124q-43 207 -175 341l-266 -152
l-73 99l239 137q-76 50 -174 84l57 159q160 -44 286 -146l230 132l73 -100l-211 -121q221 -251 221 -653z" />
    <glyph glyph-name="ntilde" unicode="&#xf1;" 
d="M1065 687v-687h-185v683q0 205 -140 248q-46 14 -122 14q-76 -1 -146 -47t-113 -122v-776h-185v1082h166l13 -160q125 178 337 180q270 0 348 -228q26 -78 27 -187zM596 1346q-72 48 -123 47t-79 -33t-29 -78l-104 24q0 92 59 160q59 69 147 69q55 -1 113 -33t92 -47
q32 -15 62 -15q52 0 82 33t30 79l103 -30q0 -92 -58 -158t-141 -66q-82 0 -154 48z" />
    <glyph glyph-name="ograve" unicode="&#xf2;" 
d="M307 529q0 -171 80 -285t227 -114t227 114t80 285v22q0 168 -81 284q-80 115 -226 115t-227 -115q-80 -115 -80 -284v-22zM122 551q0 239 134 395t358 156t358 -156t134 -395v-22q0 -238 -134 -393q-134 -156 -358 -156q-225 0 -358 156q-134 156 -134 393v22zM695 1239
h-150l-248 266h223z" />
    <glyph glyph-name="oacute" unicode="&#xf3;" 
d="M307 529q0 -171 80 -285t227 -114t227 114t80 285v22q0 168 -81 284q-80 115 -226 115t-227 -115q-80 -115 -80 -284v-22zM122 551q0 239 134 395t358 156t358 -156t134 -395v-22q0 -238 -134 -393q-134 -156 -358 -156q-225 0 -358 156q-134 156 -134 393v22zM712 1502
h224l-268 -266h-140z" />
    <glyph glyph-name="ocircumflex" unicode="&#xf4;" 
d="M307 529q0 -171 80 -285t227 -114t227 114t80 285v22q0 168 -81 284q-80 115 -226 115t-227 -115q-80 -115 -80 -284v-22zM122 551q0 239 134 395t358 156t358 -156t134 -395v-22q0 -238 -134 -393q-134 -156 -358 -156q-225 0 -358 156q-134 156 -134 393v22zM918 1277
h-154l-150 151l-149 -151h-152v26l245 239h112l248 -240v-25z" />
    <glyph glyph-name="otilde" unicode="&#xf5;" 
d="M307 529q0 -171 80 -285t227 -114t227 114t80 285v22q0 168 -81 284q-80 115 -226 115t-227 -115q-80 -115 -80 -284v-22zM122 551q0 239 134 395t358 156t358 -156t134 -395v-22q0 -238 -134 -393q-134 -156 -358 -156q-225 0 -358 156q-134 156 -134 393v22zM605 1346
q-72 48 -123 47q-50 -1 -78 -33t-30 -78l-104 24q0 92 59 160q59 69 147 69q56 -1 114 -33t90 -47t63 -15q52 0 82 33t30 79l103 -30q0 -92 -58 -158t-141 -66q-82 0 -154 48z" />
    <glyph glyph-name="odieresis" unicode="&#xf6;" 
d="M307 529q0 -171 80 -285t227 -114t227 114t80 285v22q0 168 -81 284q-80 115 -226 115t-227 -115q-80 -115 -80 -284v-22zM122 551q0 239 134 395t358 156t358 -156t134 -395v-22q0 -238 -134 -393q-134 -156 -358 -156q-225 0 -358 156q-134 156 -134 393v22zM717 1394
q-1 44 27 76q28 31 82 31t82 -31q28 -32 28 -76t-28 -74t-82 -31q-54 1 -82 31t-27 74zM287 1396q-1 46 27 76t82 30t82 -30t28 -76q0 -45 -28 -75t-82 -30t-82 30t-27 75z" />
    <glyph glyph-name="divide" unicode="&#xf7;" 
d="M505 282q0 44 27.5 75.5t81.5 31.5t82 -31.5t28 -75.5t-28 -74.5t-82 -30.5t-81.5 30.5t-27.5 74.5zM507 1097q0 45 27.5 76t81.5 31t82 -31t28 -76t-28 -75t-82 -30t-81.5 30t-27.5 75zM1113 600h-998v184h998v-184z" />
    <glyph glyph-name="oslash" unicode="&#xf8;" 
d="M921 551q0 181 -89 294l-340 -689q55 -26 127 -26q142 0 222 114t80 285v22zM610 950q-142 0 -222.5 -114.5t-80.5 -284.5v-22q0 -191 96 -305l342 694q-61 32 -135 32zM122 529v22q0 239 134 395t357 156q111 0 203 -41l73 148h123l-101 -205q94 -75 144.5 -192
t50.5 -261v-22q0 -238 -133.5 -393.5t-350.5 -155.5q-107 0 -199 36l-74 -151h-123l101 205q-99 73 -152 192t-53 267z" />
    <glyph glyph-name="ugrave" unicode="&#xf9;" 
d="M180 439v643h185v-645q1 -244 125 -287q40 -14 93 -14q212 0 286 170v776h186v-1082h-168l-11 149q-114 -169 -322 -169q-270 0 -348 252q-26 86 -26 207zM694 1219h-150l-248 266h223z" />
    <glyph glyph-name="uacute" unicode="&#xfa;" 
d="M180 439v643h185v-645q1 -244 125 -287q40 -14 93 -14q212 0 286 170v776h186v-1082h-168l-11 149q-114 -169 -322 -169q-270 0 -348 252q-26 86 -26 207zM711 1482h224l-268 -266h-140z" />
    <glyph glyph-name="ucircumflex" unicode="&#xfb;" 
d="M180 439v643h185v-645q1 -244 125 -287q40 -14 93 -14q212 0 286 170v776h186v-1082h-168l-11 149q-114 -169 -322 -169q-270 0 -348 252q-26 86 -26 207zM917 1257h-154l-150 151l-149 -151h-152v26l245 239h112l248 -240v-25z" />
    <glyph glyph-name="udieresis" unicode="&#xfc;" 
d="M180 439v643h185v-645q1 -244 125 -287q40 -14 93 -14q212 0 286 170v776h186v-1082h-168l-11 149q-114 -169 -322 -169q-270 0 -348 252q-26 86 -26 207zM717 1374q-1 44 27 76q28 31 82 31t82 -31q28 -32 28 -76t-28 -74t-82 -31q-54 1 -82 31t-27 74zM287 1376
q-1 46 27 76t82 30t82 -30t28 -76q0 -45 -28 -75t-82 -30t-82 30t-27 75z" />
    <glyph glyph-name="yacute" unicode="&#xfd;" 
d="M390 -410q-56 -27 -113 -27t-130 16l30 151l88 -5q93 0 167 131q18 31 28 51l74 144l-466 1031h207l297 -698l48 -131l330 829h207l-549 -1249q-49 -108 -106 -162q-56 -54 -112 -81zM731 1482h224l-268 -266h-140z" />
    <glyph glyph-name="thorn" unicode="&#xfe;" 
d="M902 529v21q0 270 -107.5 332.5t-184.5 62.5q-168 0 -252 -149v-518q86 -147 242 -147t229 114t73 284zM358 970q113 132 311 132t308 -151t110 -401v-21q0 -242 -111 -395.5t-307 -153.5t-311 127v-523h-185v1974h185v-588z" />
    <glyph glyph-name="ydieresis" unicode="&#xff;" 
d="M390 -410q-56 -27 -113 -27t-130 16l30 151l88 -5q93 0 167 131q18 31 28 51l74 144l-466 1031h207l297 -698l48 -131l330 829h207l-549 -1249q-49 -108 -106 -162q-56 -54 -112 -81zM736 1374q0 44 28 76q28 31 81 31q54 0 82 -31q28 -32 28 -76t-28 -74t-82 -31
q-53 1 -81 31t-28 74zM306 1376q0 46 28 76t81 30q54 0 82 -30t28 -76q0 -45 -28 -75t-82 -30q-53 0 -81 30t-28 75z" />
    <glyph glyph-name="Amacron" unicode="&#x100;" 
d="M433 538h387l-192 632zM869 377h-486l-117 -377h-185l470 1456h155l462 -1456h-184zM990 1643h-714v143h714v-143z" />
    <glyph glyph-name="amacron" unicode="&#x101;" 
d="M683 525q-342 0 -342 -199q0 -129 122 -171q41 -14 95 -14q101 0 182 48t115 117v219h-172zM858 118q-138 -138 -316 -138t-282 91t-104 229q0 174 133 265t364 91h202v85q0 97 -69 155t-181 57q-112 0 -176 -50q-65 -50 -65 -121h-186q2 126 121 223t310 97
q299 0 398 -204q33 -68 33 -159v-503q0 -125 38 -220v-16h-193q-20 38 -27 118zM986 1321h-714v143h714v-143z" />
    <glyph glyph-name="Abreve" unicode="&#x102;" 
d="M433 538h387l-192 632zM869 377h-486l-117 -377h-185l470 1456h155l462 -1456h-184zM928 1866q0 -120 -82 -194q-82 -73 -216 -73q-135 0 -218 74q-82 74 -82 193h150q0 -102 82 -137q28 -12 68 -12q73 0 110 42q38 42 38 107h150z" />
    <glyph glyph-name="abreve" unicode="&#x103;" 
d="M683 525q-342 0 -342 -199q0 -129 122 -171q41 -14 95 -14q101 0 182 48t115 117v219h-172zM858 118q-138 -138 -316 -138t-282 91t-104 229q0 174 133 265t364 91h202v85q0 97 -69 155t-181 57q-112 0 -176 -50q-65 -50 -65 -121h-186q2 126 121 223t310 97
q299 0 398 -204q33 -68 33 -159v-503q0 -125 38 -220v-16h-193q-20 38 -27 118zM924 1544q0 -120 -82 -194q-82 -73 -216 -73q-135 0 -218 74q-82 74 -82 193h150q0 -102 82 -137q28 -12 68 -12q73 0 110 42q38 42 38 107h150z" />
    <glyph glyph-name="Aogonek" unicode="&#x104;" 
d="M433 538h387l-192 632zM948 -219q0 -75 78 -75q46 -1 101 26l31 -121q-77 -44 -178 -44q-133 0 -163 71.5t-30 113.5q0 77 50.5 148t138.5 125l-107 352h-486l-117 -377h-185l470 1456h155l462 -1456h-48q-172 -93 -172 -219z" />
    <glyph glyph-name="aogonek" unicode="&#x105;" 
d="M683 525q-342 0 -342 -199q0 -129 81.5 -157t159 -28t158.5 48.5t115 116.5v219h-172zM858 118q-138 -138 -316 -138t-282 90.5t-104 229.5q0 174 132.5 265t364.5 91h202v85q0 97 -69 154.5t-181 57.5t-176.5 -49.5t-64.5 -121.5h-186q2 126 120.5 223t310.5 97
q299 0 365 -136t66 -227v-503q0 -125 38 -220v-16h-38q-172 -93 -172 -219q0 -75 78 -75q46 -1 101 26l31 -121q-77 -44 -178 -44q-133 0 -163 71.5t-30 129.5t45.5 125t126.5 121q-14 37 -21 104z" />
    <glyph glyph-name="Cacute" unicode="&#x106;" 
d="M625 1476q213 0 340 -126t152 -340h-185q-30 222 -180 290q-54 24 -124 25t-120 -21t-86 -59q-67 -68 -98 -180t-31 -234v-205q0 -192 67 -329q82 -167 265 -167q265 0 307 308h185q-27 -208 -156 -333t-329 -125q-342 0 -470 335q-53 140 -55 311v203q3 265 125 445
q136 202 393 202zM764 1845h224l-268 -266h-140z" />
    <glyph glyph-name="cacute" unicode="&#x107;" 
d="M616 130q122 0 202 61t82 150h175q-2 -145 -135 -253t-305 -108q-234 0 -363 156t-129 384v42q0 228 129 384t363 156q189 0 315 -113q125 -113 125 -279h-175q-2 98 -77 169t-175 71q-172 0 -252 -124q-67 -103 -67 -264v-42q1 -262 161 -356q58 -34 126 -34zM741 1502
h224l-268 -266h-140z" />
    <glyph glyph-name="Ccircumflex" unicode="&#x108;" 
d="M625 1476q213 0 340 -126t152 -340h-185q-30 222 -180 290q-54 24 -124 25t-120 -21t-86 -59q-67 -68 -98 -180t-31 -234v-205q0 -192 67 -329q82 -167 265 -167q265 0 307 308h185q-27 -208 -156 -333t-329 -125q-342 0 -470 335q-53 140 -55 311v203q3 265 125 445
q136 202 393 202zM970 1620h-154l-150 151l-149 -151h-152v26l245 239h112l248 -240v-25z" />
    <glyph glyph-name="ccircumflex" unicode="&#x109;" 
d="M616 130q122 0 202 61t82 150h175q-2 -145 -135 -253t-305 -108q-234 0 -363 156t-129 384v42q0 228 129 384t363 156q189 0 315 -113q125 -113 125 -279h-175q-2 98 -77 169t-175 71q-172 0 -252 -124q-67 -103 -67 -264v-42q1 -262 161 -356q58 -34 126 -34zM947 1277
h-154l-150 151l-149 -151h-152v26l245 239h112l248 -240v-25z" />
    <glyph glyph-name="uni010A" unicode="&#x10a;" 
d="M625 1476q213 0 340 -126t152 -340h-185q-30 222 -180 290q-54 24 -124 25t-120 -21t-86 -59q-67 -68 -98 -180t-31 -234v-205q0 -192 67 -329q82 -167 265 -167q265 0 307 308h185q-27 -208 -156 -333t-329 -125q-342 0 -470 335q-53 140 -55 311v203q3 265 125 445
q136 202 393 202zM550 1727q0 47 29 79t86 32t86 -32t29 -79t-29 -79t-86 -31q-57 -1 -86 31t-29 79z" />
    <glyph glyph-name="uni010B" unicode="&#x10b;" 
d="M616 130q122 0 202 61t82 150h175q-2 -145 -135 -253t-305 -108q-234 0 -363 156t-129 384v42q0 228 129 384t363 156q189 0 315 -113q125 -113 125 -279h-175q-2 98 -77 169t-175 71q-172 0 -252 -124q-67 -103 -67 -264v-42q1 -262 161 -356q58 -34 126 -34zM527 1384
q0 47 29 79t86 32t86 -32t29 -79q0 -46 -29 -78t-86 -32t-86 32t-29 78z" />
    <glyph glyph-name="Ccaron" unicode="&#x10c;" 
d="M625 1476q213 0 340 -126t152 -340h-185q-30 222 -180 290q-54 24 -124 25t-120 -21t-86 -59q-67 -68 -98 -180t-31 -234v-205q0 -192 67 -329q82 -167 265 -167q265 0 307 308h185q-27 -208 -156 -333t-329 -125q-342 0 -470 335q-53 140 -55 311v203q3 265 125 445
q136 202 393 202zM976 1886v-18l-254 -248h-114l-251 245v21h157l151 -152l151 152h160z" />
    <glyph glyph-name="ccaron" unicode="&#x10d;" 
d="M616 130q122 0 202 61t82 150h175q-2 -145 -135 -253t-305 -108q-234 0 -363 156t-129 384v42q0 228 129 384t363 156q189 0 315 -113q125 -113 125 -279h-175q-2 98 -77 169t-175 71q-172 0 -252 -124q-67 -103 -67 -264v-42q1 -262 161 -356q58 -34 126 -34zM953 1543
v-18l-254 -248h-114l-251 245v21h157l151 -152l151 152h160z" />
    <glyph glyph-name="Dcaron" unicode="&#x10e;" 
d="M343 1304v-1153h149q225 2 341 145t118 378v109q-2 232 -117 375t-342 146h-149zM155 0v1456h337q301 -4 471 -187q171 -183 173 -488v-107q-2 -305 -173 -488q-171 -184 -471 -186h-337zM885 1865v-18l-254 -248h-114l-251 245v21h157l151 -152l151 152h160z" />
    <glyph glyph-name="dcaron" unicode="&#x10f;" horiz-adv-x="1379" 
d="M867 794q-82 151 -239 151t-231 -113q-73 -113 -73 -282v-21q0 -269 160 -361q55 -32 132 -31q171 0 251 155v502zM139 529v21q0 245 119 399q119 153 309 153q191 0 300 -127v561h185v-1536h-170l-8 114q-110 -134 -304 -134t-312 157q-119 157 -119 392zM1329 1407v150
h181v-147q0 -154 -100 -298q-32 -46 -74 -82l-101 72q94 142 94 305z" />
    <glyph glyph-name="Dcroat" unicode="&#x110;" horiz-adv-x="1259" 
d="M593 666h-220v-515h149q225 2 341 145.5t118 377.5v109q-2 232 -117 374.5t-342 146.5h-149v-487h220v-151zM185 0v666h-229v151h229v639h337q301 -4 471.5 -187t172.5 -488v-107q-2 -305 -173 -488.5t-471 -185.5h-337z" />
    <glyph glyph-name="dcroat" unicode="&#x111;" horiz-adv-x="1259" 
d="M867 794q-82 151 -239 151t-230.5 -112.5t-73.5 -282.5v-21q0 -269 107.5 -330.5t184.5 -61.5q171 0 251 155v502zM867 1234h-255v151h255v151h185v-151h197v-151h-197v-1234h-170l-8 114q-110 -134 -304 -134t-312.5 157t-118.5 392v21q0 245 118.5 398.5t309.5 153.5
t300 -127v259z" />
    <glyph glyph-name="Emacron" unicode="&#x112;" 
d="M975 673h-608v-516h709v-157h-894v1456h885v-158h-700v-468h608v-157zM980 1643h-714v143h714v-143z" />
    <glyph glyph-name="emacron" unicode="&#x113;" 
d="M636 950q-122 0 -206 -82q-83 -82 -104 -228h582v14q-12 196 -158 270q-50 26 -114 26zM1079 189q-139 -209 -445 -209q-96 0 -192 39t-163 109q-144 148 -144 375v42q0 252 148 404q148 153 360 153q211 0 331 -147q119 -147 119 -384v-83h-773q6 -152 100 -254
q94 -103 242 -103q191 0 304 146zM981 1322h-714v143h714v-143z" />
    <glyph glyph-name="Ebreve" unicode="&#x114;" 
d="M975 673h-608v-516h709v-157h-894v1456h885v-158h-700v-468h608v-157zM918 1866q0 -120 -82 -194q-82 -73 -216 -73q-135 0 -218 74q-82 74 -82 193h150q0 -102 82 -137q28 -12 68 -12q73 0 110 42q38 42 38 107h150z" />
    <glyph glyph-name="ebreve" unicode="&#x115;" 
d="M636 950q-122 0 -206 -82q-83 -82 -104 -228h582v14q-12 196 -158 270q-50 26 -114 26zM1079 189q-139 -209 -445 -209q-96 0 -192 39t-163 109q-144 148 -144 375v42q0 252 148 404q148 153 360 153q211 0 331 -147q119 -147 119 -384v-83h-773q6 -152 100 -254
q94 -103 242 -103q191 0 304 146zM919 1545q0 -120 -82 -194q-83 -73 -217 -73q-135 0 -217 74t-82 193h150q0 -102 82 -137q27 -12 67 -12q73 0 111 42t38 107h150z" />
    <glyph glyph-name="Edotaccent" unicode="&#x116;" 
d="M975 673h-608v-516h709v-157h-894v1456h885v-158h-700v-468h608v-157zM503 1706q0 47 29 79t86 32t86 -32t29 -79q0 -46 -29 -78t-86 -32t-86 32t-29 78z" />
    <glyph glyph-name="edotaccent" unicode="&#x117;" 
d="M636 950q-122 0 -206 -82q-83 -82 -104 -228h582v14q-12 196 -158 270q-50 26 -114 26zM1079 189q-139 -209 -445 -209q-96 0 -192 39t-163 109q-144 148 -144 375v42q0 252 148 404q148 153 360 153q211 0 331 -147q119 -147 119 -384v-83h-773q6 -152 100 -254
q94 -103 242 -103q191 0 304 146zM504 1385q0 47 29 79t86 32t86 -32t29 -79t-29 -79t-86 -31q-57 -1 -86 31t-29 79z" />
    <glyph glyph-name="Eogonek" unicode="&#x118;" 
d="M659 -243q0 131 152 243h-629v1456h885v-158h-700v-468h608v-157h-608v-516h709v-157h-84q-172 -93 -172 -219q0 -75 78 -75q46 -1 101 26l31 -121q-77 -44 -178 -44q-133 0 -163 71.5t-30 118.5z" />
    <glyph glyph-name="eogonek" unicode="&#x119;" 
d="M636 950q-122 0 -205.5 -82t-104.5 -228h582v14q-11 196 -109.5 246t-162.5 50zM662 131q191 0 304 146l113 -88q-78 -117 -215 -171q-172 -93 -172 -219q0 -75 78 -75q46 -1 101 26l31 -121q-77 -44 -178 -44q-133 0 -163 71.5t-30 118.5q0 106 106 206q-222 6 -362 152
t-140 370v42q0 252 148.5 404.5t359.5 152.5t330.5 -147t119.5 -384v-83h-773q6 -152 100 -254.5t242 -102.5z" />
    <glyph glyph-name="Ecaron" unicode="&#x11a;" 
d="M975 673h-608v-516h709v-157h-894v1456h885v-158h-700v-468h608v-157zM929 1865v-18l-254 -248h-114l-251 245v21h157l151 -152l151 152h160z" />
    <glyph glyph-name="ecaron" unicode="&#x11b;" 
d="M636 950q-122 0 -206 -82q-83 -82 -104 -228h582v14q-12 196 -158 270q-50 26 -114 26zM1079 189q-139 -209 -445 -209q-96 0 -192 39t-163 109q-144 148 -144 375v42q0 252 148 404q148 153 360 153q211 0 331 -147q119 -147 119 -384v-83h-773q6 -152 100 -254
q94 -103 242 -103q191 0 304 146zM930 1544v-18l-254 -248h-114l-251 245v21h157l151 -152l151 152h160z" />
    <glyph glyph-name="Gcircumflex" unicode="&#x11c;" 
d="M626 1318q-123 0 -206 -83q-134 -134 -134 -421v-171q4 -194 82 -334q95 -169 277 -172q141 -5 233 51q34 20 57 54l2 327h-296v156h472l3 -534q-181 -213 -472 -211q-258 3 -399 201t-145 462v169q3 268 126 454q86 130 233 183q74 27 171 27q200 0 333 -122t151 -325
h-183q-50 289 -305 289zM943 1620h-154l-150 151l-149 -151h-152v26l245 239h112l248 -240v-25z" />
    <glyph glyph-name="gcircumflex" unicode="&#x11d;" 
d="M868 791q-82 154 -239 154q-158 0 -231 -112t-73 -283v-21q0 -269 159 -361q55 -32 132 -31q171 0 252 158v496zM140 529v21q0 247 117 400q117 152 313 152t306 -138l9 118h168v-1059q0 -209 -125 -329t-315 -120q-191 0 -331 98q-52 36 -88 89l96 111
q122 -147 291 -147q206 0 267 165q20 54 20 124v93q-111 -127 -302 -127q-192 0 -309 156t-117 393zM907 1277h-154l-150 151l-149 -151h-152v26l245 239h112l248 -240v-25z" />
    <glyph glyph-name="Gbreve" unicode="&#x11e;" 
d="M626 1318q-123 0 -206 -83q-134 -134 -134 -421v-171q4 -194 82 -334q95 -169 277 -172q141 -5 233 51q34 20 57 54l2 327h-296v156h472l3 -534q-181 -213 -472 -211q-258 3 -399 201t-145 462v169q3 268 126 454q86 130 233 183q74 27 171 27q200 0 333 -122t151 -325
h-183q-50 289 -305 289zM938 1887q0 -120 -82 -194q-82 -73 -216 -73q-135 0 -218 74q-82 74 -82 193h150q0 -102 82 -137q28 -12 68 -12q73 0 110 42q38 42 38 107h150z" />
    <glyph glyph-name="gbreve" unicode="&#x11f;" 
d="M868 791q-82 154 -239 154q-158 0 -231 -112t-73 -283v-21q0 -269 159 -361q55 -32 132 -31q171 0 252 158v496zM140 529v21q0 247 117 400q117 152 313 152t306 -138l9 118h168v-1059q0 -209 -125 -329t-315 -120q-191 0 -331 98q-52 36 -88 89l96 111
q122 -147 291 -147q206 0 267 165q20 54 20 124v93q-111 -127 -302 -127q-192 0 -309 156t-117 393zM903 1544q0 -120 -82 -194q-83 -73 -217 -73q-135 0 -217 74t-82 193h150q0 -102 82 -137q27 -12 67 -12q73 0 111 42t38 107h150z" />
    <glyph glyph-name="uni0120" unicode="&#x120;" 
d="M626 1318q-123 0 -206 -83q-134 -134 -134 -421v-171q4 -194 82 -334q95 -169 277 -172q141 -5 233 51q34 20 57 54l2 327h-296v156h472l3 -534q-181 -213 -472 -211q-258 3 -399 201t-145 462v169q3 268 126 454q86 130 233 183q74 27 171 27q200 0 333 -122t151 -325
h-183q-50 289 -305 289zM523 1727q0 47 29 79t86 32t86 -32t29 -79t-29 -79t-86 -31q-57 -1 -86 31t-29 79z" />
    <glyph glyph-name="uni0121" unicode="&#x121;" 
d="M868 791q-82 154 -239 154q-158 0 -231 -112t-73 -283v-21q0 -269 159 -361q55 -32 132 -31q171 0 252 158v496zM140 529v21q0 247 117 400q117 152 313 152t306 -138l9 118h168v-1059q0 -209 -125 -329t-315 -120q-191 0 -331 98q-52 36 -88 89l96 111
q122 -147 291 -147q206 0 267 165q20 54 20 124v93q-111 -127 -302 -127q-192 0 -309 156t-117 393zM488 1384q0 47 29 79t86 32t86 -32t29 -79q0 -46 -29 -78t-86 -32t-86 32t-29 78z" />
    <glyph glyph-name="Gcommaaccent" unicode="&#x122;" 
d="M626 1318q-123 0 -206 -83q-134 -134 -134 -421v-171q4 -194 82 -334q95 -169 277 -172q141 -5 233 51q34 20 57 54l2 327h-296v156h472l3 -534q-181 -213 -472 -211q-258 3 -399 201t-145 462v169q3 268 126 454q86 130 233 183q74 27 171 27q200 0 333 -122t151 -325
h-183q-50 289 -305 289zM553 -139v73h176v-70q-1 -144 -81 -266q-28 -42 -64 -73l-105 72q74 124 74 264z" />
    <glyph glyph-name="gcommaaccent" unicode="&#x123;" 
d="M868 791q-82 154 -239 154q-158 0 -231 -112t-73 -283v-21q0 -269 159 -361q55 -32 132 -31q171 0 252 158v496zM140 529v21q0 247 117 400q117 152 313 152t306 -138l9 118h168v-1059q0 -209 -125 -329t-315 -120q-191 0 -331 98q-52 36 -88 89l96 111
q122 -147 291 -147q206 0 267 165q20 54 20 124v93q-111 -127 -302 -127q-192 0 -309 156t-117 393zM697 1374v-120h-185v129q0 123 92 246q24 33 48 54l107 -83q-62 -105 -62 -226z" />
    <glyph glyph-name="Hcircumflex" unicode="&#x124;" 
d="M1087 0h-175v673h-597v-673h-174v1456h174v-626h597v626h175v-1456zM911 1599h-154l-150 151l-149 -151h-152v26l245 239h112l248 -240v-25z" />
    <glyph glyph-name="hcircumflex" unicode="&#x125;" 
d="M1068 681v-681h-185v683q1 133 -63 198t-168 65q-194 -1 -293 -160v-786h-185v1536h185v-615q122 179 334 181q271 0 349 -232q26 -80 26 -189zM834 1638h-154l-150 151l-149 -151h-152v26l245 239h112l248 -240v-25z" />
    <glyph glyph-name="Hbar" unicode="&#x126;" 
d="M312 830h597v194h-597v-194zM1084 1167h128v-143h-128v-1024h-175v673h-597v-673h-174v1024h-114v143h114v289h174v-289h597v289h175v-289z" />
    <glyph glyph-name="hbar" unicode="&#x127;" horiz-adv-x="1259" 
d="M1098 681v-681h-185v683q0 133 -63.5 198t-167.5 65q-194 -1 -293 -160v-786h-185v1234h-178v151h178v151h185v-151h274v-151h-274v-313q122 179 334 181q271 0 323 -156t52 -265z" />
    <glyph glyph-name="Itilde" unicode="&#x128;" 
d="M174 1456h880v-161h-349v-1135h349v-160h-880v160h341v1135h-341v161zM558 1668q-72 48 -123 47t-79 -33t-29 -78l-104 24q0 92 59 160q59 69 147 69q55 -1 113 -33t92 -47q32 -15 62 -15q52 0 82 33t30 79l103 -30q0 -92 -58 -158t-141 -66q-82 0 -154 48z" />
    <glyph glyph-name="itilde" unicode="&#x129;" 
d="M203 1082h553v-922h353v-160h-906v160h368v761h-368v161zM657 1324q-72 48 -123 48q-50 0 -78 -32t-30 -79l-104 24q0 92 59 160q59 69 147 69q56 0 114 -32t90 -48q32 -15 63 -15q52 0 82 33t30 79l103 -30q0 -92 -58 -158t-141 -66q-82 -1 -154 47z" />
    <glyph glyph-name="Imacron" unicode="&#x12a;" 
d="M174 1456h880v-161h-349v-1135h349v-160h-880v160h341v1135h-341v161zM929 1643h-714v143h714v-143z" />
    <glyph glyph-name="imacron" unicode="&#x12b;" 
d="M203 1082h553v-922h353v-160h-906v160h368v761h-368v161zM1027 1301h-714v143h714v-143z" />
    <glyph glyph-name="Ibreve" unicode="&#x12c;" 
d="M174 1456h880v-161h-349v-1135h349v-160h-880v160h341v1135h-341v161zM867 1866q0 -120 -82 -194q-83 -73 -217 -73q-135 0 -217 74t-82 193h150q0 -102 82 -137q27 -12 67 -12q73 0 111 42t38 107h150z" />
    <glyph glyph-name="ibreve" unicode="&#x12d;" 
d="M203 1082h553v-922h353v-160h-906v160h368v761h-368v161zM965 1523q0 -120 -82 -194q-83 -73 -217 -73q-135 0 -217 74t-82 193h150q0 -102 82 -137q27 -12 67 -12q73 0 111 42t38 107h150z" />
    <glyph glyph-name="Iogonek" unicode="&#x12e;" 
d="M429 -243q0 131 152 243h-407v160h341v1135h-341v161h880v-161h-349v-1135h349v-160h-292q-172 -93 -172 -219q0 -75 78 -75q46 -1 101 26l31 -121q-77 -44 -178 -44q-133 0 -163 71.5t-30 118.5z" />
    <glyph glyph-name="iogonek" unicode="&#x12f;" 
d="M547 1366q0 46 27.5 77.5t83.5 31.5t83.5 -31.5t27.5 -77.5t-27.5 -75.5t-83.5 -29.5t-83.5 29.5t-27.5 75.5zM423 -243q0 131 152 243h-372v160h368v761h-368v161h553v-922h353v-160h-353q-172 -93 -172 -219q0 -75 78 -75q46 -1 101 26l31 -121q-77 -44 -178 -44
q-133 0 -163 71.5t-30 118.5z" />
    <glyph glyph-name="Idotaccent" unicode="&#x130;" 
d="M174 1456h880v-161h-349v-1135h349v-160h-880v160h341v1135h-341v161zM452 1706q0 47 29 79t86 32t86 -32t29 -79q0 -46 -29 -78t-86 -32t-86 32t-29 78z" />
    <glyph glyph-name="dotlessi" unicode="&#x131;" 
d="M203 1082h553v-922h353v-160h-906v160h368v761h-368v161z" />
    <glyph glyph-name="IJ" unicode="&#x132;" 
d="M915 1456h185v-1133q0 -251 -127.5 -296.5t-207.5 -45.5q-160 0 -250.5 86.5t-90.5 253.5h186q0 -99 40 -144t97 -45q97 0 132.5 48t35.5 143v1133zM313 0h-185v1456h185v-1456z" />
    <glyph glyph-name="ij" unicode="&#x133;" 
d="M303 1362q0 45 27.5 76.5t83.5 31.5t83.5 -31.5t27.5 -76.5t-27.5 -75.5t-83.5 -30.5t-83.5 30.5t-27.5 75.5zM881 1363q0 45 27 76.5t83 31.5t84 -31.5t28 -76.5t-28 -75.5t-84 -30.5t-83 30.5t-27 75.5zM85 1082h420v-922h223v-160h-648v160h239v761h-234v161z
M657 -271q251 0 251 266v926h-222v161h407v-1087q0 -205 -110.5 -317t-312.5 -112q-117 0 -211 17l13 158q68 -12 185 -12z" />
    <glyph glyph-name="Jcircumflex" unicode="&#x134;" 
d="M857 1456h189v-1013q-4 -202 -138 -332q-134 -131 -336 -131t-329 119t-145 322h188q6 -123 83 -204q77 -80 204 -80t204 88q76 88 80 218v1013zM1247 1586h-154l-150 151l-149 -151h-152v26l245 239h112l248 -240v-25z" />
    <glyph glyph-name="jcircumflex" unicode="&#x135;" 
d="M342 -280q84 0 130 14q152 45 152 259v928h-364v161h550v-1089q0 -313 -244 -401q-78 -28 -188 -29q-109 0 -202 17l13 152q69 -12 153 -12zM1013 1247h-154l-150 151l-149 -151h-152v26l245 239h112l248 -240v-25z" />
    <glyph glyph-name="Kcommaaccent" unicode="&#x136;" 
d="M361 0h-189v1456h189v-711l568 711h225l-509 -637l543 -819h-225l-440 676l-162 -184v-492zM558 -114v73h176v-70q0 -143 -80 -265q-28 -42 -65 -74l-105 72q74 124 74 264z" />
    <glyph glyph-name="kcommaaccent" unicode="&#x137;" 
d="M362 0h-186v1536h186v-940l121 130l355 356h225l-438 -451l505 -631h-235l-397 505l-136 -131v-374zM474 -112v73h176v-70q0 -143 -80 -265q-28 -42 -65 -74l-105 72q74 124 74 264z" />
    <glyph glyph-name="kgreenlandic" unicode="&#x138;" 
d="M371 0h-185v1082h185v-531l110 120l398 411h223l-456 -479l492 -603h-234l-383 477l-150 -133v-344z" />
    <glyph glyph-name="Lacute" unicode="&#x139;" 
d="M383 157h712v-157h-897v1456h185v-1299zM392 1792h224l-268 -266h-140z" />
    <glyph glyph-name="lacute" unicode="&#x13a;" 
d="M203 1536h553v-1376h353v-160h-906v160h368v1215h-368v161zM756 1894h224l-268 -266h-140z" />
    <glyph glyph-name="Lcommaaccent" unicode="&#x13b;" 
d="M383 157h712v-157h-897v1456h185v-1299zM559 -120v73h176v-70q-1 -143 -81 -265q-28 -42 -64 -74l-105 72q74 124 74 264z" />
    <glyph glyph-name="lcommaaccent" unicode="&#x13c;" 
d="M203 1536h553v-1376h353v-160h-906v160h368v1215h-368v161zM586 -119v73h176v-70q0 -144 -80 -266q-28 -42 -65 -73l-105 72q74 124 74 264z" />
    <glyph glyph-name="Lcaron" unicode="&#x13d;" 
d="M383 157h712v-157h-897v1456h185v-1299zM797 1306v150h181v-147q0 -154 -100 -298q-32 -46 -74 -82l-101 72q94 142 94 305z" />
    <glyph glyph-name="lcaron" unicode="&#x13e;" horiz-adv-x="1379" 
d="M203 1536h553v-1376h353v-160h-906v160h368v1215h-368v161zM1068 1390v150h181v-147q0 -154 -100 -298q-32 -46 -74 -82l-101 72q94 142 94 305z" />
    <glyph glyph-name="Ldot" unicode="&#x13f;" 
d="M383 157h712v-157h-897v1456h185v-1299zM614 788q0 47 29 79t86 32t86 -32t29 -79q0 -46 -29 -78t-86 -32t-86 32t-29 78z" />
    <glyph glyph-name="ldot" unicode="&#x140;" horiz-adv-x="1449" 
d="M203 1536h553v-1376h353v-160h-906v160h368v1215h-368v161zM882 822q0 47 29 79t86 32t86 -32t29 -79q0 -46 -29 -78t-86 -32t-86 32t-29 78z" />
    <glyph glyph-name="Lslash" unicode="&#x141;" 
d="M387 157h712v-157h-897v624l-144 -45v162l144 45v670h185v-611l262 83v-162l-262 -83v-526z" />
    <glyph glyph-name="lslash" unicode="&#x142;" 
d="M756 160h353v-160h-906v160h368v566l-339 -154v162l339 154v487h-368v161h553v-563l290 132l-1 -162l-289 -132v-651z" />
    <glyph glyph-name="Nacute" unicode="&#x143;" 
d="M1086 0h-188l-565 1088l-3 -1088h-187v1456h188l565 -1086l3 1086h187v-1456zM688 1824h224l-268 -266h-140z" />
    <glyph glyph-name="nacute" unicode="&#x144;" 
d="M1065 687v-687h-185v683q0 205 -140 248q-46 14 -122 14q-76 -1 -146 -47t-113 -122v-776h-185v1082h166l13 -160q125 178 337 180q270 0 348 -228q26 -78 27 -187zM703 1502h224l-268 -266h-140z" />
    <glyph glyph-name="Ncommaaccent" unicode="&#x145;" 
d="M1086 0h-188l-565 1088l-3 -1088h-187v1456h188l565 -1086l3 1086h187v-1456zM508 -120v73h176v-70q0 -143 -80 -265q-28 -42 -65 -74l-105 72q74 124 74 264z" />
    <glyph glyph-name="ncommaaccent" unicode="&#x146;" 
d="M1065 687v-687h-185v683q0 205 -140 248q-46 14 -122 14q-76 -1 -146 -47t-113 -122v-776h-185v1082h166l13 -160q125 178 337 180q270 0 348 -228q26 -78 27 -187zM523 -120v73h176v-70q-1 -143 -81 -265q-28 -42 -64 -74l-105 72q74 124 74 264z" />
    <glyph glyph-name="Ncaron" unicode="&#x147;" 
d="M1086 0h-188l-565 1088l-3 -1088h-187v1456h188l565 -1086l3 1086h187v-1456zM901 1865v-18l-254 -248h-114l-251 245v21h157l151 -152l151 152h160z" />
    <glyph glyph-name="ncaron" unicode="&#x148;" 
d="M1065 687v-687h-185v683q0 205 -140 248q-46 14 -122 14q-76 -1 -146 -47t-113 -122v-776h-185v1082h166l13 -160q125 178 337 180q270 0 348 -228q26 -78 27 -187zM916 1543v-18l-254 -248h-114l-251 245v21h157l151 -152l151 152h160z" />
    <glyph glyph-name="napostrophe" unicode="&#x149;" 
d="M1065 687v-687h-185v683q0 205 -140 248q-46 14 -122 14q-76 -1 -146 -47t-113 -122v-776h-185v1082h166l13 -160q125 178 337 180q270 0 348 -228q26 -78 27 -187zM24 1408v150h181v-147q0 -154 -100 -298q-32 -46 -74 -82l-101 72q94 142 94 305z" />
    <glyph glyph-name="Eng" unicode="&#x14a;" 
d="M737 -285q63 0 96.5 54.5t33.5 141.5v91l-507 1067v-1069h-185v1456h185l507 -1067v1067h185l1 -1545q0 -163 -83 -255.5t-235 -92.5q-58 0 -110 18l14 147q35 -13 98 -13z" />
    <glyph glyph-name="eng" unicode="&#x14b;" 
d="M681 1102q268 0 317 -156t49 -264v-771q0 -167 -84.5 -257t-238.5 -91q-60 0 -114 18l14 157q39 -13 103 -13t99.5 48t35.5 138v767q0 143 -59 205t-177 62q-176 0 -257 -135v-810h-185v1082h166l12 -154q116 174 319 174z" />
    <glyph glyph-name="Omacron" unicode="&#x14c;" 
d="M614 1311q-64 0 -114 -23q-49 -24 -85 -62q-121 -130 -127 -414v-168q4 -190 68 -327q82 -174 259 -174q223 -1 297 279q24 92 26 222v168q-7 382 -211 476q-49 22 -113 23zM227 196q-118 185 -121 448v166q4 266 120 450q136 216 388 216t388 -216q116 -185 119 -450
v-166q-3 -267 -119 -449q-136 -215 -387 -215t-388 216zM994 1664h-714v143h714v-143z" />
    <glyph glyph-name="omacron" unicode="&#x14d;" 
d="M307 529q0 -171 80 -285t227 -114t227 114t80 285v22q0 168 -81 284q-80 115 -226 115t-227 -115q-80 -115 -80 -284v-22zM122 551q0 239 134 395t358 156t358 -156t134 -395v-22q0 -238 -134 -393q-134 -156 -358 -156q-225 0 -358 156q-134 156 -134 393v22zM975 1321
h-714v143h714v-143z" />
    <glyph glyph-name="Obreve" unicode="&#x14e;" 
d="M614 1311q-64 0 -114 -23q-49 -24 -85 -62q-121 -130 -127 -414v-168q4 -190 68 -327q82 -174 259 -174q223 -1 297 279q24 92 26 222v168q-7 382 -211 476q-49 22 -113 23zM227 196q-118 185 -121 448v166q4 266 120 450q136 216 388 216t388 -216q116 -185 119 -450
v-166q-3 -267 -119 -449q-136 -215 -387 -215t-388 216zM932 1887q0 -120 -82 -194q-82 -73 -216 -73q-135 0 -218 74q-82 74 -82 193h150q0 -102 82 -137q28 -12 68 -12q73 0 110 42q38 42 38 107h150z" />
    <glyph glyph-name="obreve" unicode="&#x14f;" 
d="M307 529q0 -171 80 -285t227 -114t227 114t80 285v22q0 168 -81 284q-80 115 -226 115t-227 -115q-80 -115 -80 -284v-22zM122 551q0 239 134 395t358 156t358 -156t134 -395v-22q0 -238 -134 -393q-134 -156 -358 -156q-225 0 -358 156q-134 156 -134 393v22zM913 1544
q0 -120 -82 -194q-83 -73 -217 -73q-135 0 -217 74t-82 193h150q0 -102 82 -137q27 -12 67 -12q73 0 111 42t38 107h150z" />
    <glyph glyph-name="Ohungarumlaut" unicode="&#x150;" 
d="M614 1311q-64 0 -114 -23q-49 -24 -85 -62q-121 -130 -127 -414v-168q4 -190 68 -327q82 -174 259 -174q223 -1 297 279q24 92 26 222v168q-7 382 -211 476q-49 22 -113 23zM227 196q-118 185 -121 448v166q4 266 120 450q136 216 388 216t388 -216q116 -185 119 -450
v-166q-3 -267 -119 -449q-136 -215 -387 -215t-388 216zM587 1887h207l-245 -269h-150zM910 1887h225l-305 -269h-169z" />
    <glyph glyph-name="ohungarumlaut" unicode="&#x151;" 
d="M307 529q0 -171 80 -285t227 -114t227 114t80 285v22q0 168 -81 284q-80 115 -226 115t-227 -115q-80 -115 -80 -284v-22zM122 551q0 239 134 395t358 156t358 -156t134 -395v-22q0 -238 -134 -393q-134 -156 -358 -156q-225 0 -358 156q-134 156 -134 393v22zM568 1544
h207l-245 -269h-150zM891 1544h225l-305 -269h-169z" />
    <glyph glyph-name="OE" unicode="&#x152;" 
d="M494 1324q-117 0 -173.5 -83.5t-56.5 -285.5v-453q0 -296 89 -333.5t142 -37.5t103 3v1186q-50 4 -104 4zM1180 1456v-152h-397v-476h344v-152h-344v-525h407v-151h-428q-177 -20 -269 -20q-191 0 -302.5 135t-111.5 387v451q0 252 111 387.5t313 135.5q103 0 259 -20
h418z" />
    <glyph glyph-name="oe" unicode="&#x153;" 
d="M742 647h273v85q0 146 -49.5 182t-83.5 36q-66 0 -103 -81.5t-37 -217.5v-4zM232 441q0 -311 158 -311t157 311v198q0 223 -58.5 267t-119.5 44t-99 -84.5t-38 -226.5v-198zM46 441v198q0 212 89.5 337.5t253.5 125.5t255 -129q92 129 243 129t232 -116.5t81 -308.5v-181
h-458v-64q0 -217 61 -259.5t104 -42.5q111 0 191 70l55 -126q-89 -94 -253 -94t-256 127q-92 -127 -254.5 -127t-253 123.5t-90.5 337.5z" />
    <glyph glyph-name="Racute" unicode="&#x154;" 
d="M365 746h248q129 2 216 75t87 204t-84 204t-224 75h-243v-558zM365 594v-594h-184v1456h427q217 -4 356 -115q138 -111 138 -317q0 -272 -273 -390l309 -622l-1 -12h-195l-286 594h-291zM714 1812h224l-268 -266h-140z" />
    <glyph glyph-name="racute" unicode="&#x155;" 
d="M883 1102q129 0 190 -26l-25 -181q-103 23 -204 23q-249 0 -329 -224v-694h-186v1082h176l9 -172q142 192 369 192zM682 1502h224l-268 -266h-140z" />
    <glyph glyph-name="Rcommaaccent" unicode="&#x156;" 
d="M365 746h248q129 2 216 75t87 204t-84 204t-224 75h-243v-558zM365 594v-594h-184v1456h427q217 -4 356 -115q138 -111 138 -317q0 -272 -273 -390l309 -622l-1 -12h-195l-286 594h-291zM532 -120v73h176v-70q0 -143 -80 -265q-28 -42 -65 -74l-105 72q74 124 74 264z
" />
    <glyph glyph-name="rcommaaccent" unicode="&#x157;" 
d="M883 1102q129 0 190 -26l-25 -181q-103 23 -204 23q-249 0 -329 -224v-694h-186v1082h176l9 -172q142 192 369 192zM346 -120v73h176v-70q0 -143 -80 -265q-28 -42 -65 -74l-105 72q74 124 74 264z" />
    <glyph glyph-name="Rcaron" unicode="&#x158;" 
d="M365 746h248q129 2 216 75t87 204t-84 204t-224 75h-243v-558zM365 594v-594h-184v1456h427q217 -4 356 -115q138 -111 138 -317q0 -272 -273 -390l309 -622l-1 -12h-195l-286 594h-291zM926 1853v-18l-254 -248h-114l-251 245v21h157l151 -152l151 152h160z" />
    <glyph glyph-name="rcaron" unicode="&#x159;" 
d="M883 1102q129 0 190 -26l-25 -181q-103 23 -204 23q-249 0 -329 -224v-694h-186v1082h176l9 -172q142 192 369 192zM895 1543v-18l-254 -248h-114l-251 245v21h157l151 -152l151 152h160z" />
    <glyph glyph-name="Sacute" unicode="&#x15a;" 
d="M936 372q0 114 -109 186q-63 42 -178 79t-195 72t-144 86q-66 51 -108 121t-41 163q0 179 143 288t335 109q191 0 336 -122q146 -122 150 -317h-190q-25 199 -183 261q-52 20 -112 20q-121 0 -203 -63q-83 -63 -83 -173q2 -154 214 -230q56 -20 106 -36q52 -16 107 -38
t106 -49q112 -61 177 -149t65 -198q0 -195 -147 -298q-147 -104 -346 -104q-198 0 -355 121t-163 319h189q18 -134 108 -208q90 -75 228 -75q191 -1 267 127q26 44 26 108zM724 1845h224l-268 -266h-140z" />
    <glyph glyph-name="sacute" unicode="&#x15b;" 
d="M332 1010q120 92 309 92q190 0 308 -97t118 -241h-185q0 73 -70 129q-70 57 -178 57q-171 0 -222 -99q-15 -29 -15 -61q0 -65 54 -102t179 -62q237 -48 343 -123q105 -75 105 -210q0 -136 -122 -224q-122 -89 -325 -89q-202 0 -329 104t-127 249h185q7 -105 88 -154
t194 -49q114 0 182 43t68 112t-59 112q-60 43 -180 67q-119 24 -195 51t-132 65q-114 79 -114 208q0 130 120 222zM726 1502h224l-268 -266h-140z" />
    <glyph glyph-name="Scircumflex" unicode="&#x15c;" 
d="M936 372q0 114 -109 186q-63 42 -178 79t-195 72t-144 86q-66 51 -108 121t-41 163q0 179 143 288t335 109q191 0 336 -122q146 -122 150 -317h-190q-25 199 -183 261q-52 20 -112 20q-121 0 -203 -63q-83 -63 -83 -173q2 -154 214 -230q56 -20 106 -36q52 -16 107 -38
t106 -49q112 -61 177 -149t65 -198q0 -195 -147 -298q-147 -104 -346 -104q-198 0 -355 121t-163 319h189q18 -134 108 -208q90 -75 228 -75q191 -1 267 127q26 44 26 108zM930 1620h-154l-150 151l-149 -151h-152v26l245 239h112l248 -240v-25z" />
    <glyph glyph-name="scircumflex" unicode="&#x15d;" 
d="M332 1010q120 92 309 92q190 0 308 -97t118 -241h-185q0 73 -70 129q-70 57 -178 57q-171 0 -222 -99q-15 -29 -15 -61q0 -65 54 -102t179 -62q237 -48 343 -123q105 -75 105 -210q0 -136 -122 -224q-122 -89 -325 -89q-202 0 -329 104t-127 249h185q7 -105 88 -154
t194 -49q114 0 182 43t68 112t-59 112q-60 43 -180 67q-119 24 -195 51t-132 65q-114 79 -114 208q0 130 120 222zM932 1277h-154l-150 151l-149 -151h-152v26l245 239h112l248 -240v-25z" />
    <glyph glyph-name="Scedilla" unicode="&#x15e;" 
d="M936 372q0 114 -109 186q-63 42 -178 79t-195 72t-144 86q-66 51 -108 121t-41 163q0 179 143 288t335 109q191 0 336 -122q146 -122 150 -317h-190q-25 199 -183 261q-52 20 -112 20q-121 0 -203 -63q-83 -63 -83 -173q2 -154 214 -230q56 -20 106 -36q52 -16 107 -38
t106 -49q112 -61 177 -149t65 -198q1 -110 -43 -183q-111 -187 -377 -215l-10 -45q153 -26 153 -173q0 -97 -79 -153t-224 -57l-7 107q112 -1 152 53q14 18 14 45q0 50 -39 70t-122 26l29 127q-166 18 -290 112q-163 125 -168 324h189q18 -134 108 -208q90 -75 228 -75
q191 -1 267 127q26 44 26 108z" />
    <glyph glyph-name="scedilla" unicode="&#x15f;" 
d="M332 1010q120 92 309 92q190 0 308 -97t118 -241h-185q0 73 -70 129q-70 57 -178 57q-171 0 -222 -99q-15 -29 -15 -61q0 -65 54 -102t179 -62q237 -48 343 -123q105 -75 105 -210q0 -136 -123 -225q-102 -74 -259 -86l-10 -42q153 -26 153 -173q0 -97 -79 -153t-224 -57
l-7 107q113 0 153 54q14 18 13 44q0 50 -39 70t-122 26l29 126q-159 17 -273 110q-115 93 -115 239h185q7 -105 88 -154t194 -49q114 0 182 43t68 112t-59 112q-60 43 -180 67q-119 24 -195 51t-132 65q-114 79 -114 208q0 130 120 222z" />
    <glyph glyph-name="Scaron" unicode="&#x160;" 
d="M936 372q0 114 -109 186q-63 42 -178 79t-195 72t-144 86q-66 51 -108 121t-41 163q0 179 143 288t335 109q191 0 336 -122q146 -122 150 -317h-190q-25 199 -183 261q-52 20 -112 20q-121 0 -203 -63q-83 -63 -83 -173q2 -154 214 -230q56 -20 106 -36q52 -16 107 -38
t106 -49q112 -61 177 -149t65 -198q0 -195 -147 -298q-147 -104 -346 -104q-198 0 -355 121t-163 319h189q18 -134 108 -208q90 -75 228 -75q191 -1 267 127q26 44 26 108zM936 1886v-18l-254 -248h-114l-251 245v21h157l151 -152l151 152h160z" />
    <glyph glyph-name="scaron" unicode="&#x161;" 
d="M332 1010q120 92 309 92q190 0 308 -97t118 -241h-185q0 73 -70 129q-70 57 -178 57q-171 0 -222 -99q-15 -29 -15 -61q0 -65 54 -102t179 -62q237 -48 343 -123q105 -75 105 -210q0 -136 -122 -224q-122 -89 -325 -89q-202 0 -329 104t-127 249h185q7 -105 88 -154
t194 -49q114 0 182 43t68 112t-59 112q-60 43 -180 67q-119 24 -195 51t-132 65q-114 79 -114 208q0 130 120 222zM938 1543v-18l-254 -248h-114l-251 245v21h157l151 -152l151 152h160z" />
    <glyph glyph-name="uni0162" unicode="&#x162;" 
d="M1156 1298h-450v-1298h-13l-12 -52q153 -26 153 -173q0 -97 -79 -153t-224 -57l-7 107q112 0 152 54q14 18 14 44q0 50 -39 70t-122 26l31 134h-34v1298h-450v158h1080v-158z" />
    <glyph glyph-name="uni0163" unicode="&#x163;" 
d="M814 137q89 0 225 32l26 -131q-89 -54 -279 -58l-7 -32q153 -26 153 -173q0 -97 -79 -153t-224 -57l-7 107q112 0 152 54q14 18 14 44q0 50 -39 70t-122 26l30 128q-149 38 -205 186q-26 70 -26 171v588h-284v143h284v262h186v-262h412v-143h-412v-588q0 -214 202 -214z
" />
    <glyph glyph-name="Tcaron" unicode="&#x164;" 
d="M1156 1298h-450v-1298h-180v1298h-450v158h1080v-158zM936 1853v-18l-254 -248h-114l-251 245v21h157l151 -152l151 152h160z" />
    <glyph glyph-name="tcaron" unicode="&#x165;" horiz-adv-x="1269" 
d="M814 137q89 0 225 32l26 -131q-95 -58 -297 -58q-240 0 -316 200q-26 70 -26 171v588h-284v143h284v262h186v-262h412v-143h-412v-588q0 -214 202 -214zM967 1565v150h181v-147q0 -154 -100 -298q-32 -46 -74 -82l-101 72q94 142 94 305z" />
    <glyph glyph-name="Tbar" unicode="&#x166;" 
d="M941 823h-235v-823h-180v823h-222v151h222v324h-450v158h1080v-158h-450v-324h235v-151z" />
    <glyph glyph-name="tbar" unicode="&#x167;" 
d="M814 137q89 0 225 32l26 -131q-95 -58 -297 -58q-240 0 -291 135.5t-51 235.5v251h-217v151h217v186h-284v143h284v262h186v-262h412v-143h-412v-186h234v-151h-234v-251q0 -214 202 -214z" />
    <glyph glyph-name="Utilde" unicode="&#x168;" 
d="M273 121q-132 141 -134 349l2 986h176l4 -986q2 -137 80 -235t213 -98q136 0 212 97t80 236l3 986h179l2 -986q-4 -208 -138 -349q-133 -141 -340 -141t-339 141zM650 1656q-72 48 -123 47t-79 -33t-29 -78l-104 24q0 92 59 160q59 69 147 69q55 -1 113 -33t92 -47
q32 -15 62 -15q52 0 82 33t30 79l103 -30q0 -92 -58 -158t-141 -66q-82 0 -154 48z" />
    <glyph glyph-name="utilde" unicode="&#x169;" 
d="M180 439v643h185v-645q1 -244 125 -287q40 -14 93 -14q212 0 286 170v776h186v-1082h-168l-11 149q-114 -169 -322 -169q-270 0 -348 252q-26 86 -26 207zM604 1326q-72 48 -123 47t-79 -33t-29 -78l-104 24q0 92 59 160q59 69 147 69q55 -1 113 -33q60 -32 92 -47
t62 -15q52 0 82 33t30 79l103 -30q0 -92 -58 -158t-141 -66q-82 0 -154 48z" />
    <glyph glyph-name="Umacron" unicode="&#x16a;" 
d="M273 121q-132 141 -134 349l2 986h176l4 -986q2 -137 80 -235t213 -98q136 0 212 97t80 236l3 986h179l2 -986q-4 -208 -138 -349q-133 -141 -340 -141t-339 141zM1020 1631h-714v143h714v-143z" />
    <glyph glyph-name="umacron" unicode="&#x16b;" 
d="M180 439v643h185v-645q1 -244 125 -287q40 -14 93 -14q212 0 286 170v776h186v-1082h-168l-11 149q-114 -169 -322 -169q-270 0 -348 252q-26 86 -26 207zM974 1302h-714v143h714v-143z" />
    <glyph glyph-name="Ubreve" unicode="&#x16c;" 
d="M273 121q-132 141 -134 349l2 986h176l4 -986q2 -137 80 -235t213 -98q136 0 212 97t80 236l3 986h179l2 -986q-4 -208 -138 -349q-133 -141 -340 -141t-339 141zM958 1854q0 -120 -82 -194q-82 -73 -216 -73q-135 0 -218 74q-82 74 -82 193h150q0 -102 82 -137
q28 -12 68 -12q73 0 110 42q38 42 38 107h150z" />
    <glyph glyph-name="ubreve" unicode="&#x16d;" 
d="M180 439v643h185v-645q1 -244 125 -287q40 -14 93 -14q212 0 286 170v776h186v-1082h-168l-11 149q-114 -169 -322 -169q-270 0 -348 252q-26 86 -26 207zM913 1524q0 -120 -82 -194q-83 -73 -217 -73q-135 0 -217 74t-82 193h150q0 -102 82 -137q27 -12 67 -12
q73 0 111 42t38 107h150z" />
    <glyph glyph-name="Uring" unicode="&#x16e;" 
d="M273 121q-132 141 -134 349l2 986h176l4 -986q2 -137 80 -235t213 -98q136 0 212 97t80 236l3 986h179l2 -986q-4 -208 -138 -349q-133 -141 -340 -141t-339 141zM553 1733q1 -35 9 -54t22 -33t34 -23q19 -8 41 -8q43 0 73 30q30 31 30 77t-30 76t-73 31q-44 -1 -75 -31
t-31 -65zM454 1720q0 44 16 80t44 62t66 42q38 15 79 15q43 0 79 -15q36 -16 64 -42t43 -62q16 -36 16 -80q0 -43 -16 -79q-15 -35 -43 -61t-64 -40t-79 -14q-41 0 -79 14t-66 40t-44 61q-16 36 -16 79z" />
    <glyph glyph-name="uring" unicode="&#x16f;" 
d="M180 439v643h185v-645q1 -244 125 -287q40 -14 93 -14q212 0 286 170v776h186v-1082h-168l-11 149q-114 -169 -322 -169q-270 0 -348 252q-26 86 -26 207zM508 1403q0 -35 8 -54t24 -33q14 -14 33 -23q19 -8 41 -8q43 0 73 30q30 31 30 77q1 46 -29 76t-74 31
q-44 -1 -75 -31t-31 -65zM409 1390q1 44 17 80t44 62t64 42q38 15 80 15t78 -15q36 -16 64 -42t44 -62t16 -80q0 -43 -16 -79q-16 -35 -44 -61t-64 -40t-78 -14t-80 14t-64 40q-28 26 -44 61q-16 36 -17 79z" />
    <glyph glyph-name="Uhungarumlaut" unicode="&#x170;" 
d="M273 121q-132 141 -134 349l2 986h176l4 -986q2 -137 80 -235t213 -98q136 0 212 97t80 236l3 986h179l2 -986q-4 -208 -138 -349q-133 -141 -340 -141t-339 141zM613 1854h207l-245 -269h-150zM936 1854h225l-305 -269h-169z" />
    <glyph glyph-name="uhungarumlaut" unicode="&#x171;" 
d="M180 439v643h185v-645q1 -244 125 -287q40 -14 93 -14q212 0 286 170v776h186v-1082h-168l-11 149q-114 -169 -322 -169q-270 0 -348 252q-26 86 -26 207zM567 1524h207l-245 -269h-150zM890 1524h225l-305 -269h-169z" />
    <glyph glyph-name="Uogonek" unicode="&#x172;" 
d="M524 -196q0 91 78 177q-203 4 -332 144.5t-131 344.5l2 986h176l4 -986q2 -137 79.5 -235t213.5 -98t212 96.5t80 236.5l3 986h179l2 -986q-2 -147 -74 -266.5t-197 -178.5q-134 -86 -134 -197q0 -75 78 -75q46 -1 101 26l31 -121q-77 -44 -178 -44q-133 0 -163 71.5
t-30 118.5z" />
    <glyph glyph-name="uogonek" unicode="&#x173;" 
d="M882 -219q0 -75 78 -75q46 -1 101 26l31 -121q-77 -44 -178 -44q-133 0 -163 71.5t-30 127.5t43.5 122.5t121.5 120.5l-10 140q-114 -169 -322 -169q-270 0 -322 169t-52 290v643h185v-645q0 -244 82.5 -272.5t135.5 -28.5q212 0 286 170v776h186v-1082h-1
q-172 -93 -172 -219z" />
    <glyph glyph-name="Wcircumflex" unicode="&#x174;" 
d="M896 394l111 1062h175l-177 -1456h-189l-187 1097l-189 -1097h-190l-177 1456h176l111 -1062l187 1062h161zM925 1599h-154l-150 151l-149 -151h-152v26l245 239h112l248 -240v-25z" />
    <glyph glyph-name="wcircumflex" unicode="&#x175;" 
d="M338 392l22 -155l27 155l173 690h119l172 -690l29 -170l27 170l120 690h164l-230 -1082h-146l-169 663l-28 168l-27 -168l-167 -663h-146l-230 1082h164zM924 1257h-154l-150 151l-149 -151h-152v26l245 239h112l248 -240v-25z" />
    <glyph glyph-name="Ycircumflex" unicode="&#x176;" 
d="M603 725l332 731h210l-453 -913l-3 -543h-172l-3 543l-453 913h211zM913 1598h-154l-150 151l-149 -151h-152v26l245 239h112l248 -240v-25z" />
    <glyph glyph-name="ycircumflex" unicode="&#x177;" 
d="M390 -410q-56 -27 -113 -27t-130 16l30 151l88 -5q93 0 167 131q18 31 28 51l74 144l-466 1031h207l297 -698l48 -131l330 829h207l-549 -1249q-49 -108 -106 -162q-56 -54 -112 -81zM937 1257h-154l-150 151l-149 -151h-152v26l245 239h112l248 -240v-25z" />
    <glyph glyph-name="Ydieresis" unicode="&#x178;" 
d="M603 725l332 731h210l-453 -913l-3 -543h-172l-3 543l-453 913h211zM713 1716q-1 44 27 75t82 31t82 -31t28 -75t-28 -76q-28 -30 -82 -30t-82 30q-28 32 -27 76zM283 1717q-1 45 27 75t82 31q54 -1 82 -31t28 -75t-28 -75t-82 -30t-82 30t-27 75z" />
    <glyph glyph-name="Zacute" unicode="&#x179;" 
d="M1079 157v-157h-963l-2 144l725 1154h-712v158h923l2 -141l-727 -1158h754zM751 1812h224l-268 -266h-140z" />
    <glyph glyph-name="zacute" unicode="&#x17a;" 
d="M1085 151v-151h-925v136l646 793h-637v153h880v-131l-653 -800h689zM748 1482h224l-268 -266h-140z" />
    <glyph glyph-name="Zdotaccent" unicode="&#x17b;" 
d="M1079 157v-157h-963l-2 144l725 1154h-712v158h923l2 -141l-727 -1158h754zM537 1694q0 47 29 79t86 32t86 -32t29 -79q0 -46 -29 -78t-86 -32t-86 32t-29 78z" />
    <glyph glyph-name="zdotaccent" unicode="&#x17c;" 
d="M1085 151v-151h-925v136l646 793h-637v153h880v-131l-653 -800h689zM534 1364q0 47 29 79t86 32t86 -32t29 -79q0 -46 -29 -78t-86 -32t-86 32t-29 78z" />
    <glyph glyph-name="Zcaron" unicode="&#x17d;" 
d="M1079 157v-157h-963l-2 144l725 1154h-712v158h923l2 -141l-727 -1158h754zM963 1853v-18l-254 -248h-114l-251 245v21h157l151 -152l151 152h160z" />
    <glyph glyph-name="zcaron" unicode="&#x17e;" 
d="M1085 151v-151h-925v136l646 793h-637v153h880v-131l-653 -800h689zM960 1523v-18l-254 -248h-114l-251 245v21h157l151 -152l151 152h160z" />
    <glyph glyph-name="longs" unicode="&#x17f;" 
d="M912 1427q-126 0 -198 -80t-72 -221v-1126h-186v1126q0 216 116.5 334.5t317.5 118.5q59 0 145 -21l-23 -142q-39 11 -100 11z" />
    <glyph glyph-name="florin" unicode="&#x192;" 
d="M683 1082h212v-143h-212v-991q0 -280 -139 -332.5t-226 -52.5t-158 36l14 148q44 -32 138 -32t139.5 62t46.5 171v991h-177v143h177v99q0 191 111.5 294.5t305.5 103.5q75 0 183 -39l-23 -147q-58 29 -137 29q-253 -2 -255 -241v-99z" />
    <glyph glyph-name="Ohorn" unicode="&#x1a0;" 
d="M606 1311q-64 0 -113 -23t-127.5 -107t-84.5 -369v-168q4 -190 77 -345.5t273 -155.5t249 185.5t51 315.5v168q-7 383 -134 441t-191 58zM606 1476q210 0 343 -155q103 34 105 209h167q2 -257 -193 -330q81 -163 86 -390v-166q-3 -267 -129 -465.5t-377 -198.5
t-378.5 200.5t-130.5 463.5v166q3 265 129 465.5t378 200.5z" />
    <glyph glyph-name="ohorn" unicode="&#x1a1;" 
d="M304 529q0 -171 80 -285t227 -114t227 114t80 285v22q0 168 -81 283.5t-227 115.5t-226 -114.5t-80 -284.5v-22zM1103 551v-22q0 -238 -133.5 -393.5t-358.5 -155.5t-358.5 155.5t-133.5 393.5v22q0 239 134 395t357 156q186 0 315 -112q105 33 105 204h168
q-2 -245 -178 -319q83 -138 83 -324z" />
    <glyph glyph-name="Uhorn" unicode="&#x1af;" 
d="M1088 1456v-184q88 12 122 68t34 172h167q0 -180 -78 -272.5t-244 -103.5l1 -666q-4 -208 -137.5 -349t-340.5 -141t-339 141.5t-134 348.5l2 986h176l4 -986q2 -137 79.5 -235t213.5 -98t212 96.5t80 236.5l3 986h179z" />
    <glyph glyph-name="uhorn" unicode="&#x1b0;" 
d="M583 136q212 0 286 170v776h186v-141q68 18 94 73.5t26 156.5h168q-1 -170 -71 -260t-217 -109v-802h-168l-11 149q-114 -169 -322 -169q-270 0 -322 169t-52 290v643h185v-645q0 -244 82.5 -272.5t135.5 -28.5z" />
    <glyph glyph-name="uni01F0" unicode="&#x1f0;" 
d="M342 -280q84 0 130 14q152 45 152 259v928h-364v161h550v-1089q0 -313 -244 -401q-78 -28 -188 -29q-109 0 -202 17l13 152q69 -12 153 -12zM1019 1513v-18l-254 -248h-114l-251 245v21h157l151 -152l151 152h160z" />
    <glyph glyph-name="Aringacute" unicode="&#x1fa;" 
d="M433 538h387l-192 632zM869 377h-486l-117 -377h-185l470 1456h155l462 -1456h-184zM632 1588q36 0 60 25t24 61t-24 62q-24 25 -60 25t-60 -25q-25 -26 -25 -62t25 -61q24 -25 60 -25zM512 1792q51 48 121 48t119 -48t49 -118q0 -71 -49 -118q-49 -46 -119 -46
q-71 0 -121 46q-51 46 -51 118q0 70 51 118zM734 2072h198l-220 -184h-124z" />
    <glyph glyph-name="aringacute" unicode="&#x1fb;" 
d="M683 525q-342 0 -342 -199q0 -129 122 -171q41 -14 95 -14q101 0 182 48t115 117v219h-172zM858 118q-138 -138 -316 -138t-282 91t-104 229q0 174 133 265t364 91h202v85q0 97 -69 155t-181 57q-112 0 -176 -50q-65 -50 -65 -121h-186q2 126 121 223t310 97
q299 0 398 -204q33 -68 33 -159v-503q0 -125 38 -220v-16h-193q-20 38 -27 118zM628 1266q36 0 60 25t24 61t-24 62q-24 25 -60 25t-60 -25q-25 -26 -25 -62t25 -61q24 -25 60 -25zM508 1470q51 48 121 48t119 -48t49 -118q0 -71 -49 -118q-49 -46 -119 -46q-71 0 -121 46
q-51 46 -51 118q0 70 51 118zM730 1750h198l-220 -184h-124z" />
    <glyph glyph-name="AEacute" unicode="&#x1fc;" 
d="M414 527h249l-2 706zM1195 0h-531l-1 353h-310l-123 -353h-198l560 1456h580v-152h-337l2 -471h302v-151h-302l1 -531h357v-151zM809 1824h224l-268 -266h-140z" />
    <glyph glyph-name="aeacute" unicode="&#x1fd;" 
d="M450 495q-103 0 -164 -63q-62 -63 -62 -139q0 -77 28 -108q50 -55 120 -55t140 72l-1 293h-61zM734 882q-43 -68 -46 -173v-69h329v128q0 74 -30 113q-54 69 -132 69t-121 -68zM43 298q0 153 104 245t301 92h63v148q0 167 -130 167q-63 0 -102 -42t-39 -116l-179 8
q1 138 87 220q87 82 243 82q157 0 235 -107q90 107 242 107t239 -100q86 -100 86 -271v-234h-505v-86q0 -281 244 -281q96 0 198 70l46 -136q-109 -84 -280 -84q-202 0 -297 146q-96 -146 -264 -146q-138 0 -215 82q-77 83 -77 236zM746 1503h224l-268 -266h-140z" />
    <glyph glyph-name="Oslashacute" unicode="&#x1fe;" 
d="M404 231q79 -88 203 -88q223 -1 297 279q24 92 26 222v168q-2 143 -35 249zM831 1193q-82 118 -226 118q-223 1 -297 -279q-26 -100 -28 -220v-168q2 -172 53 -294zM607 -20q-168 0 -290 103l-104 -176h-142l160 270q-133 192 -133 467v166q4 266 120 450
q136 216 387 216q190 0 318 -128l99 168h142l-161 -272q105 -177 110 -434v-166q-3 -267 -119 -449q-136 -215 -387 -215zM717 1886h224l-268 -266h-140z" />
    <glyph glyph-name="oslashacute" unicode="&#x1ff;" 
d="M921 551q0 181 -89 294l-340 -689q55 -26 127 -26q142 0 222 114t80 285v22zM610 950q-142 0 -223 -115q-80 -115 -80 -284v-22q0 -191 96 -305l342 694q-61 32 -135 32zM122 529v22q0 239 134 395t357 156q111 0 203 -41l73 148h123l-101 -205q95 -75 145 -192t50 -261
v-22q0 -238 -134 -393q-134 -156 -350 -156q-107 0 -199 36l-74 -151h-123l101 205q-99 73 -152 192t-53 267zM674 1501h224l-268 -266h-140z" />
    <glyph glyph-name="uni0218" unicode="&#x218;" 
d="M936 372q0 114 -109 186q-63 42 -178 79t-195 72t-144 86q-66 51 -108 121t-41 163q0 179 143 288t335 109q191 0 336 -122q146 -122 150 -317h-190q-25 199 -183 261q-52 20 -112 20q-121 0 -203 -63q-83 -63 -83 -173q2 -154 214 -230q56 -20 106 -36q52 -16 107 -38
t106 -49q112 -61 177 -149t65 -198q0 -195 -147 -298q-147 -104 -346 -104q-198 0 -355 121t-163 319h189q18 -134 108 -208q90 -75 228 -75q191 -1 267 127q26 44 26 108zM557 -140v73h176v-70q-1 -143 -81 -265q-28 -42 -64 -74l-105 72q74 124 74 264z" />
    <glyph glyph-name="uni0219" unicode="&#x219;" 
d="M332 1010q120 92 309 92q190 0 308 -97t118 -241h-185q0 73 -70 129q-70 57 -178 57q-171 0 -222 -99q-15 -29 -15 -61q0 -65 54 -102t179 -62q237 -48 343 -123q105 -75 105 -210q0 -136 -122 -224q-122 -89 -325 -89q-202 0 -329 104t-127 249h185q7 -105 88 -154
t194 -49q114 0 182 43t68 112t-59 112q-60 43 -180 67q-119 24 -195 51t-132 65q-114 79 -114 208q0 130 120 222zM544 -139v73h176v-70q0 -144 -80 -266q-28 -42 -65 -73l-105 72q74 124 74 264z" />
    <glyph glyph-name="uni021A" unicode="&#x21a;" 
d="M1156 1298h-450v-1298h-180v1298h-450v158h1080v-158zM539 -130v73h176v-70q-1 -143 -81 -265q-28 -42 -64 -74l-105 72q74 124 74 264z" />
    <glyph glyph-name="uni021B" unicode="&#x21b;" 
d="M814 137q89 0 225 32l26 -131q-95 -58 -297 -58q-240 0 -316 200q-26 70 -26 171v588h-284v143h284v262h186v-262h412v-143h-412v-588q0 -214 202 -214zM637 -130v73h176v-70q-1 -143 -81 -265q-28 -42 -64 -74l-105 72q74 124 74 264z" />
    <glyph glyph-name="uni0237" unicode="&#x237;" 
d="M342 -280q84 0 183 29.5t99 243.5v928h-364v161h550v-1089q0 -313 -161.5 -371.5t-270.5 -58.5t-202 17l13 152q69 -12 153 -12z" />
    <glyph glyph-name="schwa" unicode="&#x259;" 
d="M826 216q78 84 101 217h-565v-26q0 -117 70 -196t193 -79t201 84zM208 969q145 134 389 134q245 0 383.5 -152t138.5 -389v-44q0 -231 -143 -385t-339 -152q-226 0 -343 131.5t-117 350.5v121h756q-6 160 -90.5 264t-233.5 104q-201 0 -328 -108z" />
    <glyph glyph-name="uni02BC" unicode="&#x2bc;" 
d="M555 1408v150h181v-147q0 -154 -100 -298q-32 -46 -74 -82l-101 72q94 142 94 305z" />
    <glyph glyph-name="circumflex" unicode="&#x2c6;" 
d="M798 1252h-154l-150 151l-149 -151h-152v26l245 239h112l248 -240v-25z" />
    <glyph glyph-name="caron" unicode="&#x2c7;" 
d="M923 1517v-18l-254 -248h-114l-251 245v21h157l151 -152l151 152h160z" />
    <glyph glyph-name="breve" unicode="&#x2d8;" 
d="M913 1458q0 -120 -81.5 -193.5t-217.5 -73.5q-135 0 -217 74t-82 193h150q0 -102 54.5 -125.5t94.5 -23.5q73 0 111 42t38 107h150z" />
    <glyph glyph-name="dotaccent" unicode="&#x2d9;" 
d="M498 1359q0 47 29 79t86 32t86 -32t29 -79t-29 -78.5t-86 -31.5t-86 31.5t-29 78.5z" />
    <glyph glyph-name="ring" unicode="&#x2da;" 
d="M509 1325q0 -35 8.5 -54t23 -33.5t33.5 -22.5t51.5 -8t62.5 30.5t30 76.5t-29.5 76.5t-73.5 30.5t-75 -30.5t-31 -65.5zM410 1312q0 43 16.5 79.5t44 63t65 41.5t79.5 15t78.5 -15t64 -41.5t43.5 -63t16 -79.5t-16 -79t-43.5 -61.5t-64 -39.5t-78.5 -14t-79.5 14
t-65 39.5t-44 61.5t-16.5 79z" />
    <glyph glyph-name="ogonek" unicode="&#x2db;" 
d="M559 -219q0 -75 78 -75q46 -1 101 26l31 -121q-77 -44 -178 -44q-133 0 -163 71.5t-30 115.5q0 84 67 166t179 136l87 -56q-172 -93 -172 -219z" />
    <glyph glyph-name="tilde" unicode="&#x2dc;" 
d="M473 1314.5q-72 47.5 -123 47.5q-50 0 -78.5 -32.5t-29.5 -78.5l-104 24q0 92 59 160.5t147 68.5q55 0 113.5 -32.5t91 -47.5t62.5 -15q52 0 82 33.5t30 78.5l103 -30q0 -92 -58.5 -158t-140.5 -66t-154 47.5z" />
    <glyph glyph-name="hungarumlaut" unicode="&#x2dd;" 
d="M434 1519h207l-245 -269h-150zM757 1519h225l-305 -269h-169z" />
    <glyph glyph-name="uni02F3" unicode="&#x2f3;" 
d="M582 -298q27 0 46 19t19 47t-19 47.5t-46 19.5t-46.5 -19.5t-19.5 -47.5t19.5 -47t46.5 -19zM474 -126.5q45 41.5 92 41.5q48 0 75 -11t47.5 -30.5t32.5 -47t12 -75.5t-44 -88.5t-91 -40.5t-75 10.5t-61 40.5t-33 94.5t45 106z" />
    <glyph glyph-name="gravecomb" unicode="&#x300;" horiz-adv-x="1106" 
d="M-517 1212h-126l-179 346h178z" />
    <glyph glyph-name="acutecomb" unicode="&#x301;" horiz-adv-x="1106" 
d="M-534 1559h172l-186 -347h-116z" />
    <glyph glyph-name="tildecomb" unicode="&#x303;" horiz-adv-x="1106" 
d="M-553 1314q-72 48 -123 48q-50 0 -78 -32t-30 -79l-104 24q0 92 59 160q59 69 147 69q55 0 113 -32q59 -32 91 -48q32 -15 63 -15q52 0 82 33t30 79l103 -30q0 -92 -58 -158t-141 -66q-82 -1 -154 47z" />
    <glyph glyph-name="hook" unicode="&#x309;" horiz-adv-x="1106" 
d="M-513 1468q0 78 -166 78l7 106q144 0 223.5 -50t79.5 -138q0 -130 -155 -152l-1 -71h-132l-1 153q71 5 108 19t37 55z" />
    <glyph glyph-name="uni030F" unicode="&#x30f;" horiz-adv-x="1106" 
d="M-283 1252h-150l-246 266h207zM-544 1252h-169l-306 266h225z" />
    <glyph glyph-name="dotbelow" unicode="&#x323;" horiz-adv-x="1106" 
d="M-729 -234q0 47 29 79t86 32t86 -32t29 -79t-29 -78.5t-86 -31.5t-86 31.5t-29 78.5z" />
    <glyph glyph-name="tonos" unicode="&#x384;" 
d="M618 1658h195l-170 -387h-90z" />
    <glyph glyph-name="dieresistonos" unicode="&#x385;" 
d="M782 1361q0 47 28.5 79t85.5 32t86 -32t29 -79t-29 -79t-86 -32t-85.5 32t-28.5 79zM275 1361q0 47 28.5 79t85.5 32t86 -32t29 -79t-29 -79t-86 -32t-85.5 32t-28.5 79zM628 1727h205l-118 -264h-135z" />
    <glyph glyph-name="Alphatonos" unicode="&#x386;" 
d="M433 538h387l-192 632zM869 377h-486l-117 -377h-185l470 1456h155l462 -1456h-184zM298 1658h195l-170 -387h-90z" />
    <glyph glyph-name="anoteleia" unicode="&#x387;" 
d="M560 730q0 48 29 79q29 32 85 32t86 -32q30 -31 30 -79t-30 -80t-86 -31q-56 -1 -85 31t-29 80z" />
    <glyph glyph-name="Epsilontonos" unicode="&#x388;" horiz-adv-x="1329" 
d="M1075 673h-608v-516h709v-157h-894v1456h885v-158h-700v-468h608v-157zM80 1658h195l-170 -387h-90z" />
    <glyph glyph-name="Etatonos" unicode="&#x389;" horiz-adv-x="1329" 
d="M1187 0h-175v673h-597v-673h-174v1456h174v-626h597v626h175v-1456zM62 1660h195l-170 -387h-90z" />
    <glyph glyph-name="Iotatonos" unicode="&#x38a;" horiz-adv-x="1329" 
d="M274 1456h880v-161h-349v-1135h349v-160h-880v160h341v1135h-341v161zM45 1660h195l-170 -387h-90z" />
    <glyph glyph-name="Omicrontonos" unicode="&#x38c;" horiz-adv-x="1249" 
d="M634 1311q-64 0 -114 -23q-49 -24 -85 -62q-121 -130 -127 -414v-168q4 -190 68 -327q82 -174 259 -174q223 -1 297 279q24 92 26 222v168q-7 382 -211 476q-49 22 -113 23zM247 196q-118 185 -121 448v166q4 266 120 450q136 216 388 216t388 -216q116 -185 119 -450
v-166q-3 -267 -119 -449q-136 -215 -387 -215t-388 216zM74 1658h195l-170 -387h-90z" />
    <glyph glyph-name="Upsilontonos" unicode="&#x38e;" horiz-adv-x="1329" 
d="M703 725l332 731h210l-453 -913l-3 -543h-172l-3 543l-453 913h211zM-13 1658h195l-170 -387h-90z" />
    <glyph glyph-name="Omegatonos" unicode="&#x38f;" horiz-adv-x="1249" 
d="M964 759v81q0 354 -192 453q-62 32 -140 32q-155 0 -242 -127q-88 -127 -88 -358v-81q2 -251 72 -394t199 -172v-193h-452v151h262q-123 93 -194 260q-72 167 -72 348v79q0 283 142 460q141 178 373 178t375 -178q142 -178 142 -460v-79q0 -180 -70 -347t-193 -261h266
v-151h-452v193q128 29 196 173t68 393zM70 1658h195l-170 -387h-90z" />
    <glyph glyph-name="iotadieresistonos" unicode="&#x390;" 
d="M536 332v589h-352v161h537l1 -760q0 -165 104 -182q30 -5 84 -5t131 45l41 -130q-99 -70 -245 -70q-147 0 -224 80t-77 272zM754 1292q0 47 28 79t86 32q57 0 86 -32t29 -79t-29 -79t-86 -32q-58 0 -86 32t-28 79zM247 1292q1 47 29 79t85 32t86 -32t29 -79t-29 -79
t-86 -32t-85 32t-29 79zM600 1658h205l-118 -264h-135z" />
    <glyph glyph-name="Alpha" unicode="&#x391;" 
d="M433 538h387l-192 632zM869 377h-486l-117 -377h-185l470 1456h155l462 -1456h-184z" />
    <glyph glyph-name="Beta" unicode="&#x392;" 
d="M358 835h258q113 2 195 65q83 63 83 173t-81 167q-81 56 -202 58h-253v-463zM358 681v-524h285q118 2 204 72q85 70 86 190q1 119 -78 188q-79 70 -202 74h-295zM172 0v1456h433q200 -2 338 -99q139 -97 136 -296t-224 -295q185 -54 245 -225q20 -55 20 -139t-40 -162
t-107 -130q-137 -107 -335 -110h-466z" />
    <glyph glyph-name="Gamma" unicode="&#x393;" 
d="M1072 1304h-705v-1304h-186v1456h891v-152z" />
    <glyph glyph-name="Delta" unicode="&#x394;" 
d="M286 151h681l-326 1052zM564 1456h160l480 -1456h-1158z" />
    <glyph glyph-name="Delta" unicode="&#x2206;" 
d="M286 151h681l-326 1052zM564 1456h160l480 -1456h-1158z" />
    <glyph glyph-name="Epsilon" unicode="&#x395;" 
d="M975 673h-608v-516h709v-157h-894v1456h885v-158h-700v-468h608v-157z" />
    <glyph glyph-name="Zeta" unicode="&#x396;" 
d="M1079 157v-157h-963l-2 144l725 1154h-712v158h923l2 -141l-727 -1158h754z" />
    <glyph glyph-name="Eta" unicode="&#x397;" 
d="M1087 0h-175v673h-597v-673h-174v1456h174v-626h597v626h175v-1456z" />
    <glyph glyph-name="Theta" unicode="&#x398;" 
d="M614 1311q-64 0 -113.5 -23t-128 -107t-84.5 -369v-168q4 -190 77 -345.5t273 -155.5t249 185.5t51 315.5v168q-7 383 -133.5 441t-190.5 58zM236.5 180.5q-127.5 200.5 -130.5 463.5v166q3 265 129 465.5t378.5 200.5t378.5 -200t129 -466v-166q-3 -267 -129 -465.5
t-377 -198.5t-378.5 200.5zM845 660h-464v151h464v-151z" />
    <glyph glyph-name="Iota" unicode="&#x399;" 
d="M174 1456h880v-161h-349v-1135h349v-160h-880v160h341v1135h-341v161z" />
    <glyph glyph-name="Kappa" unicode="&#x39a;" 
d="M361 0h-189v1456h189v-711l568 711h225l-509 -637l543 -819h-225l-440 676l-162 -184v-492z" />
    <glyph glyph-name="Lambda" unicode="&#x39b;" 
d="M618 1180l-375 -1180h-189l484 1456h161l485 -1456h-189z" />
    <glyph glyph-name="Mu" unicode="&#x39c;" 
d="M1100 1456v-1456h-180v581l15 608l-269 -784h-106l-247 763l15 -587v-581h-180v1456h229l237 -728l256 728h230z" />
    <glyph glyph-name="Nu" unicode="&#x39d;" 
d="M1086 0h-188l-565 1088l-3 -1088h-187v1456h188l565 -1086l3 1086h187v-1456z" />
    <glyph glyph-name="Xi" unicode="&#x39e;" 
d="M147 1456h918v-152h-918v152zM230 830h754v-152h-754v152zM145 151h934v-151h-934v151z" />
    <glyph glyph-name="Omicron" unicode="&#x39f;" 
d="M614 1311q-64 0 -114 -23q-49 -24 -85 -62q-121 -130 -127 -414v-168q4 -190 68 -327q82 -174 259 -174q223 -1 297 279q24 92 26 222v168q-7 382 -211 476q-49 22 -113 23zM227 196q-118 185 -121 448v166q4 266 120 450q136 216 388 216t388 -216q116 -185 119 -450
v-166q-3 -267 -119 -449q-136 -215 -387 -215t-388 216z" />
    <glyph glyph-name="Pi" unicode="&#x3a0;" 
d="M1066 0h-185v1304h-534v-1304h-185v1456h904v-1456z" />
    <glyph glyph-name="Rho" unicode="&#x3a1;" 
d="M376 736h287q130 2 213 77q84 75 84 205q0 129 -83 206q-83 78 -214 80h-287v-568zM376 584v-584h-185v1456h472q206 -4 344 -119t138 -317t-139 -318t-343 -118h-287z" />
    <glyph glyph-name="Sigma" unicode="&#x3a3;" 
d="M1135 152v-152h-1023v144l485 585l-485 583v144h973v-152h-743l451 -562v-25l-452 -565h794z" />
    <glyph glyph-name="Tau" unicode="&#x3a4;" 
d="M1156 1298h-450v-1298h-180v1298h-450v158h1080v-158z" />
    <glyph glyph-name="Upsilon" unicode="&#x3a5;" 
d="M603 725l332 731h210l-453 -913l-3 -543h-172l-3 543l-453 913h211z" />
    <glyph glyph-name="Phi" unicode="&#x3a6;" 
d="M904 984q-71 100 -197 114v-750q126 14 197 114.5t71 261.5q0 160 -71 260zM323.5 460.5q71.5 -100.5 198.5 -112.5v750q-128 -14 -199 -114.5t-71 -261.5t71.5 -261.5zM1030.5 357.5q-128.5 -147.5 -323.5 -161.5v-196h-185v196q-197 14 -325 159t-128 367
q0 223 128.5 368.5t324.5 159.5v206h185v-206q197 -16 324.5 -161.5t127.5 -364.5t-128.5 -366.5z" />
    <glyph glyph-name="Chi" unicode="&#x3a7;" 
d="M625 885l314 571h218l-423 -722l433 -734h-216l-322 582l-323 -582h-219l434 734l-423 722h217z" />
    <glyph glyph-name="Psi" unicode="&#x3a8;" 
d="M953 842v614h185v-614q0 -228 -115 -361.5t-312 -156.5v-324h-185v324q-301 35 -363 217.5t-62 300.5v614h185v-614q0 -233 93 -291.5t147 -70.5v976h185v-977q173 38 207.5 160.5t34.5 202.5z" />
    <glyph glyph-name="Omega" unicode="&#x3a9;" 
d="M944 759v81q0 354 -127 419.5t-205 65.5q-155 0 -242.5 -127t-87.5 -358v-81q1 -251 71.5 -394t199.5 -172v-193h-452v151h262q-123 93 -194.5 260t-71.5 348v79q0 283 142 460.5t373.5 177.5t374 -178.5t142.5 -459.5v-79q0 -180 -70 -347.5t-193 -260.5h266v-151h-452
v193q128 29 196 173t68 393z" />
    <glyph glyph-name="Omega" unicode="&#x2126;" 
d="M944 759v81q0 354 -127 419.5t-205 65.5q-155 0 -242.5 -127t-87.5 -358v-81q1 -251 71.5 -394t199.5 -172v-193h-452v151h262q-123 93 -194.5 260t-71.5 348v79q0 283 142 460.5t373.5 177.5t374 -178.5t142.5 -459.5v-79q0 -180 -70 -347.5t-193 -260.5h266v-151h-452
v193q128 29 196 173t68 393z" />
    <glyph glyph-name="Iotadieresis" unicode="&#x3aa;" 
d="M174 1456h880v-161h-349v-1135h349v-160h-880v160h341v1135h-341v161zM671 1716q-1 44 27 76q28 31 82 31t82 -31q28 -32 28 -76t-28 -74t-82 -31q-54 1 -82 31t-27 74zM241 1718q-1 46 27 76t82 30t82 -30t28 -76q0 -45 -28 -75t-82 -30t-82 30t-27 75z" />
    <glyph glyph-name="Upsilondieresis" unicode="&#x3ab;" 
d="M603 725l332 731h210l-453 -913l-3 -543h-172l-3 543l-453 913h211zM713 1716q-1 44 27 75t82 31t82 -31t28 -75t-28 -76q-28 -30 -82 -30t-82 30q-28 32 -27 76zM283 1717q-1 45 27 75t82 31q54 -1 82 -31t28 -75t-28 -75t-82 -30t-82 30t-27 75z" />
    <glyph glyph-name="alphatonos" unicode="&#x3ac;" 
d="M822 808q-87 142 -233 142t-211 -121q-64 -121 -64 -308v-21q0 -255 141 -340q50 -30 121 -30q160 0 246 147v531zM1007 1082v-805q0 -132 80 -132q22 0 52 6l23 -138q-50 -34 -122 -34q-152 0 -198 141q-110 -141 -306 -141q-195 0 -301 144t-106 377v21q0 259 106 420
t303 161t308 -147l49 127h112zM633 1662h195l-170 -387h-90z" />
    <glyph glyph-name="epsilontonos" unicode="&#x3ad;" 
d="M344 786q0 -160 274 -160h243v-148h-243q-145 0 -219 -40t-74 -126q0 -85 81 -134t218 -49q138 1 224 57q86 57 87 134h185q-4 -218 -257 -304q-104 -35 -222 -36q-231 0 -367 86q-135 86 -135 238q0 188 219 252q-96 36 -148 96t-52 136q0 151 126 232t334 81
q209 0 346 -88q136 -88 138 -233h-185q0 73 -85 122t-181 49q-164 0 -235 -46q-72 -46 -72 -119zM638 1661h195l-170 -387h-90z" />
    <glyph glyph-name="etatonos" unicode="&#x3ae;" 
d="M1067 685v-1100h-186v1096q0 145 -64 207t-191 62q-191 0 -276 -142v-808h-186v1082h167l13 -160q117 178 337 180q386 0 386 -417zM646 1662h195l-170 -387h-90z" />
    <glyph glyph-name="iotatonos" unicode="&#x3af;" 
d="M536 332v589h-352v161h537l1 -760q0 -165 104 -182q30 -5 84 -5t131 45l41 -130q-99 -70 -245 -70q-147 0 -224 80t-77 272zM632 1642h195l-170 -387h-90z" />
    <glyph glyph-name="upsilondieresistonos" unicode="&#x3b0;" 
d="M973 1082q114 -238 114 -504t-108 -422q-123 -176 -360 -176q-339 0 -430 268q-31 92 -31 217v617h185v-619q0 -333 267 -333q143 0 217 129q75 129 75 303q-5 235 -124 520h195zM718 1292q0 47 28 79t86 32q57 0 86 -32t29 -79t-29 -79t-86 -32q-58 0 -86 32t-28 79z
M211 1292q1 47 29 79t85 32t86 -32t29 -79t-29 -79t-86 -32t-85 32t-29 79zM564 1658h205l-118 -264h-135z" />
    <glyph glyph-name="alpha" unicode="&#x3b1;" 
d="M822 808q-87 142 -233 142t-210.5 -121t-64.5 -308v-21q0 -255 95.5 -312.5t166.5 -57.5q160 0 246 147v531zM1007 1082v-805q0 -132 80 -132q22 0 52 6l23 -138q-50 -34 -122 -34q-152 0 -198 141q-110 -141 -306 -141q-195 0 -301 144.5t-106 376.5v21q0 259 106 420
t303 161t308 -147l49 127h112z" />
    <glyph glyph-name="beta" unicode="&#x3b2;" 
d="M642 130q133 0 210.5 81t77.5 201q0 121 -70.5 207.5t-185.5 86.5h-143v152h84q186 0 216.5 89t30.5 137q0 100 -66 170.5t-177 70.5t-185 -73t-74 -179v-827q98 -116 282 -116zM360 -384h-186v1457q0 164 131 283.5t320 119.5q188 0 305 -109.5t117 -283.5
q0 -92 -49 -167.5t-137 -122.5q121 -44 187.5 -141t66.5 -216q0 -220 -126.5 -338.5t-318.5 -118.5q-191 0 -310 96v-459z" />
    <glyph glyph-name="gamma" unicode="&#x3b3;" 
d="M716 -416h-186v470l-459 1028h190l340 -784l24 -97l26 97l333 784h190l-458 -1035v-463z" />
    <glyph glyph-name="delta" unicode="&#x3b4;" 
d="M306 509q0 -259 118 -319t200 -60q153 0 234.5 107t81.5 272v21q0 130 -88.5 243.5t-224.5 136.5q-154 2 -237.5 -108t-83.5 -272v-21zM470 999q-207 84 -207 281q0 127 102.5 205.5t262.5 78.5t328 -85l-41 -130q-161 63 -284 63t-152 -54t-29 -80q0 -113 233 -192
q443 -147 443 -556v-21q0 -231 -135.5 -380t-366.5 -149q-232 0 -368 148.5t-136 380.5v21q0 169 98 296t248 162z" />
    <glyph glyph-name="epsilon" unicode="&#x3b5;" 
d="M344 786q0 -160 274 -160h243v-148h-243q-145 0 -219 -40.5t-74 -125.5t80.5 -134t218.5 -49t224.5 56.5t86.5 134.5h185q-4 -218 -182.5 -279t-296.5 -61q-231 0 -366.5 86t-135.5 238q0 188 219 252q-95 35 -147.5 95.5t-52.5 136.5q0 151 125.5 232t334.5 81
t345.5 -87.5t138.5 -233.5h-185q0 73 -85 122t-181 49q-164 0 -235.5 -46t-71.5 -119z" />
    <glyph glyph-name="zeta" unicode="&#x3b6;" 
d="M752 -299q99 109 99 184t-155 106l-181 35q-261 47 -298 166.5t-37 188.5q0 271 355 607l306 316h-724v152h954v-120l-409 -427q-159 -152 -228 -259.5t-69 -251.5q0 -99 46 -148t136 -67l221 -50q139 -31 200 -71t60 -150t-75.5 -191.5t-102.5 -103.5z" />
    <glyph glyph-name="eta" unicode="&#x3b7;" 
d="M1067 685v-1100h-186v1096q0 144 -64 206.5t-191 62.5q-191 0 -276 -142v-808h-186v1082h167l13 -160q117 178 337 180q386 0 386 -417z" />
    <glyph glyph-name="theta" unicode="&#x3b8;" 
d="M863 939q-1 386 -247 386t-246 -386v-129h493v129zM370 518q0 -388 246.5 -388t246.5 388v141h-493v-141zM1048 557q0 -420 -164 -498.5t-266 -78.5q-205 0 -319 151t-114 426v341q0 274 112.5 426.5t318.5 152.5q207 0 319.5 -152.5t112.5 -426.5v-341z" />
    <glyph glyph-name="iota" unicode="&#x3b9;" 
d="M536 332v589h-352v161h537l1 -760q0 -165 67 -176t121 -11t131 45l41 -130q-99 -70 -245 -70q-147 0 -224 80t-77 272z" />
    <glyph glyph-name="kappa" unicode="&#x3ba;" 
d="M371 0h-185v1082h185v-531l110 120l398 411h223l-456 -479l492 -603h-234l-383 477l-150 -133v-344z" />
    <glyph glyph-name="lambda" unicode="&#x3bb;" 
d="M1062 144h16q16 0 38 5l-2 -151q-28 -15 -73 -15q-100 0 -170.5 64.5t-120.5 202.5l-212 555l-29 -119l-246 -686h-206l395 1032l-55 143q-35 89 -77 140t-104 51q-1 0 -66 -5l-1 142q54 15 115 15q204 0 305 -270l362 -950q32 -107 73.5 -130.5t57.5 -23.5z" />
    <glyph glyph-name="uni03BC" unicode="&#x3bc;" 
d="M373 -416h-185v1498h185v-622q-1 -271 131 -316q40 -14 89 -14q199 0 261 153v799h186v-1082h-167l-9 116q-92 -136 -251 -136q-158 0 -240 73v-469z" />
    <glyph glyph-name="nu" unicode="&#x3bd;" 
d="M598 266l17 -67l18 67l303 816h189l-441 -1082h-141l-445 1082h190z" />
    <glyph glyph-name="xi" unicode="&#x3be;" 
d="M516 842q-276 89 -276 307q0 66 76.5 196.5t465.5 130.5q149 0 259 -39l-26 -149q-137 36 -231 36q-178 0 -268 -52.5t-90 -135.5q0 -219 382 -219h142v-152h-142q-221 0 -334.5 -78t-113.5 -243q0 -126 93.5 -200.5t244.5 -101.5l111 -25q54 -13 101.5 -25.5t103.5 -48
t55 -143.5t-75.5 -189.5t-101.5 -103.5l-97 84q57 64 77 97.5t20 82.5q0 48 -39 69.5t-116 38.5l-58 13q-250 48 -377 147t-127 315t131 291t210 97z" />
    <glyph glyph-name="omicron" unicode="&#x3bf;" 
d="M307 529q0 -171 80 -285t227 -114t227 114t80 285v22q0 168 -81 284q-80 115 -226 115t-227 -115q-80 -115 -80 -284v-22zM122 551q0 239 134 395t358 156t358 -156t134 -395v-22q0 -238 -134 -393q-134 -156 -358 -156q-225 0 -358 156q-134 156 -134 393v22z" />
    <glyph glyph-name="pi" unicode="&#x3c0;" 
d="M1193 32q-75 -51 -188 -51t-173 67.5t-60 229.5v651h-366v-929h-185v929h-132v153h1011v-153h-143v-661q0 -113 40.5 -122t73.5 -9t81 25z" />
    <glyph glyph-name="rho" unicode="&#x3c1;" 
d="M909 500v21q0 296 -101 362.5t-164 66.5t-103 -16t-85 -56.5t-75.5 -128t-30.5 -172.5v-293q89 -154 273 -154q145 0 215.5 104t70.5 266zM350 -416h-185v994q0 247 132.5 385.5t345.5 138.5t332 -160t119 -421v-21q0 -232 -109 -376t-311 -144t-324 132v-528z" />
    <glyph glyph-name="sigma1" unicode="&#x3c2;" 
d="M120 520v42q0 225 133 382.5t349 157.5t343 -106t127 -287h-175q0 105 -73.5 173t-217.5 68t-222 -116t-78 -272v-42q0 -222 134 -290t223 -80q195 -27 286 -79.5t91 -175.5q-3 -160 -106.5 -229t-148.5 -89l-77 123q155 70 155 186q1 51 -55 75.5t-175 40.5
q-246 34 -379.5 170t-133.5 348z" />
    <glyph glyph-name="sigma" unicode="&#x3c3;" 
d="M294 529q0 -171 75.5 -285t222.5 -114q146 0 222 113t76 286v22q0 162 -76 270t-222 108t-222 -108t-76 -270v-22zM1075 514v-23q0 -208 -131 -359.5t-354 -151.5q-222 0 -351.5 155t-129.5 394v22q0 233 130.5 382t351.5 149h567v-153h-283q200 -148 200 -415z" />
    <glyph glyph-name="tau" unicode="&#x3c4;" 
d="M533 334v590h-360v158h901v-158h-355l-1 -600q0 -164 64.5 -176t97.5 -12q78 0 148 44l41 -131q-95 -70 -241 -70q-145 0 -220 81t-75 274z" />
    <glyph glyph-name="upsilon" unicode="&#x3c5;" 
d="M973 1082q114 -238 114 -504t-115.5 -432t-352.5 -166q-339 0 -400 180t-61 305v617h185v-619q0 -333 267 -333q143 0 217.5 129.5t74.5 302.5q-5 235 -124 520h195z" />
    <glyph glyph-name="phi" unicode="&#x3c6;" 
d="M774 929q-62 0 -64 -87v-701q125 34 186.5 147.5t61.5 255.5q-7 254 -72.5 319.5t-111.5 65.5zM525 835q0 103 63.5 175t185.5 72q154 0 261.5 -156t107.5 -382q0 -346 -158 -445t-275 -114v-463h-185v464q-210 28 -312.5 182.5t-102.5 350.5q0 384 251 563l101 -133
q-157 -143 -167 -404q0 -226 83.5 -305t146.5 -97v692z" />
    <glyph glyph-name="chi" unicode="&#x3c7;" 
d="M621 681l289 401h217l-403 -535l414 -547h-214l-299 412l-299 -412h-216l414 547l-403 535h214z" />
    <glyph glyph-name="psi" unicode="&#x3c8;" 
d="M1152 567q0 -368 -163.5 -468t-288.5 -114v-457h-185v459q-307 43 -362.5 256t-55.5 353v486h185v-488q0 -386 233 -452v940h185v-942q137 34 202 154.5t65 272.5q-3 234 -89 515h195q79 -235 79 -515z" />
    <glyph glyph-name="omega" unicode="&#x3c9;" 
d="M385 130q142 0 142 341v299h186v-299q0 -175 37.5 -258t103.5 -83q122 0 122 430q-4 238 -105 522h194q96 -233 96 -522q0 -396 -107 -488t-190 -92q-178 0 -244 211q-68 -211 -244 -211q-155 0 -226 164.5t-71 434.5t96 503h194q-101 -284 -105 -522q0 -296 43.5 -363
t77.5 -67z" />
    <glyph glyph-name="iotadieresis" unicode="&#x3ca;" 
d="M536 332v589h-352v161h537l1 -760q0 -165 104 -182q30 -5 84 -5t131 45l41 -130q-99 -70 -245 -70q-147 0 -224 80t-77 272zM722 1374q0 44 28 75t81 31q54 0 82 -31t28 -75t-28 -76q-28 -30 -82 -30q-53 0 -81 30q-28 32 -28 76zM292 1375q0 45 28 75t81 31
q54 -1 82 -31t28 -75t-28 -75t-82 -30q-53 0 -81 30t-28 75z" />
    <glyph glyph-name="upsilondieresis" unicode="&#x3cb;" 
d="M973 1082q114 -238 114 -504t-108 -422q-123 -176 -360 -176q-339 0 -430 268q-31 92 -31 217v617h185v-619q0 -333 267 -333q143 0 217 129q75 129 75 303q-5 235 -124 520h195zM687 1374q-1 44 27 75t82 31t82 -31t28 -75t-28 -76q-28 -30 -82 -30t-82 30
q-28 32 -27 76zM257 1375q-1 45 27 75t82 31q54 -1 82 -31t28 -75t-28 -75t-82 -30t-82 30t-27 75z" />
    <glyph glyph-name="omicrontonos" unicode="&#x3cc;" 
d="M307 529q0 -171 80 -285t227 -114t227 114t80 285v22q0 168 -81 284q-80 115 -226 115t-227 -115q-80 -115 -80 -284v-22zM122 551q0 239 134 395t358 156t358 -156t134 -395v-22q0 -238 -134 -393q-134 -156 -358 -156q-225 0 -358 156q-134 156 -134 393v22zM627 1662
h195l-170 -387h-90z" />
    <glyph glyph-name="upsilontonos" unicode="&#x3cd;" 
d="M973 1082q114 -238 114 -504t-108 -422q-123 -176 -360 -176q-339 0 -430 268q-31 92 -31 217v617h185v-619q0 -333 267 -333q143 0 217 129q75 129 75 303q-5 235 -124 520h195zM597 1642h195l-170 -387h-90z" />
    <glyph glyph-name="omegatonos" unicode="&#x3ce;" 
d="M385 130q142 0 142 341v299h186v-299q-1 -175 37 -258t104 -83q122 0 122 430q-4 238 -105 522h194q96 -233 96 -522q0 -396 -157 -531q-57 -49 -140 -49q-178 0 -244 211q-68 -211 -244 -211q-155 0 -232 179q-65 150 -65 420t96 503h194q-101 -284 -105 -522
q0 -296 64 -394q23 -36 57 -36zM639 1642h195l-170 -387h-90z" />
    <glyph glyph-name="uni03D1" unicode="&#x3d1;" 
d="M848 1105q0 215 -152 215q-67 0 -107.5 -44.5t-40.5 -144.5v-17q0 -200 114.5 -267.5t185.5 -83.5v342zM1033 435q0 -215 -116 -335t-318 -120t-324.5 125t-122.5 330v334l186 2v-336q0 -213 101 -255.5t163 -42.5q118 -1 182 73.5t64 224.5v166q-219 32 -352.5 173.5
t-133.5 341.5v15q0 159 92 253t247 94t243.5 -99t88.5 -274v-353q59 5 135 24l9 -149q-67 -24 -144 -32v-160z" />
    <glyph glyph-name="uni03D2" unicode="&#x3d2;" 
d="M147 1467q98 0 159 -52t112 -176l179 -407l24 -88l24 88l180 407q75 182 145 205t125 23t93 -24l-22 -149q-14 9 -46 9q-74 0 -110 -78l-296 -645v-580h-184v576l-298 649q-36 78 -112 78q-29 0 -43 -9l-23 149q38 24 93 24z" />
    <glyph glyph-name="uni03D6" unicode="&#x3d6;" 
d="M366 130q141 0 141 341v251h186v-251q0 -341 141 -341q102 0 102 301q-4 233 -87 498h-499q-83 -265 -87 -498q0 -301 103 -301zM356 -20q-279 0 -279 484q0 228 74 465h-105v153h1128v-153h-126q74 -245 74 -497q0 -311 -100.5 -381.5t-178.5 -70.5q-178 0 -244 212
q-67 -212 -243 -212z" />
    <glyph glyph-name="uni0400" unicode="&#x400;" 
d="M975 673h-608v-516h709v-157h-894v1456h885v-158h-700v-468h608v-157zM700 1561h-150l-248 266h223z" />
    <glyph glyph-name="uni0401" unicode="&#x401;" 
d="M975 673h-608v-516h709v-157h-894v1456h885v-158h-700v-468h608v-157zM722 1716q0 44 28 76q28 31 81 31q54 0 82 -31q28 -32 28 -76t-28 -74t-82 -31q-53 1 -81 31t-28 74zM292 1718q0 46 28 76t81 30q54 0 82 -30t28 -76q0 -45 -28 -75t-82 -30q-53 0 -81 30t-28 75z
" />
    <glyph glyph-name="uni0402" unicode="&#x402;" 
d="M695 693q-32 0 -62 -2l-60 -4v-687h-184v1304h-347v152h1043v-152h-512v-455q90 6 122 6q214 0 333.5 -121.5t119.5 -328.5t-101 -311.5t-293 -104.5l-2 145q210 0 210 262q-1 139 -65.5 218t-201.5 79z" />
    <glyph glyph-name="uni0403" unicode="&#x403;" 
d="M1072 1304h-705v-1304h-186v1456h891v-152zM722 1824h224l-268 -266h-140z" />
    <glyph glyph-name="uni0404" unicode="&#x404;" 
d="M129 572v313q0 266 137 429t368 163q339 0 413 -178t84 -288h-185q-31 236 -134 275.5t-180 39.5q-150 0 -234 -121.5t-84 -317.5v-75h571v-152h-571v-88q0 -196 84 -318.5t236 -122.5q216 0 259 115.5t53 192.5h185q-21 -210 -149 -334.5t-350 -124.5q-230 0 -366.5 164
t-136.5 428z" />
    <glyph glyph-name="uni0405" unicode="&#x405;" 
d="M936 372q0 115 -86 171.5t-201 93.5t-194.5 72t-145 86t-107 120.5t-41.5 206t143.5 245.5t334.5 109t336.5 -122t149.5 -317h-190q-25 199 -130 240t-165 41q-121 0 -203.5 -63t-82.5 -173q2 -154 135 -202t185 -64t107 -37.5t136.5 -66t146.5 -132.5t65 -198
q0 -195 -147.5 -298.5t-345.5 -103.5t-355 121t-163 319h189q18 -134 108 -208.5t228 -74.5q191 0 242 85.5t51 149.5z" />
    <glyph glyph-name="uni0406" unicode="&#x406;" 
d="M174 1456h880v-161h-349v-1135h349v-160h-880v160h341v1135h-341v161z" />
    <glyph glyph-name="uni0407" unicode="&#x407;" 
d="M174 1456h880v-161h-349v-1135h349v-160h-880v160h341v1135h-341v161zM671 1716q-1 44 27 76q28 31 82 31t82 -31q28 -32 28 -76t-28 -74t-82 -31q-54 1 -82 31t-27 74zM241 1718q-1 46 27 76t82 30t82 -30t28 -76q0 -45 -28 -75t-82 -30t-82 30t-27 75z" />
    <glyph glyph-name="uni0408" unicode="&#x408;" 
d="M857 1456h189v-1013q-4 -202 -138 -332q-134 -131 -336 -131t-329 119t-145 322h188q6 -123 83 -204q77 -80 204 -80t204 88q76 88 80 218v1013z" />
    <glyph glyph-name="uni0409" unicode="&#x409;" 
d="M747 735v-584h91q120 0 139.5 119.5t19.5 173.5q0 122 -39 206.5t-120 84.5h-91zM747 1456v-569h91q163 0 253 -124.5t90 -319.5t-89.5 -319t-253.5 -124h-276v1304h-197l-1 -532q0 -579 -108.5 -675.5t-193.5 -96.5h-32v151h22q72 0 99.5 157.5t28.5 463.5l3 684h564z
" />
    <glyph glyph-name="uni040A" unicode="&#x40a;" 
d="M749 687v-526h49q94 0 137.5 75t43.5 221.5t-65 188t-116 41.5h-49zM315 825h250v631h184v-617h49q177 0 271 -114.5t94 -301t-94.5 -305t-270.5 -118.5h-233v673h-250v-673h-184v1456h184v-631z" />
    <glyph glyph-name="uni040B" unicode="&#x40b;" 
d="M1128 457v-457h-185v457q0 197 -88.5 223.5t-146.5 26.5t-110 -6v-701h-185v1304h-346v152h1021v-152h-490v-452q62 9 108 7q422 0 422 -402z" />
    <glyph glyph-name="uni040C" unicode="&#x40c;" 
d="M361 0h-189v1456h189v-711l568 711h225l-509 -637l543 -819h-225l-440 676l-162 -184v-492zM720 1806h224l-268 -266h-140z" />
    <glyph glyph-name="uni040D" unicode="&#x40d;" 
d="M1066 1456v-1456h-185l1 1073l-535 -1073h-185v1456h185l-1 -1072l535 1072h185zM687 1549h-150l-248 266h223z" />
    <glyph glyph-name="uni040E" unicode="&#x40e;" 
d="M499 285l42 85l-498 1086h208l308 -697l71 -191l360 888h215l-535 -1216q-55 -124 -135 -192q-80 -69 -215 -69t-217 35l24 141q108 -25 174 -25q126 0 198 155zM946 1866q0 -120 -82 -194q-82 -73 -216 -73q-135 0 -218 74q-82 74 -82 193h150q0 -102 82 -137
q28 -12 68 -12q73 0 110 42q38 42 38 107h150z" />
    <glyph glyph-name="uni040F" unicode="&#x40f;" 
d="M162 1456h185v-1305h534v1305h185v-1456h-355v-359h-185v359h-364v1456z" />
    <glyph glyph-name="uni0410" unicode="&#x410;" 
d="M433 538h387l-192 632zM869 377h-486l-117 -377h-185l470 1456h155l462 -1456h-184z" />
    <glyph glyph-name="uni0411" unicode="&#x411;" 
d="M348 706v-555h266q147 0 223.5 80.5t76.5 203.5q0 187 -111 229t-189 42h-266zM1053 1304h-705v-447h266q230 0 358 -114.5t128 -310.5t-129 -314t-357 -118h-452v1456h891v-152z" />
    <glyph glyph-name="uni0412" unicode="&#x412;" 
d="M358 835h258q113 2 195 65q83 63 83 173t-81 167q-81 56 -202 58h-253v-463zM358 681v-524h285q118 2 204 72q85 70 86 190q1 119 -78 188q-79 70 -202 74h-295zM172 0v1456h433q200 -2 338 -99q139 -97 136 -296t-224 -295q185 -54 245 -225q20 -55 20 -139t-40 -162
t-107 -130q-137 -107 -335 -110h-466z" />
    <glyph glyph-name="uni0413" unicode="&#x413;" 
d="M1072 1304h-705v-1304h-186v1456h891v-152z" />
    <glyph glyph-name="uni0414" unicode="&#x414;" 
d="M832 151v1153h-287l-22 -433q-19 -508 -139 -720h448zM959 -357v357h-705v-359h-157l-27 510h65q182 119 201 720l32 585h649v-1305h127l-18 -508h-167z" />
    <glyph glyph-name="uni0415" unicode="&#x415;" 
d="M975 673h-608v-516h709v-157h-894v1456h885v-158h-700v-468h608v-157z" />
    <glyph glyph-name="uni0416" unicode="&#x416;" 
d="M709 651v-651h-183v651h-62l-205 -651h-230l269 727l-230 729h215l174 -653h69v653h183v-653h62l173 653h216l-232 -727l270 -729h-229l-206 651h-54z" />
    <glyph glyph-name="uni0417" unicode="&#x417;" 
d="M950 402q0 264 -335 264h-183v152h183q159 1 236 68.5t77 180.5t-85 185.5t-228 72.5t-231.5 -72t-88.5 -178h-185q0 182 143.5 291.5t347.5 109.5q365 0 439 -156t74 -258t-64 -184.5t-174 -130.5q260 -87 260 -341q0 -200 -148.5 -313.5t-372.5 -113.5t-375 109
t-151 316h186q0 -116 92 -195t243 -79t245.5 75t94.5 197z" />
    <glyph glyph-name="uni0418" unicode="&#x418;" 
d="M1066 1456v-1456h-185l1 1073l-535 -1073h-185v1456h185l-1 -1072l535 1072h185z" />
    <glyph glyph-name="uni0419" unicode="&#x419;" 
d="M1066 1456v-1456h-185l1 1073l-535 -1073h-185v1456h185l-1 -1072l535 1072h185zM906 1854q0 -120 -82 -194q-82 -73 -216 -73q-135 0 -218 74q-82 74 -82 193h150q0 -102 82 -137q28 -12 68 -12q73 0 110 42q38 42 38 107h150z" />
    <glyph glyph-name="uni041A" unicode="&#x41a;" 
d="M354 659v-659h-185v1456h185v-646h156l443 646h212l-495 -705l536 -751h-227l-454 659h-171z" />
    <glyph glyph-name="uni041B" unicode="&#x41b;" 
d="M1067 1456v-1456h-185v1304h-421l-2 -624q0 -508 -130.5 -594t-230.5 -86h-51v151h40q102 0 144.5 134.5t42.5 394.5l4 776h789z" />
    <glyph glyph-name="uni041C" unicode="&#x41c;" 
d="M1100 1456v-1456h-180v581l15 608l-269 -784h-106l-247 763l15 -587v-581h-180v1456h229l237 -728l256 728h230z" />
    <glyph glyph-name="uni041D" unicode="&#x41d;" 
d="M1087 0h-175v673h-597v-673h-174v1456h174v-626h597v626h175v-1456z" />
    <glyph glyph-name="uni041E" unicode="&#x41e;" 
d="M614 1311q-64 0 -114 -23q-49 -24 -85 -62q-121 -130 -127 -414v-168q4 -190 68 -327q82 -174 259 -174q223 -1 297 279q24 92 26 222v168q-7 382 -211 476q-49 22 -113 23zM227 196q-118 185 -121 448v166q4 266 120 450q136 216 388 216t388 -216q116 -185 119 -450
v-166q-3 -267 -119 -449q-136 -215 -387 -215t-388 216z" />
    <glyph glyph-name="uni041F" unicode="&#x41f;" 
d="M1066 0h-185v1304h-534v-1304h-185v1456h904v-1456z" />
    <glyph glyph-name="uni0420" unicode="&#x420;" 
d="M376 736h287q130 2 213 77q84 75 84 205q0 129 -83 206q-83 78 -214 80h-287v-568zM376 584v-584h-185v1456h472q206 -4 344 -119t138 -317t-139 -318t-343 -118h-287z" />
    <glyph glyph-name="uni0421" unicode="&#x421;" 
d="M625 1476q213 0 340 -126t152 -340h-185q-30 222 -180 290q-54 24 -124 25t-120 -21t-86 -59q-67 -68 -98 -180t-31 -234v-205q0 -192 67 -329q82 -167 265 -167q265 0 307 308h185q-27 -208 -156 -333t-329 -125q-342 0 -470 335q-53 140 -55 311v203q3 265 125 445
q136 202 393 202z" />
    <glyph glyph-name="uni0422" unicode="&#x422;" 
d="M1156 1298h-450v-1298h-180v1298h-450v158h1080v-158z" />
    <glyph glyph-name="uni0423" unicode="&#x423;" 
d="M499 285l42 85l-498 1086h208l308 -697l71 -191l360 888h215l-535 -1216q-55 -124 -135 -192.5t-215 -68.5t-217 35l24 141q108 -25 174 -25q126 0 198 155z" />
    <glyph glyph-name="uni0424" unicode="&#x424;" 
d="M904 984q-71 100 -197 114v-750q126 14 197 114q71 101 71 262q0 160 -71 260zM323 460q71 -100 199 -112v750q-128 -14 -199 -114q-71 -101 -71 -262q0 -162 71 -262zM1031 358q-128 -148 -324 -162v-196h-185v196q-197 14 -325 159t-128 367q0 223 129 369
q129 145 324 159v206h185v-206q197 -16 325 -161q127 -145 127 -365q0 -218 -128 -366z" />
    <glyph glyph-name="uni0425" unicode="&#x425;" 
d="M625 885l314 571h218l-423 -722l433 -734h-216l-322 582l-323 -582h-219l434 734l-423 722h217z" />
    <glyph glyph-name="uni0426" unicode="&#x426;" 
d="M166 1456h185v-1305h521v1305h185v-1300h147l-18 -507h-166v351h-854v1456z" />
    <glyph glyph-name="uni0427" unicode="&#x427;" 
d="M579 704q140 0 299 53v699h185v-1456h-185v603q-140 -51 -268 -51t-283.5 50t-155.5 398v456h185v-456q0 -239 83 -267.5t140 -28.5z" />
    <glyph glyph-name="uni0428" unicode="&#x428;" 
d="M310 1456v-1305h213v1305h184v-1305h213v1305h184v-1456h-979v1456h185z" />
    <glyph glyph-name="uni0429" unicode="&#x429;" 
d="M310 1456v-1305h213v1305h184v-1305h149v1h64v1304h184v-1304h90l-18 -503h-165v351h-886v1456h185z" />
    <glyph glyph-name="uni042A" unicode="&#x42a;" 
d="M540 706v-555h144q137 0 206 80.5t69 203.5q0 187 -101 229t-174 42h-144zM50 1456h490v-599h144q219 0 340 -115t121 -309t-121.5 -313.5t-339.5 -119.5h-329v1304h-305v152z" />
    <glyph glyph-name="uni042B" unicode="&#x42b;" 
d="M329 706v-555h92q104 0 153.5 81t49.5 203q0 186 -74 228.5t-129 42.5h-92zM1099 0h-185v1456h185v-1456zM329 857h92q186 0 287.5 -114t101.5 -310t-102 -314.5t-287 -118.5h-277v1456h185v-599z" />
    <glyph glyph-name="uni042C" unicode="&#x42c;" 
d="M353 706v-555h266q147 0 223.5 80.5t76.5 203.5q0 187 -111 229t-189 42h-266zM353 857h266q230 0 358 -114.5t128 -310.5t-129 -314t-357 -118h-451v1456h185v-599z" />
    <glyph glyph-name="uni042D" unicode="&#x42d;" 
d="M596 131q149 0 237.5 119.5t88.5 310.5v90h-484v151h484v93q0 193 -87.5 312t-234.5 119t-223 -90t-78 -246h-185q2 209 133.5 348t355.5 139t364 -160t140 -423v-332q0 -262 -140.5 -422t-365.5 -160q-226 0 -355.5 131.5t-131.5 353.5h185q3 -237 113 -285.5t184 -48.5
z" />
    <glyph glyph-name="uni042E" unicode="&#x42e;" 
d="M945 942q0 188 -40.5 282t-140.5 94q-129 0 -145 -141t-16 -235v-427q0 -290 58 -334t106 -44q96 0 137 92t41 286v427zM1130 515q0 -390 -137.5 -462.5t-225.5 -72.5q-172 0 -260.5 139t-88.5 396v122h-114v-637h-185v1456h185v-668h114v152q0 392 130 464t218 72
q178 0 271 -139.5t93 -396.5v-425z" />
    <glyph glyph-name="uni042F" unicode="&#x42f;" 
d="M303 1039q0 -124 83 -201.5t236 -77.5h255v544h-249q-238 0 -281.5 -102.5t-43.5 -162.5zM118 1036q0 200 137 310t373 110h434v-1456h-185v607h-310l-305 -607h-197l341 658q-288 105 -288 378z" />
    <glyph glyph-name="uni0430" unicode="&#x430;" 
d="M683 525q-342 0 -342 -199q0 -129 122 -171q41 -14 95 -14q101 0 182 48t115 117v219h-172zM858 118q-138 -138 -316 -138t-282 91t-104 229q0 174 133 265t364 91h202v85q0 97 -69 155t-181 57q-112 0 -176 -50q-65 -50 -65 -121h-186q2 126 121 223t310 97
q299 0 398 -204q33 -68 33 -159v-503q0 -125 38 -220v-16h-193q-20 38 -27 118z" />
    <glyph glyph-name="uni0431" unicode="&#x431;" 
d="M390 771q-76 -97 -76 -241v-23q0 -162 76 -269.5t221 -107.5t222 107t77 270v23q0 145 -77 241.5t-222 96.5t-221 -97zM288 850q147 170 355 170t330 -137.5t122 -352.5v-23q0 -231 -129.5 -379t-353 -148t-353.5 149t-130 378v99q0 524 188.5 644t270.5 136
q156 29 217 61t61 106h152q0 -177 -89.5 -230.5t-158.5 -68t-126 -26.5q-142 -31 -235 -117.5t-121 -260.5z" />
    <glyph glyph-name="uni0432" unicode="&#x432;" 
d="M848 775q0 157 -259 157h-239v-309h241q257 0 257 152zM658 149q228 0 228 164q0 78 -58.5 120t-169.5 42h-308v-326h308zM164 0v1082h425q320 0 382 -110t62 -187t-45 -136t-131 -91q100 -23 157.5 -92t57.5 -152q0 -157 -109.5 -235.5t-304.5 -78.5h-494z" />
    <glyph glyph-name="uni0433" unicode="&#x433;" 
d="M1066 929h-697v-929h-186v1082h883v-153z" />
    <glyph glyph-name="uni0434" unicode="&#x434;" 
d="M854 151v760h-334l-9 -235q-23 -386 -99 -525h442zM1039 1082v-931h139l-18 -469h-167v318h-755v-318h-166l-18 469h102q115 16 139 212.5t31 312.5l16 406h697z" />
    <glyph glyph-name="uni0435" unicode="&#x435;" 
d="M636 950q-122 0 -206 -82q-83 -82 -104 -228h582v14q-12 196 -158 270q-50 26 -114 26zM1079 189q-139 -209 -445 -209q-96 0 -192 39t-163 109q-144 148 -144 375v42q0 252 148 404q148 153 360 153q211 0 331 -147q119 -147 119 -384v-83h-773q6 -152 100 -254
q94 -103 242 -103q191 0 304 146z" />
    <glyph glyph-name="uni0436" unicode="&#x436;" 
d="M699 470v-470h-185v470h-59l-215 -470h-223l297 563l-262 519h214l189 -448h59v448h185v-448h59l190 448h214l-264 -519l298 -563h-224l-215 470h-58z" />
    <glyph glyph-name="uni0437" unicode="&#x437;" 
d="M911 304q0 170 -275 170h-241v156h241q256 0 256 156q0 70 -70.5 117.5t-191.5 47.5t-207 -49t-86 -122h-185q2 145 138.5 233t338.5 88q201 0 324.5 -81t123.5 -233q0 -75 -53 -135.5t-144 -95.5q218 -66 218 -252q0 -151 -133 -237t-335 -86t-348.5 86t-146.5 253h185
q0 -78 88 -135t216 -57t207.5 50.5t79.5 125.5z" />
    <glyph glyph-name="uni0438" unicode="&#x438;" 
d="M1063 1082v-1082h-185v798l-529 -798h-184v1082h184v-799l529 799h185z" />
    <glyph glyph-name="uni0439" unicode="&#x439;" 
d="M1063 1082v-1082h-185v798l-529 -798h-184v1082h184v-799l529 799h185zM901 1523q0 -120 -82 -194q-83 -73 -217 -73q-135 0 -217 74t-82 193h150q0 -102 82 -137q27 -12 67 -12q73 0 111 42t38 107h150z" />
    <glyph glyph-name="uni043A" unicode="&#x43a;" 
d="M349 461v-461h-185v1082h185v-458h160l403 458h225l-464 -521l500 -561h-235l-413 461h-176z" />
    <glyph glyph-name="uni043B" unicode="&#x43b;" 
d="M1062 1082v-1082h-186v929h-398l-1 -310q0 -310 -82 -464.5t-286 -154.5h-54l3 165l41 1q110 0 151 107.5t41 345.5l2 463h769z" />
    <glyph glyph-name="uni043C" unicode="&#x43c;" 
d="M1065 1082v-1082h-185v667l-212 -667h-128l-218 691v-691h-185v1082h239l228 -837l230 837h231z" />
    <glyph glyph-name="uni043D" unicode="&#x43d;" 
d="M1063 0h-185v462h-528v-462h-185v1082h185v-469h528v469h185v-1082z" />
    <glyph glyph-name="uni043E" unicode="&#x43e;" 
d="M307 529q0 -171 80 -285t227 -114t227 114t80 285v22q0 168 -81 284q-80 115 -226 115t-227 -115q-80 -115 -80 -284v-22zM122 551q0 239 134 395t358 156t358 -156t134 -395v-22q0 -238 -134 -393q-134 -156 -358 -156q-225 0 -358 156q-134 156 -134 393v22z" />
    <glyph glyph-name="uni043F" unicode="&#x43f;" 
d="M1063 0h-185v929h-528v-929h-185v1082h898v-1082z" />
    <glyph glyph-name="uni0440" unicode="&#x440;" 
d="M902 529v21q0 170 -75 282q-75 113 -231 113t-238 -148v-521q82 -145 238 -145t231 114t75 284zM351 964q111 138 311 138t313 -152q112 -152 112 -400v-21q0 -240 -113 -395q-113 -154 -308 -154q-196 0 -308 124v-520h-185v1498h169z" />
    <glyph glyph-name="uni0441" unicode="&#x441;" 
d="M616 130q122 0 202 61.5t82 149.5h175q-2 -145 -135.5 -253t-304.5 -108q-234 0 -363 156t-129 384v42q0 228 129 384t363 156q189 0 314.5 -112.5t125.5 -279.5h-175q-2 98 -77 169t-175 71q-172 0 -245.5 -114t-73.5 -274v-42q0 -261 109.5 -325.5t177.5 -64.5z" />
    <glyph glyph-name="uni0442" unicode="&#x442;" 
d="M1147 932h-432v-932h-186v932h-425v150h1043v-150z" />
    <glyph glyph-name="uni0443" unicode="&#x443;" 
d="M390 -410q-56 -27 -113 -27t-130 16l30 151l88 -5q93 0 167 131q18 31 28 51l74 144l-466 1031h207l297 -698l48 -131l330 829h207l-549 -1249q-49 -108 -106 -162q-56 -54 -112 -81z" />
    <glyph glyph-name="uni0444" unicode="&#x444;" 
d="M307 529q0 -219 79.5 -292.5t133.5 -91.5v790q-155 -53 -184 -185.5t-29 -198.5v-22zM921 551q0 218 -81 292t-135 92v-792q158 53 187 185.5t29 200.5v22zM122 551q0 213 106.5 361t291.5 182v442h185v-442q184 -31 292.5 -180t108.5 -363v-22q0 -212 -108 -361.5
t-293 -179.5v-404h-185v405q-183 32 -290.5 179.5t-107.5 360.5v22z" />
    <glyph glyph-name="uni0445" unicode="&#x445;" 
d="M621 681l289 401h217l-403 -535l414 -547h-214l-299 412l-299 -412h-216l414 547l-403 535h214z" />
    <glyph glyph-name="uni0446" unicode="&#x446;" 
d="M170 1082h185v-931h498v931h186v-931h129l-18 -472h-166v321h-814v1082z" />
    <glyph glyph-name="uni0447" unicode="&#x447;" 
d="M878 1082h185v-1082h-185v395q-140 -35 -269 -35q-468 0 -468 407v315h185v-315q2 -255 254 -255q156 0 298 35v535z" />
    <glyph glyph-name="uni0448" unicode="&#x448;" 
d="M314 1082v-931h208v931h185v-931h208v931h185v-1082h-971v1082h185z" />
    <glyph glyph-name="uni0449" unicode="&#x449;" 
d="M303 1082v-931h208v931h185v-931h154v1h54v930h185v-930h87l-18 -473h-165v321h-875v1082h185z" />
    <glyph glyph-name="uni044A" unicode="&#x44a;" 
d="M542 521v-370h200q162 0 188.5 73.5t26.5 107.5q0 77 -54.5 133t-160.5 56h-200zM57 1082h485v-410h200q188 0 294.5 -92t106.5 -240.5t-107 -244t-294 -95.5h-385v930h-300v152z" />
    <glyph glyph-name="uni044B" unicode="&#x44b;" 
d="M329 521v-370h99q130 0 151.5 73.5t21.5 107.5q0 76 -43 132.5t-130 56.5h-99zM1087 0h-185v1082h185v-1082zM329 672h99q171 0 265.5 -92.5t94.5 -239.5t-95 -243.5t-265 -96.5h-284v1082h185v-410z" />
    <glyph glyph-name="uni044C" unicode="&#x44c;" 
d="M350 521v-370h331q110 0 165.5 51.5t55.5 130.5q0 123 -81.5 155.5t-139.5 32.5h-331zM350 672h331q190 0 298.5 -92t108.5 -241t-108.5 -244t-298.5 -95h-516v1082h185v-410z" />
    <glyph glyph-name="uni044D" unicode="&#x44d;" 
d="M588 950q-119 0 -201 -62t-82 -150h-176q0 145 135 254.5t308 109.5q243 0 376.5 -155.5t133.5 -384.5v-42q0 -230 -133.5 -385t-376.5 -155q-191 0 -317 112.5t-126 278.5h176q0 -100 78 -170.5t176 -70.5q169 0 247 98.5t89 246.5h-429v152h427q-21 221 -130 272
t-175 51z" />
    <glyph glyph-name="uni044E" unicode="&#x44e;" 
d="M968 551q0 399 -178 399t-178 -399v-22q0 -399 178 -399t178 399v22zM298 623h130q23 335 149 407t215 72q175 0 268 -154.5t93 -396.5v-22q0 -242 -92.5 -395.5t-264.5 -153.5q-173 0 -264.5 134.5t-104.5 356.5h-129v-471h-185v1082h185v-459z" />
    <glyph glyph-name="uni044F" unicode="&#x44f;" 
d="M375 624q53 -51 151 -51h346v359h-323q-109 0 -168 -54t-59 -128q0 -75 53 -126zM1057 1082v-1082h-185v421h-336l-257 -421h-200l273 449q-104 38 -160 117.5t-56 168.5q0 163 112 255t301 92h508z" />
    <glyph glyph-name="uni0450" unicode="&#x450;" 
d="M636 950q-122 0 -206 -82q-83 -82 -104 -228h582v14q-12 196 -158 270q-50 26 -114 26zM1079 189q-139 -209 -445 -209q-96 0 -192 39t-163 109q-144 148 -144 375v42q0 252 148 404q148 153 360 153q211 0 331 -147q119 -147 119 -384v-83h-773q6 -152 100 -254
q94 -103 242 -103q191 0 304 146zM701 1240h-150l-248 266h223z" />
    <glyph glyph-name="uni0451" unicode="&#x451;" 
d="M636 950q-122 0 -206 -82q-83 -82 -104 -228h582v14q-12 196 -158 270q-50 26 -114 26zM1079 189q-139 -209 -445 -209q-96 0 -192 39t-163 109q-144 148 -144 375v42q0 252 148 404q148 153 360 153q211 0 331 -147q119 -147 119 -384v-83h-773q6 -152 100 -254
q94 -103 242 -103q191 0 304 146zM723 1396q-1 44 27 75t82 31t82 -31t28 -75t-28 -76q-28 -30 -82 -30t-82 30q-28 32 -27 76zM293 1397q-1 45 27 75t82 31q54 -1 82 -31t28 -75t-28 -75t-82 -30t-82 30t-27 75z" />
    <glyph glyph-name="uni0452" unicode="&#x452;" 
d="M738 -285q66 0 102 52.5t36 143.5v89h-1v683q0 133 -63.5 198t-167.5 65q-194 -1 -293 -160v-786h-185v1209h-189v151h189v176h185v-176h263v-151h-263v-288q122 179 334 181q271 0 323 -156t52 -265v-227h1v-543q0 -168 -84.5 -258t-238.5 -90q-65 0 -116 17l15 148
q35 -13 101 -13z" />
    <glyph glyph-name="uni0453" unicode="&#x453;" 
d="M1066 929h-697v-929h-186v1082h883v-153zM709 1481h224l-268 -266h-140z" />
    <glyph glyph-name="uni0454" unicode="&#x454;" 
d="M621 130q117 0 197 61.5t82 149.5h175q-2 -145 -135.5 -253t-304.5 -108q-234 0 -363 156t-129 384v42q0 228 129 384t363 156q189 0 314.5 -112.5t125.5 -279.5h-175q-2 98 -77 169t-171 71q-95 0 -199 -54t-122 -280h410v-152h-410q18 -229 122 -281.5t168 -52.5z" />
    <glyph glyph-name="uni0455" unicode="&#x455;" 
d="M332 1010q120 92 309 92q190 0 308 -97t118 -241h-185q0 73 -70 129q-70 57 -178 57q-171 0 -222 -99q-15 -29 -15 -61q0 -65 54 -102t179 -62q237 -48 343 -123q105 -75 105 -210q0 -136 -122 -224q-122 -89 -325 -89q-202 0 -329 104t-127 249h185q7 -105 88 -154
t194 -49q114 0 182 43t68 112t-59 112q-60 43 -180 67q-119 24 -195 51t-132 65q-114 79 -114 208q0 130 120 222z" />
    <glyph glyph-name="uni0456" unicode="&#x456;" 
d="M547 1366q-1 46 27 78t84 31q56 1 83 -31q28 -32 28 -78t-28 -75q-27 -30 -83 -30t-84 30q-28 29 -27 75zM203 1082h553v-922h353v-160h-906v160h368v761h-368v161z" />
    <glyph glyph-name="uni0457" unicode="&#x457;" 
d="M203 1082h553v-922h353v-160h-906v160h368v761h-368v161zM769 1374q-1 44 27 75t82 31t82 -31t28 -75t-28 -76q-28 -30 -82 -30t-82 30q-28 32 -27 76zM339 1375q-1 45 27 75t82 31q54 -1 82 -31t28 -75t-28 -75t-82 -30t-82 30t-27 75z" />
    <glyph glyph-name="uni0458" unicode="&#x458;" 
d="M634 1367q0 45 27 77t83 31q56 1 84 -31t28 -77t-28 -75t-84 -31q-56 1 -83 31t-27 75zM376 -280q84 0 131 14q153 45 153 259v928h-361v161h546v-1089q-1 -313 -245 -401q-78 -28 -187 -29q-109 0 -202 17l13 152q68 -12 152 -12z" />
    <glyph glyph-name="uni0459" unicode="&#x459;" 
d="M776 518v-369h66q85 0 128 56.5t43 134.5q0 119 -62 148.5t-109 29.5h-66zM776 1082v-412h66q170 0 264 -92.5t94 -239.5q0 -146 -94.5 -242t-263.5 -96h-251v929h-194v-310q0 -308 -71.5 -463.5t-242.5 -155.5h-45l4 155l30 1q113 0 126.5 175.5t13.5 287.5v463h564z
" />
    <glyph glyph-name="uni045A" unicode="&#x45a;" 
d="M984 318q0 201 -152 200h-83v-369h83q77 0 114.5 56.5t37.5 112.5zM315 673h249v409h185v-413h83q161 0 249.5 -92.5t88.5 -239t-89.5 -242t-248.5 -95.5h-268v522h-249v-522h-185v1082h185v-409z" />
    <glyph glyph-name="uni045B" unicode="&#x45b;" 
d="M1067 681v-681h-185v683q0 133 -63 198t-167 65q-194 -1 -294 -160v-786h-185v1214h-145v151h145v171h185v-171h307v-151h-307v-293q122 179 334 181q271 0 323 -156t52 -265z" />
    <glyph glyph-name="uni045C" unicode="&#x45c;" 
d="M349 461v-461h-185v1082h185v-458h160l403 458h225l-464 -521l500 -561h-235l-413 461h-176zM633 1481h224l-268 -266h-140z" />
    <glyph glyph-name="uni045D" unicode="&#x45d;" 
d="M1063 1082v-1082h-185v798l-529 -798h-184v1082h184v-799l529 799h185zM682 1218h-150l-248 266h223z" />
    <glyph glyph-name="uni045E" unicode="&#x45e;" 
d="M390 -410q-56 -27 -113 -27t-130 16l30 151l88 -5q93 0 167 131q18 31 28 51l74 144l-466 1031h207l297 -698l48 -131l330 829h207l-549 -1249q-49 -108 -106 -162q-56 -54 -112 -81zM932 1524q0 -120 -82 -194q-82 -73 -216 -73q-135 0 -218 74q-82 74 -82 193h150
q0 -102 82 -137q28 -12 68 -12q73 0 110 42q38 42 38 107h150z" />
    <glyph glyph-name="uni045F" unicode="&#x45f;" 
d="M350 1082v-931h528v931h185v-1082h-354v-356h-185v356h-359v1082h185z" />
    <glyph glyph-name="uni0460" unicode="&#x460;" 
d="M408 130q56 0 90.5 50t34.5 138l1 1138h191v-1138q0 -88 34.5 -138t90.5 -50t85.5 50t29.5 138l1 1138h184l1 -1138q0 -161 -80.5 -249.5t-215.5 -88.5q-162 0 -226 147q-65 -147 -225 -147q-136 0 -216.5 88.5t-80.5 249.5l1 1138h184l1 -1138q0 -88 29.5 -138t85.5 -50
z" />
    <glyph glyph-name="uni0461" unicode="&#x461;" 
d="M281 1083v-767q0 -88 30.5 -137t86.5 -49t91.5 49t35.5 137v767h191l1 -767q0 -88 35.5 -137t91.5 -49t86.5 49t30.5 137v767h185v-767q0 -162 -81.5 -249.5t-216.5 -87.5q-162 0 -228 147q-65 -147 -226 -147q-210 0 -254.5 127.5t-44.5 209.5l1 767h185z" />
    <glyph glyph-name="uni0462" unicode="&#x462;" 
d="M353 706v-555h266q147 0 223.5 80.5t76.5 203.5q0 187 -111 229t-189 42h-266zM593 1104h-240v-247h266q230 0 358 -114.5t128 -310.5t-129 -314t-357 -118h-451v1104h-212v151h212v201h185v-201h240v-151z" />
    <glyph glyph-name="uni0463" unicode="&#x463;" 
d="M405 521v-370h275q162 0 190 73t28 108q0 78 -55.5 133.5t-162.5 55.5h-275zM727 1076h-322v-404h275q190 0 297 -92.5t107 -240t-107.5 -243.5t-296.5 -96h-460v1076h-192v152h192v332h185v-332h322v-152z" />
    <glyph glyph-name="uni0464" unicode="&#x464;" 
d="M309 832h150v99q0 258 97.5 402t271.5 144q235 0 286 -162t58 -258h-167q-11 129 -41 180t-61 70t-77 19q-90 0 -136 -103.5t-46 -289.5v-101h282v-151h-282v-155q0 -288 68 -341.5t114 -53.5q85 0 125.5 64.5t53.5 197.5h167q-23 -290 -143 -351t-204 -61
q-170 0 -268 143t-98 402v155h-150v-681h-184v1456h184v-624z" />
    <glyph glyph-name="uni0465" unicode="&#x465;" 
d="M967 464h-299q7 -231 69.5 -282.5t100.5 -51.5q68 0 107 50.5t41 123.5h175q0 -128 -92.5 -226t-221.5 -98q-170 0 -264 135t-100 349h-143v-464h-185v1082h185v-467h143q4 213 98.5 350t265.5 137q139 0 226.5 -102.5t87.5 -252.5h-175q0 84 -38 143.5t-93 59.5
q-96 0 -140.5 -96.5t-46.5 -238.5h299v-151z" />
    <glyph glyph-name="uni0466" unicode="&#x466;" 
d="M428 601h388l-192 587zM708 440v-440h-185v440h-148l-147 -440h-189l506 1456h160l497 -1456h-189l-144 440h-161z" />
    <glyph glyph-name="uni0467" unicode="&#x467;" 
d="M455 449h325l-139 343l-24 82l-25 -82zM714 297v-297h-185v297h-135l-118 -297h-189l452 1082h159l455 -1082h-190l-121 297h-128z" />
    <glyph glyph-name="uni0468" unicode="&#x468;" 
d="M677 629h219l-104 516zM859 468v-468h-148v468h-69l-104 -468h-189l117 468h-168v-468h-185v1456h185v-827h209l208 827h159l338 -1456h-188l-95 468h-70z" />
    <glyph glyph-name="uni0469" unicode="&#x469;" 
d="M682 454h211l-101 348zM867 293v-293h-157v293h-79l-93 -293h-189l99 293h-151v-293h-185v1082h185v-628h205l213 628h159l339 -1082h-189l-85 293h-72z" />
    <glyph glyph-name="uni046A" unicode="&#x46a;" 
d="M624 830l204 474h-430zM448 794h3l-337 662h991l-309 -662q361 -4 361 -367v-427h-185v427q0 171 -66.5 193t-112.5 22h-68l-9 -20v-622h-185v637l-3 5h-80q-94 0 -135.5 -48t-41.5 -167v-427h-185l-1 427q0 283 138.5 325t224.5 42z" />
    <glyph glyph-name="uni046B" unicode="&#x46b;" 
d="M612 604h5l178 326h-362zM1113 219v-219h-185l-1 219q0 187 -60.5 210t-102.5 23h-49l-10 -17v-435h-186v443l-5 9h-61q-86 0 -124.5 -52t-38.5 -181v-219h-185v219q0 371 320 384l-282 479h944l-283 -480q309 -21 309 -383z" />
    <glyph glyph-name="uni046C" unicode="&#x46c;" 
d="M774 893l129 411h-258zM1159 500v-500h-153l-1 500q0 75 -25.5 107.5t-86.5 32.5h-35l-7 -20v-620h-153v617l-8 23h-44q-57 -2 -81.5 -34.5t-24.5 -105.5v-500h-153l-1 500q0 80 20 140h-155v-640h-171v1456h171v-664h385l-235 664h745l-235 -664q248 -10 248 -292z" />
    <glyph glyph-name="uni046D" unicode="&#x46d;" 
d="M779 620l124 319h-248zM1158 303v-303h-153l-1 303q0 76 -26.5 108t-89.5 32h-18l-12 -29h-6v-414h-154v421l-10 22h-38q-57 -2 -83 -34t-26 -106v-303h-153l-1 303q0 81 21 140h-156v-443h-171v1082h171v-487h370l-210 487h734l-211 -490q223 -23 223 -289z" />
    <glyph glyph-name="uni046E" unicode="&#x46e;" 
d="M883 1908v-18l-254 -248h-114l-251 245v21h157l151 -152l151 152h160zM378 -132q0 -116 161 -186l-74 -124q-175 75 -219 166.5t-44 155.5q-1 125 88 188.5t244 63.5h46q132 0 213 75t81 195q0 270 -334 270h-141v151h141q159 1 235.5 66t76.5 174t-76.5 175t-215.5 66
h-306v152h306q210 0 344 -106t134 -275q0 -170 -95.5 -236.5t-152.5 -88.5q128 -40 199 -126t71 -203q0 -214 -135 -327t-345 -113h-53q-78 0 -113.5 -31t-35.5 -82z" />
    <glyph glyph-name="uni046F" unicode="&#x46f;" 
d="M891 1566v-18l-254 -248h-114l-251 245v21h157l151 -152l151 152h160zM848 300q0 166 -292 166h-141v151h141q137 0 203.5 42.5t65.5 117.5q0 105 -94.5 128.5t-154.5 23.5h-300v153h300q190 0 312.5 -83.5t122.5 -225.5q0 -75 -52 -134t-143 -94q217 -65 217 -241
q0 -151 -124 -237t-313 -86h-48q-78 0 -114 -31t-35 -82q0 -116 161 -186l-75 -124q-174 76 -218.5 167t-44.5 155q-1 125 88 188.5t245 63.5h41q172 0 212 65t40 103z" />
    <glyph glyph-name="uni0470" unicode="&#x470;" 
d="M953 842v614h185v-614q0 -228 -115 -361q-115 -134 -312 -157v-324h-185v324q-301 34 -394 308q-31 92 -31 210v614h185v-614q0 -233 142 -322q44 -28 98 -40v976h185v-977q173 39 225 221q18 62 17 142z" />
    <glyph glyph-name="uni0471" unicode="&#x471;" 
d="M1152 567q0 -367 -241 -515q-86 -52 -211 -67v-457h-185v459q-307 43 -390 361q-28 108 -28 248v486h185v-488q0 -386 233 -452v940h185v-942q137 34 202 154q65 121 65 273q-3 234 -89 515h195q79 -235 79 -515z" />
    <glyph glyph-name="uni0472" unicode="&#x472;" 
d="M931 649h-650v-5q4 -190 77 -345.5t273 -155.5t249 185.5t51 315.5v5zM281 801h650v11q-7 383 -134 441t-191 58t-113 -23t-127.5 -107t-84.5 -369v-11zM228 1275.5q126 200.5 378.5 200.5t378.5 -200t129 -466v-166q-3 -267 -129 -465.5t-377 -198.5t-378.5 200.5
t-130.5 463.5v166q3 265 129 465.5z" />
    <glyph glyph-name="uni0473" unicode="&#x473;" 
d="M553 950q-99 0 -178 -93.5t-94 -237.5h607q-27 229 -131.5 280t-203.5 51zM586 130q133 0 210.5 94.5t92.5 243.5h-608q23 -233 129 -285.5t176 -52.5zM93 551q0 239 134 395t358 156t358 -156t134 -395v-22q0 -238 -133.5 -393.5t-358.5 -155.5t-358.5 155.5
t-133.5 393.5v22z" />
    <glyph glyph-name="uni0474" unicode="&#x474;" 
d="M1235 1303q-53 0 -84.5 -31.5t-61.5 -112.5l-387 -1159h-170l-506 1456h209l348 -1082l34 -130l34 129l258 809q71 229 154.5 261t139.5 32l46 -1l-1 -171h-13z" />
    <glyph glyph-name="uni0475" unicode="&#x475;" 
d="M1053 937q-30 0 -60 -26t-44 -67l-317 -844h-141l-410 1082h190l268 -766l24 -101l25 101l176 543q80 244 250 242q69 0 106 -24l-21 -148q-16 8 -46 8z" />
    <glyph glyph-name="uni0476" unicode="&#x476;" 
d="M1235 1303q-53 0 -85 -32t-61 -112l-387 -1159h-170l-506 1456h209l348 -1082l34 -130l34 129l258 809q71 229 194 276q44 17 100 17l46 -1l-1 -171h-13zM830 1592h-150l-246 266h207zM569 1592h-169l-306 266h225z" />
    <glyph glyph-name="uni0477" unicode="&#x477;" 
d="M1053 937q-30 0 -60 -26t-44 -67l-317 -844h-141l-410 1082h190l268 -766l24 -101l25 101l176 543q80 244 250 242q69 0 106 -24l-21 -148q-16 8 -46 8zM789 1296h-150l-246 266h207zM528 1296h-169l-306 266h225z" />
    <glyph glyph-name="uni0478" unicode="&#x478;" 
d="M236 450q0 -313 114 -313t115 313v557q0 311 -114.5 311t-114.5 -311v-557zM714 -277q53 0 78.5 54.5t42.5 127.5l24 94l-159 1083h164l62 -455l15 -163l105 618h164l-241 -1250q-40 -171 -109.5 -217t-115.5 -46t-102 16l4 144q36 -6 68 -6zM650 487q0 -362 -114 -434.5
t-185 -72.5q-138 0 -210 135.5t-72 371.5v481q0 363 105.5 435.5t176.5 72.5q141 0 220 -136t79 -372v-481z" />
    <glyph glyph-name="uni0479" unicode="&#x479;" 
d="M240 529q0 -193 18 -263.5t44.5 -103t90 -32.5t89 104t25.5 295v23q0 191 -18 261.5t-45.5 103.5t-71.5 33q-81 0 -106.5 -104.5t-25.5 -293.5v-23zM714 -277q32 0 52.5 20.5t34 49.5t21.5 60t14 52l24 94l-159 1083h164l61 -455l13 -179l108 634h164l-241 -1250
q-40 -171 -109 -217t-115 -46q-47 0 -103 16l4 144q35 -6 67 -6zM55 552q0 388 115.5 469t201.5 81q164 0 242.5 -150.5t78.5 -399.5v-23q0 -387 -116.5 -468t-202.5 -81q-163 0 -241 150.5t-78 398.5v23z" />
    <glyph glyph-name="uni047A" unicode="&#x47a;" 
d="M706 1203h-185v94q-225 -79 -233 -485v-168q4 -190 64.5 -319t168.5 -167v96h185v-97q149 50 189.5 203.5t42.5 283.5v168q-7 382 -211 476q-10 5 -21 9v-94zM706 -141h-185v129q-111 21 -260.5 149.5t-154.5 506.5v166q3 265 116 444.5t299 213.5v121h185v-121
q113 -21 261.5 -148.5t153.5 -509.5v-166q-3 -267 -115.5 -444.5t-299.5 -211.5v-129z" />
    <glyph glyph-name="uni047B" unicode="&#x47b;" 
d="M307 529q0 -171 65.5 -264.5t149.5 -120.5v104h186v-104q82 28 147.5 121t65.5 264v22q0 168 -66 262t-147 122v-97h-186v98q-83 -27 -149 -121t-66 -264v-22zM122 551q0 239 119 377.5t281 166.5v132h186v-133q161 -28 279.5 -166t118.5 -377v-22q0 -238 -118.5 -376
t-279.5 -165v-147h-186v147q-163 28 -281.5 165.5t-118.5 375.5v22z" />
    <glyph glyph-name="uni047C" unicode="&#x47c;" 
d="M576 1528v96h139v-102q0 -85 -52.5 -135.5t-77.5 -63.5l-76 56q67 81 67 149zM989 1747v-127h-42q-107 0 -196 43.5t-129.5 63t-84.5 19.5t-72.5 -27t-28.5 -82l-1 -18h-127v36q0 110 61 164t151 54t208.5 -63t220.5 -63h40zM77 336v725q0 188 95.5 291t257.5 103v-151
q-78 -1 -122.5 -64t-44.5 -179v-725q0 -97 34.5 -151.5t94.5 -54.5t95.5 50t35.5 138v508h186v-508q0 -88 35 -138t95 -50t95 54.5t36 151.5v725q-1 116 -46 179t-122 64v151q161 0 257 -103.5t96 -290.5v-725q0 -170 -86 -263.5t-237 -93.5t-216 142q-67 -142 -217 -142
t-236 93.5t-86 263.5z" />
    <glyph glyph-name="uni047D" unicode="&#x47d;" 
d="M589 1156v96h139v-102q0 -85 -52.5 -135.5t-77.5 -63.5l-76 56q67 81 67 149zM1007 1376v-127h-43q-107 0 -197 43.5t-130.5 63t-84.5 19.5t-73.5 -27t-29.5 -82l-1 -18h-127v37q0 110 61.5 163.5t170.5 53.5q52 0 97.5 -19.5t93 -43t101.5 -43.5t122 -20h40zM289 332
q0 -202 116 -202q57 0 92 48t36 136v269h186v-269q0 -88 35.5 -136t91.5 -48t86.5 52.5t30.5 149.5v378q0 118 -40.5 178.5t-109.5 61.5v151q152 0 243.5 -102t91.5 -289v-378q0 -171 -81 -262t-228 -91t-213 140q-66 -140 -214 -140t-228.5 91t-80.5 262v378
q0 187 90.5 289t244.5 102v-151q-69 -1 -109 -61.5t-40 -178.5v-378z" />
    <glyph glyph-name="uni047E" unicode="&#x47e;" 
d="M414 130q56 0 90.5 50t34.5 138l1 1138h191v-1138q0 -88 34.5 -138t90.5 -50t85.5 50t29.5 138l1 1138h184l1 -1138q0 -161 -80.5 -249.5t-215.5 -88.5q-162 0 -226 147q-65 -147 -225 -147q-136 0 -216.5 88.5t-80.5 249.5l1 1138h184l1 -1138q0 -88 29.5 -138t85.5 -50
zM283 1796h720l1 -108h-285v-125h-168v125h-268v108z" />
    <glyph glyph-name="uni047F" unicode="&#x47f;" 
d="M281 1083v-767q0 -88 30.5 -137t86.5 -49t91.5 49t35.5 137v767h191l1 -767q0 -88 35.5 -137t91.5 -49t86.5 49t30.5 137v767h185v-767q0 -162 -81.5 -249.5t-216.5 -87.5q-162 0 -228 147q-65 -147 -226 -147q-210 0 -254.5 127.5t-44.5 209.5l1 767h185zM260 1456h726
l1 -108h-288v-127h-168v127h-271v108z" />
    <glyph glyph-name="uni0480" unicode="&#x480;" 
d="M810 -382h-185v367q-215 27 -344.5 201t-129.5 419v247q0 268 137.5 446.5t358.5 178.5q222 0 350 -133.5t128 -352.5h-185q-3 238 -111.5 286t-181.5 48q-142 0 -226.5 -136t-84.5 -335v-249q0 -199 98 -337t267 -138h109v-512z" />
    <glyph glyph-name="uni0481" unicode="&#x481;" 
d="M765 -382h-185v368q-184 31 -286.5 181.5t-102.5 352.5v42q0 226 126.5 383t345.5 157q181 0 300.5 -113.5t119.5 -279.5h-175q0 98 -70 169.5t-161 71.5q-155 0 -228 -116t-73 -272v-42q0 -159 73 -274.5t214 -115.5h102v-512z" />
    <glyph glyph-name="uni0482" unicode="&#x482;" 
d="M602 446l289 -172l-68 -123l-291 170l-182 -321h-168l225 398l-289 171l68 123l293 -171l205 365l-290 171l70 125l291 -171l188 331h165l-231 -408l293 -171l-72 -122l-288 170z" />
    <glyph glyph-name="uni0483" unicode="&#x483;" horiz-adv-x="0" 
d="M375 1315v-125l-166 1l1 233h539l-1 108l165 -1v-216h-538z" />
    <glyph glyph-name="uni0484" unicode="&#x484;" horiz-adv-x="0" 
d="M880 1321q0 108 -114 108q-45 0 -92 -19.5t-148.5 -62.5t-229.5 -43h-44v126h42q118 0 257 63.5t234 63.5t159 -54t64 -164v-36h-128v18z" />
    <glyph glyph-name="uni0485" unicode="&#x485;" horiz-adv-x="0" 
d="M451 1623h180l-1 -140l60 -116l-78 -65l-161 198v123z" />
    <glyph glyph-name="uni0486" unicode="&#x486;" horiz-adv-x="0" 
d="M630 1623h180v-123l-162 -198l-76 65l58 116v140z" />
    <glyph glyph-name="uni0488" unicode="&#x488;" horiz-adv-x="0" 
d="M-115 -32q0 83 58 135.5t152.5 52.5t153 -52.5t58.5 -135.5h-113q0 68 -36 84.5t-62 16.5q-50 0 -73.5 -29.5t-23.5 -71.5h-114zM-281 487q0 83 58 135.5t152.5 52.5t152.5 -52.5t58 -135.5h-112q0 68 -36 84.5t-62 16.5q-48 0 -73 -29t-25 -72h-113zM-105 990
q0 83 58 135.5t153 52.5t153 -52.5t58 -135.5h-112q0 68 -36 84.5t-74.5 16.5t-62 -28.5t-23.5 -72.5h-114zM473 -316q0 130 81 159t152.5 29t129.5 -52t58 -136h-112q0 70 -36 85.5t-62 15.5q-50 0 -74 -28.5t-24 -72.5h-113zM1049 -32q0 82 57 135t152.5 53t153.5 -52.5
t58 -135.5h-112q0 68 -36 84.5t-62 16.5q-50 0 -74 -29t-24 -72h-113zM1246 487q0 82 57 135t152.5 53t153.5 -52.5t58 -135.5h-112q0 68 -36.5 84.5t-62.5 16.5q-50 0 -73.5 -29t-23.5 -72h-113zM1059 990q0 82 57 135t152.5 53t154 -52.5t58.5 -135.5h-113q0 68 -36 84.5
t-62 16.5q-50 0 -73.5 -28.5t-23.5 -72.5h-114zM468 1267q0 130 81 159t152.5 29t129.5 -52.5t58 -135.5h-112q0 68 -36 84.5t-74.5 16.5t-62 -28.5t-23.5 -72.5h-113z" />
    <glyph glyph-name="uni0489" unicode="&#x489;" horiz-adv-x="0" 
d="M1486 161l17 -2l149 -325l-66 -71l-197 299zM524 860l-17 2l-148 326l65 69l198 -299zM664 21l-2 -17l-320 -153l-69 69l294 200zM1348 1002l2 16l321 153l68 -68l-294 -200zM424 433l-13 -12l-333 124v98l346 -71v-139zM1588 631l13 12l333 -124v-98l-346 71v139z
M910 1126l-12 14l122 338h96l-70 -352h-136zM1105 -60l11 -14l-122 -339h-96l70 353h137z" />
    <glyph glyph-name="uni048A" unicode="&#x48a;" 
d="M1066 1456v-1275h185v-176q0 -153 -100 -297q-32 -46 -74 -82l-115 63q87 128 88 311h-169l1 1073l-535 -1073h-185v1456h185l-1 -1072l535 1072h185zM906 1854q0 -120 -82 -194q-82 -73 -216 -73q-135 0 -218 74q-82 74 -82 193h150q0 -102 82 -137q28 -12 68 -12
q73 0 110 42q38 42 38 107h150z" />
    <glyph glyph-name="uni048B" unicode="&#x48b;" 
d="M1063 1082v-901h185v-176q0 -153 -100 -297q-32 -46 -74 -82l-115 63q87 128 88 311h-169v798l-529 -798h-184v1082h184v-799l529 799h185zM901 1523q0 -120 -82 -194q-83 -73 -217 -73q-135 0 -217 74t-82 193h150q0 -102 82 -137q27 -12 67 -12q73 0 111 42t38 107h150
z" />
    <glyph glyph-name="uni048C" unicode="&#x48c;" 
d="M353 706v-555h266q147 0 223.5 80.5t76.5 203.5q0 187 -111 229t-189 42h-266zM593 1104h-240v-247h266q230 0 358 -114.5t128 -310.5t-129 -314t-357 -118h-451v1104h-212v151h212v201h185v-201h240v-151z" />
    <glyph glyph-name="uni048D" unicode="&#x48d;" 
d="M350 521v-370h331q110 0 165.5 51.5t55.5 130.5q0 123 -81.5 155.5t-139.5 32.5h-331zM655 803h-305v-131h331q190 0 298.5 -92t108.5 -241t-108.5 -244t-298.5 -95h-516v803h-147v151h147v128h185v-128h305v-151z" />
    <glyph glyph-name="uni048E" unicode="&#x48e;" 
d="M838 784q122 77 122 220t-83 220.5t-214 79.5h-287v-568h287q14 0 27 1l-112 152l131 70zM376 584v-584h-185v1456h472q206 -4 344 -119t138 -341t-209 -344l137 -185l-132 -70l-149 202q-62 -14 -129 -15h-287z" />
    <glyph glyph-name="uni048F" unicode="&#x48f;" 
d="M902 529v21q0 170 -75.5 282.5t-230.5 112.5q-156 0 -238 -148v-521q82 -145 248 -145q68 0 119 25l-122 126l113 94l117 -121q69 107 69 274zM351 964q111 138 311 138t312.5 -152t112.5 -400v-21q0 -257 -124 -409l115 -118l-112 -93l-114 117q-83 -46 -190 -46
q-192 0 -304 124v-520h-185v1498h169z" />
    <glyph glyph-name="uni0490" unicode="&#x490;" 
d="M1095 1304h-727v-1304h-186v1456h728v335h185v-487z" />
    <glyph glyph-name="uni0491" unicode="&#x491;" 
d="M1073 929h-705v-929h-186v1082h705v317h186v-470z" />
    <glyph glyph-name="uni0492" unicode="&#x492;" 
d="M634 684h-267v-684h-186v684h-184v151h184v621h891v-152h-705v-469h267v-151z" />
    <glyph glyph-name="uni0493" unicode="&#x493;" 
d="M632 479h-263v-479h-186v479h-188v151h188v452h883v-153h-697v-299h263v-151z" />
    <glyph glyph-name="uni0494" unicode="&#x494;" 
d="M1076 1304h-705v-470h184q281 0 438.5 -153.5t157.5 -423.5q0 -397 -179 -471t-294 -74l-2 147q227 0 258.5 154t31.5 244q-2 199 -103.5 307t-307.5 108h-184v-672h-186v1456h891v-152z" />
    <glyph glyph-name="uni0495" unicode="&#x495;" 
d="M921 170q0 149 -94 231.5t-239 82.5h-218v-484h-186v1082h883v-153h-697v-283h218q225 0 371.5 -127.5t146.5 -348.5q0 -138 -100 -278.5t-289 -175.5l-48 146q252 67 252 308z" />
    <glyph glyph-name="uni0496" unicode="&#x496;" 
d="M709 651v-651h-183v651h-62l-205 -651h-230l269 727l-230 729h215l174 -653h69v653h183v-653h62l173 653h216l-232 -727l213 -575h134v-513h-185v359h-121l-206 651h-54z" />
    <glyph glyph-name="uni0497" unicode="&#x497;" 
d="M699 470v-470h-185v470h-59l-215 -470h-223l297 563l-262 519h214l189 -448h59v448h185v-448h59l190 448h214l-264 -519l216 -409h149v-513h-185v359h-106l-215 470h-58z" />
    <glyph glyph-name="uni0498" unicode="&#x498;" 
d="M950 402q0 264 -335 264h-183v152h183q159 0 236 68t77 181t-85 185q-85 73 -228 73t-232 -72q-88 -72 -88 -178h-185q0 182 144 291q144 110 347 110q365 0 476 -234q37 -78 37 -180t-64 -185q-64 -82 -174 -130q260 -87 260 -341q0 -200 -152 -316q-116 -88 -296 -107
v-448h-185v451q-262 36 -369 226q-45 80 -45 192h186q0 -116 92 -195t243 -79t245 75q95 75 95 197z" />
    <glyph glyph-name="uni0499" unicode="&#x499;" 
d="M911 304q0 170 -275 170h-241v156h241q256 0 256 156q0 70 -70 118q-70 47 -192 47q-121 0 -207 -49t-86 -122h-185q2 145 139 233t338 88t325 -81q123 -81 123 -233q0 -75 -53 -135t-144 -96q218 -66 218 -252q0 -152 -137 -240q-99 -64 -250 -79v-440h-185v442
q-210 25 -316 139q-74 81 -75 194h185q0 -78 88 -135t216 -57t208 51q79 50 79 125z" />
    <glyph glyph-name="uni049A" unicode="&#x49a;" 
d="M354 659v-659h-185v1456h185v-646h156l443 646h212l-495 -705l421 -590h156v-513h-185v352h-83l-454 659h-171z" />
    <glyph glyph-name="uni049B" unicode="&#x49b;" 
d="M349 461v-461h-185v1082h185v-458h160l403 458h225l-464 -521l363 -407h174v-513h-185v359h-87l-413 461h-176z" />
    <glyph glyph-name="uni049C" unicode="&#x49c;" 
d="M609 660v-245h-149v245h-101v-660h-185v1456h185v-645h101v257h149v-257h54l297 645h216l-335 -687l379 -769h-231l-326 660h-54z" />
    <glyph glyph-name="uni049D" unicode="&#x49d;" 
d="M587 461v-194h-148v194h-90v-461h-186v1082h186v-458h90v213h148v-213h44l259 458h223l-338 -514l375 -568h-234l-278 461h-51z" />
    <glyph glyph-name="uni049E" unicode="&#x49e;" horiz-adv-x="1249" 
d="M374 659v-659h-185v1129h-180v151h180v176h185v-176h272v-151h-272v-319h156l443 646h212l-495 -705l536 -751h-227l-454 659h-171z" />
    <glyph glyph-name="uni049F" unicode="&#x49f;" horiz-adv-x="1249" 
d="M382 0h-186v1217h-209v151h209v168h186v-168h242v-151h-242v-621l121 130l355 356h225l-438 -451l505 -631h-235l-397 505l-136 -131v-374z" />
    <glyph glyph-name="uni04A0" unicode="&#x4a0;" 
d="M555 659v-659h-184v1304h-326v152h510v-646h98l286 646h211l-325 -705l365 -751h-226l-303 659h-106z" />
    <glyph glyph-name="uni04A1" unicode="&#x4a1;" 
d="M566 461v-461h-185v929h-325v153h510v-458h127l249 458h224l-329 -514l364 -568h-234l-267 461h-134z" />
    <glyph glyph-name="uni04A2" unicode="&#x4a2;" 
d="M1192 -359h-185v359h-95v673h-597v-673h-174v1456h174v-626h597v626h175v-1302h105v-513z" />
    <glyph glyph-name="uni04A3" unicode="&#x4a3;" 
d="M1200 -359h-185v359h-137v462h-528v-462h-185v1082h185v-469h528v469h185v-928h137v-513z" />
    <glyph glyph-name="uni04A4" unicode="&#x4a4;" 
d="M299 799h371v657h508v-152h-324v-1304h-184v647h-371v-647h-185v1456h185v-657z" />
    <glyph glyph-name="uni04A5" unicode="&#x4a5;" 
d="M295 613h380v469h505v-153h-320v-929h-185v462h-380v-462h-185v1082h185v-469z" />
    <glyph glyph-name="uni04A6" unicode="&#x4a6;" 
d="M1080 -147.5q-98 -141.5 -287 -141.5l-2 147q162 0 189 208.5t-11.5 403t-231.5 200.5v-670h-185v1304h-259v-1304h-184v1456h628v-623q212 -4 326.5 -159t114.5 -417.5t-98 -404z" />
    <glyph glyph-name="uni04A7" unicode="&#x4a7;" 
d="M725 483h-8v-483h-185v929h-231v-929h-185v1082h601v-437h8q189 0 306 -129.5t117 -345.5q-4 -140 -86.5 -278.5t-251.5 -174.5l-48 146q201 63 199 297t-92 278.5t-144 44.5z" />
    <glyph glyph-name="uni04A8" unicode="&#x4a8;" 
d="M907 621v363q0 231 -46.5 281.5t-78.5 50.5q-59 0 -91.5 -94t-32.5 -238v-344q0 -259 142 -399q107 135 107 380zM104 621v279q0 246 92.5 411.5t243.5 165.5l1 -158q-71 0 -111.5 -117t-40.5 -300v-281q0 -210 82 -347.5t225 -137.5q33 0 65 8q-188 188 -188 498v339
q0 209 85 351t225.5 142t225 -140t84.5 -353v-360q-2 -288 -146 -469q73 -25 157 -25v-157q-163 2 -291 65q-100 -56 -215 -56q-222 0 -358 185t-136 457z" />
    <glyph glyph-name="uni04A9" unicode="&#x4a9;" 
d="M930 658q0 195 -49.5 241.5t-99 46.5t-82.5 -74.5t-33 -193.5v-108q0 -212 158 -329q104 116 106 309v108zM600 -21q-234 0 -371 169t-137 421v58q0 202 97.5 338.5t254.5 136.5v-158q-78 0 -122 -89.5t-44 -225.5v-60q0 -186 82.5 -309.5t223.5 -123.5q47 0 91 12
q-195 164 -195 424v104q0 186 85 306.5t232 120.5t232.5 -129t85.5 -319v-105q0 -229 -128 -384q79 -21 176 -21v-157q-179 2 -317 58q-119 -67 -246 -67z" />
    <glyph glyph-name="uni04AA" unicode="&#x4aa;" 
d="M702 -455h-185v445q-251 51 -355 325q-53 140 -55 311v203q3 265 125 445q137 202 393 202q213 0 340 -126t152 -340h-185q-30 222 -180 290q-54 24 -124 25t-120 -21t-86 -59q-67 -68 -98 -180t-31 -234v-205q0 -192 67 -329q82 -167 265 -167q265 0 307 308h185
q-27 -208 -143 -320q-116 -113 -272 -133v-440z" />
    <glyph glyph-name="uni04AB" unicode="&#x4ab;" 
d="M616 130q122 0 202 61t82 150h175q-2 -145 -135 -253q-96 -78 -218 -100v-443h-185v443q-166 28 -280 166t-114 366v42q0 228 129 384t363 156q189 0 315 -113q125 -113 125 -279h-175q-2 98 -77 169t-175 71q-172 0 -252 -124q-67 -103 -67 -264v-42q1 -262 161 -356
q58 -34 126 -34z" />
    <glyph glyph-name="uni04AC" unicode="&#x4ac;" 
d="M1156 1298h-450v-1144h137v-513h-185v359h-132v1298h-450v158h1080v-158z" />
    <glyph glyph-name="uni04AD" unicode="&#x4ad;" 
d="M1147 932h-432v-778h137v-513h-185v359h-138v932h-425v150h1043v-150z" />
    <glyph glyph-name="uni04AE" unicode="&#x4ae;" 
d="M603 725l332 731h210l-453 -913l-3 -543h-172l-3 543l-453 913h211z" />
    <glyph glyph-name="uni04AF" unicode="&#x4af;" 
d="M716 -416h-186v470l-459 1028h190l340 -784l24 -97l26 97l333 784h190l-458 -1035v-463z" />
    <glyph glyph-name="uni04B0" unicode="&#x4b0;" 
d="M923 530h-231l-3 -530h-172l-3 530h-228v151h159l-384 775h211l331 -731l332 731h210l-385 -775h163v-151z" />
    <glyph glyph-name="uni04B1" unicode="&#x4b1;" 
d="M945 -11h-229v-405h-186v405h-222v151h183l-420 942h190l340 -784l24 -97l26 97l333 784h190l-417 -942h188v-151z" />
    <glyph glyph-name="uni04B2" unicode="&#x4b2;" 
d="M1255 154v-513h-185v359h-119l-322 582l-323 -582h-219l434 734l-423 722h217l310 -571l314 571h218l-423 -722l342 -580h179z" />
    <glyph glyph-name="uni04B3" unicode="&#x4b3;" 
d="M1142 154v-513h-185v359h-33l-299 412l-299 -412h-216l414 547l-403 535h214l286 -401l289 401h217l-403 -535l297 -393h121z" />
    <glyph glyph-name="uni04B4" unicode="&#x4b4;" 
d="M326 1304h-269v151h269v1h185v-1h238v-151h-238v-1153h365v1305h185v-1300h145l-18 -507h-165v351h-697v1304z" />
    <glyph glyph-name="uni04B5" unicode="&#x4b5;" 
d="M284 931h-232v151h645v-151h-228v-780h381v931h185v-931h128l-18 -472h-166v321h-695v931z" />
    <glyph glyph-name="uni04B6" unicode="&#x4b6;" 
d="M579 704q140 0 299 53v699h185v-1302h137v-513h-185v359h-137v603q-140 -51 -268 -51t-204 24q-235 76 -235 424v456h185v-456q0 -240 124 -282q42 -14 99 -14z" />
    <glyph glyph-name="uni04B7" unicode="&#x4b7;" 
d="M878 1082h185v-928h137v-513h-185v359h-137v395q-140 -35 -269 -35q-468 0 -468 407v315h185v-315q2 -255 254 -255q156 0 298 35v535z" />
    <glyph glyph-name="uni04B8" unicode="&#x4b8;" 
d="M878 1456h185v-1456h-185v603q-101 -37 -200 -47v-247h-149v245q-358 25 -358 446v456h185v-456q0 -240 124 -282q22 -8 49 -11v302h149v-299q90 11 200 47v699z" />
    <glyph glyph-name="uni04B9" unicode="&#x4b9;" 
d="M883 1082h185v-1082h-185v395q-97 -24 -196 -31v-153h-150v151q-276 18 -333.5 160t-57.5 245v315h185v-315q1 -133 60 -188t146 -64v262h150v-261q100 8 196 31v535z" />
    <glyph glyph-name="uni04BA" unicode="&#x4ba;" 
d="M710 751q-141 0 -298 -53v-698h-185v1456h185v-605q143 52 269 52t282 -50.5t156 -397.5l-1 -455h-185v455q0 239 -83 267.5t-140 28.5z" />
    <glyph glyph-name="uni04BB" unicode="&#x4bb;" 
d="M1068 681v-681h-185v683q1 133 -63 198t-168 65q-194 -1 -293 -160v-786h-185v1536h185v-615q122 179 334 181q271 0 349 -232q26 -80 26 -189z" />
    <glyph glyph-name="uni04BC" unicode="&#x4bc;" 
d="M976 946q0 377 -226 377q-127 0 -197 -121.5t-70 -351.5v-16h493v112zM810 -22q-242 0 -377 163t-135 425v144q-192 35 -226 165.5t-34 205.5h149q2 -182 111 -229q0 281 129 452t332 171q402 0 402 -585v-188h-678v-136q0 -303 119.5 -370.5t207.5 -67.5q129 0 264 86
l47 -136q-125 -100 -311 -100z" />
    <glyph glyph-name="uni04BD" unicode="&#x4bd;" 
d="M742 950q-103 0 -171 -85.5t-86 -215.5h487v24q0 187 -87 232t-143 45zM293 521v1q-128 23 -191.5 112.5t-63.5 231.5h148q2 -165 114 -205q30 195 152 318t284 123q207 0 314 -132.5t107 -352.5v-120h-678q10 -252 114 -309.5t173 -57.5q173 0 287 109l74 -124
q-130 -135 -354 -135t-352 152t-128 389z" />
    <glyph glyph-name="uni04BE" unicode="&#x4be;" 
d="M976 946q0 377 -226 377q-127 1 -197 -121t-70 -352v-16h493v112zM894 -453h-185v439q-172 28 -279 158q-132 159 -132 422v144q-192 35 -244 233q-16 63 -16 138h149q2 -182 111 -229q0 281 129 452t332 171q402 0 402 -585v-188h-678v-136q0 -303 177 -403
q62 -35 150 -35q129 0 264 86l47 -136q-95 -76 -227 -95v-436z" />
    <glyph glyph-name="uni04BF" unicode="&#x4bf;" 
d="M742 950q-103 0 -171 -85t-86 -216h487v24q0 187 -130 254q-44 23 -100 23zM858 -453h-185v441q-154 28 -253 146q-127 151 -127 387v1q-127 22 -191 112t-64 232h148q2 -165 114 -205q30 195 152 318t284 123q207 0 314 -133t107 -352v-120h-678q9 -252 165 -338
q52 -29 122 -29q173 0 287 109l74 -124q-100 -105 -269 -129v-439z" />
    <glyph glyph-name="uni04C0" unicode="&#x4c0;" 
d="M174 1456h880v-161h-349v-1135h349v-160h-880v160h341v1135h-341v161z" />
    <glyph glyph-name="uni04C1" unicode="&#x4c1;" 
d="M709 651v-651h-183v651h-62l-205 -651h-230l269 727l-230 729h215l174 -653h69v653h183v-653h62l173 653h216l-232 -727l270 -729h-229l-206 651h-54zM926 1866q0 -120 -82 -194q-82 -73 -216 -73q-135 0 -218 74q-82 74 -82 193h150q0 -102 82 -137q28 -12 68 -12
q73 0 110 42q38 42 38 107h150z" />
    <glyph glyph-name="uni04C2" unicode="&#x4c2;" 
d="M699 470v-470h-185v470h-59l-215 -470h-223l297 563l-262 519h214l189 -448h59v448h185v-448h59l190 448h214l-264 -519l298 -563h-224l-215 470h-58zM901 1523q0 -120 -82 -194q-83 -73 -217 -73q-135 0 -217 74t-82 193h150q0 -102 82 -137q27 -12 67 -12q73 0 111 42
t38 107h150z" />
    <glyph glyph-name="uni04C3" unicode="&#x4c3;" 
d="M609 666h-224v-666h-185v1456h185v-628h142l411 628h215l-439 -635q215 -30 332.5 -180.5t117.5 -389.5q0 -397 -177 -471t-292 -74l-2 146q286 0 286 399q-3 305 -140 360t-230 55z" />
    <glyph glyph-name="uni04C4" unicode="&#x4c4;" 
d="M891 175q0 145 -88.5 215.5t-238.5 70.5h-199v-461h-185v1082h185v-458h119l376 458h224l-397 -470q275 -45 331.5 -193t56.5 -224q0 -152 -94 -286t-272 -167l-49 146q231 59 231 287z" />
    <glyph glyph-name="uni04C5" unicode="&#x4c5;" 
d="M1252 5q0 -153 -100 -297q-32 -46 -74 -82l-115 63q87 128 88 311h-169v1304h-421l-2 -624q0 -508 -192 -634q-69 -46 -169 -46h-51v151h40q103 1 145 135t42 394l4 776h789v-1275h185v-176z" />
    <glyph glyph-name="uni04C6" unicode="&#x4c6;" 
d="M1247 5q0 -153 -100 -297q-32 -46 -74 -82l-115 63q87 128 88 311h-170v929h-398l-1 -310q0 -310 -82 -465q-82 -154 -286 -154h-54l3 165l41 1q110 0 151 107t41 346l2 463h769v-901h185v-176z" />
    <glyph glyph-name="uni04C7" unicode="&#x4c7;" 
d="M734 -285q63 0 96.5 54.5t33.5 141.5v734h-497v-645h-185v1456h185v-660h497v660h185v-1545q0 -252 -120.5 -300t-187.5 -48t-119 18l14 147q35 -13 98 -13z" />
    <glyph glyph-name="uni04C8" unicode="&#x4c8;" 
d="M725 -285q65 0 100.5 53t35.5 143v551h-497v-462h-185v1082h185v-469h497v469h185v-1171q0 -164 -84.5 -256t-237.5 -92q-60 0 -112 18l14 147q34 -13 99 -13z" />
    <glyph glyph-name="uni04C9" unicode="&#x4c9;" 
d="M1240 5q0 -153 -100 -297q-32 -46 -74 -82l-115 63q87 128 88 311h-127v673h-597v-673h-174v1456h174v-626h597v626h175v-1275h153v-176z" />
    <glyph glyph-name="uni04CA" unicode="&#x4ca;" 
d="M1248 5q0 -153 -100 -297q-32 -46 -74 -82l-115 63q87 128 88 311h-169v462h-528v-462h-185v1082h185v-469h528v469h185v-901h185v-176z" />
    <glyph glyph-name="uni04CB" unicode="&#x4cb;" 
d="M579 704q140 0 299 53v699h185v-1456h-138v-359h-185v513h138v449q-140 -51 -268 -51t-204 24q-235 76 -235 424v456h185v-456q0 -240 124 -282q42 -14 99 -14z" />
    <glyph glyph-name="uni04CC" unicode="&#x4cc;" 
d="M878 1082h185v-1082h-139v-359h-185v513h139v241q-140 -35 -269 -35q-468 0 -468 407v315h185v-315q2 -255 254 -255q156 0 298 35v535z" />
    <glyph glyph-name="uni04CD" unicode="&#x4cd;" 
d="M1100 1456v-1275h182v-176q0 -153 -100 -297q-32 -46 -74 -82l-115 63q87 128 88 311h-161v581l15 608l-269 -784h-106l-247 763l15 -587v-581h-180v1456h229l237 -728l256 728h230z" />
    <glyph glyph-name="uni04CE" unicode="&#x4ce;" 
d="M1065 1082v-901h187v-176q0 -153 -100 -297q-32 -46 -74 -82l-115 63q87 128 88 311h-171v667l-212 -667h-128l-218 691v-691h-185v1082h239l228 -837l230 837h231z" />
    <glyph glyph-name="uni04CF" unicode="&#x4cf;" 
d="M174 1456h880v-161h-349v-1135h349v-160h-880v160h341v1135h-341v161z" />
    <glyph glyph-name="uni04D0" unicode="&#x4d0;" 
d="M433 538h387l-192 632zM869 377h-486l-117 -377h-185l470 1456h155l462 -1456h-184zM928 1866q0 -120 -82 -194q-82 -73 -216 -73q-135 0 -218 74q-82 74 -82 193h150q0 -102 82 -137q28 -12 68 -12q73 0 110 42q38 42 38 107h150z" />
    <glyph glyph-name="uni04D1" unicode="&#x4d1;" 
d="M683 525q-342 0 -342 -199q0 -129 122 -171q41 -14 95 -14q101 0 182 48t115 117v219h-172zM858 118q-138 -138 -316 -138t-282 91t-104 229q0 174 133 265t364 91h202v85q0 97 -69 155t-181 57q-112 0 -176 -50q-65 -50 -65 -121h-186q2 126 121 223t310 97
q299 0 398 -204q33 -68 33 -159v-503q0 -125 38 -220v-16h-193q-20 38 -27 118zM924 1544q0 -120 -82 -194q-82 -73 -216 -73q-135 0 -218 74q-82 74 -82 193h150q0 -102 82 -137q28 -12 68 -12q73 0 110 42q38 42 38 107h150z" />
    <glyph glyph-name="uni04D2" unicode="&#x4d2;" 
d="M433 538h387l-192 632zM869 377h-486l-117 -377h-185l470 1456h155l462 -1456h-184zM732 1716q0 44 28 76q28 31 81 31q54 0 82 -31q28 -32 28 -76t-28 -74t-82 -31q-53 1 -81 31t-28 74zM302 1718q0 46 28 76t81 30q54 0 82 -30t28 -76q0 -45 -28 -75t-82 -30
q-53 0 -81 30t-28 75z" />
    <glyph glyph-name="uni04D3" unicode="&#x4d3;" 
d="M683 525q-342 0 -342 -199q0 -129 122 -171q41 -14 95 -14q101 0 182 48t115 117v219h-172zM858 118q-138 -138 -316 -138t-282 91t-104 229q0 174 133 265t364 91h202v85q0 97 -69 155t-181 57q-112 0 -176 -50q-65 -50 -65 -121h-186q2 126 121 223t310 97
q299 0 398 -204q33 -68 33 -159v-503q0 -125 38 -220v-16h-193q-20 38 -27 118zM728 1394q0 44 28 76q28 31 81 31q54 0 82 -31q28 -32 28 -76t-28 -74t-82 -31q-53 1 -81 31t-28 74zM298 1396q0 46 28 76t81 30q54 0 82 -30t28 -76q0 -45 -28 -75t-82 -30q-53 0 -81 30
t-28 75z" />
    <glyph glyph-name="uni04D4" unicode="&#x4d4;" 
d="M414 527h249l-2 706zM1195 0h-531l-1 353h-310l-123 -353h-198l560 1456h580v-152h-337l2 -471h302v-151h-302l1 -531h357v-151z" />
    <glyph glyph-name="uni04D5" unicode="&#x4d5;" 
d="M450 495q-103 0 -164 -63q-62 -63 -62 -139q0 -77 28 -108q50 -55 120 -55t140 72l-1 293h-61zM734 882q-43 -68 -46 -173v-69h329v128q0 74 -30 113q-54 69 -132 69t-121 -68zM43 298q0 153 104 245t301 92h63v148q0 167 -130 167q-63 0 -102 -42t-39 -116l-179 8
q1 138 87 220q87 82 243 82q157 0 235 -107q90 107 242 107t239 -100q86 -100 86 -271v-234h-505v-86q0 -281 244 -281q96 0 198 70l46 -136q-109 -84 -280 -84q-202 0 -297 146q-96 -146 -264 -146q-138 0 -215 82q-77 83 -77 236z" />
    <glyph glyph-name="uni04D6" unicode="&#x4d6;" 
d="M975 673h-608v-516h709v-157h-894v1456h885v-158h-700v-468h608v-157zM918 1866q0 -120 -82 -194q-82 -73 -216 -73q-135 0 -218 74q-82 74 -82 193h150q0 -102 82 -137q28 -12 68 -12q73 0 110 42q38 42 38 107h150z" />
    <glyph glyph-name="uni04D7" unicode="&#x4d7;" 
d="M636 950q-122 0 -206 -82q-83 -82 -104 -228h582v14q-12 196 -158 270q-50 26 -114 26zM1079 189q-139 -209 -445 -209q-96 0 -192 39t-163 109q-144 148 -144 375v42q0 252 148 404q148 153 360 153q211 0 331 -147q119 -147 119 -384v-83h-773q6 -152 100 -254
q94 -103 242 -103q191 0 304 146zM919 1545q0 -120 -82 -194q-83 -73 -217 -73q-135 0 -217 74t-82 193h150q0 -102 82 -137q27 -12 67 -12q73 0 111 42t38 107h150z" />
    <glyph glyph-name="uni04D8" unicode="&#x4d8;" 
d="M589 130q158 0 246.5 140.5t90.5 350.5h-651v-90q0 -282 114.5 -341.5t199.5 -59.5zM574 1476q253 0 395 -174.5t142 -455.5v-218q0 -279 -148 -464.5t-382 -184.5t-362.5 163t-128.5 445v166h836v93q0 333 -129 406t-203 73q-115 0 -182.5 -23t-139.5 -63l-47 136
q143 101 349 101z" />
    <glyph glyph-name="uni04D9" unicode="&#x4d9;" 
d="M826 216q78 84 101 217h-565v-26q0 -117 70 -196t193 -79t201 84zM208 969q145 134 389 134q245 0 384 -152q138 -152 138 -389v-44q0 -231 -143 -385t-339 -152q-226 0 -343 131t-117 351v121h756q-6 160 -91 264q-84 104 -233 104q-201 0 -328 -108z" />
    <glyph glyph-name="uni04DA" unicode="&#x4da;" 
d="M589 130q158 0 247 141q88 141 90 350h-651v-90q1 -281 169 -369q60 -32 145 -32zM574 1476q253 0 395 -174t142 -456v-218q0 -279 -148 -465q-148 -185 -382 -184t-362 163q-129 162 -129 445v166h836v93q0 333 -191 441q-67 38 -141 38q-115 0 -182 -23
q-68 -23 -140 -63l-47 136q143 101 349 101zM712 1670q0 44 28 76q28 31 81 31q54 0 82 -31q28 -32 28 -76t-28 -74t-82 -31q-53 1 -81 31t-28 74zM282 1672q0 46 28 76t81 30q54 0 82 -30t28 -76q0 -45 -28 -75t-82 -30q-53 0 -81 30t-28 75z" />
    <glyph glyph-name="uni04DB" unicode="&#x4db;" 
d="M826 216q78 84 101 217h-565v-26q0 -117 70 -196t193 -79t201 84zM208 969q145 134 389 134q245 0 384 -152q138 -152 138 -389v-44q0 -231 -143 -385t-339 -152q-226 0 -343 131t-117 351v121h756q-6 160 -91 264q-84 104 -233 104q-201 0 -328 -108zM757 1396
q-1 44 27 75t82 31t82 -31t28 -75t-28 -76q-28 -30 -82 -30t-82 30q-28 32 -27 76zM327 1397q-1 45 27 75t82 31q54 -1 82 -31t28 -75t-28 -75t-82 -30t-82 30t-27 75z" />
    <glyph glyph-name="uni04DC" unicode="&#x4dc;" 
d="M709 651v-651h-183v651h-62l-205 -651h-230l269 727l-230 729h215l174 -653h69v653h183v-653h62l173 653h216l-232 -727l270 -729h-229l-206 651h-54zM730 1716q0 44 28 76q28 31 81 31q54 0 82 -31q28 -32 28 -76t-28 -74t-82 -31q-53 1 -81 31t-28 74zM300 1718
q0 46 28 76t81 30q54 0 82 -30t28 -76q0 -45 -28 -75t-82 -30q-53 0 -81 30t-28 75z" />
    <glyph glyph-name="uni04DD" unicode="&#x4dd;" 
d="M699 470v-470h-185v470h-59l-215 -470h-223l297 563l-262 519h214l189 -448h59v448h185v-448h59l190 448h214l-264 -519l298 -563h-224l-215 470h-58zM705 1374q-1 44 27 75t82 31t82 -31t28 -75t-28 -76q-28 -30 -82 -30t-82 30q-28 32 -27 76zM275 1375q-1 45 27 75
t82 31q54 -1 82 -31t28 -75t-28 -75t-82 -30t-82 30t-27 75z" />
    <glyph glyph-name="uni04DE" unicode="&#x4de;" 
d="M950 402q0 264 -335 264h-183v152h183q159 0 236 68t77 181t-85 185q-85 73 -228 73t-232 -72q-88 -72 -88 -178h-185q0 182 144 291q144 110 347 110q365 0 476 -234q37 -78 37 -180t-64 -185q-64 -82 -174 -130q260 -87 260 -341q0 -200 -149 -314q-149 -113 -372 -113
q-224 0 -364 101q-162 117 -162 324h186q0 -116 92 -195t243 -79t245 75q95 75 95 197zM713 1738q-1 44 27 75t82 31t82 -31t28 -75t-28 -76q-28 -30 -82 -30t-82 30q-28 32 -27 76zM283 1739q-1 45 27 75t82 31q54 -1 82 -31t28 -75t-28 -75t-82 -30t-82 30t-27 75z" />
    <glyph glyph-name="uni04DF" unicode="&#x4df;" 
d="M911 304q0 170 -275 170h-241v156h241q256 0 256 156q0 70 -70 118q-70 47 -192 47q-121 0 -207 -49t-86 -122h-185q2 145 139 233t338 88t325 -81q123 -81 123 -233q0 -75 -53 -135t-144 -96q218 -66 218 -252q0 -151 -133 -237t-335 -86t-348 86q-147 86 -147 253h185
q0 -78 88 -135t216 -57t208 51q79 50 79 125zM727 1394q-1 44 27 75t82 31t82 -31t28 -75t-28 -76q-28 -30 -82 -30t-82 30q-28 32 -27 76zM297 1395q-1 45 27 75t82 31q54 -1 82 -31t28 -75t-28 -75t-82 -30t-82 30t-27 75z" />
    <glyph glyph-name="uni04E0" unicode="&#x4e0;" 
d="M190 1304v152h869l1 -118l-411 -492q332 -18 394.5 -179t62.5 -262q0 -198 -136 -312t-341 -114t-343 109t-138 316h185q0 -113 79 -193.5t212 -80.5t215 76t82 214t-83.5 209t-242.5 71h-143v151l390 453h-652z" />
    <glyph glyph-name="uni04E1" unicode="&#x4e1;" 
d="M180 929v153h869l1 -118l-398 -495q323 -25 383.5 -182t60.5 -257q0 -196 -136 -310.5t-341 -114.5t-343.5 109.5t-138.5 314.5h186q0 -115 80 -193.5t212 -78.5q133 0 214.5 75.5t81.5 194.5q0 157 -85.5 227.5t-244.5 70.5h-141v151l372 453h-632z" />
    <glyph glyph-name="uni04E2" unicode="&#x4e2;" 
d="M1066 1456v-1456h-185l1 1073l-535 -1073h-185v1456h185l-1 -1072l535 1072h185zM968 1631h-714v143h714v-143z" />
    <glyph glyph-name="uni04E3" unicode="&#x4e3;" 
d="M1063 1082v-1082h-185v798l-529 -798h-184v1082h184v-799l529 799h185zM963 1301h-714v143h714v-143z" />
    <glyph glyph-name="uni04E4" unicode="&#x4e4;" 
d="M1066 1456v-1456h-185l1 1073l-535 -1073h-185v1456h185l-1 -1072l535 1072h185zM710 1704q0 44 28 76q28 31 81 31q54 0 82 -31q28 -32 28 -76t-28 -74t-82 -31q-53 1 -81 31t-28 74zM280 1706q0 46 28 76t81 30q54 0 82 -30t28 -76q0 -45 -28 -75t-82 -30q-53 0 -81 30
t-28 75z" />
    <glyph glyph-name="uni04E5" unicode="&#x4e5;" 
d="M1063 1082v-1082h-185v798l-529 -798h-184v1082h184v-799l529 799h185zM705 1374q-1 44 27 75t82 31t82 -31t28 -75t-28 -76q-28 -30 -82 -30t-82 30q-28 32 -27 76zM275 1375q-1 45 27 75t82 31q54 -1 82 -31t28 -75t-28 -75t-82 -30t-82 30t-27 75z" />
    <glyph glyph-name="uni04E6" unicode="&#x4e6;" 
d="M614 1311q-64 0 -114 -23q-49 -24 -85 -62q-121 -130 -127 -414v-168q4 -190 68 -327q82 -174 259 -174q223 -1 297 279q24 92 26 222v168q-7 382 -211 476q-49 22 -113 23zM227 196q-118 185 -121 448v166q4 266 120 450q136 216 388 216t388 -216q116 -185 119 -450
v-166q-3 -267 -119 -449q-136 -215 -387 -215t-388 216zM736 1738q0 44 28 75t81 31q54 0 82 -31t28 -75t-28 -76q-28 -30 -82 -30q-53 0 -81 30q-28 32 -28 76zM306 1739q0 45 28 75t81 31q54 -1 82 -31t28 -75t-28 -75t-82 -30q-53 0 -81 30t-28 75z" />
    <glyph glyph-name="uni04E7" unicode="&#x4e7;" 
d="M307 529q0 -171 80 -285t227 -114t227 114t80 285v22q0 168 -81 284q-80 115 -226 115t-227 -115q-80 -115 -80 -284v-22zM122 551q0 239 134 395t358 156t358 -156t134 -395v-22q0 -238 -134 -393q-134 -156 -358 -156q-225 0 -358 156q-134 156 -134 393v22zM717 1394
q-1 44 27 76q28 31 82 31t82 -31q28 -32 28 -76t-28 -74t-82 -31q-54 1 -82 31t-27 74zM287 1396q-1 46 27 76t82 30t82 -30t28 -76q0 -45 -28 -75t-82 -30t-82 30t-27 75z" />
    <glyph glyph-name="uni04E8" unicode="&#x4e8;" 
d="M931 649h-650v-5q4 -190 68 -327q82 -174 259 -174q222 -1 296 279q24 92 27 222v5zM281 801h650v11q-7 382 -211 476q-50 22 -114 23q-64 0 -113 -23q-49 -24 -85 -62q-121 -130 -127 -414v-11zM218 1260q136 216 389 216q251 0 387 -216q116 -185 120 -450v-166
q-2 -267 -118 -449q-136 -215 -388 -215q-251 0 -388 216q-118 185 -121 448v166q3 265 119 450z" />
    <glyph glyph-name="uni04E9" unicode="&#x4e9;" 
d="M584 950q-130 0 -209 -94t-94 -237h607q-26 229 -182 305q-54 26 -122 26zM586 130q133 0 210 94q78 94 93 244h-608q23 -234 181 -312q54 -26 124 -26zM93 551q0 239 134 395t358 156t358 -156t134 -395v-22q0 -238 -134 -393q-134 -156 -358 -156q-225 0 -358 156
q-134 156 -134 393v22z" />
    <glyph glyph-name="uni04EA" unicode="&#x4ea;" 
d="M931 649h-650v-5q4 -190 68 -327q82 -174 259 -174q222 -1 296 279q24 92 27 222v5zM281 801h650v11q-7 382 -211 476q-50 22 -114 23q-64 0 -113 -23q-49 -24 -85 -62q-121 -130 -127 -414v-11zM218 1260q136 216 389 216q251 0 387 -216q116 -185 120 -450v-166
q-2 -267 -118 -449q-136 -215 -388 -215q-251 0 -388 216q-118 185 -121 448v166q3 265 119 450zM737 1712q-1 44 27 75t82 31t82 -31t28 -75t-28 -76q-28 -30 -82 -30t-82 30q-28 32 -27 76zM307 1713q-1 45 27 75t82 31q54 -1 82 -31t28 -75t-28 -75t-82 -30t-82 30
t-27 75z" />
    <glyph glyph-name="uni04EB" unicode="&#x4eb;" 
d="M584 950q-130 0 -209 -94t-94 -237h607q-26 229 -182 305q-54 26 -122 26zM586 130q133 0 210 94q78 94 93 244h-608q23 -234 181 -312q54 -26 124 -26zM93 551q0 239 134 395t358 156t358 -156t134 -395v-22q0 -238 -134 -393q-134 -156 -358 -156q-225 0 -358 156
q-134 156 -134 393v22zM669 1422q-1 44 27 76q28 31 82 31t82 -31q28 -32 28 -76t-28 -74t-82 -31q-54 1 -82 31t-27 74zM239 1424q-1 46 27 76t82 30t82 -30t28 -76q0 -45 -28 -75t-82 -30t-82 30t-27 75z" />
    <glyph glyph-name="uni04EC" unicode="&#x4ec;" 
d="M596 131q149 0 238 120q88 120 88 310v90h-484v151h484v93q0 193 -88 312t-234 119q-147 0 -223 -90t-78 -246h-185q2 209 134 348q131 139 355 139t364 -160t140 -423v-332q0 -262 -140 -422t-366 -160t-356 132q-129 132 -131 353h185q3 -237 169 -310q54 -24 128 -24z
M702 1738q0 44 28 76q28 31 81 31q54 0 82 -31q28 -32 28 -76t-28 -74t-82 -31q-53 1 -81 31t-28 74zM272 1740q0 46 28 76t81 30q54 0 82 -30t28 -76q0 -45 -28 -75t-82 -30q-53 0 -81 30t-28 75z" />
    <glyph glyph-name="uni04ED" unicode="&#x4ed;" 
d="M588 950q-119 0 -201 -62t-82 -150h-176q0 145 135 254q135 110 308 110q243 0 377 -155q133 -155 133 -385v-42q0 -230 -133 -385t-377 -155q-191 0 -317 112t-126 279h176q0 -101 78 -171q78 -71 176 -70q169 0 253 108q71 90 83 237h-429v152h427q-21 221 -182 296
q-57 27 -123 27zM698 1394q0 44 28 76q28 31 81 31q54 0 82 -31q28 -32 28 -76t-28 -74t-82 -31q-53 1 -81 31t-28 74zM268 1396q0 46 28 76t81 30q54 0 82 -30t28 -76q0 -45 -28 -75t-82 -30q-53 0 -81 30t-28 75z" />
    <glyph glyph-name="uni04EE" unicode="&#x4ee;" 
d="M499 285l42 85l-498 1086h208l308 -697l71 -191l360 888h215l-535 -1216q-55 -124 -135 -192q-80 -69 -215 -69t-217 35l24 141q108 -25 174 -25q126 0 198 155zM1008 1643h-714v143h714v-143z" />
    <glyph glyph-name="uni04EF" unicode="&#x4ef;" 
d="M390 -410q-56 -27 -113 -27t-130 16l30 151l88 -5q93 0 167 131q18 31 28 51l74 144l-466 1031h207l297 -698l48 -131l330 829h207l-549 -1249q-49 -108 -106 -162q-56 -54 -112 -81zM994 1302h-714v143h714v-143z" />
    <glyph glyph-name="uni04F0" unicode="&#x4f0;" 
d="M499 285l42 85l-498 1086h208l308 -697l71 -191l360 888h215l-535 -1216q-55 -124 -135 -192q-80 -69 -215 -69t-217 35l24 141q108 -25 174 -25q126 0 198 155zM750 1716q0 44 28 76q28 31 81 31q54 0 82 -31q28 -32 28 -76t-28 -74t-82 -31q-53 1 -81 31t-28 74z
M320 1718q0 46 28 76t81 30q54 0 82 -30t28 -76q0 -45 -28 -75t-82 -30q-53 0 -81 30t-28 75z" />
    <glyph glyph-name="uni04F1" unicode="&#x4f1;" 
d="M390 -410q-56 -27 -113 -27t-130 16l30 151l88 -5q93 0 167 131q18 31 28 51l74 144l-466 1031h207l297 -698l48 -131l330 829h207l-549 -1249q-49 -108 -106 -162q-56 -54 -112 -81zM736 1374q0 44 28 76q28 31 81 31q54 0 82 -31q28 -32 28 -76t-28 -74t-82 -31
q-53 1 -81 31t-28 74zM306 1376q0 46 28 76t81 30q54 0 82 -30t28 -76q0 -45 -28 -75t-82 -30q-53 0 -81 30t-28 75z" />
    <glyph glyph-name="uni04F2" unicode="&#x4f2;" 
d="M499 285l42 85l-498 1086h208l308 -697l71 -191l360 888h215l-535 -1216q-55 -124 -135 -192q-80 -69 -215 -69t-217 35l24 141q108 -25 174 -25q126 0 198 155zM601 1866h207l-245 -269h-150zM924 1866h225l-305 -269h-169z" />
    <glyph glyph-name="uni04F3" unicode="&#x4f3;" 
d="M390 -410q-56 -27 -113 -27t-130 16l30 151l88 -5q93 0 167 131q18 31 28 51l74 144l-466 1031h207l297 -698l48 -131l330 829h207l-549 -1249q-49 -108 -106 -162q-56 -54 -112 -81zM587 1524h207l-245 -269h-150zM910 1524h225l-305 -269h-169z" />
    <glyph glyph-name="uni04F4" unicode="&#x4f4;" 
d="M579 704q140 0 299 53v699h185v-1456h-185v603q-140 -51 -268 -51t-204 24q-235 76 -235 424v456h185v-456q0 -240 124 -282q42 -14 99 -14zM640 1716q0 44 28 76q28 31 81 31q54 0 82 -31q28 -32 28 -76t-28 -74t-82 -31q-53 1 -81 31t-28 74zM210 1718q0 46 28 76
t81 30q54 0 82 -30t28 -76q0 -45 -28 -75t-82 -30q-53 0 -81 30t-28 75z" />
    <glyph glyph-name="uni04F5" unicode="&#x4f5;" 
d="M878 1082h185v-1082h-185v395q-140 -35 -269 -35q-468 0 -468 407v315h185v-315q2 -255 254 -255q156 0 298 35v535zM744 1374q0 44 28 75t81 31q54 0 82 -31t28 -75t-28 -76q-28 -30 -82 -30q-53 0 -81 30q-28 32 -28 76zM314 1375q0 45 28 75t81 31q54 -1 82 -31
t28 -75t-28 -75t-82 -30q-53 0 -81 30t-28 75z" />
    <glyph glyph-name="uni04F6" unicode="&#x4f6;" 
d="M1072 1304h-705v-1150h138v-513h-185v359h-139v1456h891v-152z" />
    <glyph glyph-name="uni04F7" unicode="&#x4f7;" 
d="M1066 929h-697v-775h89v-513h-185v359h-90v1082h883v-153z" />
    <glyph glyph-name="uni04F8" unicode="&#x4f8;" 
d="M329 706v-555h92q104 0 154 81q49 81 49 203q0 186 -110 249q-38 22 -93 22h-92zM1099 0h-185v1456h185v-1456zM329 857h92q186 0 287 -114q102 -114 102 -310t-102 -314q-102 -119 -287 -119h-277v1456h185v-599zM686 1716q0 44 28 76q28 31 81 31q54 0 82 -31
q28 -32 28 -76t-28 -74t-82 -31q-53 1 -81 31t-28 74zM256 1718q0 46 28 76t81 30q54 0 82 -30t28 -76q0 -45 -28 -75t-82 -30q-53 0 -81 30t-28 75z" />
    <glyph glyph-name="uni04F9" unicode="&#x4f9;" 
d="M329 521v-370h99q130 1 164 115q10 32 9 66q0 76 -43 132q-43 57 -130 57h-99zM1087 0h-185v1082h185v-1082zM329 672h99q171 0 265 -92q95 -92 95 -240q0 -147 -95 -244q-95 -96 -265 -96h-284v1082h185v-410zM784 1374q0 44 28 75t81 31q54 0 82 -31t28 -75t-28 -76
q-28 -30 -82 -30q-53 0 -81 30q-28 32 -28 76zM354 1375q0 45 28 75t81 31q54 -1 82 -31t28 -75t-28 -75t-82 -30q-53 0 -81 30t-28 75z" />
    <glyph glyph-name="uni04FA" unicode="&#x4fa;" 
d="M288 -275q64 0 100 48t36 138v89h-168v714h-190v151h190v591h891v-152h-705v-439h261v-151h-261v-563h167v-240q0 -167 -84 -257t-238 -91q-60 0 -112 18l14 157q34 -13 99 -13z" />
    <glyph glyph-name="uni04FB" unicode="&#x4fb;" 
d="M277 -275q65 0 101 48t35 138v89h-148v495h-149v151h149v436h883v-153h-697v-283h302v-151h-302v-344h147v-240q0 -167 -84 -257t-238 -91q-60 0 -112 18l14 157q34 -13 99 -13z" />
    <glyph glyph-name="uni04FC" unicode="&#x4fc;" 
d="M981 -275q65 0 101 48t35 138v89h-166l-322 582l-323 -582h-219l434 734l-423 722h217l310 -571l314 571h218l-423 -722l383 -649v66h185v-240q0 -167 -84 -257t-238 -91q-60 0 -112 18l14 157q34 -13 99 -13z" />
    <glyph glyph-name="uni04FD" unicode="&#x4fd;" 
d="M868 -275q64 0 100 48t36 138v89h-80l-299 412l-299 -412h-216l414 547l-403 535h214l286 -401l289 401h217l-403 -535l300 -396h165v-240q0 -167 -84 -257t-238 -91q-60 0 -112 18l14 157q34 -13 99 -13z" />
    <glyph glyph-name="uni04FE" unicode="&#x4fe;" 
d="M942 670h-170l395 -670h-216l-322 582l-323 -582h-219l396 670h-178v151h165l-372 635h217l310 -571l314 571h218l-372 -635h157v-151z" />
    <glyph glyph-name="uni04FF" unicode="&#x4ff;" 
d="M930 481h-156l364 -481h-214l-299 412l-299 -412h-216l364 481h-181v151h167l-339 450h214l286 -401l289 401h217l-339 -450h142v-151z" />
    <glyph glyph-name="uni0500" unicode="&#x500;" 
d="M887 151v575h-303q-148 0 -224.5 -79.5t-76.5 -202.5t76.5 -208t224.5 -85h303zM887 877v579h185v-1456h-488q-229 0 -358 123t-129 320t129 315.5t358 118.5h303z" />
    <glyph glyph-name="uni0501" unicode="&#x501;" 
d="M867 794q-82 151 -239 151t-231 -113q-73 -113 -73 -282v-21q0 -269 160 -361q55 -32 132 -31q171 0 251 155v502zM139 529v21q0 245 119 399q119 153 309 153q191 0 300 -127v561h185v-1536h-170l-8 114q-110 -134 -304 -134t-312 157q-119 157 -119 392z" />
    <glyph glyph-name="uni0502" unicode="&#x502;" 
d="M577 151v575h-114q-103 0 -152 -80t-49 -201q0 -199 73.5 -246.5t127.5 -47.5h114zM463 0q-183 0 -284.5 123.5t-101.5 319.5t101.5 315t284.5 119h114v579h185v-1306l49 1q120 3 158.5 213t-50.5 491h179q68 -230 66 -363q-5 -242 -104 -367t-249 -125h-348z" />
    <glyph glyph-name="uni0503" unicode="&#x503;" 
d="M449 945q-163 0 -163 -369v-131q0 -215 58 -262t104 -47q82 -1 132 87q-6 40 -8 85v564q-49 73 -123 73zM101 445v131q0 231 78 378.5t224 147.5q100 0 169 -73v531h185v-1252q-3 -118 33 -148t64 -30q60 1 94 109.5t36 249.5q3 231 -58 442l178 1q69 -242 67 -389
q-5 -274 -94 -419t-228 -145q-168 -3 -235 131q-77 -131 -216 -131t-218 130.5t-79 335.5z" />
    <glyph glyph-name="uni0504" unicode="&#x504;" 
d="M503 370q0 117 -51.5 191t-135.5 74h-133v152h82q129 0 188.5 66.5t59.5 193.5q0 185 -87 221t-146 36h-225v152h225q196 0 307 -105.5t111 -305.5q0 -114 -50 -199t-141 -133q181 -78 181 -341v-105q0 -92 41.5 -114.5t76.5 -22.5t67.5 30t65 108t35.5 262t-59 402h179
q26 -98 47 -199t19 -220q-4 -244 -105.5 -389t-256.5 -145q-283 -4 -295 288v103z" />
    <glyph glyph-name="uni0505" unicode="&#x505;" 
d="M313 592q234 0 234 164q0 77 -58 126.5t-180 49.5h-223l-6 150h229q200 0 312 -84.5t112 -239.5t-188 -229q186 -51 186 -239v-77q0 -88 91 -88q100 0 126.5 157.5t4 267.5t-52.5 188h180q26 -78 47.5 -158t19.5 -176q-4 -196 -95 -313t-228 -119q-136 -1 -204 56
t-74 186v75q-1 74 -54.5 113t-152.5 40h-173l-2 150h149z" />
    <glyph glyph-name="uni0506" unicode="&#x506;" 
d="M940 371v-136q0 -14 1 -27h165v-176q0 -153 -66 -248t-108 -131l-115 63q81 118 87 284h-86q-63 58 -63 237v132q0 120 -72 192t-192 72h-219v152h163q169 0 246.5 64.5t77.5 194.5q0 189 -113 224.5t-191 35.5h-276v152h276q356 0 422.5 -156t66.5 -258
q0 -227 -231 -328q227 -73 227 -343z" />
    <glyph glyph-name="uni0507" unicode="&#x507;" 
d="M919 269v-80h153v-176q0 -153 -66 -248t-108 -131l-115 63q85 125 88 303h-84q-54 38 -54 173v95q0 82 -55 127t-156 46h-241v150h212q240 0 240 164q0 80 -58.5 128.5t-181.5 48.5h-285l1 150h284q200 0 313 -84t113 -242t-192 -229q192 -55 192 -258z" />
    <glyph glyph-name="uni0508" unicode="&#x508;" 
d="M796 271q0 -143 80 -141q57 1 90 108t35 295t-40 398l179 1q50 -245 48 -391q-5 -272 -94 -417t-226 -145q-248 -4 -258 292l1 1033h-202l1 -536q0 -387 -80.5 -577.5t-275.5 -190.5h-34v151h23q146 0 164 232t18 385l1 688h569z" />
    <glyph glyph-name="uni0509" unicode="&#x509;" 
d="M762 289q0 -161 80 -159q26 0 51 26.5t50 95.5t27 198q3 213 -59 415h179q68 -234 66 -370q-5 -252 -94 -384t-227 -132q-248 -4 -258 310v640h-197v-307q0 -309 -66.5 -465.5t-228.5 -156.5h-38l3 165l23 1q100 0 111 172t11 284v460h567v-793z" />
    <glyph glyph-name="uni050A" unicode="&#x50a;" 
d="M595 645h-299v-645h-185v1456h185v-660h299v660h185v-1148q0 -121 27 -149.5t53 -28.5t50.5 30.5t48.5 110.5t27 261t-59 399l178 1q26 -98 47 -199t19 -219q-4 -244 -92.5 -389.5t-226.5 -145.5q-247 -4 -257 329v337z" />
    <glyph glyph-name="uni050B" unicode="&#x50b;" 
d="M571 461h-269v-461h-185v1082h185v-470h269v470h185v-793q0 -108 33.5 -133.5t59.5 -25.5q55 1 83.5 97.5t30.5 265.5q2 170 -41 372h178q51 -237 48 -371q-5 -251 -88 -383t-214 -132q-265 -4 -275 310v172z" />
    <glyph glyph-name="uni050C" unicode="&#x50c;" 
d="M954 1257q-134 68 -291 68t-246.5 -134t-89.5 -330v-264q0 -197 89.5 -332t237.5 -134q147 1 254 112.5t-3 542.5h179q43 -190 63 -370.5t-131.5 -308.5t-368.5 -128t-361 175.5t-144 442.5v262q0 265 143.5 441.5t368.5 176.5t359 -88z" />
    <glyph glyph-name="uni050D" unicode="&#x50d;" 
d="M160 520v42q0 226 138 383t360 157t332 -66l-44 -144q-112 58 -273 58t-244 -115.5t-83 -272.5v-42q0 -157 88 -273.5t258 -116.5q121 1 173 50t54 139q0 141 -20 218h178q27 -133 26 -219q-2 -166 -115.5 -252.5t-295.5 -86.5q-245 0 -388.5 157.5t-143.5 383.5z" />
    <glyph glyph-name="uni050E" unicode="&#x50e;" 
d="M437 1304h-361v152h936v-152h-390v-959q0 -148 57 -181.5t101 -33.5q94 1 147.5 107.5t57.5 290.5t-60 403l179 1q70 -255 67 -397q-6 -269 -117.5 -412.5t-282.5 -143.5q-318 -4 -334 366v959z" />
    <glyph glyph-name="uni050F" unicode="&#x50f;" 
d="M410 932h-337v150h901v-150h-378v-587q0 -148 57 -181.5t99 -33.5q87 1 137.5 79.5t53.5 186.5q5 182 -59 355h178q70 -209 67 -322q-5 -216 -112 -333t-270 -117q-321 -4 -337 366v587z" />
    <glyph glyph-name="uni0510" unicode="&#x510;" 
d="M367 747q-237 99 -237 341q0 76 37 153.5t138.5 156.5t318.5 79t354 -110.5t137 -291.5h-185q-2 108 -84.5 179t-183.5 71q-178 0 -262 -72.5t-84 -186.5q0 -177 116.5 -212.5t196.5 -35.5h182v-152h-182q-335 0 -335 -264q0 -121 94.5 -196.5t240.5 -75.5t232.5 78.5
t88.5 195.5h185q0 -207 -145 -315.5t-364 -108.5t-368 112.5t-149 313.5q-2 253 258 341z" />
    <glyph glyph-name="uni0511" unicode="&#x511;" 
d="M344 786q0 -160 274 -160h243v-148h-243q-145 0 -219 -40t-74 -126q0 -85 81 -134t218 -49q138 1 224 57q86 57 87 134h185q-4 -218 -257 -304q-104 -35 -222 -36q-231 0 -367 86q-135 86 -135 238q0 188 219 252q-96 36 -148 96t-52 136q0 151 126 232t334 81
q209 0 346 -88q136 -88 138 -233h-185q0 73 -85 122t-181 49q-164 0 -235 -46q-72 -46 -72 -119z" />
    <glyph glyph-name="uni0512" unicode="&#x512;" 
d="M930 -275q64 0 100 48t36 138v89h-184v1304h-421l-2 -624q0 -508 -192 -634q-69 -46 -169 -46h-51v151h40q103 1 145 135t42 394l4 776h789v-1305h184v-240q0 -167 -84 -257t-238 -91q-60 0 -112 18l14 157q34 -13 99 -13z" />
    <glyph glyph-name="uni0513" unicode="&#x513;" 
d="M925 -275q65 0 101 48t35 138v89h-185v929h-398l-1 -310q0 -310 -82 -465q-82 -154 -286 -154h-54l3 165l41 1q110 0 151 107t41 346l2 463h769v-931h184v-240q0 -167 -84 -257t-238 -91q-60 0 -112 18l14 157q34 -13 99 -13z" />
    <glyph glyph-name="uni1E00" unicode="&#x1e00;" 
d="M433 538h387l-192 632zM869 377h-486l-117 -377h-185l470 1456h155l462 -1456h-184zM619 -298q27 0 46 18t19 48q0 28 -19 48t-46 19q-27 1 -47 -19t-19 -48q-1 -28 19 -47t47 -19zM511 -127q45 42 92 42q48 0 75 -11q28 -10 48 -30t32 -48t12 -59q0 -64 -44 -104
q-44 -41 -91 -41t-75 10t-49 30q-45 41 -45 105t45 106z" />
    <glyph glyph-name="uni1E01" unicode="&#x1e01;" 
d="M683 525q-342 0 -342 -199q0 -129 122 -171q41 -14 95 -14q101 0 182 48t115 117v219h-172zM858 118q-138 -138 -316 -138t-282 91t-104 229q0 174 133 265t364 91h202v85q0 97 -69 155t-181 57q-112 0 -176 -50q-65 -50 -65 -121h-186q2 126 121 223t310 97
q299 0 398 -204q33 -68 33 -159v-503q0 -125 38 -220v-16h-193q-20 38 -27 118zM560 -298q27 0 46 18t19 48q0 28 -19 48t-46 19q-26 1 -46 -19t-20 -48t20 -47t46 -19zM452 -127q45 42 92 42q48 0 75 -11q27 -10 47 -30t33 -48q12 -28 12 -59q0 -64 -44 -104
q-44 -41 -91 -41t-75 10t-49 30q-45 41 -45 105t45 106z" />
    <glyph glyph-name="uni1E3E" unicode="&#x1e3e;" 
d="M1100 1456v-1456h-180v581l15 608l-269 -784h-106l-247 763l15 -587v-581h-180v1456h229l237 -728l256 728h230zM711 1824h224l-268 -266h-140z" />
    <glyph glyph-name="uni1E3F" unicode="&#x1e3f;" 
d="M1138 808v-808h-176v810q0 136 -125 135q-119 0 -134 -112v-833h-176v811q0 136 -121 134q-104 0 -137 -84v-861h-176v1082h166l5 -102q70 120 217 121q148 1 198 -115q70 114 201 115q258 2 258 -293zM750 1502h224l-268 -266h-140z" />
    <glyph glyph-name="Wgrave" unicode="&#x1e80;" 
d="M896 394l111 1062h175l-177 -1456h-189l-187 1097l-189 -1097h-190l-177 1456h176l111 -1062l187 1062h161zM702 1561h-150l-248 266h223z" />
    <glyph glyph-name="wgrave" unicode="&#x1e81;" 
d="M338 392l22 -155l27 155l173 690h119l172 -690l29 -170l27 170l120 690h164l-230 -1082h-146l-169 663l-28 168l-27 -168l-167 -663h-146l-230 1082h164zM701 1219h-150l-248 266h223z" />
    <glyph glyph-name="Wacute" unicode="&#x1e82;" 
d="M896 394l111 1062h175l-177 -1456h-189l-187 1097l-189 -1097h-190l-177 1456h176l111 -1062l187 1062h161zM719 1824h224l-268 -266h-140z" />
    <glyph glyph-name="wacute" unicode="&#x1e83;" 
d="M338 392l22 -155l27 155l173 690h119l172 -690l29 -170l27 170l120 690h164l-230 -1082h-146l-169 663l-28 168l-27 -168l-167 -663h-146l-230 1082h164zM718 1482h224l-268 -266h-140z" />
    <glyph glyph-name="Wdieresis" unicode="&#x1e84;" 
d="M896 394l111 1062h175l-177 -1456h-189l-187 1097l-189 -1097h-190l-177 1456h176l111 -1062l187 1062h161zM724 1716q0 44 28 76q28 31 81 31q54 0 82 -31q28 -32 28 -76t-28 -74t-82 -31q-53 1 -81 31t-28 74zM294 1718q0 46 28 76t81 30q54 0 82 -30t28 -76
q0 -45 -28 -75t-82 -30q-53 0 -81 30t-28 75z" />
    <glyph glyph-name="wdieresis" unicode="&#x1e85;" 
d="M338 392l22 -155l27 155l173 690h119l172 -690l29 -170l27 170l120 690h164l-230 -1082h-146l-169 663l-28 168l-27 -168l-167 -663h-146l-230 1082h164zM723 1374q-1 44 27 76q28 31 82 31t82 -31q28 -32 28 -76t-28 -74t-82 -31q-54 1 -82 31t-27 74zM293 1376
q-1 46 27 76t82 30t82 -30t28 -76q0 -45 -28 -75t-82 -30t-82 30t-27 75z" />
    <glyph glyph-name="uni1EA0" unicode="&#x1ea0;" 
d="M433 538h387l-192 632zM869 377h-486l-117 -377h-185l470 1456h155l462 -1456h-184zM518 -234q0 47 29 79t86 32t86 -32t29 -79q0 -46 -29 -78t-86 -32t-86 32t-29 78z" />
    <glyph glyph-name="uni1EA1" unicode="&#x1ea1;" 
d="M683 525q-342 0 -342 -199q0 -129 122 -171q41 -14 95 -14q101 0 182 48t115 117v219h-172zM858 118q-138 -138 -316 -138t-282 91t-104 229q0 174 133 265t364 91h202v85q0 97 -69 155t-181 57q-112 0 -176 -50q-65 -50 -65 -121h-186q2 126 121 223t310 97
q299 0 398 -204q33 -68 33 -159v-503q0 -125 38 -220v-16h-193q-20 38 -27 118zM458 -234q0 47 29 79t86 32t86 -32t29 -79q0 -46 -29 -78t-86 -32t-86 32t-29 78z" />
    <glyph glyph-name="uni1EA2" unicode="&#x1ea2;" 
d="M433 538h387l-192 632zM869 377h-486l-117 -377h-185l470 1456h155l462 -1456h-184zM711 1806q0 78 -166 78l7 106q144 0 224 -50t79 -138q0 -130 -155 -152l-1 -71h-132l-1 153q71 5 108 19t37 55z" />
    <glyph glyph-name="uni1EA3" unicode="&#x1ea3;" 
d="M683 525q-342 0 -342 -199q0 -129 122 -171q41 -14 95 -14q101 0 182 48t115 117v219h-172zM858 118q-138 -138 -316 -138t-282 91t-104 229q0 174 133 265t364 91h202v85q0 97 -69 155t-181 57q-112 0 -176 -50q-65 -50 -65 -121h-186q2 126 121 223t310 97
q299 0 398 -204q33 -68 33 -159v-503q0 -125 38 -220v-16h-193q-20 38 -27 118zM707 1484q0 78 -166 78l7 106q144 0 224 -50t79 -138q0 -130 -155 -152l-1 -71h-132l-1 153q71 5 108 19t37 55z" />
    <glyph glyph-name="uni1EA4" unicode="&#x1ea4;" 
d="M433 538h387l-192 632zM869 377h-486l-117 -377h-185l470 1456h155l462 -1456h-184zM1058 2030h199l-200 -259h-141zM548 1859h151l291 -262h-197l-169 158l-170 -158h-198z" />
    <glyph glyph-name="uni1EA5" unicode="&#x1ea5;" 
d="M683 525q-342 0 -342 -199q0 -129 122 -171q41 -14 95 -14q101 0 182 48t115 117v219h-172zM858 118q-138 -138 -316 -138t-282 91t-104 229q0 174 133 265t364 91h202v85q0 97 -69 155t-181 57q-112 0 -176 -50q-65 -50 -65 -121h-186q2 126 121 223t310 97
q299 0 398 -204q33 -68 33 -159v-503q0 -125 38 -220v-16h-193q-20 38 -27 118zM1054 1708h199l-200 -259h-141zM544 1537h151l291 -262h-197l-169 158l-170 -158h-198z" />
    <glyph glyph-name="uni1EA6" unicode="&#x1ea6;" 
d="M433 538h387l-192 632zM869 377h-486l-117 -377h-185l470 1456h155l462 -1456h-184zM337 1754h-140l-201 259h200zM997 1580h-197l-170 158l-170 -158h-196l290 262h152z" />
    <glyph glyph-name="uni1EA7" unicode="&#x1ea7;" 
d="M683 525q-342 0 -342 -199q0 -129 122 -171q41 -14 95 -14q101 0 182 48t115 117v219h-172zM858 118q-138 -138 -316 -138t-282 91t-104 229q0 174 133 265t364 91h202v85q0 97 -69 155t-181 57q-112 0 -176 -50q-65 -50 -65 -121h-186q2 126 121 223t310 97
q299 0 398 -204q33 -68 33 -159v-503q0 -125 38 -220v-16h-193q-20 38 -27 118zM333 1432h-140l-201 259h200zM993 1258h-197l-170 158l-170 -158h-196l290 262h152z" />
    <glyph glyph-name="uni1EA8" unicode="&#x1ea8;" 
d="M433 538h387l-192 632zM869 377h-486l-117 -377h-185l470 1456h155l462 -1456h-184zM1085 1893q0 67 -143 67l6 92q123 0 193 -43t70 -125q1 -82 -85 -113q-24 -9 -50 -12l-1 -60h-114l-1 131q61 4 93 16t32 47zM990 1561h-171l-198 186l-198 -186h-170l274 262h188z" />
    <glyph glyph-name="uni1EA9" unicode="&#x1ea9;" 
d="M683 525q-342 0 -342 -199q0 -129 122 -171q41 -14 95 -14q101 0 182 48t115 117v219h-172zM858 118q-138 -138 -316 -138t-282 91t-104 229q0 174 133 265t364 91h202v85q0 97 -69 155t-181 57q-112 0 -176 -50q-65 -50 -65 -121h-186q2 126 121 223t310 97
q299 0 398 -204q33 -68 33 -159v-503q0 -125 38 -220v-16h-193q-20 38 -27 118zM1082 1572q0 67 -143 67l6 92q123 0 193 -43t70 -125t-86 -113q-24 -9 -49 -12l-1 -60h-114l-1 131q61 5 93 17t32 46zM987 1240h-171l-198 186l-198 -186h-170l274 262h188z" />
    <glyph glyph-name="uni1EAA" unicode="&#x1eaa;" 
d="M433 538h387l-192 632zM869 377h-486l-117 -377h-185l470 1456h155l462 -1456h-184zM618 1933q-57 36 -84 36q-41 0 -68 -31q-26 -31 -26 -63l-77 19q0 69 47 124t101 55t97 -24q42 -24 66 -35t46 -11q38 0 64 29t26 63l77 -23q0 -68 -47 -121q-47 -54 -106 -54t-116 36z
M994 1562h-171l-197 176l-196 -176h-170l292 262h149z" />
    <glyph glyph-name="uni1EAB" unicode="&#x1eab;" 
d="M683 525q-342 0 -342 -199q0 -129 122 -171q41 -14 95 -14q101 0 182 48t115 117v219h-172zM858 118q-138 -138 -316 -138t-282 91t-104 229q0 174 133 265t364 91h202v85q0 97 -69 155t-181 57q-112 0 -176 -50q-65 -50 -65 -121h-186q2 126 121 223t310 97
q299 0 398 -204q33 -68 33 -159v-503q0 -125 38 -220v-16h-193q-20 38 -27 118zM614 1612q-57 36 -84 36q-41 0 -68 -31q-26 -31 -26 -63l-77 19q0 69 47 124t101 55t97 -24q42 -24 66 -35t46 -11q38 0 64 29t26 63l77 -23q0 -68 -47 -121q-47 -54 -106 -54t-116 36z
M990 1241h-171l-197 176l-196 -176h-170l292 262h149z" />
    <glyph glyph-name="uni1EAC" unicode="&#x1eac;" 
d="M433 538h387l-192 632zM869 377h-486l-117 -377h-185l470 1456h155l462 -1456h-184zM933 1599h-154l-150 151l-149 -151h-152v26l245 239h112l248 -240v-25zM518 -234q0 47 29 79t86 32t86 -32t29 -79q0 -46 -29 -78t-86 -32t-86 32t-29 78z" />
    <glyph glyph-name="uni1EAD" unicode="&#x1ead;" 
d="M683 525q-342 0 -342 -199q0 -129 122 -171q41 -14 95 -14q101 0 182 48t115 117v219h-172zM858 118q-138 -138 -316 -138t-282 91t-104 229q0 174 133 265t364 91h202v85q0 97 -69 155t-181 57q-112 0 -176 -50q-65 -50 -65 -121h-186q2 126 121 223t310 97
q299 0 398 -204q33 -68 33 -159v-503q0 -125 38 -220v-16h-193q-20 38 -27 118zM929 1277h-154l-150 151l-149 -151h-152v26l245 239h112l248 -240v-25zM458 -234q0 47 29 79t86 32t86 -32t29 -79q0 -46 -29 -78t-86 -32t-86 32t-29 78z" />
    <glyph glyph-name="uni1EAE" unicode="&#x1eae;" 
d="M433 538h387l-192 632zM869 377h-486l-117 -377h-185l470 1456h155l462 -1456h-184zM680 2014h153l-164 -198h-102zM474 1796q0 -116 170 -116q58 0 94 34t37 82h153q0 -93 -83 -151t-219 -58q-211 -1 -282 123q-22 38 -22 86h152z" />
    <glyph glyph-name="uni1EAF" unicode="&#x1eaf;" 
d="M683 525q-342 0 -342 -199q0 -129 122 -171q41 -14 95 -14q101 0 182 48t115 117v219h-172zM858 118q-138 -138 -316 -138t-282 91t-104 229q0 174 133 265t364 91h202v85q0 97 -69 155t-181 57q-112 0 -176 -50q-65 -50 -65 -121h-186q2 126 121 223t310 97
q299 0 398 -204q33 -68 33 -159v-503q0 -125 38 -220v-16h-193q-20 38 -27 118zM676 1692h153l-164 -198h-102zM470 1474q0 -116 170 -116q58 0 94 34t37 82h153q0 -93 -83 -151t-219 -58q-211 -1 -282 123q-22 38 -22 86h152z" />
    <glyph glyph-name="uni1EB0" unicode="&#x1eb0;" 
d="M433 538h387l-192 632zM869 377h-486l-117 -377h-185l470 1456h155l462 -1456h-184zM709 1875h-151l-210 206h216zM943 1834q0 -118 -88 -192q-89 -74 -231 -74q-143 0 -230 73t-87 193h149q0 -102 93 -136q31 -12 75 -12q84 0 126 42t42 106h151z" />
    </font>
</defs>
</svg>
