<?xml version="1.0" encoding="utf-8"?>
<!-- Generator: Adobe Illustrator 22.0.1, SVG Export Plug-In . SVG Version: 6.00 Build 0)  -->
<svg version="1.1" id="Layer_1" xmlns="http://www.w3.org/2000/svg" xmlns:xlink="http://www.w3.org/1999/xlink" x="0px" y="0px"
	 viewBox="0 0 96 96" style="enable-background:new 0 0 96 96;" xml:space="preserve">
<style type="text/css">
	.st0{fill:none;stroke:#000000;stroke-width:8;stroke-miterlimit:10;}
	.st1{fill:none;stroke:#000000;stroke-width:6;stroke-miterlimit:10;}
	.st2{fill:none;stroke:#000000;stroke-width:4;stroke-miterlimit:10;}
	.st3{fill:none;stroke:#FFFFFF;stroke-width:8;stroke-miterlimit:10;}
	.st4{fill:none;stroke:#000000;stroke-width:8;stroke-linecap:round;stroke-linejoin:round;stroke-miterlimit:10;}
	.st5{fill:none;stroke:#000000;stroke-width:12;stroke-linecap:round;stroke-linejoin:round;stroke-miterlimit:10;}
	.st6{fill:none;stroke:#FFFFFF;stroke-width:6;stroke-miterlimit:10;}
	.st7{fill:none;stroke:#000000;stroke-width:10;stroke-miterlimit:10;}
	.st8{fill:none;stroke:#000000;stroke-width:10;stroke-miterlimit:10;stroke-dasharray:9.4223,9.4223;}
	.st9{fill:none;stroke:#000000;stroke-width:8;stroke-miterlimit:10;stroke-dasharray:9.4223,9.4223;}
	.st10{fill:none;stroke:#000000;stroke-width:6;stroke-miterlimit:10;stroke-dasharray:9.4223,9.4223;}
	.st11{fill:none;stroke:#000000;stroke-width:4;stroke-miterlimit:10;stroke-dasharray:9.4223,9.4223;}
</style>
<g>
	<path d="M54,30.7c0.7-0.4,1.5-0.8,2.3-1.2l-3.1-7.4c-1.9,0.8-3.6,1.7-5.2,2.9c-4.5-3.2-10-5-16-5C16.6,20,4,32.6,4,48
		s12.6,28,28,28s28-12.6,28-28C60,41.5,57.7,35.5,54,30.7z M48,60c-1-1.3-1.8-2.7-2.5-4.3l-7.4,3.1c1,2.4,2.3,4.5,3.8,6.5
		C39,67,35.6,68,32,68c-11,0-20-9-20-20s9-20,20-20s20,9,20,20C52,52.5,50.5,56.6,48,60z"/>
	<path d="M89.8,37.2c-1.4-3.4-3.5-6.4-6.1-9.1l-5.6,5.7c1.9,1.9,3.3,4,4.4,6.5L89.8,37.2z"/>
	<path d="M36,48L36,48h8c0-2.6,0.5-5.2,1.5-7.6l-7.4-3C36.7,40.7,36,44.3,36,48z"/>
	<path d="M56.4,66.5l-3.1,7.4c3.4,1.4,7,2.1,10.7,2.1l0,0v-4.2l0.4-3.8L64,68C61.4,68,58.8,67.5,56.4,66.5z"/>
	<path d="M64,20L64,20v8c2.6,0,5.2,0.5,7.6,1.5l3-7.4C71.3,20.7,67.7,20,64,20z"/>
	<path d="M84,48c0,2.7-0.5,5.2-1.5,7.6l7.4,3.1c1.4-3.4,2.1-7,2.1-10.7v-0.1L84,48z"/>
	<path d="M71.7,66.5l3.1,7.4c3.4-1.4,6.5-3.5,9.1-6.1l-5.7-5.7C76.3,64,74.1,65.5,71.7,66.5z"/>
</g>
</svg>
