<?xml version="1.0" encoding="utf-8"?>
<!-- Generator: Adobe Illustrator 22.0.1, SVG Export Plug-In . SVG Version: 6.00 Build 0)  -->
<svg version="1.1" id="Layer_1" xmlns="http://www.w3.org/2000/svg" xmlns:xlink="http://www.w3.org/1999/xlink" x="0px" y="0px"
	 viewBox="0 0 96 96" style="enable-background:new 0 0 96 96;" xml:space="preserve">
<style type="text/css">
	.st0{fill:none;stroke:#000000;stroke-width:8;stroke-miterlimit:10;}
	.st1{fill:none;stroke:#000000;stroke-width:6;stroke-miterlimit:10;}
	.st2{fill:none;stroke:#000000;stroke-width:4;stroke-miterlimit:10;}
	.st3{fill:none;stroke:#FFFFFF;stroke-width:8;stroke-miterlimit:10;}
	.st4{fill:none;stroke:#000000;stroke-width:8;stroke-linecap:round;stroke-linejoin:round;stroke-miterlimit:10;}
	.st5{fill:none;stroke:#000000;stroke-width:12;stroke-linecap:round;stroke-linejoin:round;stroke-miterlimit:10;}
	.st6{fill:none;stroke:#FFFFFF;stroke-width:6;stroke-miterlimit:10;}
	.st7{fill:none;stroke:#000000;stroke-width:10;stroke-miterlimit:10;}
	.st8{fill:none;stroke:#000000;stroke-width:10;stroke-miterlimit:10;stroke-dasharray:9.4223,9.4223;}
	.st9{fill:none;stroke:#000000;stroke-width:8;stroke-miterlimit:10;stroke-dasharray:9.4223,9.4223;}
	.st10{fill:none;stroke:#000000;stroke-width:6;stroke-miterlimit:10;stroke-dasharray:9.4223,9.4223;}
	.st11{fill:none;stroke:#000000;stroke-width:4;stroke-miterlimit:10;stroke-dasharray:9.4223,9.4223;}
</style>
<path d="M48.2,84.6l-2-1C45,83,17.1,68.7,17.1,42.9C17.1,25.9,30.9,12,48,12s30.9,13.9,30.9,30.9c0,22.2-27.7,39.7-28.8,40.4
	L48.2,84.6z M48,20c-12.7,0-22.9,10.3-22.9,22.9c0,17.3,16.9,28.9,22.7,32.4c5.9-4.1,23.1-17.6,23.1-32.4C70.9,30.3,60.7,20,48,20z"
	/>
<path d="M48,51c-0.5,0-0.9,0-1.4-0.1c-0.4-0.1-0.9-0.2-1.3-0.4c-0.4-0.2-0.8-0.4-1.2-0.6c-0.4-0.3-0.7-0.5-1.1-0.9
	c-0.3-0.3-0.6-0.7-0.9-1.1s-0.5-0.8-0.6-1.2c-0.2-0.4-0.3-0.9-0.4-1.3C41,44.9,41,44.5,41,44c0-1.8,0.8-3.7,2-5
	c0.3-0.3,0.7-0.6,1.1-0.9c0.4-0.2,0.8-0.5,1.2-0.6c0.4-0.2,0.9-0.3,1.3-0.4c2.3-0.5,4.7,0.3,6.3,1.9c1.3,1.3,2,3.1,2,5
	c0,0.5,0,0.9-0.1,1.4c-0.1,0.4-0.2,0.9-0.4,1.3c-0.2,0.4-0.4,0.8-0.6,1.2c-0.3,0.4-0.5,0.7-0.9,1.1C51.6,50.2,49.8,51,48,51z"/>
</svg>
