<?xml version="1.0" encoding="utf-8"?>
<!-- Generator: Adobe Illustrator 22.0.1, SVG Export Plug-In . SVG Version: 6.00 Build 0)  -->
<svg version="1.1" id="Layer_1" xmlns="http://www.w3.org/2000/svg" xmlns:xlink="http://www.w3.org/1999/xlink" x="0px" y="0px"
	 viewBox="0 0 96 96" style="enable-background:new 0 0 96 96;" xml:space="preserve">
<style type="text/css">
	.st0{fill:none;stroke:#000000;stroke-width:8;stroke-miterlimit:10;}
	.st1{fill:none;stroke:#000000;stroke-width:6;stroke-miterlimit:10;}
	.st2{fill:none;stroke:#000000;stroke-width:4;stroke-miterlimit:10;}
	.st3{fill:none;stroke:#FFFFFF;stroke-width:8;stroke-miterlimit:10;}
	.st4{fill:none;stroke:#000000;stroke-width:8;stroke-linecap:round;stroke-linejoin:round;stroke-miterlimit:10;}
	.st5{fill:none;stroke:#000000;stroke-width:12;stroke-linecap:round;stroke-linejoin:round;stroke-miterlimit:10;}
	.st6{fill:none;stroke:#FFFFFF;stroke-width:6;stroke-miterlimit:10;}
	.st7{fill:none;stroke:#000000;stroke-width:10;stroke-miterlimit:10;}
</style>
<g>
	<path d="M28.2,29l-1.7-8H10l1.3,6h10.3l6.1,27.9c0.6,2.3,2,4.3,4.1,5.5c1.4,0.9,3,1.3,4.6,1.3c0.7,0,1.5-0.1,2.2-0.3L76.2,52
		c4-1,6.8-4.6,6.8-8.7V29H28.2z M77,43.3c0,1.4-0.9,2.6-2.3,2.9l-37.6,9.4c-0.8,0.2-1.6,0.1-2.3-0.3c-0.7-0.4-1.2-1.1-1.3-1.8
		l-4-18.5H77V43.3z"/>
	<path d="M41.5,69.7c-0.2-0.4-0.3-0.7-0.5-1c-0.2-0.3-0.5-0.6-0.8-0.9C39.1,66.6,37.6,66,36,66s-3.1,0.6-4.2,1.8
		c-0.3,0.3-0.5,0.6-0.8,0.9c-0.2,0.3-0.4,0.7-0.5,1c-0.2,0.4-0.3,0.7-0.3,1.1C30,71.2,30,71.6,30,72c0,1.6,0.6,3.1,1.8,4.2
		c0.3,0.3,0.6,0.5,0.9,0.8c0.3,0.2,0.7,0.4,1,0.5c0.4,0.1,0.7,0.3,1.1,0.3C35.2,78,35.6,78,36,78c1.6,0,3.1-0.6,4.2-1.8
		c1.1-1.1,1.8-2.7,1.8-4.2c0-0.4,0-0.8-0.1-1.2C41.8,70.4,41.7,70.1,41.5,69.7z"/>
	<path d="M61.5,69.7c-0.2-0.4-0.3-0.7-0.5-1c-0.2-0.3-0.5-0.6-0.8-0.9C59.1,66.6,57.6,66,56,66s-3.1,0.6-4.2,1.8
		c-0.3,0.3-0.5,0.6-0.8,0.9c-0.2,0.3-0.4,0.7-0.5,1c-0.2,0.4-0.3,0.7-0.3,1.1C50,71.2,50,71.6,50,72c0,0.4,0,0.8,0.1,1.2
		c0.1,0.4,0.2,0.8,0.3,1.1c0.1,0.4,0.3,0.7,0.5,1c0.2,0.3,0.5,0.6,0.8,0.9c0.3,0.3,0.6,0.5,0.9,0.8c0.3,0.2,0.7,0.4,1,0.5
		c0.4,0.1,0.7,0.3,1.1,0.3C55.2,78,55.6,78,56,78c0.4,0,0.8,0,1.2-0.1c0.4-0.1,0.8-0.2,1.1-0.3c0.4-0.2,0.7-0.3,1-0.5
		c0.3-0.2,0.6-0.5,0.9-0.8c0.3-0.3,0.5-0.6,0.8-0.9c0.2-0.3,0.4-0.7,0.5-1c0.1-0.4,0.3-0.7,0.3-1.1C62,72.8,62,72.4,62,72
		c0-0.4,0-0.8-0.1-1.2C61.8,70.5,61.7,70.1,61.5,69.7z"/>
</g>
</svg>
