<?xml version="1.0" encoding="utf-8"?>
<!-- Generator: Adobe Illustrator 22.0.1, SVG Export Plug-In . SVG Version: 6.00 Build 0)  -->
<svg version="1.1" id="Layer_1" xmlns="http://www.w3.org/2000/svg" xmlns:xlink="http://www.w3.org/1999/xlink" x="0px" y="0px"
	 viewBox="0 0 96 96" style="enable-background:new 0 0 96 96;" xml:space="preserve">
<style type="text/css">
	.st0{fill:none;stroke:#000000;stroke-width:8;stroke-miterlimit:10;}
	.st1{fill:none;stroke:#000000;stroke-width:6;stroke-miterlimit:10;}
	.st2{fill:none;stroke:#000000;stroke-width:4;stroke-miterlimit:10;}
	.st3{fill:none;stroke:#FFFFFF;stroke-width:8;stroke-miterlimit:10;}
	.st4{fill:none;stroke:#000000;stroke-width:8;stroke-linecap:round;stroke-linejoin:round;stroke-miterlimit:10;}
	.st5{fill:none;stroke:#000000;stroke-width:12;stroke-linecap:round;stroke-linejoin:round;stroke-miterlimit:10;}
	.st6{fill:none;stroke:#FFFFFF;stroke-width:6;stroke-miterlimit:10;}
	.st7{fill:none;stroke:#000000;stroke-width:10;stroke-miterlimit:10;}
	.st8{fill:none;stroke:#000000;stroke-width:10;stroke-miterlimit:10;stroke-dasharray:9.4223,9.4223;}
	.st9{fill:none;stroke:#000000;stroke-width:8;stroke-miterlimit:10;stroke-dasharray:9.4223,9.4223;}
	.st10{fill:none;stroke:#000000;stroke-width:6;stroke-miterlimit:10;stroke-dasharray:9.4223,9.4223;}
	.st11{fill:none;stroke:#000000;stroke-width:4;stroke-miterlimit:10;stroke-dasharray:9.4223,9.4223;}
</style>
<g>
	<path d="M52.5,30.4c1.1-0.7,2.2-1.3,3.4-1.8l-2.3-5.5c-2,0.8-3.9,1.9-5.6,3.2C43.5,23,38,21,32,21C17.1,21,5,33.1,5,48
		s12.1,27,27,27s27-12.1,27-27C59,41.3,56.5,35.2,52.5,30.4z M48,61.6c-1.4-1.7-2.5-3.5-3.4-5.5l-5.5,2.3c1.1,2.6,2.6,5,4.4,7.2
		C40.2,67.7,36.2,69,32,69c-11.6,0-21-9.4-21-21s9.4-21,21-21s21,9.4,21,21C53,53.2,51.1,57.9,48,61.6z"/>
	<path d="M56,67.4L53.7,73c3.3,1.4,6.7,2,10.3,2l0,0v-3.2l0.3-2.8L64,69C61.2,69,58.5,68.5,56,67.4z"/>
	<path d="M37,48L37,48h6c0-2.8,0.5-5.5,1.6-8L39,37.7C37.7,41,37,44.4,37,48z"/>
	<path d="M83,28.8l-4.2,4.3c2,2,3.5,4.2,4.6,6.8l5.5-2.3C87.5,34.3,85.6,31.4,83,28.8z"/>
	<path d="M85,48c0,2.8-0.5,5.5-1.6,8l5.5,2.3c1.4-3.3,2-6.8,2-10.3v-0.1L85,48z"/>
	<path d="M64,21L64,21v6c2.8,0,5.4,0.5,8,1.6l2.3-5.6C71,21.7,67.5,21,64,21z"/>
	<path d="M72.1,67.4l2.3,5.5c3.3-1.4,6.2-3.3,8.7-5.9l-4.2-4.2C76.9,64.8,74.6,66.3,72.1,67.4z"/>
</g>
</svg>
