<?xml version="1.0" encoding="utf-8"?>
<!-- Generator: Adobe Illustrator 22.0.1, SVG Export Plug-In . SVG Version: 6.00 Build 0)  -->
<svg version="1.1" id="Layer_1" xmlns="http://www.w3.org/2000/svg" xmlns:xlink="http://www.w3.org/1999/xlink" x="0px" y="0px"
	 viewBox="0 0 96 96" style="enable-background:new 0 0 96 96;" xml:space="preserve">
<style type="text/css">
	.st0{fill:none;stroke:#000000;stroke-width:8;stroke-miterlimit:10;}
	.st1{fill:none;stroke:#000000;stroke-width:6;stroke-miterlimit:10;}
	.st2{fill:none;stroke:#000000;stroke-width:4;stroke-miterlimit:10;}
	.st3{fill:none;stroke:#FFFFFF;stroke-width:8;stroke-miterlimit:10;}
	.st4{fill:none;stroke:#000000;stroke-width:8;stroke-linecap:round;stroke-linejoin:round;stroke-miterlimit:10;}
	.st5{fill:none;stroke:#000000;stroke-width:12;stroke-linecap:round;stroke-linejoin:round;stroke-miterlimit:10;}
	.st6{fill:none;stroke:#FFFFFF;stroke-width:6;stroke-miterlimit:10;}
	.st7{fill:none;stroke:#000000;stroke-width:10;stroke-miterlimit:10;}
</style>
<path d="M48.2,83.4l-1.5-0.8c-0.3-0.1-7.2-3.6-14.2-10.2C23,63.7,18.1,53.4,18.1,42.9C18.1,26.4,31.5,13,48,13
	c16.5,0,29.9,13.4,29.9,29.9c0,21.6-27.2,38.9-28.4,39.6L48.2,83.4z M48,19c-13.2,0-23.9,10.7-23.9,23.9c0,18.4,18.4,30.4,23.8,33.5
	c5.4-3.7,24.1-17.8,24.1-33.5C71.9,29.7,61.2,19,48,19z"/>
<path d="M48,49c-0.3,0-0.7,0-1-0.1c-0.3-0.1-0.6-0.2-0.9-0.3c-0.3-0.1-0.6-0.3-0.9-0.5c-0.3-0.2-0.5-0.4-0.8-0.6
	c-0.2-0.2-0.5-0.5-0.6-0.8c-0.2-0.3-0.3-0.6-0.5-0.9c-0.1-0.3-0.2-0.6-0.3-0.9C43,44.6,43,44.3,43,44s0-0.7,0.1-1
	c0.1-0.3,0.2-0.6,0.3-0.9c0.1-0.3,0.3-0.6,0.5-0.9c0.2-0.3,0.4-0.5,0.6-0.8c0.2-0.2,0.5-0.4,0.8-0.6c0.3-0.2,0.6-0.3,0.9-0.5
	c0.3-0.1,0.6-0.2,0.9-0.3c0.7-0.1,1.3-0.1,2,0c0.3,0.1,0.6,0.2,0.9,0.3c0.3,0.1,0.6,0.3,0.9,0.5c0.3,0.2,0.5,0.4,0.8,0.6
	c0.2,0.2,0.4,0.5,0.6,0.8c0.2,0.3,0.3,0.6,0.5,0.9c0.1,0.3,0.2,0.6,0.3,0.9c0.1,0.3,0.1,0.7,0.1,1c0,1.3-0.5,2.6-1.5,3.5
	c-0.2,0.2-0.5,0.4-0.8,0.6c-0.3,0.2-0.6,0.3-0.9,0.5c-0.3,0.1-0.6,0.2-0.9,0.3C48.6,49,48.3,49,48,49z"/>
</svg>
