<?xml version="1.0" encoding="utf-8"?>
<!-- Generator: Adobe Illustrator 22.0.1, SVG Export Plug-In . SVG Version: 6.00 Build 0)  -->
<svg version="1.1" id="Layer_1" xmlns="http://www.w3.org/2000/svg" xmlns:xlink="http://www.w3.org/1999/xlink" x="0px" y="0px"
	 viewBox="0 0 96 96" style="enable-background:new 0 0 96 96;" xml:space="preserve">
<style type="text/css">
	.st0{fill:none;stroke:#000000;stroke-width:8;stroke-miterlimit:10;}
	.st1{fill:none;stroke:#000000;stroke-width:6;stroke-miterlimit:10;}
	.st2{fill:none;stroke:#000000;stroke-width:4;stroke-miterlimit:10;}
	.st3{fill:none;stroke:#FFFFFF;stroke-width:8;stroke-miterlimit:10;}
	.st4{fill:none;stroke:#000000;stroke-width:8;stroke-linecap:round;stroke-linejoin:round;stroke-miterlimit:10;}
	.st5{fill:none;stroke:#000000;stroke-width:12;stroke-linecap:round;stroke-linejoin:round;stroke-miterlimit:10;}
	.st6{fill:none;stroke:#FFFFFF;stroke-width:6;stroke-miterlimit:10;}
	.st7{fill:none;stroke:#000000;stroke-width:10;stroke-miterlimit:10;}
	.st8{fill:none;stroke:#000000;stroke-width:10;stroke-miterlimit:10;stroke-dasharray:9.4223,9.4223;}
	.st9{fill:none;stroke:#000000;stroke-width:8;stroke-miterlimit:10;stroke-dasharray:9.4223,9.4223;}
	.st10{fill:none;stroke:#000000;stroke-width:6;stroke-miterlimit:10;stroke-dasharray:9.4223,9.4223;}
	.st11{fill:none;stroke:#000000;stroke-width:4;stroke-miterlimit:10;stroke-dasharray:9.4223,9.4223;}
</style>
<g>
	<path d="M55.5,31c0.4-0.2,0.8-0.4,1.2-0.6l-3.9-9.2c-1.7,0.7-3.3,1.6-4.8,2.6c-4.6-3-10.1-4.8-16-4.8C16,19,3,32,3,48s13,29,29,29
		s29-13,29-29C61,41.7,59,35.8,55.5,31z M48,58.2c-0.6-0.9-1.1-1.9-1.5-2.9l-9.2,3.8c0.9,2.1,2,4,3.3,5.8c-2.6,1.3-5.4,2-8.5,2
		c-10.5,0-19-8.5-19-19s8.5-19,19-19s19,8.5,19,19C51,51.8,49.9,55.3,48,58.2z"/>
	<path d="M90.8,36.8c-1.5-3.5-3.6-6.7-6.3-9.4l-7,7.1c1.8,1.8,3.2,3.8,4.1,6.1L90.8,36.8z"/>
	<path d="M35,48L35,48h10c0-2.5,0.5-4.9,1.4-7.2L37.2,37C35.7,40.5,35,44.2,35,48z"/>
	<path d="M56.8,65.6l-3.8,9.2C56.4,76.3,60.2,77,64,77h0l0-10C61.5,67,59,66.5,56.8,65.6z"/>
	<path d="M64,19L64,19v10c2.5,0,4.9,0.5,7.2,1.4l3.8-9.2C71.5,19.7,67.8,19,64,19z"/>
	<path d="M83,48c0,2.5-0.5,5-1.4,7.3l9.2,3.8C92.3,55.6,93,51.8,93,48v-0.1L83,48z"/>
	<path d="M71.3,65.6l3.8,9.2c3.5-1.5,6.7-3.6,9.4-6.3l-7.1-7.1C75.7,63.2,73.6,64.6,71.3,65.6z"/>
</g>
</svg>
