<?xml version="1.0" encoding="utf-8"?>
<!-- Generator: Adobe Illustrator 22.0.1, SVG Export Plug-In . SVG Version: 6.00 Build 0)  -->
<svg version="1.1" id="Layer_1" xmlns="http://www.w3.org/2000/svg" xmlns:xlink="http://www.w3.org/1999/xlink" x="0px" y="0px"
	 viewBox="0 0 96 96" style="enable-background:new 0 0 96 96;" xml:space="preserve">
<style type="text/css">
	.st0{fill:none;stroke:#000000;stroke-width:8;stroke-miterlimit:10;}
	.st1{fill:none;stroke:#000000;stroke-width:6;stroke-miterlimit:10;}
	.st2{fill:none;stroke:#000000;stroke-width:4;stroke-miterlimit:10;}
	.st3{fill:none;stroke:#FFFFFF;stroke-width:8;stroke-miterlimit:10;}
	.st4{fill:none;stroke:#000000;stroke-width:8;stroke-linecap:round;stroke-linejoin:round;stroke-miterlimit:10;}
	.st5{fill:none;stroke:#000000;stroke-width:12;stroke-linecap:round;stroke-linejoin:round;stroke-miterlimit:10;}
	.st6{fill:none;stroke:#FFFFFF;stroke-width:6;stroke-miterlimit:10;}
	.st7{fill:none;stroke:#000000;stroke-width:10;stroke-miterlimit:10;}
</style>
<path d="M48.3,85.7l-2.5-1.3c-1.2-0.6-29.7-15.2-29.7-41.5C16.1,25.3,30.4,11,48,11c17.6,0,31.9,14.3,31.9,31.9
	c0,22.7-28.1,40.5-29.3,41.3L48.3,85.7z M48,21c-12.1,0-21.9,9.8-21.9,21.9c0,16.2,15.5,27.4,21.7,31.2c2.4-1.7,6.4-4.8,10.3-8.7
	c5.4-5.4,11.9-13.8,11.9-22.4C69.9,30.8,60.1,21,48,21z"/>
<path d="M48,52c-0.5,0-1-0.1-1.6-0.2c-0.5-0.1-1-0.2-1.5-0.5c-0.5-0.2-0.9-0.4-1.4-0.7c-0.4-0.3-0.8-0.6-1.2-1
	c-0.4-0.4-0.7-0.8-1-1.2c-0.3-0.4-0.5-0.9-0.7-1.4c-0.2-0.5-0.3-1-0.4-1.5C40,45,40,44.5,40,44c0-2.1,0.8-4.2,2.3-5.7
	c0.4-0.4,0.8-0.7,1.2-1c0.4-0.3,0.9-0.5,1.4-0.7c0.5-0.2,1-0.4,1.5-0.5c1-0.2,2.1-0.2,3.1,0c0.5,0.1,1,0.2,1.5,0.5
	c0.5,0.2,1,0.5,1.4,0.7c0.4,0.3,0.9,0.6,1.2,1c1.5,1.5,2.3,3.5,2.3,5.7c0,0.5,0,1-0.2,1.6c-0.1,0.5-0.2,1-0.5,1.5
	c-0.2,0.5-0.5,0.9-0.7,1.4c-0.3,0.4-0.6,0.9-1,1.2c-0.4,0.4-0.8,0.7-1.2,1c-0.4,0.3-0.9,0.5-1.4,0.7c-0.5,0.2-1,0.4-1.5,0.5
	C49,51.9,48.5,52,48,52z"/>
</svg>
