<?xml version="1.0" encoding="utf-8"?>
<!-- Generator: Adobe Illustrator 22.0.1, SVG Export Plug-In . SVG Version: 6.00 Build 0)  -->
<svg version="1.1" id="Layer_1" xmlns="http://www.w3.org/2000/svg" xmlns:xlink="http://www.w3.org/1999/xlink" x="0px" y="0px"
	 viewBox="0 0 96 96" style="enable-background:new 0 0 96 96;" xml:space="preserve">
<style type="text/css">
	.st0{fill:none;stroke:#000000;stroke-width:8;stroke-miterlimit:10;}
	.st1{fill:none;stroke:#000000;stroke-width:6;stroke-miterlimit:10;}
	.st2{fill:none;stroke:#000000;stroke-width:4;stroke-miterlimit:10;}
	.st3{fill:none;stroke:#FFFFFF;stroke-width:8;stroke-miterlimit:10;}
	.st4{fill:none;stroke:#000000;stroke-width:8;stroke-linecap:round;stroke-linejoin:round;stroke-miterlimit:10;}
	.st5{fill:none;stroke:#000000;stroke-width:12;stroke-linecap:round;stroke-linejoin:round;stroke-miterlimit:10;}
	.st6{fill:none;stroke:#FFFFFF;stroke-width:6;stroke-miterlimit:10;}
	.st7{fill:none;stroke:#000000;stroke-width:10;stroke-miterlimit:10;}
	.st8{fill:none;stroke:#000000;stroke-width:10;stroke-miterlimit:10;stroke-dasharray:9.4223,9.4223;}
	.st9{fill:none;stroke:#000000;stroke-width:8;stroke-miterlimit:10;stroke-dasharray:9.4223,9.4223;}
	.st10{fill:none;stroke:#000000;stroke-width:6;stroke-miterlimit:10;stroke-dasharray:9.4223,9.4223;}
	.st11{fill:none;stroke:#000000;stroke-width:4;stroke-miterlimit:10;stroke-dasharray:9.4223,9.4223;}
</style>
<path d="M29,28l-1.7-8H10.8l1.8,8h8.2l5.9,27l0,0.1c0.6,2.4,2,4.4,3.9,5.7L20.5,76H64v-8H35.5l3.8-5.7L76.4,53
	c4.5-1.1,7.6-5.1,7.6-9.7V28H29z M76,43.3c0,0.9-0.6,1.7-1.5,1.9l-37.6,9.4c-0.7,0.2-1.2-0.1-1.5-0.2c-0.3-0.2-0.7-0.5-0.9-1.2
	L30.7,36H76V43.3z"/>
</svg>
