<?xml version="1.0" encoding="utf-8"?>
<!-- Generator: Adobe Illustrator 22.0.1, SVG Export Plug-In . SVG Version: 6.00 Build 0)  -->
<svg version="1.1" id="Layer_1" xmlns="http://www.w3.org/2000/svg" xmlns:xlink="http://www.w3.org/1999/xlink" x="0px" y="0px"
	 viewBox="0 0 96 96" style="enable-background:new 0 0 96 96;" xml:space="preserve">
<style type="text/css">
	.st0{fill:none;stroke:#000000;stroke-width:8;stroke-miterlimit:10;}
	.st1{fill:none;stroke:#000000;stroke-width:6;stroke-miterlimit:10;}
	.st2{fill:none;stroke:#000000;stroke-width:4;stroke-miterlimit:10;}
	.st3{fill:none;stroke:#FFFFFF;stroke-width:8;stroke-miterlimit:10;}
	.st4{fill:none;stroke:#000000;stroke-width:8;stroke-linecap:round;stroke-linejoin:round;stroke-miterlimit:10;}
	.st5{fill:none;stroke:#000000;stroke-width:12;stroke-linecap:round;stroke-linejoin:round;stroke-miterlimit:10;}
	.st6{fill:none;stroke:#FFFFFF;stroke-width:6;stroke-miterlimit:10;}
	.st7{fill:none;stroke:#000000;stroke-width:10;stroke-miterlimit:10;}
	.st8{fill:none;stroke:#000000;stroke-width:10;stroke-miterlimit:10;stroke-dasharray:9.4223,9.4223;}
	.st9{fill:none;stroke:#000000;stroke-width:8;stroke-miterlimit:10;stroke-dasharray:9.4223,9.4223;}
	.st10{fill:none;stroke:#000000;stroke-width:6;stroke-miterlimit:10;stroke-dasharray:9.4223,9.4223;}
	.st11{fill:none;stroke:#000000;stroke-width:4;stroke-miterlimit:10;stroke-dasharray:9.4223,9.4223;}
</style>
<g>
	<path d="M29,28l-1.7-8H10.8l1.8,8h8.2l5.9,27l0,0.1c1.1,4.5,5.2,7.6,9.7,7.6c0.8,0,1.6-0.1,2.4-0.3L76.4,53
		c4.5-1.1,7.6-5.1,7.6-9.7V28H29z M76,43.3c0,0.9-0.6,1.7-1.5,1.9l-37.6,9.4c-0.7,0.2-1.2-0.1-1.5-0.2c-0.3-0.2-0.7-0.5-0.9-1.2
		L30.7,36H76V43.3z"/>
	<path d="M45.5,69.7c-0.2-0.4-0.3-0.7-0.5-1c-0.2-0.3-0.5-0.6-0.8-0.9c-1.4-1.4-3.5-2-5.4-1.6c-0.4,0.1-0.8,0.2-1.1,0.3
		c-0.4,0.1-0.7,0.3-1,0.5c-0.3,0.2-0.6,0.5-0.9,0.8C34.6,68.9,34,70.4,34,72c0,1.6,0.6,3.1,1.8,4.2c0.3,0.3,0.6,0.5,0.9,0.8
		c0.3,0.2,0.7,0.4,1,0.6c0.4,0.1,0.7,0.3,1.1,0.3C39.2,78,39.6,78,40,78c1.6,0,3.1-0.6,4.2-1.8c1.1-1.1,1.8-2.7,1.8-4.2
		c0-0.4,0-0.8-0.1-1.2C45.8,70.4,45.7,70.1,45.5,69.7z"/>
	<path d="M63.3,67c-0.3-0.2-0.7-0.4-1-0.5c-0.4-0.1-0.7-0.3-1.1-0.3c-0.8-0.2-1.6-0.2-2.3,0c-0.4,0.1-0.8,0.2-1.1,0.3
		c-0.4,0.1-0.7,0.3-1,0.5c-0.3,0.2-0.6,0.5-0.9,0.8C54.6,68.9,54,70.4,54,72c0,0.4,0,0.8,0.1,1.2c0.1,0.4,0.2,0.8,0.3,1.1
		c0.1,0.4,0.3,0.7,0.5,1c0.2,0.3,0.5,0.6,0.8,0.9c0.3,0.3,0.6,0.5,0.9,0.8c0.3,0.2,0.7,0.4,1,0.6c0.4,0.1,0.7,0.3,1.1,0.3
		C59.2,78,59.6,78,60,78c0.4,0,0.8,0,1.2-0.1c0.4-0.1,0.8-0.2,1.1-0.3c0.4-0.2,0.7-0.3,1-0.6c0.3-0.2,0.6-0.5,0.9-0.8
		c0.3-0.3,0.5-0.6,0.8-0.9c0.2-0.3,0.4-0.7,0.5-1c0.1-0.4,0.3-0.7,0.3-1.1C66,72.8,66,72.4,66,72c0-1.6-0.6-3.1-1.8-4.2
		C64,67.5,63.7,67.2,63.3,67z"/>
</g>
</svg>
